<?xml version="1.0" encoding="utf-8"?>
<!-- Generator: Adobe Illustrator 27.0.0, SVG Export Plug-In . SVG Version: 6.00 Build 0)  -->
<svg version="1.1" id="Layer_1" xmlns="http://www.w3.org/2000/svg" xmlns:xlink="http://www.w3.org/1999/xlink" x="0px" y="0px"
	 viewBox="0 0 600 1200" style="enable-background:new 0 0 600 1200;" xml:space="preserve">
<style type="text/css">
	.st0{fill:#7E848D;}
</style>
<g>
	<g>
		<path class="st0" d="M243.9,531.8c0,0,16.8-2.4,28.2,8c9.6,8.8,28,17.8,38.1,18c7.5,0.2,11,1.2,25.3-6.4
			c12.5-6.6,23.8-6.1,32.4-6.8l0.2,5c-23.3-1-47.2,33.9-52.5,41.1c-5.4,7.2-9.1,6.3-9.1,6.3h-3c-2.4,0.2-26.3-43.9-37.9-53.4
			c-11.6-9.5-23.4-7.3-23.4-7.3L243.9,531.8z"/>
		<path d="M306.9,597.7c-0.2,0-0.4,0-0.5,0h-2.9c-1.1,0.1-3.3-3.2-11.6-16.5c-8.3-13.3-19.7-31.4-26.5-37c-11.2-9.2-22.9-7.2-23-7.2
			c-0.2,0-0.4,0-0.5-0.2c-0.1-0.1-0.2-0.3-0.1-0.5l1.6-4.6c0.1-0.2,0.2-0.3,0.4-0.3c0.2,0,17.2-2.3,28.6,8.2
			c9.9,9,28.2,17.7,37.8,17.9c0.8,0,1.5,0,2.2,0.1c6.1,0.2,10.1,0.3,22.9-6.4c10.5-5.6,20.3-6.1,28.1-6.6c1.6-0.1,3.1-0.2,4.5-0.3
			c0.1,0,0.3,0,0.4,0.1s0.2,0.2,0.2,0.4l0.2,5c0,0.1,0,0.3-0.1,0.4c-0.1,0.1-0.2,0.2-0.4,0.1c-21.7-0.9-43.7,29.4-50.9,39.3
			c-0.4,0.6-0.8,1.1-1.2,1.6C311.7,597.1,308.2,597.7,306.9,597.7z M306.5,596.7c0,0,0.1,0,0.1,0c0,0,3.6,0.7,8.6-6.1
			c0.3-0.4,0.7-1,1.1-1.6c7.3-10,29.2-40.2,51.2-39.8l-0.2-4c-1.3,0.1-2.6,0.2-4,0.3c-7.7,0.4-17.3,1-27.7,6.4
			c-13,6.9-17.1,6.7-23.4,6.5c-0.7,0-1.4,0-2.2-0.1c-9.9-0.2-28.2-8.8-38.4-18.1c-10.3-9.4-25.2-8.2-27.5-7.9l-1.3,3.6
			c2.9-0.3,13.1-0.6,23,7.5c7,5.7,18.4,24,26.8,37.3c4.8,7.7,9.8,15.6,10.8,16L306.5,596.7z"/>
	</g>
	<path d="M306.9,597.7c-0.2,0-0.4,0-0.5,0h-2.9c-1.1,0.1-3.3-3.2-11.6-16.5c-8.3-13.3-19.7-31.4-26.5-37c-11.2-9.2-22.9-7.2-23-7.2
		c-0.2,0-0.4,0-0.5-0.2c-0.1-0.1-0.2-0.3-0.1-0.5l1.6-4.6c0.1-0.2,0.2-0.3,0.4-0.3c0.2,0,17.2-2.3,28.6,8.2
		c9.9,9,28.2,17.7,37.8,17.9c0.8,0,1.5,0,2.2,0.1c6.1,0.2,10.1,0.3,22.9-6.4c10.5-5.6,20.3-6.1,28.1-6.6c1.6-0.1,3.1-0.2,4.5-0.3
		c0.1,0,0.3,0,0.4,0.1s0.2,0.2,0.2,0.4l0.2,5c0,0.1,0,0.3-0.1,0.4c-0.1,0.1-0.2,0.2-0.4,0.1c-21.7-0.9-43.7,29.4-50.9,39.3
		c-0.4,0.6-0.8,1.1-1.2,1.6C311.7,597.1,308.2,597.7,306.9,597.7z M306.5,596.7c0,0,0.1,0,0.1,0c0,0,3.6,0.7,8.6-6.1
		c0.3-0.4,0.7-1,1.1-1.6c7.3-10,29.2-40.2,51.2-39.8l-0.2-4c-1.3,0.1-2.6,0.2-4,0.3c-7.7,0.4-17.3,1-27.7,6.4
		c-13,6.9-17.1,6.7-23.4,6.5c-0.7,0-1.4,0-2.2-0.1c-9.9-0.2-28.2-8.8-38.4-18.1c-10.3-9.4-25.2-8.2-27.5-7.9l-1.3,3.6
		c2.9-0.3,13.1-0.6,23,7.5c7,5.7,18.4,24,26.8,37.3c4.8,7.7,9.8,15.6,10.8,16L306.5,596.7z"/>
</g>
</svg>
