<?xml version="1.0" encoding="utf-8"?>
<!-- Generator: Adobe Illustrator 27.0.0, SVG Export Plug-In . SVG Version: 6.00 Build 0)  -->
<svg version="1.1" id="Layer_1" xmlns="http://www.w3.org/2000/svg" xmlns:xlink="http://www.w3.org/1999/xlink" x="0px" y="0px"
	 viewBox="0 0 600 1200" style="enable-background:new 0 0 600 1200;" xml:space="preserve">
<style type="text/css">
	.st0{fill:#DEDEE2;stroke:#000000;stroke-linecap:round;stroke-linejoin:round;stroke-miterlimit:10;}
</style>
<path class="st0" d="M274,373.6c0.1,0,0.2,0,0.4,0c0.8-0.2,1.3-1,1.1-1.8l-5.6-23.1c-0.9,0.3-1.9,0.7-2.8,1.1l5.5,22.7
	C272.7,373.2,273.4,373.6,274,373.6z"/>
<path class="st0" d="M278,373.6C278,373.6,278.1,373.6,278,373.6c0.9,0,1.6-0.6,1.6-1.4l1.1-27.5c-1,0.3-2,0.7-3,1.1l-1,26.3
	C276.6,372.8,277.2,373.5,278,373.6z"/>
<path class="st0" d="M361.8,377c0.1,0,0.3,0,0.4,0c0.7,0,1.2-0.5,1.4-1.2l4.6-28.5c-0.9-0.3-1.9-0.5-2.9-0.7l-4.7,28.7
	C360.5,376.1,361,376.9,361.8,377z"/>
<path class="st0" d="M358.7,377C358.7,377,358.8,377,358.7,377c0.9-0.1,1.5-0.8,1.4-1.6l-1.3-28.8c0,0,0-0.6,0-1.5
	c-0.9-0.2-1.9-0.4-2.9-0.6l1.1,31C357.2,376.4,357.9,377,358.7,377z"/>
<rect x="299.6" y="431.3" transform="matrix(0.9997 2.480109e-02 -2.480109e-02 0.9997 10.8232 -7.7715)" class="st0" width="38.3" height="2.3"/>
<path class="st0" d="M279.6,372.1h-7.1c0,0-8.3,21.3-12.2,35.4c-4.3,15.4-0.1,31.8,10.1,33.9c5.4,1.1,13.6,1.5,20.6-0.8
	c6.2-2.1,13.4-7.3,13.4-7.3S278.7,398.6,279.6,372.1z"/>
<path class="st0" d="M357.2,375.9h6.1c0,0,4.5,17.1,6.3,20.5s11.6,24.9,3.9,37.9c-4.1,6.9-19,10-29,7.8c-7.5-1.7-13.4-8.2-13.4-8.2
	S357.2,417,357.2,375.9z"/>
</svg>
