<?xml version="1.0" encoding="utf-8"?>
<!-- Generator: Adobe Illustrator 27.0.0, SVG Export Plug-In . SVG Version: 6.00 Build 0)  -->
<svg version="1.1" id="Layer_1" xmlns="http://www.w3.org/2000/svg" xmlns:xlink="http://www.w3.org/1999/xlink" x="0px" y="0px"
	 viewBox="0 0 600 1200" style="enable-background:new 0 0 600 1200;" xml:space="preserve">
<style type="text/css">
	.st0{fill:none;stroke:#000000;stroke-linecap:round;stroke-linejoin:round;stroke-miterlimit:10;}
	.st1{fill:#7F374F;}
	.st2{clip-path:url(#SVGID_00000065058751048354437050000014366732020939440017_);}
	.st3{fill:#202B3D;stroke:#909CAA;stroke-miterlimit:10;}
	.st4{fill:none;}
</style>
<g>
	<g>
		<g>
			<g>
				<g>
					<path class="st0" d="M369.4,396.7"/>
				</g>
				<path class="st0" d="M282.8,344.6"/>
			</g>
		</g>
		<g>
			<path class="st1" d="M356.6,390.1c-6.2,3.1-21.8,10.1-36.4,10.1c-18.7,0-41.7-10.8-41.7-10.8s2.2-33.7,3.9-44.9
				c-1.6,0.6-3.4,1.2-5.3,1.9c-5.7,17.8-15.7,57.6-15.7,61c0,0,0,0,0,0c0,0.4-1.7,5.3-2,11.1c-0.3,5.3,0.9,12.5,3.4,17
				c2,3.5,7,6.6,8.8,7.3c7.5,2.7,14.4,2.5,20.2,0.8l61.2,0.1c0,0,0,0,0.1,0l1.1,0l0,0c7.1-0.2,14.1-2.8,18.4-8.1
				c9.8-12-2.4-37.6-3.1-38.9c-1-4.8-6.9-40.3-9.5-51c-2-0.5-3.9-0.9-5.7-1.3C354.9,354.1,357.7,386.1,356.6,390.1z"/>
			<path d="M283,445.3c-3.9,0-7.8-0.7-11.6-2c-1.7-0.6-6.9-3.7-9-7.5c-2.7-4.8-3.7-12.3-3.5-17.3c0.2-4.6,1.3-8.6,1.8-10.3
				c0.1-0.4,0.2-0.7,0.2-0.8c0-3.7,10.2-43.9,15.8-61.2c0-0.1,0.2-0.3,0.3-0.3c1.9-0.6,3.6-1.3,5.3-1.9c0.2-0.1,0.4,0,0.5,0.1
				c0.1,0.1,0.2,0.3,0.2,0.5c-1.6,10.4-3.6,40.9-3.9,44.5c2.8,1.3,24,10.7,41.2,10.7c14.3,0,29.8-6.9,36-9.9
				c0.8-4.1-1.2-28.5-2.2-40.3c-0.2-2-0.3-3.8-0.4-5.1c0-0.2,0.1-0.3,0.2-0.4s0.3-0.1,0.4-0.1c1.8,0.4,3.7,0.8,5.7,1.3
				c0.2,0,0.3,0.2,0.4,0.4c2,7.8,5.6,28.8,7.8,41.3c0.8,4.6,1.4,8.3,1.7,9.6c0.8,1.6,13.1,27.1,3,39.4c-4.1,5-10.9,8-18.7,8.3
				c0,0-0.1,0-0.1,0l-62.2-0.1C288.9,444.9,286,445.3,283,445.3z M277.5,346.8c-6,18.6-15.6,57.4-15.6,60.7c0,0.2-0.1,0.4-0.2,1
				c-0.5,1.7-1.5,5.6-1.8,10.1c-0.2,4.8,0.7,12.1,3.3,16.7c2,3.5,6.9,6.5,8.5,7c6.7,2.4,13.5,2.6,19.9,0.8c0,0,0.1,0,0.1,0l62.2,0.1
				c0,0,0.1,0,0.1,0c7.5-0.2,14.1-3.1,18-7.9c5-6.1,4-15.9,2.3-23c-1.8-7.7-4.9-14.3-5.4-15.3c0,0,0-0.1,0-0.1
				c-0.3-1.3-0.9-4.9-1.7-9.7c-2.2-12.4-5.8-33-7.7-41c-1.6-0.4-3.2-0.7-4.8-1.1c0.1,1.2,0.2,2.7,0.4,4.4c1.1,13,3.1,37.3,2.1,40.8
				c0,0.1-0.1,0.2-0.3,0.3c-6.1,3-21.9,10.1-36.6,10.1c-18.6,0-41.7-10.8-42-10.9c-0.2-0.1-0.3-0.3-0.3-0.5c0-0.3,2.1-32.3,3.8-44.1
				C280.4,345.7,279,346.2,277.5,346.8z M356.6,390.1L356.6,390.1L356.6,390.1z"/>
		</g>
		<g>
			<defs>
				<path id="SVGID_1_" d="M356.6,390.1c-6.2,3.1-21.8,10.1-36.4,10.1c-18.7,0-41.7-10.8-41.7-10.8s2.2-33.7,3.9-44.9
					c-1.6,0.6-3.4,1.2-5.3,1.9c-5.7,17.8-15.7,57.6-15.7,61c0,0,0,0,0,0c0,0.4-1.7,5.3-2,11.1c-0.3,5.3,0.9,12.5,3.4,17
					c2,3.5,7,6.6,8.8,7.3c7.5,2.7,14.4,2.5,20.2,0.8l61.2,0.1c0,0,0,0,0.1,0l1.1,0l0,0c7.1-0.2,14.1-2.8,18.4-8.1
					c9.8-12-2.4-37.6-3.1-38.9c-1-4.8-6.9-40.3-9.5-51c-2-0.5-3.9-0.9-5.7-1.3C354.9,354.1,357.7,386.1,356.6,390.1z"/>
			</defs>
			<clipPath id="SVGID_00000161604836455047484210000012858650375118361754_">
				<use xlink:href="#SVGID_1_"  style="overflow:visible;"/>
			</clipPath>
			<g style="clip-path:url(#SVGID_00000161604836455047484210000012858650375118361754_);">
				
					<rect x="225.1" y="148.9" transform="matrix(0.7633 0.646 -0.646 0.7633 285.9168 -61.2942)" class="st3" width="3" height="421.3"/>
				
					<rect x="227.4" y="150.9" transform="matrix(0.7633 0.646 -0.646 0.7633 287.7341 -62.3282)" class="st3" width="3" height="421.3"/>
				
					<rect x="229.7" y="152.9" transform="matrix(0.7633 0.646 -0.646 0.7633 289.5515 -63.3622)" class="st3" width="3" height="421.3"/>
				
					<rect x="232.1" y="154.8" transform="matrix(0.7633 0.646 -0.646 0.7633 291.3688 -64.3963)" class="st3" width="3" height="421.3"/>
				
					<rect x="234.4" y="156.8" transform="matrix(0.7633 0.646 -0.646 0.7633 293.1862 -65.4303)" class="st3" width="3" height="421.3"/>
				
					<rect x="236.7" y="158.8" transform="matrix(0.7633 0.646 -0.646 0.7633 295.0035 -66.4643)" class="st3" width="3" height="421.3"/>
				
					<rect x="239" y="160.7" transform="matrix(0.7633 0.646 -0.646 0.7633 296.8209 -67.4984)" class="st3" width="3" height="421.3"/>
				
					<rect x="241.3" y="162.7" transform="matrix(0.7633 0.646 -0.646 0.7633 298.6382 -68.5324)" class="st3" width="3" height="421.3"/>
				
					<rect x="243.7" y="164.6" transform="matrix(0.7633 0.646 -0.646 0.7633 300.4556 -69.5665)" class="st3" width="3" height="421.3"/>
				
					<rect x="246" y="166.6" transform="matrix(0.7633 0.646 -0.646 0.7633 302.273 -70.6005)" class="st3" width="3" height="421.3"/>
				
					<rect x="248.3" y="168.6" transform="matrix(0.7633 0.646 -0.646 0.7633 304.0903 -71.6345)" class="st3" width="3" height="421.3"/>
				
					<rect x="250.6" y="170.5" transform="matrix(0.7633 0.646 -0.646 0.7633 305.9077 -72.6686)" class="st3" width="3" height="421.3"/>
				
					<rect x="252.9" y="172.5" transform="matrix(0.7633 0.646 -0.646 0.7633 307.725 -73.7026)" class="st3" width="3" height="421.3"/>
				
					<rect x="255.3" y="174.5" transform="matrix(0.7633 0.646 -0.646 0.7633 309.5424 -74.7366)" class="st3" width="3" height="421.3"/>
				
					<rect x="257.6" y="176.4" transform="matrix(0.7633 0.646 -0.646 0.7633 311.3597 -75.7707)" class="st3" width="3" height="421.3"/>
				
					<rect x="259.9" y="178.4" transform="matrix(0.7633 0.646 -0.646 0.7633 313.1771 -76.8047)" class="st3" width="3" height="421.3"/>
				
					<rect x="262.2" y="180.4" transform="matrix(0.7633 0.646 -0.646 0.7633 314.9944 -77.8387)" class="st3" width="3" height="421.3"/>
				
					<rect x="264.5" y="182.3" transform="matrix(0.7633 0.646 -0.646 0.7633 316.8118 -78.8728)" class="st3" width="3" height="421.3"/>
				
					<rect x="266.9" y="184.3" transform="matrix(0.7633 0.646 -0.646 0.7633 318.6292 -79.9068)" class="st3" width="3" height="421.3"/>
				
					<rect x="269.2" y="186.2" transform="matrix(0.7633 0.646 -0.646 0.7633 320.4465 -80.9409)" class="st3" width="3" height="421.3"/>
				
					<rect x="271.5" y="188.2" transform="matrix(0.7633 0.646 -0.646 0.7633 322.2639 -81.9749)" class="st3" width="3" height="421.3"/>
				
					<rect x="273.8" y="190.2" transform="matrix(0.7633 0.646 -0.646 0.7633 324.0812 -83.0089)" class="st3" width="3" height="421.3"/>
				
					<rect x="276.1" y="192.1" transform="matrix(0.7633 0.646 -0.646 0.7633 325.8986 -84.043)" class="st3" width="3" height="421.3"/>
				
					<rect x="278.5" y="194.1" transform="matrix(0.7633 0.646 -0.646 0.7633 327.7159 -85.077)" class="st3" width="3" height="421.3"/>
				
					<rect x="280.8" y="196.1" transform="matrix(0.7633 0.646 -0.646 0.7633 329.5333 -86.111)" class="st3" width="3" height="421.3"/>
				
					<rect x="283.1" y="198" transform="matrix(0.7633 0.646 -0.646 0.7633 331.3506 -87.1451)" class="st3" width="3" height="421.3"/>
				
					<rect x="285.4" y="200" transform="matrix(0.7633 0.646 -0.646 0.7633 333.168 -88.1791)" class="st3" width="3" height="421.3"/>
				
					<rect x="287.7" y="202" transform="matrix(0.7633 0.646 -0.646 0.7633 334.9854 -89.2132)" class="st3" width="3" height="421.3"/>
				
					<rect x="290.1" y="203.9" transform="matrix(0.7633 0.646 -0.646 0.7633 336.8027 -90.2472)" class="st3" width="3" height="421.3"/>
				
					<rect x="292.4" y="205.9" transform="matrix(0.7633 0.646 -0.646 0.7633 338.6201 -91.2812)" class="st3" width="3" height="421.3"/>
				
					<rect x="294.7" y="207.8" transform="matrix(0.7633 0.646 -0.646 0.7633 340.4374 -92.3153)" class="st3" width="3" height="421.3"/>
				
					<rect x="297" y="209.8" transform="matrix(0.7633 0.646 -0.646 0.7633 342.2548 -93.3493)" class="st3" width="3" height="421.3"/>
				
					<rect x="299.3" y="211.8" transform="matrix(0.7633 0.646 -0.646 0.7633 344.0721 -94.3833)" class="st3" width="3" height="421.3"/>
				
					<rect x="301.7" y="213.7" transform="matrix(0.7633 0.646 -0.646 0.7633 345.8895 -95.4174)" class="st3" width="3" height="421.3"/>
				
					<rect x="304" y="215.7" transform="matrix(0.7633 0.646 -0.646 0.7633 347.7068 -96.4514)" class="st3" width="3" height="421.3"/>
				
					<rect x="306.3" y="217.7" transform="matrix(0.7633 0.646 -0.646 0.7633 349.5242 -97.4855)" class="st3" width="3" height="421.3"/>
				
					<rect x="308.6" y="219.6" transform="matrix(0.7633 0.646 -0.646 0.7633 351.3415 -98.5195)" class="st3" width="3" height="421.3"/>
				
					<rect x="310.9" y="221.6" transform="matrix(0.7633 0.646 -0.646 0.7633 353.1589 -99.5535)" class="st3" width="3" height="421.3"/>
				
					<rect x="313.3" y="223.5" transform="matrix(0.7633 0.646 -0.646 0.7633 354.9762 -100.5876)" class="st3" width="3" height="421.3"/>
				
					<rect x="315.6" y="225.5" transform="matrix(0.7633 0.646 -0.646 0.7633 356.7936 -101.6216)" class="st3" width="3" height="421.3"/>
				
					<rect x="317.9" y="227.5" transform="matrix(0.7633 0.646 -0.646 0.7633 358.6109 -102.6556)" class="st3" width="3" height="421.3"/>
				
					<rect x="320.2" y="229.4" transform="matrix(0.7633 0.646 -0.646 0.7633 360.4283 -103.6897)" class="st3" width="3" height="421.3"/>
				
					<rect x="322.5" y="231.4" transform="matrix(0.7633 0.646 -0.646 0.7633 362.2457 -104.7237)" class="st3" width="3" height="421.3"/>
				
					<rect x="324.9" y="233.4" transform="matrix(0.7633 0.646 -0.646 0.7633 364.063 -105.7577)" class="st3" width="3" height="421.3"/>
				
					<rect x="327.2" y="235.3" transform="matrix(0.7633 0.646 -0.646 0.7633 365.8804 -106.7918)" class="st3" width="3" height="421.3"/>
				
					<rect x="329.5" y="237.3" transform="matrix(0.7633 0.646 -0.646 0.7633 367.6977 -107.8258)" class="st3" width="3" height="421.3"/>
				
					<rect x="331.8" y="239.3" transform="matrix(0.7633 0.646 -0.646 0.7633 369.5151 -108.8599)" class="st3" width="3" height="421.3"/>
				
					<rect x="334.1" y="241.2" transform="matrix(0.7633 0.646 -0.646 0.7633 371.3324 -109.8939)" class="st3" width="3" height="421.3"/>
				
					<rect x="336.5" y="243.2" transform="matrix(0.7633 0.646 -0.646 0.7633 373.1498 -110.9279)" class="st3" width="3" height="421.3"/>
				
					<rect x="338.8" y="245.1" transform="matrix(0.7633 0.646 -0.646 0.7633 374.9671 -111.962)" class="st3" width="3" height="421.3"/>
				
					<rect x="341.1" y="247.1" transform="matrix(0.7633 0.646 -0.646 0.7633 376.7845 -112.996)" class="st3" width="3" height="421.3"/>
				
					<rect x="343.4" y="249.1" transform="matrix(0.7633 0.646 -0.646 0.7633 378.6018 -114.03)" class="st3" width="3" height="421.3"/>
				
					<rect x="345.7" y="251" transform="matrix(0.7633 0.646 -0.646 0.7633 380.4192 -115.0641)" class="st3" width="3" height="421.3"/>
				
					<rect x="348.1" y="253" transform="matrix(0.7633 0.646 -0.646 0.7633 382.2365 -116.0981)" class="st3" width="3" height="421.3"/>
				
					<rect x="350.4" y="255" transform="matrix(0.7633 0.646 -0.646 0.7633 384.0539 -117.1322)" class="st3" width="3" height="421.3"/>
				
					<rect x="352.7" y="256.9" transform="matrix(0.7633 0.646 -0.646 0.7633 385.8712 -118.1662)" class="st3" width="3" height="421.3"/>
				
					<rect x="355" y="258.9" transform="matrix(0.7633 0.646 -0.646 0.7633 387.6886 -119.2002)" class="st3" width="3" height="421.3"/>
				
					<rect x="357.3" y="260.9" transform="matrix(0.7633 0.646 -0.646 0.7633 389.506 -120.2343)" class="st3" width="3" height="421.3"/>
				
					<rect x="359.7" y="262.8" transform="matrix(0.7633 0.646 -0.646 0.7633 391.3233 -121.2683)" class="st3" width="3" height="421.3"/>
				
					<rect x="362" y="264.8" transform="matrix(0.7633 0.646 -0.646 0.7633 393.1407 -122.3023)" class="st3" width="3" height="421.3"/>
				
					<rect x="364.3" y="266.7" transform="matrix(0.7633 0.646 -0.646 0.7633 394.958 -123.3364)" class="st3" width="3" height="421.3"/>
				
					<rect x="366.6" y="268.7" transform="matrix(0.7633 0.646 -0.646 0.7633 396.7754 -124.3704)" class="st3" width="3" height="421.3"/>
				
					<rect x="368.9" y="270.7" transform="matrix(0.7633 0.646 -0.646 0.7633 398.5927 -125.4044)" class="st3" width="3" height="421.3"/>
				
					<rect x="371.3" y="272.6" transform="matrix(0.7633 0.646 -0.646 0.7633 400.4101 -126.4385)" class="st3" width="3" height="421.3"/>
				
					<rect x="373.6" y="274.6" transform="matrix(0.7633 0.646 -0.646 0.7633 402.2274 -127.4725)" class="st3" width="3" height="421.3"/>
				
					<rect x="375.9" y="276.6" transform="matrix(0.7633 0.646 -0.646 0.7633 404.0448 -128.5066)" class="st3" width="3" height="421.3"/>
				
					<rect x="378.2" y="278.5" transform="matrix(0.7633 0.646 -0.646 0.7633 405.8622 -129.5406)" class="st3" width="3" height="421.3"/>
				
					<rect x="380.5" y="280.5" transform="matrix(0.7633 0.646 -0.646 0.7633 407.6795 -130.5746)" class="st3" width="3" height="421.3"/>
				
					<rect x="382.9" y="282.4" transform="matrix(0.7633 0.646 -0.646 0.7633 409.4969 -131.6087)" class="st3" width="3" height="421.3"/>
				
					<rect x="385.2" y="284.4" transform="matrix(0.7633 0.646 -0.646 0.7633 411.3142 -132.6427)" class="st3" width="3" height="421.3"/>
				
					<rect x="387.5" y="286.4" transform="matrix(0.7633 0.646 -0.646 0.7633 413.1316 -133.6767)" class="st3" width="3" height="421.3"/>
			</g>
		</g>
	</g>
	<path class="st4" d="M359.4,346.1c-1.5-0.4-3-0.7-4.5-1c-0.1,0-0.2,0-0.3-0.1c0.1,1.2,0.2,2.7,0.4,4.4c1.1,13,3.1,37.3,2.1,40.8
		c0,0.1-0.1,0.2-0.3,0.3c-6.1,3-21.9,10.1-36.6,10.1c-18.6,0-41.7-10.8-42-10.9c-0.2-0.1-0.3-0.3-0.3-0.5c0-0.3,2.1-32.3,3.8-44.1
		c-1.3,0.5-2.7,1-4.2,1.5c0,0-0.1,0-0.1,0c-6,18.6-15.6,57.4-15.6,60.7c0,0.2-0.1,0.4-0.2,1c-0.5,1.7-1.5,5.6-1.8,10.1
		c-0.2,4.8,0.7,12.1,3.3,16.7c2,3.5,6.9,6.5,8.5,7c6.7,2.4,13.5,2.6,19.9,0.8c0,0,0.1,0,0.1,0l62.2,0.1c0,0,0.1,0,0.1,0
		c7.5-0.2,14.1-3.1,18-7.9c5-6.1,4-15.9,2.3-23c-1.8-7.7-4.9-14.3-5.4-15.3c0,0,0-0.1,0-0.1c-0.3-1.3-0.9-4.9-1.7-9.7
		C365,374.7,361.4,354.1,359.4,346.1C359.4,346.1,359.4,346.1,359.4,346.1z"/>
	<g>
		<path class="st4" d="M353.6,344.8C353.6,344.8,353.6,344.8,353.6,344.8l0.5,6.2c0-0.5-0.1-1-0.1-1.5
			C353.9,347.7,353.7,346.1,353.6,344.8z"/>
		<path class="st4" d="M374.4,412.3c-1.8-7.7-4.9-14.3-5.4-15.3c0,0,0-0.1,0-0.1c-0.3-1.3-0.9-4.9-1.7-9.7c-2.2-12.4-5.8-33-7.7-41
			c0,0,0,0-0.1,0c-1.5-0.4-3-0.7-4.5-1c-0.1,0-0.2,0-0.3-0.1c0.1,1.2,0.2,2.7,0.4,4.4c1.1,13,3.1,37.3,2.1,40.8
			c0,0.1-0.1,0.2-0.3,0.3c-6.1,3-21.9,10.1-36.6,10.1c-18.6,0-41.7-10.8-42-10.9c-0.2-0.1-0.3-0.3-0.3-0.5c0-0.3,2.1-32.3,3.8-44.1
			c-1.3,0.5-2.7,1-4.2,1.5c0,0-0.1,0-0.1,0c-6,18.6-15.6,57.4-15.6,60.7c0,0.2-0.1,0.4-0.2,1c-0.5,1.7-1.5,5.6-1.8,10.1
			c-0.2,4.8,0.7,12.1,3.3,16.7c2,3.5,6.9,6.5,8.5,7c6.7,2.4,13.5,2.6,19.9,0.8c0,0,0.1,0,0.1,0l62.2,0.1c0,0,0.1,0,0.1,0
			c7.5-0.2,14.1-3.1,18-7.9C377,429.2,376.1,419.4,374.4,412.3z"/>
	</g>
	<path class="st4" d="M374.4,412.3c-1.8-7.7-4.9-14.3-5.4-15.3c0,0,0-0.1,0-0.1c-0.3-1.3-0.9-4.9-1.7-9.7c-2.2-12.4-5.8-33-7.7-41
		c0,0,0,0-0.1,0c-1.5-0.4-3-0.7-4.5-1c-0.1,0-0.2,0-0.3-0.1c0.1,1.2,0.2,2.7,0.4,4.4c1.1,13,3.1,37.3,2.1,40.8
		c0,0.1-0.1,0.2-0.3,0.3c-6.1,3-21.9,10.1-36.6,10.1c-18.6,0-41.7-10.8-42-10.9c-0.2-0.1-0.3-0.3-0.3-0.5c0-0.3,2.1-32.3,3.8-44.1
		c-1.3,0.5-2.7,1-4.2,1.5c0,0-0.1,0-0.1,0c-6,18.6-15.6,57.4-15.6,60.7c0,0.2-0.1,0.4-0.2,1c-0.5,1.7-1.5,5.6-1.8,10.1
		c-0.2,4.8,0.7,12.1,3.3,16.7c2,3.5,6.9,6.5,8.5,7c6.7,2.4,13.5,2.6,19.9,0.8c0,0,0.1,0,0.1,0l62.2,0.1c0,0,0.1,0,0.1,0
		c7.5-0.2,14.1-3.1,18-7.9C377,429.2,376.1,419.4,374.4,412.3z"/>
	<g>
		<path class="st4" d="M374.4,412.3c-1.8-7.7-4.9-14.3-5.4-15.3c0,0,0-0.1,0-0.1c-0.3-1.3-0.9-4.9-1.7-9.7c-2.2-12.4-5.8-33-7.7-41
			c0,0,0,0-0.1,0c-1.5-0.4-3-0.7-4.5-1c-0.1,0-0.2,0-0.3-0.1c0.1,1.2,0.2,2.7,0.4,4.4c1.1,13,3.1,37.3,2.1,40.8
			c0,0.1-0.1,0.2-0.3,0.3c-6.1,3-21.9,10.1-36.6,10.1c-18.6,0-41.7-10.8-42-10.9c-0.2-0.1-0.3-0.3-0.3-0.5c0-0.3,2.1-32.3,3.8-44.1
			c-1.3,0.5-2.7,1-4.2,1.5c0,0-0.1,0-0.1,0c-6,18.6-15.6,57.4-15.6,60.7c0,0.2-0.1,0.4-0.2,1c-0.5,1.7-1.5,5.6-1.8,10.1
			c-0.2,4.8,0.7,12.1,3.3,16.7c2,3.5,6.9,6.5,8.5,7c6.7,2.4,13.5,2.6,19.9,0.8c0,0,0.1,0,0.1,0l62.2,0.1c0,0,0.1,0,0.1,0
			c7.5-0.2,14.1-3.1,18-7.9C377,429.2,376.1,419.4,374.4,412.3z"/>
		<path class="st4" d="M276.3,347.2l-1.1,3.5C275.6,349.5,276,348.3,276.3,347.2C276.3,347.2,276.3,347.2,276.3,347.2z"/>
		<path d="M369.8,396.5c-0.3-1.4-0.9-5-1.7-9.6c-2.1-12.1-5.6-32.2-7.6-40.5c0,0,0,0,0,0l-0.3-1.1c-0.1,0-0.2-0.1-0.3-0.1
			c0,0,0,0,0,0c0,0-0.1,0-0.1,0c-2.2-0.5-4.4-1-6.4-1.4l0.1,1c0,0,0,0,0.1,0c0.1,1.3,0.2,2.9,0.4,4.7c0,0.5,0.1,1,0.1,1.5l0,0l0,0
			c1,12.3,2.8,34.9,2,38.8c-6.2,3.1-21.6,9.9-36,9.9c-17.2,0-38.4-9.4-41.2-10.7c0.2-3.6,2.2-33.5,3.8-44.2c0,0,0,0,0,0l0.2-1.1
			c-0.3,0.1-0.5,0.2-0.8,0.3c0,0,0,0,0,0c-1.6,0.6-3.3,1.2-5.1,1.8c-0.1,0.1-0.3,0.1-0.5,0.2l-0.4,1.2c0,0,0,0,0,0
			c-0.3,1.1-0.7,2.3-1.1,3.5l0,0.1c-5.7,19-14.3,53.2-14.3,56.6c0,0.1-0.1,0.4-0.2,0.8c-0.5,1.7-1.6,5.7-1.8,10.3
			c-0.2,5,0.7,12.5,3.5,17.3c2.2,3.8,7.3,6.9,9,7.5c3.8,1.4,7.8,2,11.6,2c3,0,6-0.4,8.8-1.2l62.2,0.1c0,0,0.1,0,0.1,0
			c7.8-0.2,14.6-3.3,18.7-8.3C382.9,423.6,370.6,398.1,369.8,396.5z M372.1,435.3c-3.9,4.8-10.5,7.7-18,7.9c0,0-0.1,0-0.1,0
			l-62.2-0.1c0,0-0.1,0-0.1,0c-6.4,1.9-13.2,1.6-19.9-0.8c-1.5-0.5-6.5-3.5-8.5-7c-2.6-4.6-3.6-11.9-3.3-16.7
			c0.2-4.5,1.3-8.4,1.8-10.1c0.2-0.7,0.2-0.8,0.2-1c0-3.3,9.7-42,15.6-60.7c0,0,0.1,0,0.1,0c1.5-0.5,2.9-1,4.2-1.5
			c-1.7,11.8-3.7,43.7-3.8,44.1c0,0.2,0.1,0.4,0.3,0.5c0.2,0.1,23.4,10.9,42,10.9c14.7,0,30.5-7.1,36.6-10.1
			c0.1-0.1,0.2-0.2,0.3-0.3c1-3.6-1-27.8-2.1-40.8c-0.1-1.7-0.3-3.2-0.4-4.4c0.1,0,0.2,0,0.3,0.1c1.4,0.3,2.9,0.6,4.5,1
			c0,0,0,0,0.1,0c2,8,5.6,28.6,7.7,41c0.9,4.9,1.5,8.4,1.7,9.7c0,0,0,0.1,0,0.1c0.5,1,3.6,7.6,5.4,15.3
			C376.1,419.4,377,429.2,372.1,435.3z"/>
		<path d="M275.2,350.8l0-0.1C275.2,350.7,275.2,350.8,275.2,350.8z"/>
	</g>
</g>
</svg>
