<?xml version="1.0" encoding="utf-8"?>
<!-- Generator: Adobe Illustrator 27.0.0, SVG Export Plug-In . SVG Version: 6.00 Build 0)  -->
<svg version="1.1" id="Layer_1" xmlns="http://www.w3.org/2000/svg" xmlns:xlink="http://www.w3.org/1999/xlink" x="0px" y="0px"
	 viewBox="0 0 600 1200" style="enable-background:new 0 0 600 1200;" xml:space="preserve">
<style type="text/css">
	.st0{clip-path:url(#SVGID_00000083775574958363679950000017778194219855323808_);}
	.st1{fill:#A9ABA7;}
	.st2{fill:#CC998B;stroke:#000000;stroke-width:0.5;stroke-miterlimit:10;}
	.st3{fill:#4D5157;stroke:#000000;stroke-width:0.5;stroke-miterlimit:10;}
	.st4{fill:#E4E6EA;stroke:#000000;stroke-width:0.5;stroke-miterlimit:10;}
	.st5{fill:#4D5157;stroke:#000000;stroke-width:0.5;stroke-linecap:round;stroke-linejoin:round;stroke-miterlimit:10;}
	.st6{fill:#AAA58C;stroke:#000000;stroke-width:0.5;stroke-linecap:round;stroke-linejoin:round;stroke-miterlimit:10;}
	.st7{fill:#ABB2B8;stroke:#000000;stroke-width:0.5;stroke-miterlimit:10;}
	.st8{fill:#ABB2B8;stroke:#000000;stroke-width:0.5;stroke-linecap:round;stroke-linejoin:round;stroke-miterlimit:10;}
	.st9{fill:#E4E6EA;stroke:#000000;stroke-width:0.5;stroke-linecap:round;stroke-linejoin:round;stroke-miterlimit:10;}
</style>
<g>
	<g>
		<g>
			<path d="M311.2,551.7c-24.8,0-73.4-7.4-74.5-7.6c-3.7,9.6-7.5,22-9.1,29.8c-1.2,6.3-3,13-2.7,23.8c0.1,5,1.2,11.3,1.4,16.6
				l3.2-1.3c34.1-7.6,70.6,9.6,70.6,9.6l6.9,2.3l-0.1,7c0,0,42.5-23.5,66.5-21.7l13.6,1.3c1.3-9.1,0.9-15.5,1.2-21.9
				c0.5-9.3-1.1-14.9-1.3-19.9c-0.2-6-2.5-16.4-4.4-23.1l-3.6,0.6C378.9,547.2,341.5,551.7,311.2,551.7z"/>
			<path d="M307.1,625.9c-0.1,0-0.1,0-0.2,0c-0.4-0.2-44.3-21.2-80.4-11c-0.3,0.1-0.5-0.1-0.6-0.3c-0.1-0.3,0.1-0.5,0.3-0.6
				c36.4-10.3,80.7,10.9,81.1,11.1c0.2,0.1,0.4,0.4,0.2,0.7C307.4,625.7,307.3,625.9,307.1,625.9z"/>
			<path d="M306.9,632.2c-0.2,0-0.4-0.1-0.4-0.3c-0.1-0.2,0-0.5,0.2-0.7l1.6-0.9c13.3-7,48.8-25.7,78.8-19.4
				c0.3,0.1,0.4,0.3,0.4,0.6s-0.3,0.4-0.6,0.4c-29.7-6.2-64.9,12.3-78.2,19.3l-1.6,0.9C307,632.2,306.9,632.2,306.9,632.2z"/>
			<path d="M312.1,552.6C312.1,552.6,312.1,552.6,312.1,552.6c-24.7,0-74.9-8-75.4-8.1c-0.3,0-0.5-0.3-0.4-0.6
				c0-0.3,0.3-0.5,0.6-0.4c0.5,0.1,50.7,8.1,75.3,8.1c0,0,0,0,0,0c30,0,70-5.4,70.4-5.4c0.3,0,0.5,0.2,0.6,0.4
				c0,0.3-0.2,0.5-0.4,0.6C382.2,547.2,342.2,552.6,312.1,552.6z"/>
		</g>
	</g>
	<g>
		<defs>
			<path id="SVGID_1_" d="M311.2,551.7c-24.8,0-73.4-7.4-74.5-7.6c-3.7,9.6-7.5,22-9.1,29.8c-1.2,6.3-3,13-2.7,23.8
				c0.1,5,1.2,11.3,1.4,16.6l3.2-1.3c34.1-7.6,70.6,9.6,70.6,9.6l6.9,2.3l-0.1,7c0,0,42.5-23.5,66.5-21.7l13.6,1.3
				c1.3-9.1,0.9-15.5,1.2-21.9c0.5-9.3-1.1-14.9-1.3-19.9c-0.2-6-2.5-16.4-4.4-23.1l-3.6,0.6C378.9,547.2,341.5,551.7,311.2,551.7z"
				/>
		</defs>
		<clipPath id="SVGID_00000170987653907004517220000017778965806747816102_">
			<use xlink:href="#SVGID_1_"  style="overflow:visible;"/>
		</clipPath>
		<g style="clip-path:url(#SVGID_00000170987653907004517220000017778965806747816102_);">
			<rect x="187.3" y="520.5" class="st1" width="231.1" height="126.8"/>
			<g>
				<path class="st2" d="M206.5,551.1l4.8,1.8c0,0-0.6,10.1-0.5,14.6c0.1,4.6,2,8.9,2,8.9s1.2,4.6,3.1,4.6c1.8,0,4.8-1.3,4.8-1.3
					l1.9,1.7l0.4,2.3l-8.3,7.3c0,0-4.8-5.4-6.2-7.5c-1.4-2.1-6.2-14.6-5.2-20.4S206.5,551.1,206.5,551.1z"/>
				<path class="st3" d="M211.2,589.1c-0.1,0-0.2-0.1-0.3-0.1c0-0.7-0.4-1.3-1-1.6c-0.1,0-0.1,0-0.2-0.1c0.2-0.8-0.2-1.7-1-2
					c-0.1,0-0.2-0.1-0.3-0.1c0-0.7-0.4-1.3-1-1.5c-0.1,0-0.1,0-0.2-0.1c0,0,0,0,0,0c0.3-0.8-0.1-1.8-0.9-2.1c-0.1,0-0.2,0-0.2-0.1
					c0,0,0,0,0,0c0.3-0.8-0.1-1.8-0.9-2.1c0.3-0.8-0.1-1.8-0.9-2.1c-0.1,0-0.1,0-0.2-0.1c0.1-0.1,0.1-0.2,0.1-0.3
					c0.3-0.8-0.1-1.8-0.9-2.1c0,0-0.1,0-0.1,0c0.3-0.2,0.5-0.4,0.6-0.7c0.3-0.8,0-1.6-0.7-2c0.1-0.1,0.2-0.3,0.3-0.4
					c0.2-0.6,0.1-1.3-0.4-1.7c0.1-0.1,0.2-0.2,0.2-0.4c0.3-0.8-0.1-1.7-0.8-2c0.1-0.1,0.2-0.3,0.3-0.5c0.3-0.7,0-1.5-0.6-1.9
					c0.2-0.2,0.4-0.4,0.6-0.7c0.3-0.7,0-1.5-0.6-1.9c0.3-0.2,0.5-0.4,0.7-0.8c0.2-0.5,0.1-1.1-0.2-1.5c0.3-0.2,0.6-0.5,0.7-0.8
					c0.2-0.6,0.1-1.3-0.4-1.8c0.6,0,1.2-0.4,1.5-1c0.2-0.6,0.1-1.2-0.3-1.6c0.8-0.1,1.4-0.8,1.4-1.6c0-0.9-0.7-1.6-1.6-1.6
					s-1.6,0.7-1.6,1.6c0,0.4,0.2,0.8,0.4,1.1c-0.5,0.1-1,0.5-1.3,1c-0.2,0.6-0.1,1.3,0.4,1.8c-0.6,0-1.2,0.4-1.5,1
					c-0.2,0.5-0.1,1.1,0.2,1.5c-0.3,0.2-0.6,0.5-0.7,0.8c-0.3,0.7,0,1.5,0.6,1.9c-0.3,0.2-0.5,0.4-0.7,0.8c-0.3,0.7,0,1.5,0.6,1.9
					c-0.2,0.2-0.4,0.4-0.6,0.7c-0.3,0.8,0.1,1.7,0.8,2c-0.1,0.1-0.2,0.3-0.3,0.5c-0.2,0.6-0.1,1.3,0.4,1.7c-0.1,0.1-0.2,0.2-0.2,0.4
					c-0.3,0.8,0,1.6,0.7,2c-0.1,0.1-0.2,0.3-0.3,0.4c-0.3,0.8,0.1,1.8,0.9,2.1c0,0,0.1,0,0.1,0c-0.3,0.2-0.5,0.4-0.6,0.7
					c-0.3,0.8,0.1,1.8,0.9,2.1c0.1,0,0.1,0,0.2,0.1c-0.1,0.1-0.1,0.2-0.1,0.3c-0.3,0.8,0.1,1.8,0.9,2.1c-0.3,0.8,0.1,1.8,0.9,2.1
					c0.1,0,0.2,0,0.2,0.1c0,0,0,0,0,0c-0.3,0.8,0.1,1.8,0.9,2.1c0.1,0,0.1,0,0.2,0.1c0,0,0,0,0,0c-0.3,0.8,0.1,1.8,0.9,2.1
					c0.1,0,0.2,0.1,0.3,0.1c0,0.7,0.4,1.3,1,1.5c0.1,0,0.1,0,0.2,0.1c-0.2,0.8,0.2,1.7,1,2c0.1,0,0.2,0.1,0.3,0.1
					c0,0.7,0.4,1.3,1,1.6c0.8,0.3,1.8-0.1,2.1-0.9C212.5,590.4,212.1,589.5,211.2,589.1z"/>
				<path class="st4" d="M212.7,591.1c-0.5,0-1-0.2-1.3-0.6c-9.2-11.2-10.1-21.5-9.3-28.2c0.9-7.3,4-11.9,4.2-12.1
					c0.5-0.8,1.6-1,2.4-0.4c0.8,0.5,1,1.6,0.4,2.4c-0.5,0.7-11,16.7,4.9,36.2c0.6,0.7,0.5,1.8-0.2,2.4
					C213.5,590.9,213.1,591.1,212.7,591.1z"/>
				<path class="st3" d="M233.4,573.2c0.3-0.3,0.4-0.7,0.4-1.1c0-0.7-0.4-1.3-1-1.5c0.3-0.3,0.5-0.7,0.5-1.1c0-0.6-0.4-1.2-0.9-1.4
					c0.3-0.3,0.5-0.7,0.5-1.2c0-0.9-0.7-1.6-1.6-1.6c0,0,0,0,0,0c0.2-0.3,0.4-0.6,0.4-1c0-0.7-0.5-1.4-1.2-1.6
					c0.3-0.3,0.5-0.7,0.5-1.2c0-0.8-0.6-1.4-1.3-1.6c0.2-0.3,0.3-0.6,0.3-1c0-0.9-0.7-1.6-1.6-1.6c0.1-0.2,0.2-0.4,0.2-0.7
					c0-0.7-0.4-1.3-1-1.5c0.1-0.2,0.1-0.4,0.1-0.7c0-0.8-0.6-1.5-1.4-1.6c0.3-0.3,0.4-0.7,0.4-1.1c0-0.9-0.7-1.6-1.6-1.6
					c0,0,0,0,0,0c0.1-0.2,0.2-0.5,0.2-0.8c0-0.9-0.7-1.6-1.6-1.6c-0.9,0-1.6,0.7-1.6,1.6s0.7,1.6,1.6,1.6c0,0,0,0,0,0
					c-0.1,0.2-0.2,0.5-0.2,0.8c0,0.8,0.6,1.5,1.4,1.6c-0.3,0.3-0.4,0.7-0.4,1.1c0,0.7,0.4,1.3,1,1.5c-0.1,0.2-0.1,0.4-0.1,0.7
					c0,0.9,0.7,1.6,1.6,1.6c-0.1,0.2-0.2,0.4-0.2,0.7c0,0.8,0.6,1.4,1.3,1.6c-0.2,0.3-0.3,0.6-0.3,1c0,0.7,0.5,1.4,1.2,1.6
					c-0.3,0.3-0.5,0.7-0.5,1.2c0,0.9,0.7,1.6,1.6,1.6c0,0,0,0,0,0c-0.2,0.3-0.4,0.6-0.4,1c0,0.6,0.4,1.2,0.9,1.4
					c-0.3,0.3-0.5,0.7-0.5,1.2c0,0.7,0.4,1.3,1,1.5c-0.3,0.3-0.5,0.7-0.5,1.1c0,0.7,0.5,1.3,1.1,1.5c-0.3,0.3-0.4,0.7-0.4,1.1
					c0,0.9,0.7,1.6,1.6,1.6c0.9,0,1.6-0.7,1.6-1.6C234.5,574.1,234,573.5,233.4,573.2z"/>
				<path class="st4" d="M231.5,583.5c-0.8,0-1.6-0.6-1.7-1.5c-2.6-18.3-10-31.7-10.1-31.8c-0.5-0.8-0.2-1.9,0.7-2.3
					c0.8-0.5,1.9-0.2,2.3,0.7c0.3,0.6,7.8,14.1,10.5,33c0.1,0.9-0.5,1.8-1.4,1.9C231.7,583.5,231.6,583.5,231.5,583.5z"/>
				<g>
					<path class="st4" d="M211.2,551.1c-1.3,0-2.4,1.1-2.4,2.4c0,0.6,0.2,1.1,0.6,1.5c-0.3,0.4-0.6,0.9-0.6,1.5c0,0.2,0,0.3,0,0.5
						c-0.6,0.4-1,1.1-1,1.9c0,0.9,0.5,1.6,1.2,2c-0.7,0.4-1.2,1.2-1.2,2c0,0.8,0.4,1.6,1.1,2c-0.3,0.4-0.4,0.8-0.4,1.4
						c0,1.3,1.1,2.4,2.4,2.4c1.3,0,2.4-1.1,2.4-2.4c0-0.8-0.4-1.6-1.1-2c0.3-0.4,0.4-0.8,0.4-1.4c0-0.9,6-1.8,5.3-2.2
						c0.7-0.4-5.3-1-5.3-1.9c0-0.2,0-0.3,0-0.5c0.6-0.4,1-1.1,1-1.9c0-0.6-0.2-1.1-0.6-1.5c0.3-0.4,0.6-0.9,0.6-1.5
						C213.5,552.2,212.5,551.1,211.2,551.1z"/>
					<path class="st4" d="M218.9,557.4c0.9-0.4,1.5-1.2,1.5-2.2c0-1.3-1.1-2.4-2.4-2.4c-1.3,0-2.4,1.1-2.4,2.4c0,1,0.6,1.8,1.5,2.2
						c-0.9,0.4-1.5,1.2-1.5,2.2c0,0.7,0.3,1.2,0.7,1.7c-0.4,0.4-0.7,1-0.7,1.7c0,0.6,0.3,1.2,0.7,1.7c-0.4,0.4-0.7,1-0.7,1.7
						c0,1.3,1.1,2.4,2.4,2.4c1.3,0,2.4-1.1,2.4-2.4c0-0.7-0.3-1.2-0.7-1.7c0.4-0.4,0.7-1,0.7-1.7c0-0.7-0.3-1.2-0.7-1.7
						c0.4-0.4,0.7-1,0.7-1.7C220.4,558.6,219.8,557.8,218.9,557.4z"/>
				</g>
				<path class="st5" d="M212.5,568c0,0-1.5-7.3,0-11.6c1.5-4.3,0.5-10.2,0.5-10.2s5.1,5.6,5,9.3c-0.2,3.7,0,12,0,12L212.5,568z"/>
				<path class="st2" d="M225.6,581.3l4,1.7v3.3c0,0-18,8.7-23.4,15.5c-5.3,6.8-9.7,14.4-9.7,14.4l-2.8-0.3l1-5.8l2.9-1.7l-2.6-1.5
					l2.9-2.8l1.3,0.3l-1.6-3.1l6.5-1.1l-2.7-3.8l7-0.4l-1.9-2.9l6.2-0.3v-3.5l5.5,0.4v-3.5h4.3l-0.3-3.9L225.6,581.3z"/>
				<path class="st4" d="M192.6,617.8c-1.3,0-2.3-0.2-2.4-0.3c-0.4-0.1-0.8-0.5-0.8-0.9c-0.1-0.5,0.1-0.9,0.5-1.1
					c1.1-0.7,2.4-1.4,3.6-2c-0.3-0.1-0.4-0.1-0.5-0.1c-0.4-0.1-0.7-0.4-0.8-0.8c-0.1-0.4,0-0.8,0.3-1.1c1.1-1,2.4-1.8,3.6-2.3
					c-1.4-0.7-2.4-1.5-2.5-1.5c-0.3-0.2-0.4-0.6-0.4-0.9c0-0.4,0.2-0.7,0.5-0.9c1.2-0.9,2.8-1.4,4.3-1.6c-1.1-0.9-1.9-1.7-2.2-2
					c-0.3-0.3-0.4-0.8-0.2-1.2c0.1-0.4,0.5-0.7,0.9-0.7c1.7-0.2,4.2-0.3,6.3-0.4c-0.8-0.8-1.6-1.6-2.1-2.3c-0.2-0.3-0.3-0.7-0.2-1
					c0.1-0.4,0.3-0.6,0.7-0.8c1.1-0.5,3.3-0.5,5.3-0.4c-0.7-1-0.9-1.8-0.9-1.9c-0.1-0.3,0-0.6,0.1-0.9c0.2-0.3,0.4-0.5,0.7-0.5
					c1.7-0.4,3.8-0.4,5.5-0.3c-0.4-0.6-0.7-1.2-0.9-1.7c-0.2-0.3-0.2-0.7,0-1.1c0.2-0.3,0.5-0.5,0.9-0.6c1.6-0.1,3.8,0,5.5,0.2
					c-0.4-0.7-0.6-1.3-0.7-1.5c-0.2-0.6,0-1.2,0.6-1.5c1.1-0.5,2.6-0.6,4-0.6c0,0,0,0,0,0c-0.4-0.6-0.6-1.2-0.7-1.2
					c-0.2-0.5,0-1,0.3-1.3c1.1-0.9,2.6-1.4,4-1.5c-0.2-0.3-0.3-0.5-0.3-0.6c-0.2-0.4,0-0.9,0.3-1.2c3.6-3.4,7.7-1.6,7.8-1.5
					c0.6,0.3,0.8,0.9,0.6,1.5c-0.3,0.6-0.9,0.8-1.5,0.6c-0.1-0.1-2.4-1-4.6,0.5c0.3,0.3,0.8,0.7,1.6,0.8c0.2,0,0.4,0.1,0.4,0.1
					c0.6,0.1,1,0.7,0.9,1.3c-0.1,0.6-0.7,1-1.3,0.9c-0.2,0-0.4-0.1-0.5-0.1c-1.2-0.2-3.5-0.3-5.1,0.5c0.4,0.5,0.9,1.2,1.8,1.5
					c0.8,0.1,1.4,0.2,1.5,0.3c0.6,0.1,0.9,0.7,0.9,1.2c-0.1,0.6-0.6,1-1.1,1c-0.7,0-1.3-0.1-1.8-0.3c-1.5-0.2-3.5-0.4-5-0.1
					c0.4,0.8,0.9,1.5,1.2,1.7c0.4,0.3,0.6,0.9,0.4,1.4c-0.2,0.5-0.7,0.8-1.2,0.7c0,0-3.1-0.5-5.7-0.6c0.5,0.7,1,1.3,1.2,1.4
					c0.6,0.2,0.9,0.7,0.8,1.3c-0.1,0.6-0.7,1-1.3,0.9c0,0-3.5-0.5-6.3-0.3c0.5,0.7,1.2,1.5,2.4,1.7c0.6,0.1,1,0.7,0.9,1.3
					c-0.1,0.6-0.7,1-1.3,1c-1.9-0.2-4.6-0.4-6.5-0.3c1.1,1.1,2.2,2,2.6,2.1c0.6,0,1.1,0.5,1.1,1.1s-0.5,1.1-1.1,1.1
					c0,0-3.9,0.1-7,0.3c1,0.8,2.1,1.6,2.9,1.7c0.2,0,0.4,0,0.4,0c0.6,0.1,1,0.6,1,1.2c0,0.6-0.5,1.1-1.1,1.1c-0.2,0-0.3,0-0.5,0
					c-0.9-0.1-3.3-0.1-5.3,0.5c0.9,0.5,2.1,1,3.2,1c0,0,0,0,0,0c0.6,0,1.1,0.4,1.1,1c0.1,0.6-0.3,1.1-0.8,1.2c0,0-2,0.5-3.9,1.6
					c0.3,0,0.6,0.1,1,0.1c0.5,0,1,0.4,1.1,0.9c0.1,0.5-0.1,1-0.6,1.3c0,0-1,0.5-2.3,1.2c0,0,0,0,0.1,0c0.6-0.2,1.2,0,1.5,0.6
					c0.2,0.6,0,1.2-0.6,1.5C195,617.6,193.7,617.8,192.6,617.8z"/>
				<path class="st6" d="M194.7,620.6c0,0,7.4-2.7,5.3,1.2c0,0,3.2,0.6,4.6-0.3c1.4-0.9,4-0.9,5-0.1c1,0.7,1.6,2.4,2.7,1.6
					s4.2-1.3,4.2-1.3s-1.3,0-2.4-1.6c-1.1-1.6-4.2-5.4-4.2-5.4l13.1-18.4c0,0-0.4-4.1,1-6.9s-16.9,10.7-16.9,10.7L195.9,616
					L194.7,620.6z"/>
				<path class="st5" d="M223.4,594.8c0,0-3.3-0.4-3.9,2.9c0,0-2-0.7-2.6,1.1c0,0-3.4-0.7-5,2.4c0,0-1.7,0-2,1.5
					c0,0-1.6,0.2-1.1,2.3c0,0-2,0.2-1.8,2.5c0,0-1.9,0.1-2.3,2.3c0,0-1.9,0.3-2,2.5c0,0-2.1,1.2-2.2,4.1l-1.6,1.9c0,0,5.4,0,6.9,0
					c0,0,2.6-1.2,4,0.2c1.3,1.4,2.2-2.1,4.1-1.8c0,0,2.6-4.1,4.4-3.9c1.8,0.2,7.2-7.1,7.2-7.1l-0.3-8.1L223.4,594.8z"/>
				<path class="st7" d="M191.6,631.4l-3.3-0.7c0.1-0.3,7.7-34.5,42.1-46.8l1.2,3.2C198.9,598.8,191.7,631.1,191.6,631.4z"/>
				<path class="st8" d="M220.8,607c0,0-7.7,4.6-9.7-2.2c0,0,1.8,1.6,3.5,1.4c0,0,1.2-1.1,2.8-0.1c0,0-0.1-1.4,1.1-1.1
					C219.5,605.4,220.8,607,220.8,607z"/>
				<path class="st8" d="M223.7,596c0,0-4.5,1.7-5.2,4.1c0,0-4.4,0.9-5.7,3.3c0,0,2.3,1.2,4,0s5.8,3.2,5.8,3.2
					S221.4,598.8,223.7,596z"/>
				<circle class="st9" cx="219.8" cy="601.8" r="1"/>
				<path class="st8" d="M220.3,608.9c0,0-6.8,3.2-9.8-2.3c0,0-1.2-0.2-1.3,1.3c0,0-6.3,4-7.7,9.6c0,0,1.8-0.5,3.5,0.4
					c0,0,1.6,2.6,4.4,2.2c0,0-2.8-1.7-2.8-2.6c0,0,2.6-5.5,9.3-5.9c0,0-0.9,2.6,1.7,2.2c0,0,1.4,2.5,3.2,1L220.3,608.9z"/>
				<path class="st9" d="M208.5,607.6l1.6,0.3c0,0,1.8,3.2,4.6,3.2C214.7,611.1,209.6,612.8,208.5,607.6z"/>
				<path class="st9" d="M209.6,612.5c0,0-0.6-2.3-3.7-2.3C205.9,610.2,205.5,612.6,209.6,612.5z"/>
				<path class="st9" d="M207.5,614c0,0-1.5-1.2-3.3,0C204.2,614,204.8,616.3,207.5,614z"/>
				<path class="st9" d="M206.6,617.4c0,0.2,0.2,0.5,0.5,0.9c0,0,2.4-3.6,5.4-6C208.3,613.8,206.6,617.4,206.6,617.4z"/>
				<path class="st8" d="M215.5,615.4c0,0-1.7-2.4-3.6-0.5C211.9,614.9,212.9,617,215.5,615.4z"/>
				<path class="st9" d="M214.8,612.8c0,0-0.5,2.7,1.6,2.6L214.8,612.8z"/>
				<path class="st7" d="M211.4,572.1c-0.1,0-0.3,0-0.4-0.1c-0.6-0.2-0.9-0.9-0.7-1.5c0.4-1.2,1.6-3,3.5-3c0.6-0.6,1.6-1.4,3-1.3
					c1.3,0,2.5,0.8,3.5,2.3c0.4,0.5,0.2,1.2-0.3,1.6c-0.5,0.4-1.2,0.2-1.6-0.3c-0.4-0.6-1-1.3-1.6-1.3c-0.7,0-1.4,0.7-1.5,0.9
					c-0.3,0.4-0.7,0.5-1.2,0.4c-0.8-0.2-1.6,1.5-1.6,1.5C212.2,571.9,211.8,572.1,211.4,572.1z"/>
				<path class="st4" d="M216.9,582.5c-0.4,0-0.9-0.1-1.4-0.3c-1.4-0.6-2.4-2.1-2.8-4.5c-0.9-4.9-5.7-5.3-5.9-5.3
					c-0.6,0-1.1-0.5-1.1-1.1c0-0.6,0.5-1.1,1.1-1.1c0.3,0,5.8-0.2,9.8,3c0.1-1.3,0.5-2.8,1.5-3.9c1.1-1.3,2.7-1.9,4.8-1.7
					c0.6,0,1,0.5,1.1,1c0,0.6-0.3,1.1-0.9,1.2c0,0-1.2,0.3-1.6,1.2c-0.3,0.8,0.2,1.8,0.6,2.6c2.3,3.6,1.2,5.9,0.7,6.7
					c-0.8,1.2-2.2,1.8-3.7,1.7C218.6,582.1,217.8,582.5,216.9,582.5z M213.5,574c0.6,0.9,1.1,2,1.4,3.4c0.3,1.5,0.8,2.5,1.5,2.8
					c0.8,0.3,1.9-0.3,1.9-0.3c0.2-0.2,0.6-0.2,0.8-0.2c0.8,0.1,1.5-0.1,1.9-0.7c0.6-0.9,0.3-2.5-0.7-4.2c-0.6-1-1-1.9-1.1-2.8
					c-0.5,1.5-0.3,3.4-0.1,4.2c0.1,0.5-0.2,1.1-0.7,1.3c-0.5,0.2-1.1,0-1.4-0.4C216,575.6,214.8,574.6,213.5,574z"/>
			</g>
			<g>
				<path class="st2" d="M223.5,620.4l5.1,0.8c0,0,4.5-9.1,6.8-13c2.3-3.9,6.2-6.7,6.2-6.7s3.3-3.4,4.9-2.5s3.5,3.5,3.5,3.5l2.5-0.6
					l1.5-1.8l-3.6-10.5c0,0-6.8,2.3-9.1,3.5c-2.2,1.2-12.6,9.7-14.6,15.2C224.7,613.9,223.5,620.4,223.5,620.4z"/>
				<path class="st3" d="M246.3,589.6c-0.1,0-0.2,0-0.3-0.1c-0.3,0.6-1,0.9-1.7,0.8c-0.1,0-0.1,0-0.2-0.1c-0.2,0.8-1,1.3-1.8,1.2
					c-0.1,0-0.2,0-0.3-0.1c-0.3,0.6-1,0.9-1.7,0.8c-0.1,0-0.1,0-0.2-0.1c0,0,0,0,0,0c-0.1,0.9-1,1.5-1.8,1.4c-0.1,0-0.2,0-0.2-0.1
					c0,0,0,0,0,0c-0.1,0.9-1,1.5-1.8,1.4c-0.1,0.9-1,1.5-1.8,1.4c-0.1,0-0.2,0-0.2-0.1c0,0.1,0,0.2,0,0.3c-0.1,0.9-1,1.5-1.8,1.4
					c0,0-0.1,0-0.1,0c0.1,0.3,0.2,0.6,0.1,0.9c-0.1,0.8-0.8,1.4-1.6,1.4c0,0.2,0,0.3,0,0.5c-0.1,0.7-0.6,1.2-1.2,1.3
					c0,0.1,0,0.3,0,0.4c-0.1,0.8-0.9,1.4-1.7,1.4c0,0.2,0,0.3,0,0.5c-0.1,0.7-0.7,1.3-1.4,1.4c0.1,0.3,0.2,0.6,0.1,0.9
					c-0.1,0.8-0.8,1.3-1.5,1.4c0.2,0.3,0.2,0.7,0.2,1c-0.1,0.6-0.5,1-0.9,1.2c0.2,0.3,0.3,0.7,0.2,1.1c-0.1,0.7-0.6,1.2-1.2,1.3
					c0.5,0.3,0.9,1,0.8,1.6c-0.1,0.6-0.5,1.1-1.1,1.3c0.6,0.5,0.8,1.4,0.4,2.1c-0.4,0.8-1.4,1.1-2.2,0.6c-0.8-0.4-1.1-1.4-0.6-2.2
					c0.2-0.4,0.5-0.6,0.9-0.7c-0.4-0.3-0.7-0.9-0.6-1.5c0.1-0.7,0.6-1.2,1.2-1.3c-0.5-0.3-0.9-1-0.8-1.6c0.1-0.6,0.5-1,0.9-1.2
					c-0.2-0.3-0.3-0.7-0.2-1.1c0.1-0.8,0.8-1.3,1.5-1.4c-0.2-0.3-0.2-0.7-0.2-1c0.1-0.7,0.7-1.3,1.4-1.4c-0.1-0.3-0.2-0.6-0.1-0.9
					c0.1-0.8,0.9-1.4,1.7-1.4c0-0.2,0-0.3,0-0.5c0.1-0.7,0.6-1.2,1.2-1.3c0-0.1,0-0.3,0-0.4c0.1-0.8,0.8-1.4,1.6-1.4
					c0-0.2,0-0.3,0-0.5c0.1-0.9,1-1.5,1.8-1.4c0,0,0.1,0,0.1,0c-0.1-0.3-0.2-0.6-0.1-0.9c0.1-0.9,1-1.5,1.8-1.4c0.1,0,0.2,0,0.2,0.1
					c0-0.1,0-0.2,0-0.3c0.1-0.9,1-1.5,1.8-1.4c0.1-0.9,1-1.5,1.8-1.4c0.1,0,0.2,0,0.2,0.1c0,0,0,0,0,0c0.1-0.9,1-1.5,1.8-1.4
					c0.1,0,0.1,0,0.2,0.1c0,0,0,0,0,0c0.1-0.9,1-1.5,1.8-1.4c0.1,0,0.2,0,0.3,0.1c0.3-0.6,1-0.9,1.7-0.8c0.1,0,0.1,0,0.2,0.1
					c0.2-0.8,1-1.3,1.8-1.2c0.1,0,0.2,0,0.3,0.1c0.3-0.6,1-0.9,1.7-0.8c0.9,0.1,1.5,1,1.4,1.8C248,589.1,247.2,589.7,246.3,589.6z"
					/>
				<path class="st4" d="M248.5,588.7c-0.4-0.2-1-0.3-1.5-0.1c-13.5,5.3-19.4,13.8-22,20c-2.8,6.8-2.3,12.3-2.3,12.6
					c0.1,0.9,0.9,1.6,1.9,1.5c0.9-0.1,1.6-0.9,1.5-1.8c-0.1-0.8-1.4-20,22.1-29.1c0.9-0.3,1.3-1.3,1-2.2
					C249.1,589.2,248.9,588.9,248.5,588.7z"/>
				<path class="st3" d="M257.7,614.3c0.1,0.4,0,0.8-0.2,1.2c-0.3,0.6-1,0.9-1.6,0.8c0.1,0.4,0.1,0.8-0.2,1.2
					c-0.3,0.5-0.9,0.8-1.5,0.8c0.1,0.4,0.1,0.9-0.1,1.3c-0.4,0.8-1.4,1.1-2.2,0.6c0,0,0,0,0,0c0.1,0.4,0,0.7-0.2,1.1
					c-0.4,0.6-1.1,0.9-1.8,0.8c0.1,0.4,0.1,0.9-0.1,1.3c-0.4,0.7-1.2,1-1.9,0.7c0,0.3,0,0.7-0.2,1c-0.4,0.8-1.4,1-2.2,0.6
					c0,0.2-0.1,0.5-0.2,0.7c-0.3,0.6-1,0.9-1.6,0.8c0,0.2-0.1,0.4-0.2,0.6c-0.4,0.7-1.2,1-2,0.7c0.1,0.4,0,0.8-0.2,1.2
					c-0.4,0.8-1.4,1.1-2.2,0.6c0,0,0,0,0,0c0,0.3-0.1,0.5-0.2,0.8c-0.4,0.8-1.4,1.1-2.2,0.6c-0.8-0.4-1.1-1.4-0.6-2.2
					c0.4-0.8,1.4-1.1,2.2-0.6c0,0,0,0,0,0c0-0.3,0.1-0.5,0.2-0.8c0.4-0.7,1.2-1,2-0.7c-0.1-0.4,0-0.8,0.2-1.2c0.3-0.6,1-0.9,1.6-0.8
					c0-0.2,0.1-0.4,0.2-0.6c0.4-0.8,1.4-1,2.2-0.6c0-0.2,0.1-0.5,0.2-0.7c0.4-0.7,1.2-1,1.9-0.7c0-0.3,0-0.7,0.2-1
					c0.4-0.6,1.1-0.9,1.8-0.8c-0.1-0.4-0.1-0.9,0.1-1.3c0.4-0.8,1.4-1.1,2.2-0.6c0,0,0,0,0,0c-0.1-0.4,0-0.7,0.2-1.1
					c0.3-0.5,0.9-0.8,1.5-0.8c-0.1-0.4-0.1-0.9,0.1-1.3c0.3-0.6,1-0.9,1.6-0.8c-0.1-0.4-0.1-0.8,0.2-1.2c0.4-0.6,1.1-0.9,1.8-0.8
					c-0.1-0.4,0-0.8,0.2-1.2c0.4-0.8,1.4-1.1,2.2-0.6c0.8,0.4,1.1,1.4,0.6,2.2C259.1,614.2,258.4,614.5,257.7,614.3z"/>
				<path class="st4" d="M261.2,604.5c-0.7-0.4-1.7-0.2-2.2,0.4c-11.3,14.6-24.3,22.7-24.5,22.7c-0.8,0.5-1.1,1.5-0.6,2.3
					c0.5,0.8,1.5,1.1,2.3,0.6c0.6-0.3,13.7-8.4,25.4-23.6c0.6-0.7,0.4-1.8-0.3-2.4C261.3,604.6,261.2,604.5,261.2,604.5z"/>
				<g>
					<path class="st4" d="M227.5,622.7c-1.1-0.6-1.5-2.1-0.9-3.2c0.3-0.5,0.7-0.9,1.2-1c-0.1-0.5,0-1.1,0.3-1.6
						c0.1-0.1,0.2-0.3,0.3-0.4c-0.3-0.7-0.3-1.5,0.1-2.2c0.4-0.8,1.2-1.2,2-1.2c-0.4-0.7-0.4-1.6,0-2.3c0.4-0.7,1.1-1.1,1.9-1.2
						c0-0.5,0-0.9,0.3-1.4c0.6-1.1,2.1-1.5,3.2-0.9s1.5,2.1,0.9,3.2c-0.4,0.7-1.1,1.1-1.9,1.2c0,0.5,0,0.9-0.3,1.4
						c-0.4,0.8,4.3,4.5,3.5,4.5c0.4,0.7-5.1-1.7-5.5-1c-0.1,0.1-0.2,0.3-0.3,0.4c0.3,0.7,0.3,1.5-0.1,2.2c-0.3,0.5-0.7,0.9-1.2,1
						c0.1,0.5,0,1.1-0.3,1.6C230.1,622.9,228.6,623.3,227.5,622.7z"/>
					<path class="st4" d="M237.3,621c0.6,0.7,0.7,1.8,0.2,2.6c-0.6,1.1-2.1,1.5-3.2,0.9c-1.1-0.6-1.5-2.1-0.9-3.2
						c0.5-0.9,1.4-1.3,2.3-1.2c-0.6-0.7-0.7-1.8-0.2-2.6c0.3-0.6,0.8-1,1.4-1.1c-0.2-0.6-0.1-1.2,0.2-1.8c0.3-0.6,0.8-0.9,1.4-1.1
						c-0.2-0.6-0.1-1.2,0.2-1.8c0.6-1.1,2.1-1.5,3.2-0.9c1.1,0.6,1.5,2.1,0.9,3.2c-0.3,0.6-0.8,0.9-1.4,1.1c0.2,0.6,0.1,1.2-0.2,1.8
						c-0.3,0.6-0.8,1-1.4,1.1c0.2,0.6,0.1,1.2-0.2,1.8C239.2,620.7,238.3,621.1,237.3,621z"/>
				</g>
				<path class="st5" d="M236.9,608.7c0,0-4.9,5.6-5.7,10.1s-4.6,9.1-4.6,9.1s7.2-2.4,8.9-5.7c1.7-3.3,5.9-10.5,5.9-10.5
					L236.9,608.7z"/>
				<path class="st2" d="M254.9,603.5l4.4,0.5l1.6-2.9c0,0-11.4-16.4-12.7-25s-1.4-17.4-1.4-17.4l-2.6-1.1l-2,5.6l1.7,2.9l-3,0.1
					l1.2,3.9l1.3,0.4l-2.9,1.9l5.1,4.2l-4.2,2l5.9,3.8l-3.1,1.5l5.2,3.3l-1.7,3l4.9,2.4l-1.7,3l3.7,2.1l-2.2,3.3L254.9,603.5z"/>
				<path class="st4" d="M244.1,555.5c-1.2-0.7-2.1-0.9-2.2-0.9c-0.4-0.1-0.9,0-1.2,0.4c-0.3,0.4-0.3,0.9-0.1,1.3
					c0.6,1.1,1.4,2.4,2.1,3.5c-0.3-0.1-0.4-0.1-0.5-0.1c-0.4-0.1-0.8,0-1.1,0.3c-0.3,0.3-0.4,0.7-0.3,1.1c0.5,1.4,1.2,2.7,2,3.8
					c-1.6-0.1-2.8,0.1-2.9,0.1c-0.3,0.1-0.7,0.3-0.8,0.6c-0.2,0.3-0.2,0.7,0,1c0.6,1.4,1.8,2.6,2.9,3.5c-1.3,0.2-2.5,0.6-2.9,0.7
					c-0.4,0.1-0.7,0.5-0.8,0.9c-0.1,0.4,0.1,0.9,0.5,1.1c1.4,1,3.5,2.4,5.3,3.5c-1.1,0.3-2.2,0.6-3,0.9c-0.3,0.1-0.6,0.4-0.7,0.8
					c-0.1,0.4,0,0.7,0.2,1c0.8,0.9,2.6,2.1,4.4,3c-1.1,0.5-1.7,1.2-1.8,1.2c-0.2,0.2-0.3,0.5-0.3,0.8c0,0.3,0.1,0.6,0.3,0.8
					c1.2,1.2,3.1,2.2,4.6,3c-0.6,0.3-1.2,0.7-1.6,1c-0.3,0.2-0.5,0.6-0.5,0.9c0,0.4,0.2,0.7,0.5,0.9c1.3,0.9,3.3,1.8,4.9,2.5
					c-0.6,0.4-1.1,0.8-1.3,0.9c-0.5,0.4-0.6,1.1-0.2,1.6c0.8,1,1.9,1.8,3.1,2.5c0,0,0,0,0,0c-0.7,0.3-1.1,0.7-1.2,0.7
					c-0.4,0.3-0.5,0.8-0.3,1.3c0.5,1.4,1.6,2.5,2.7,3.3c-0.3,0.2-0.5,0.3-0.5,0.4c-0.4,0.3-0.5,0.8-0.4,1.2c1.4,4.7,5.9,5.1,6.1,5.2
					c0.6,0.1,1.2-0.4,1.2-1c0.1-0.6-0.4-1.2-1-1.2c-0.1,0-2.6-0.3-3.8-2.7c0.4-0.1,1-0.2,1.8,0c0.2,0.1,0.4,0.1,0.4,0.2
					c0.6,0.2,1.2-0.1,1.4-0.7c0.2-0.6-0.1-1.2-0.6-1.4c-0.2-0.1-0.3-0.1-0.5-0.2c-1.2-0.5-3.2-1.5-4.2-2.9c0.6-0.3,1.4-0.6,2.3-0.5
					c0.8,0.3,1.3,0.5,1.4,0.5c0.6,0.2,1.1-0.1,1.4-0.6c0.2-0.5,0-1.2-0.5-1.4c-0.6-0.3-1.2-0.5-1.7-0.6c-1.4-0.5-3.2-1.4-4.4-2.4
					c0.7-0.5,1.5-0.9,1.8-0.9c0.5-0.1,0.9-0.5,1-1c0.1-0.5-0.2-1-0.7-1.2c0,0-3-1.1-5.3-2.3c0.8-0.4,1.5-0.7,1.7-0.7
					c0.6,0.1,1.2-0.2,1.3-0.8c0.2-0.6-0.1-1.2-0.7-1.4c0,0-3.3-1.3-5.6-2.9c0.7-0.4,1.8-0.7,2.9-0.3c0.6,0.2,1.2-0.1,1.4-0.7
					c0.2-0.6-0.1-1.2-0.6-1.4c-1.8-0.7-4.2-1.9-5.8-2.9c1.5-0.4,2.9-0.7,3.3-0.6c0.5,0.3,1.2,0.1,1.5-0.5c0.3-0.5,0.1-1.2-0.4-1.5
					c0,0-3.3-2-5.9-3.7c1.3-0.2,2.6-0.3,3.4-0.1c0.2,0.1,0.4,0.2,0.4,0.2c0.6,0.2,1.2,0,1.5-0.5c0.3-0.5,0.1-1.2-0.5-1.5
					c-0.1-0.1-0.3-0.2-0.5-0.2c-0.8-0.4-3-1.5-4.4-3.1c1.1,0,2.4,0.2,3.3,0.7c0,0,0,0,0,0c0.5,0.3,1.1,0.1,1.5-0.3
					c0.3-0.5,0.3-1.1-0.1-1.5c0,0-1.5-1.4-2.6-3.3c0.3,0.1,0.6,0.3,0.9,0.4c0.5,0.2,1,0.1,1.4-0.2c0.4-0.4,0.4-1,0.1-1.4
					c0,0-0.6-1-1.4-2.2c0,0,0,0,0,0.1c0.4,0.5,1.1,0.6,1.6,0.2c0.5-0.4,0.6-1.1,0.2-1.6C246.2,556.8,245.1,556,244.1,555.5z"/>
				<path class="st6" d="M247.4,554.1c0,0,5.1,6,5.2,1.6c0,0,3.1,1,3.8,2.5c0.8,1.5,3.1,2.7,4.3,2.6c1.2-0.2,2.6-1.3,3.2,0
					c0.6,1.3,3,3.1,3,3.1s-1.1-0.7-2.9,0.2c-1.7,0.9-6.3,2.6-6.3,2.6l2.3,22.4c0,0-2.4,3.4-2.5,6.5S248,578,248,578l-1.9-19.4
					L247.4,554.1z"/>
				<path class="st5" d="M259.6,590.7c0,0-3.1-1.2-1.9-4.5c0,0-2.1-0.4-1.7-2.2c0,0-3.3-1-3.2-4.6c0,0-1.5-0.9-1.1-2.3
					c0,0-1.3-0.9,0.2-2.5c0,0-1.6-1.1-0.3-3.1c0,0-1.6-1.1-0.9-3.1c0,0-1.5-1.2-0.5-3.2c0,0-1.3-2.1,0.1-4.7L250,558
					c0,0,4.7,2.7,6,3.4c0,0,1.7,2.3,3.6,1.8c1.9-0.6,0.9,2.9,2.7,3.5c0,0,0.2,4.8,1.9,5.6c1.7,0.7,2.8,9.8,2.8,9.8l-4.3,6.9
					L259.6,590.7z"/>
				<path class="st7" d="M250,543.2l-3.3-1c-0.1,0.3-10.3,33.8,13.6,61.5l2.6-2.2C240.3,575.1,249.9,543.5,250,543.2z"/>
				<path class="st8" d="M263.3,578.8c0,0-4.4-7.8-9.6-2.8c0,0,2.3-0.5,3.7,0.5c0,0,0.5,1.6,2.4,1.4c0,0-0.8,1.2,0.4,1.5
					C261.5,579.6,263.3,578.8,263.3,578.8z"/>
				<path class="st8" d="M260.5,589.8c0,0-3.1-3.7-2.5-6.2c0,0-3.4-2.9-3.3-5.7c0,0,2.6,0.1,3.4,1.9c0.9,1.8,6.6,0.1,6.6,0.1
					S259.8,586.2,260.5,589.8z"/>
				<circle class="st9" cx="259.9" cy="582.8" r="1"/>
				<path class="st8" d="M263.9,576.9c0,0-4.4-6.2-9.7-2.8c0,0-1.2-0.4-0.5-1.7c0,0-3.6-6.6-2-12.1c0,0,1.3,1.3,3.3,1.3
					c0,0,2.7-1.4,4.9,0.3c0,0-3.3,0.1-3.7,0.9c0,0-0.5,6.1,5.2,9.7c0,0,0.5-2.8,2.6-1.1c0,0,2.4-1.5,3.3,0.7L263.9,576.9z"/>
				<path class="st9" d="M253,572.2l1.5,0.5c0,0,3.2-1.9,5.6-0.5C260.1,572.2,256.4,568.2,253,572.2z"/>
				<path class="st9" d="M256.3,568.5c0,0-1.7,1.7-4.3,0.2C252,568.7,252.8,566.4,256.3,568.5z"/>
				<path class="st9" d="M255.3,566.1c0,0-1.9,0.3-2.9-1.6C252.4,564.5,254.1,562.8,255.3,566.1z"/>
				<path class="st9" d="M256.1,562.7c0.1-0.2,0.5-0.4,0.9-0.5c0,0,0.3,4.3,1.7,7.9C255.8,566.7,256.1,562.7,256.1,562.7z"/>
				<path class="st8" d="M262.9,568.9c0,0-2.6,1.2-3.4-1.4C259.5,567.5,261.5,566.2,262.9,568.9z"/>
				<path class="st9" d="M261,570.8c0,0,0.9-2.6,2.7-1.5L261,570.8z"/>
				<path class="st7" d="M238,604.5c-0.1-0.1-0.3-0.1-0.4-0.1c-0.6-0.1-1.2,0.3-1.3,1c-0.2,1.2,0,3.4,1.6,4.3c0.2,0.8,0.7,2,1.9,2.6
					c1.1,0.6,2.5,0.5,4.2-0.3c0.6-0.3,0.8-1,0.5-1.5s-1-0.8-1.5-0.5c-0.6,0.3-1.5,0.6-2.1,0.3c-0.6-0.3-0.9-1.3-0.9-1.5
					c-0.1-0.4-0.4-0.8-0.8-0.9c-0.8-0.3-0.6-2.1-0.6-2.1C238.6,605.2,238.4,604.7,238,604.5z"/>
				<path class="st4" d="M249.5,599.8c1.4,0.6,2.3,1.9,2.4,3.3c0.1,1-0.1,3.5-3.9,5.5c-0.8,0.4-1.7,1.1-1.8,1.9
					c-0.1,0.9,0.8,1.8,0.8,1.8c0.4,0.4,0.5,1,0.2,1.5s-0.9,0.6-1.4,0.4c-1.9-0.9-3-2.2-3.3-3.9c-0.3-1.5,0.1-2.9,0.7-4.2
					c-5.1,0.8-9.7-2-10-2.2c-0.5-0.3-0.7-1-0.4-1.5c0.3-0.5,1-0.7,1.5-0.5c0.2,0.1,4.5,2.1,7.7-1.7c1.5-1.8,3.1-2.7,4.7-2.5
					c0.5,0.1,0.9,0.2,1.3,0.4C248.7,598.7,249.2,599.4,249.5,599.8z M245.2,603c0.5-0.3,1.1-0.1,1.4,0.3c0.3,0.4,0.3,1,0,1.5
					c-0.5,0.6-1.6,2.2-1.9,3.7c0.5-0.7,1.3-1.4,2.3-1.9c1.8-1,2.8-2.2,2.7-3.3c-0.1-0.7-0.5-1.3-1.3-1.5c-0.3-0.1-0.5-0.3-0.6-0.6
					c0,0-0.6-1.1-1.5-1.2c-0.7-0.1-1.6,0.5-2.6,1.7c-0.9,1-1.9,1.8-2.8,2.3C242.2,604,243.7,603.8,245.2,603z"/>
			</g>
			<g>
				<path class="st2" d="M277.2,551.1l4.8,1.8c0,0-0.6,10.1-0.5,14.6c0.1,4.6,2,8.9,2,8.9s1.2,4.6,3.1,4.6s4.8-1.3,4.8-1.3l1.9,1.7
					l0.4,2.3l-8.3,7.3c0,0-4.8-5.4-6.2-7.5s-6.2-14.6-5.2-20.4S277.2,551.1,277.2,551.1z"/>
				<path class="st3" d="M281.9,589.1c-0.1,0-0.2-0.1-0.3-0.1c0-0.7-0.4-1.3-1-1.6c-0.1,0-0.1,0-0.2-0.1c0.2-0.8-0.2-1.7-1-2
					c-0.1,0-0.2-0.1-0.3-0.1c0-0.7-0.4-1.3-1-1.5c-0.1,0-0.1,0-0.2-0.1c0,0,0,0,0,0c0.3-0.8-0.1-1.8-0.9-2.1c-0.1,0-0.2,0-0.2-0.1
					c0,0,0,0,0,0c0.3-0.8-0.1-1.8-0.9-2.1c0.3-0.8-0.1-1.8-0.9-2.1c-0.1,0-0.1,0-0.2-0.1c0.1-0.1,0.1-0.2,0.1-0.3
					c0.3-0.8-0.1-1.8-0.9-2.1c0,0-0.1,0-0.1,0c0.3-0.2,0.5-0.4,0.6-0.7c0.3-0.8,0-1.6-0.7-2c0.1-0.1,0.2-0.3,0.3-0.4
					c0.2-0.6,0.1-1.3-0.4-1.7c0.1-0.1,0.2-0.2,0.2-0.4c0.3-0.8-0.1-1.7-0.8-2c0.1-0.1,0.2-0.3,0.3-0.5c0.3-0.7,0-1.5-0.6-1.9
					c0.2-0.2,0.4-0.4,0.6-0.7c0.3-0.7,0-1.5-0.6-1.9c0.3-0.2,0.5-0.4,0.7-0.8c0.2-0.5,0.1-1.1-0.2-1.5c0.3-0.2,0.6-0.5,0.7-0.8
					c0.2-0.6,0.1-1.3-0.4-1.8c0.6,0,1.2-0.4,1.5-1c0.2-0.6,0.1-1.2-0.3-1.6c0.8-0.1,1.4-0.8,1.4-1.6c0-0.9-0.7-1.6-1.6-1.6
					s-1.6,0.7-1.6,1.6c0,0.4,0.2,0.8,0.4,1.1c-0.5,0.1-1,0.5-1.3,1c-0.2,0.6-0.1,1.3,0.4,1.8c-0.6,0-1.2,0.4-1.5,1
					c-0.2,0.5-0.1,1.1,0.2,1.5c-0.3,0.2-0.6,0.5-0.7,0.8c-0.3,0.7,0,1.5,0.6,1.9c-0.3,0.2-0.5,0.4-0.7,0.8c-0.3,0.7,0,1.5,0.6,1.9
					c-0.2,0.2-0.4,0.4-0.6,0.7c-0.3,0.8,0.1,1.7,0.8,2c-0.1,0.1-0.2,0.3-0.3,0.5c-0.2,0.6-0.1,1.3,0.4,1.7c-0.1,0.1-0.2,0.2-0.2,0.4
					c-0.3,0.8,0,1.6,0.7,2c-0.1,0.1-0.2,0.3-0.3,0.4c-0.3,0.8,0.1,1.8,0.9,2.1c0,0,0.1,0,0.1,0c-0.3,0.2-0.5,0.4-0.6,0.7
					c-0.3,0.8,0.1,1.8,0.9,2.1c0.1,0,0.1,0,0.2,0.1c-0.1,0.1-0.1,0.2-0.1,0.3c-0.3,0.8,0.1,1.8,0.9,2.1c-0.3,0.8,0.1,1.8,0.9,2.1
					c0.1,0,0.2,0,0.2,0.1c0,0,0,0,0,0c-0.3,0.8,0.1,1.8,0.9,2.1c0.1,0,0.1,0,0.2,0.1c0,0,0,0,0,0c-0.3,0.8,0.1,1.8,0.9,2.1
					c0.1,0,0.2,0.1,0.3,0.1c0,0.7,0.4,1.3,1,1.5c0.1,0,0.1,0,0.2,0.1c-0.2,0.8,0.2,1.7,1,2c0.1,0,0.2,0.1,0.3,0.1
					c0,0.7,0.4,1.3,1,1.6c0.8,0.3,1.8-0.1,2.1-0.9C283.1,590.4,282.7,589.5,281.9,589.1z"/>
				<path class="st4" d="M283.4,591.1c-0.5,0-1-0.2-1.3-0.6c-9.2-11.2-10.1-21.5-9.3-28.2c0.9-7.3,4-11.9,4.2-12.1
					c0.5-0.8,1.6-1,2.4-0.4c0.8,0.5,1,1.6,0.4,2.4c-0.5,0.7-11,16.7,4.9,36.2c0.6,0.7,0.5,1.8-0.2,2.4
					C284.2,590.9,283.8,591.1,283.4,591.1z"/>
				<path class="st3" d="M304,573.2c0.3-0.3,0.4-0.7,0.4-1.1c0-0.7-0.4-1.3-1-1.5c0.3-0.3,0.5-0.7,0.5-1.1c0-0.6-0.4-1.2-0.9-1.4
					c0.3-0.3,0.5-0.7,0.5-1.2c0-0.9-0.7-1.6-1.6-1.6c0,0,0,0,0,0c0.2-0.3,0.4-0.6,0.4-1c0-0.7-0.5-1.4-1.2-1.6
					c0.3-0.3,0.5-0.7,0.5-1.2c0-0.8-0.6-1.4-1.3-1.6c0.2-0.3,0.3-0.6,0.3-1c0-0.9-0.7-1.6-1.6-1.6c0.1-0.2,0.2-0.4,0.2-0.7
					c0-0.7-0.4-1.3-1-1.5c0.1-0.2,0.1-0.4,0.1-0.7c0-0.8-0.6-1.5-1.4-1.6c0.3-0.3,0.4-0.7,0.4-1.1c0-0.9-0.7-1.6-1.6-1.6
					c0,0,0,0,0,0c0.1-0.2,0.2-0.5,0.2-0.8c0-0.9-0.7-1.6-1.6-1.6c-0.9,0-1.6,0.7-1.6,1.6s0.7,1.6,1.6,1.6c0,0,0,0,0,0
					c-0.1,0.2-0.2,0.5-0.2,0.8c0,0.8,0.6,1.5,1.4,1.6c-0.3,0.3-0.4,0.7-0.4,1.1c0,0.7,0.4,1.3,1,1.5c-0.1,0.2-0.1,0.4-0.1,0.7
					c0,0.9,0.7,1.6,1.6,1.6c-0.1,0.2-0.2,0.4-0.2,0.7c0,0.8,0.6,1.4,1.3,1.6c-0.2,0.3-0.3,0.6-0.3,1c0,0.7,0.5,1.4,1.2,1.6
					c-0.3,0.3-0.5,0.7-0.5,1.2c0,0.9,0.7,1.6,1.6,1.6c0,0,0,0,0,0c-0.2,0.3-0.4,0.6-0.4,1c0,0.6,0.4,1.2,0.9,1.4
					c-0.3,0.3-0.5,0.7-0.5,1.2c0,0.7,0.4,1.3,1,1.5c-0.3,0.3-0.5,0.7-0.5,1.1c0,0.7,0.5,1.3,1.1,1.5c-0.3,0.3-0.4,0.7-0.4,1.1
					c0,0.9,0.7,1.6,1.6,1.6s1.6-0.7,1.6-1.6C305.2,574.1,304.7,573.5,304,573.2z"/>
				<path class="st4" d="M302.2,583.5c-0.8,0-1.6-0.6-1.7-1.5c-2.6-18.3-10-31.7-10.1-31.8c-0.5-0.8-0.2-1.9,0.7-2.3
					c0.8-0.5,1.9-0.2,2.3,0.7c0.3,0.6,7.8,14.1,10.5,33c0.1,0.9-0.5,1.8-1.4,1.9C302.4,583.5,302.3,583.5,302.2,583.5z"/>
				<g>
					<path class="st4" d="M281.8,551.1c-1.3,0-2.4,1.1-2.4,2.4c0,0.6,0.2,1.1,0.6,1.5c-0.3,0.4-0.6,0.9-0.6,1.5c0,0.2,0,0.3,0,0.5
						c-0.6,0.4-1,1.1-1,1.9c0,0.9,0.5,1.6,1.2,2c-0.7,0.4-1.2,1.2-1.2,2c0,0.8,0.4,1.6,1.1,2c-0.3,0.4-0.4,0.8-0.4,1.4
						c0,1.3,1.1,2.4,2.4,2.4c1.3,0,2.4-1.1,2.4-2.4c0-0.8-0.4-1.6-1.1-2c0.3-0.4,0.4-0.8,0.4-1.4c0-0.9,6-1.8,5.3-2.2
						c0.7-0.4-5.3-1-5.3-1.9c0-0.2,0-0.3,0-0.5c0.6-0.4,1-1.1,1-1.9c0-0.6-0.2-1.1-0.6-1.5c0.3-0.4,0.6-0.9,0.6-1.5
						C284.2,552.2,283.1,551.1,281.8,551.1z"/>
					<path class="st4" d="M289.6,557.4c0.9-0.4,1.5-1.2,1.5-2.2c0-1.3-1.1-2.4-2.4-2.4c-1.3,0-2.4,1.1-2.4,2.4c0,1,0.6,1.8,1.5,2.2
						c-0.9,0.4-1.5,1.2-1.5,2.2c0,0.7,0.3,1.2,0.7,1.7c-0.4,0.4-0.7,1-0.7,1.7c0,0.6,0.3,1.2,0.7,1.7c-0.4,0.4-0.7,1-0.7,1.7
						c0,1.3,1.1,2.4,2.4,2.4c1.3,0,2.4-1.1,2.4-2.4c0-0.7-0.3-1.2-0.7-1.7c0.4-0.4,0.7-1,0.7-1.7c0-0.7-0.3-1.2-0.7-1.7
						c0.4-0.4,0.7-1,0.7-1.7C291,558.6,290.4,557.8,289.6,557.4z"/>
				</g>
				<path class="st5" d="M283.1,568c0,0-1.5-7.3,0-11.6c1.5-4.3,0.5-10.2,0.5-10.2s5.1,5.6,5,9.3c-0.2,3.7,0,12,0,12L283.1,568z"/>
				<path class="st2" d="M296.3,581.3l4,1.7v3.3c0,0-18,8.7-23.4,15.5c-5.3,6.8-9.7,14.4-9.7,14.4l-2.8-0.3l1-5.8l2.9-1.7l-2.6-1.5
					l2.9-2.8l1.3,0.3l-1.6-3.1l6.5-1.1l-2.7-3.8l7-0.4l-1.9-2.9l6.2-0.3v-3.5l5.5,0.4v-3.5h4.3l-0.3-3.9L296.3,581.3z"/>
				<path class="st4" d="M263.3,617.8c-1.3,0-2.3-0.2-2.4-0.3c-0.4-0.1-0.8-0.5-0.8-0.9c-0.1-0.5,0.1-0.9,0.5-1.1
					c1.1-0.7,2.4-1.4,3.6-2c-0.3-0.1-0.4-0.1-0.5-0.1c-0.4-0.1-0.7-0.4-0.8-0.8c-0.1-0.4,0-0.8,0.3-1.1c1.1-1,2.4-1.8,3.6-2.3
					c-1.4-0.7-2.4-1.5-2.5-1.5c-0.3-0.2-0.4-0.6-0.4-0.9c0-0.4,0.2-0.7,0.5-0.9c1.2-0.9,2.8-1.4,4.3-1.6c-1.1-0.9-1.9-1.7-2.2-2
					c-0.3-0.3-0.4-0.8-0.2-1.2c0.1-0.4,0.5-0.7,0.9-0.7c1.7-0.2,4.2-0.3,6.3-0.4c-0.8-0.8-1.6-1.6-2.1-2.3c-0.2-0.3-0.3-0.7-0.2-1
					c0.1-0.4,0.3-0.6,0.7-0.8c1.1-0.5,3.3-0.5,5.3-0.4c-0.7-1-0.9-1.8-0.9-1.9c-0.1-0.3,0-0.6,0.1-0.9c0.2-0.3,0.4-0.5,0.7-0.5
					c1.7-0.4,3.8-0.4,5.5-0.3c-0.4-0.6-0.7-1.2-0.9-1.7c-0.2-0.3-0.2-0.7,0-1.1c0.2-0.3,0.5-0.5,0.9-0.6c1.6-0.1,3.8,0,5.5,0.2
					c-0.4-0.7-0.6-1.3-0.7-1.5c-0.2-0.6,0-1.2,0.6-1.5c1.1-0.5,2.6-0.6,4-0.6c0,0,0,0,0,0c-0.4-0.6-0.6-1.2-0.7-1.2
					c-0.2-0.5,0-1,0.3-1.3c1.1-0.9,2.6-1.4,4-1.5c-0.2-0.3-0.3-0.5-0.3-0.6c-0.2-0.4,0-0.9,0.3-1.2c3.6-3.4,7.7-1.6,7.8-1.5
					c0.6,0.3,0.8,0.9,0.6,1.5c-0.3,0.6-0.9,0.8-1.5,0.6c-0.1-0.1-2.4-1-4.6,0.5c0.3,0.3,0.8,0.7,1.6,0.8c0.2,0,0.4,0.1,0.4,0.1
					c0.6,0.1,1,0.7,0.9,1.3c-0.1,0.6-0.7,1-1.3,0.9c-0.2,0-0.4-0.1-0.5-0.1c-1.2-0.2-3.5-0.3-5.1,0.5c0.4,0.5,0.9,1.2,1.8,1.5
					c0.8,0.1,1.4,0.2,1.5,0.3c0.6,0.1,0.9,0.7,0.9,1.2c-0.1,0.6-0.6,1-1.1,1c-0.7,0-1.3-0.1-1.8-0.3c-1.5-0.2-3.5-0.4-5-0.1
					c0.4,0.8,0.9,1.5,1.2,1.7c0.4,0.3,0.6,0.9,0.4,1.4c-0.2,0.5-0.7,0.8-1.2,0.7c0,0-3.1-0.5-5.7-0.6c0.5,0.7,1,1.3,1.2,1.4
					c0.6,0.2,0.9,0.7,0.8,1.3c-0.1,0.6-0.7,1-1.3,0.9c0,0-3.5-0.5-6.3-0.3c0.5,0.7,1.2,1.5,2.4,1.7c0.6,0.1,1,0.7,0.9,1.3
					c-0.1,0.6-0.7,1-1.3,1c-1.9-0.2-4.6-0.4-6.5-0.3c1.1,1.1,2.2,2,2.6,2.1c0.6,0,1.1,0.5,1.1,1.1s-0.5,1.1-1.1,1.1
					c0,0-3.9,0.1-7,0.3c1,0.8,2.1,1.6,2.9,1.7c0.2,0,0.4,0,0.4,0c0.6,0.1,1,0.6,1,1.2c0,0.6-0.5,1.1-1.1,1.1c-0.2,0-0.3,0-0.5,0
					c-0.9-0.1-3.3-0.1-5.3,0.5c0.9,0.5,2.1,1,3.2,1c0,0,0,0,0,0c0.6,0,1.1,0.4,1.1,1c0.1,0.6-0.3,1.1-0.8,1.2c0,0-2,0.5-3.9,1.6
					c0.3,0,0.6,0.1,1,0.1c0.5,0,1,0.4,1.1,0.9c0.1,0.5-0.1,1-0.6,1.3c0,0-1,0.5-2.3,1.2c0,0,0,0,0.1,0c0.6-0.2,1.2,0,1.5,0.6
					c0.2,0.6,0,1.2-0.6,1.5C265.7,617.6,264.3,617.8,263.3,617.8z"/>
				<path class="st6" d="M265.4,620.6c0,0,7.4-2.7,5.3,1.2c0,0,3.2,0.6,4.6-0.3c1.4-0.9,4-0.9,5-0.1c1,0.7,1.6,2.4,2.7,1.6
					s4.2-1.3,4.2-1.3s-1.3,0-2.4-1.6c-1.1-1.6-4.2-5.4-4.2-5.4l13.1-18.4c0,0-0.4-4.1,1-6.9c1.4-2.7-16.9,10.7-16.9,10.7L266.6,616
					L265.4,620.6z"/>
				<path class="st5" d="M294,594.8c0,0-3.3-0.4-3.9,2.9c0,0-2-0.7-2.6,1.1c0,0-3.4-0.7-5,2.4c0,0-1.7,0-2,1.5c0,0-1.6,0.2-1.1,2.3
					c0,0-2,0.2-1.8,2.5c0,0-1.9,0.1-2.3,2.3c0,0-1.9,0.3-2,2.5c0,0-2.1,1.2-2.2,4.1l-1.6,1.9c0,0,5.4,0,6.9,0c0,0,2.6-1.2,4,0.2
					s2.2-2.1,4.1-1.8c0,0,2.6-4.1,4.4-3.9c1.8,0.2,7.2-7.1,7.2-7.1l-0.3-8.1L294,594.8z"/>
				<path class="st7" d="M262.2,631.4l-3.3-0.7c0.1-0.3,7.7-34.5,42.1-46.8l1.2,3.2C269.6,598.8,262.3,631.1,262.2,631.4z"/>
				<path class="st8" d="M291.4,607c0,0-7.7,4.6-9.7-2.2c0,0,1.8,1.6,3.5,1.4c0,0,1.2-1.1,2.8-0.1c0,0-0.1-1.4,1.1-1.1
					C290.2,605.4,291.4,607,291.4,607z"/>
				<path class="st8" d="M294.3,596c0,0-4.5,1.7-5.2,4.1c0,0-4.4,0.9-5.7,3.3c0,0,2.3,1.2,4,0c1.7-1.2,5.8,3.2,5.8,3.2
					S292,598.8,294.3,596z"/>
				<circle class="st9" cx="290.4" cy="601.8" r="1"/>
				<path class="st8" d="M290.9,608.9c0,0-6.8,3.2-9.8-2.3c0,0-1.2-0.2-1.3,1.3c0,0-6.3,4-7.7,9.6c0,0,1.8-0.5,3.5,0.4
					c0,0,1.6,2.6,4.4,2.2c0,0-2.8-1.7-2.8-2.6c0,0,2.6-5.5,9.3-5.9c0,0-0.9,2.6,1.7,2.2c0,0,1.4,2.5,3.2,1L290.9,608.9z"/>
				<path class="st9" d="M279.2,607.6l1.6,0.3c0,0,1.8,3.2,4.6,3.2C285.3,611.1,280.2,612.8,279.2,607.6z"/>
				<path class="st9" d="M280.2,612.5c0,0-0.6-2.3-3.7-2.3C276.6,610.2,276.1,612.6,280.2,612.5z"/>
				<path class="st9" d="M278.2,614c0,0-1.5-1.2-3.3,0C274.9,614,275.5,616.3,278.2,614z"/>
				<path class="st9" d="M277.2,617.4c0,0.2,0.2,0.5,0.5,0.9c0,0,2.4-3.6,5.4-6C278.9,613.8,277.2,617.4,277.2,617.4z"/>
				<path class="st8" d="M286.1,615.4c0,0-1.7-2.4-3.6-0.5C282.5,614.9,283.6,617,286.1,615.4z"/>
				<path class="st9" d="M285.5,612.8c0,0-0.5,2.7,1.6,2.6L285.5,612.8z"/>
				<path class="st7" d="M282,572.1c-0.1,0-0.3,0-0.4-0.1c-0.6-0.2-0.9-0.9-0.7-1.5c0.4-1.2,1.6-3,3.5-3c0.6-0.6,1.6-1.4,3-1.3
					c1.3,0,2.5,0.8,3.5,2.3c0.4,0.5,0.2,1.2-0.3,1.6c-0.5,0.4-1.2,0.2-1.6-0.3c-0.4-0.6-1-1.3-1.6-1.3c-0.7,0-1.4,0.7-1.5,0.9
					c-0.3,0.4-0.7,0.5-1.2,0.4c-0.8-0.2-1.6,1.5-1.6,1.5C282.9,571.9,282.5,572.1,282,572.1z"/>
				<path class="st4" d="M287.5,582.5c-0.4,0-0.9-0.1-1.4-0.3c-1.4-0.6-2.4-2.1-2.8-4.5c-0.9-4.9-5.7-5.3-5.9-5.3
					c-0.6,0-1.1-0.5-1.1-1.1c0-0.6,0.5-1.1,1.1-1.1c0.3,0,5.8-0.2,9.8,3c0.1-1.3,0.5-2.8,1.5-3.9c1.1-1.3,2.7-1.9,4.8-1.7
					c0.6,0,1,0.5,1.1,1c0,0.6-0.3,1.1-0.9,1.2c0,0-1.2,0.3-1.6,1.2c-0.3,0.8,0.2,1.8,0.6,2.6c2.3,3.6,1.2,5.9,0.7,6.7
					c-0.8,1.2-2.2,1.8-3.7,1.7C289.3,582.1,288.5,582.5,287.5,582.5z M284.2,574c0.6,0.9,1.1,2,1.4,3.4c0.3,1.5,0.8,2.5,1.5,2.8
					c0.8,0.3,1.9-0.3,1.9-0.3c0.2-0.2,0.6-0.2,0.8-0.2c0.8,0.1,1.5-0.1,1.9-0.7c0.6-0.9,0.3-2.5-0.7-4.2c-0.6-1-1-1.9-1.1-2.8
					c-0.5,1.5-0.3,3.4-0.1,4.2c0.1,0.5-0.2,1.1-0.7,1.3c-0.5,0.2-1.1,0-1.4-0.4C286.7,575.6,285.5,574.6,284.2,574z"/>
			</g>
			<g>
				<path class="st2" d="M294.1,620.4l5.1,0.8c0,0,4.5-9.1,6.8-13s6.2-6.7,6.2-6.7s3.3-3.4,4.9-2.5s3.5,3.5,3.5,3.5l2.5-0.6l1.5-1.8
					l-3.6-10.5c0,0-6.8,2.3-9.1,3.5c-2.2,1.2-12.6,9.7-14.6,15.2C295.4,613.9,294.1,620.4,294.1,620.4z"/>
				<path class="st3" d="M316.9,589.6c-0.1,0-0.2,0-0.3-0.1c-0.3,0.6-1,0.9-1.7,0.8c-0.1,0-0.1,0-0.2-0.1c-0.2,0.8-1,1.3-1.8,1.2
					c-0.1,0-0.2,0-0.3-0.1c-0.3,0.6-1,0.9-1.7,0.8c-0.1,0-0.1,0-0.2-0.1c0,0,0,0,0,0c-0.1,0.9-1,1.5-1.8,1.4c-0.1,0-0.2,0-0.2-0.1
					c0,0,0,0,0,0c-0.1,0.9-1,1.5-1.8,1.4c-0.1,0.9-1,1.5-1.8,1.4c-0.1,0-0.2,0-0.2-0.1c0,0.1,0,0.2,0,0.3c-0.1,0.9-1,1.5-1.8,1.4
					c0,0-0.1,0-0.1,0c0.1,0.3,0.2,0.6,0.1,0.9c-0.1,0.8-0.8,1.4-1.6,1.4c0,0.2,0,0.3,0,0.5c-0.1,0.7-0.6,1.2-1.2,1.3
					c0,0.1,0,0.3,0,0.4c-0.1,0.8-0.9,1.4-1.7,1.4c0,0.2,0,0.3,0,0.5c-0.1,0.7-0.7,1.3-1.4,1.4c0.1,0.3,0.2,0.6,0.1,0.9
					c-0.1,0.8-0.8,1.3-1.5,1.4c0.2,0.3,0.2,0.7,0.2,1c-0.1,0.6-0.5,1-0.9,1.2c0.2,0.3,0.3,0.7,0.2,1.1c-0.1,0.7-0.6,1.2-1.2,1.3
					c0.5,0.3,0.9,1,0.8,1.6c-0.1,0.6-0.5,1.1-1.1,1.3c0.6,0.5,0.8,1.4,0.4,2.1c-0.4,0.8-1.4,1.1-2.2,0.6c-0.8-0.4-1.1-1.4-0.6-2.2
					c0.2-0.4,0.5-0.6,0.9-0.7c-0.4-0.3-0.7-0.9-0.6-1.5c0.1-0.7,0.6-1.2,1.2-1.3c-0.5-0.3-0.9-1-0.8-1.6c0.1-0.6,0.5-1,0.9-1.2
					c-0.2-0.3-0.3-0.7-0.2-1.1c0.1-0.8,0.8-1.3,1.5-1.4c-0.2-0.3-0.2-0.7-0.2-1c0.1-0.7,0.7-1.3,1.4-1.4c-0.1-0.3-0.2-0.6-0.1-0.9
					c0.1-0.8,0.9-1.4,1.7-1.4c0-0.2,0-0.3,0-0.5c0.1-0.7,0.6-1.2,1.2-1.3c0-0.1,0-0.3,0-0.4c0.1-0.8,0.8-1.4,1.6-1.4
					c0-0.2,0-0.3,0-0.5c0.1-0.9,1-1.5,1.8-1.4c0,0,0.1,0,0.1,0c-0.1-0.3-0.2-0.6-0.1-0.9c0.1-0.9,1-1.5,1.8-1.4c0.1,0,0.2,0,0.2,0.1
					c0-0.1,0-0.2,0-0.3c0.1-0.9,1-1.5,1.8-1.4c0.1-0.9,1-1.5,1.8-1.4c0.1,0,0.2,0,0.2,0.1c0,0,0,0,0,0c0.1-0.9,1-1.5,1.8-1.4
					c0.1,0,0.1,0,0.2,0.1c0,0,0,0,0,0c0.1-0.9,1-1.5,1.8-1.4c0.1,0,0.2,0,0.3,0.1c0.3-0.6,1-0.9,1.7-0.8c0.1,0,0.1,0,0.2,0.1
					c0.2-0.8,1-1.3,1.8-1.2c0.1,0,0.2,0,0.3,0.1c0.3-0.6,1-0.9,1.7-0.8c0.9,0.1,1.5,1,1.4,1.8C318.6,589.1,317.8,589.7,316.9,589.6z
					"/>
				<path class="st4" d="M319.2,588.7c-0.4-0.2-1-0.3-1.5-0.1c-13.5,5.3-19.4,13.8-22,20c-2.8,6.8-2.3,12.3-2.3,12.6
					c0.1,0.9,0.9,1.6,1.9,1.5c0.9-0.1,1.6-0.9,1.5-1.8c-0.1-0.8-1.4-20,22.1-29.1c0.9-0.3,1.3-1.3,1-2.2
					C319.8,589.2,319.5,588.9,319.2,588.7z"/>
				<path class="st3" d="M328.4,614.3c0.1,0.4,0,0.8-0.2,1.2c-0.3,0.6-1,0.9-1.6,0.8c0.1,0.4,0.1,0.8-0.2,1.2
					c-0.3,0.5-0.9,0.8-1.5,0.8c0.1,0.4,0.1,0.9-0.1,1.3c-0.4,0.8-1.4,1.1-2.2,0.6c0,0,0,0,0,0c0.1,0.4,0,0.7-0.2,1.1
					c-0.4,0.6-1.1,0.9-1.8,0.8c0.1,0.4,0.1,0.9-0.1,1.3c-0.4,0.7-1.2,1-1.9,0.7c0,0.3,0,0.7-0.2,1c-0.4,0.8-1.4,1-2.2,0.6
					c0,0.2-0.1,0.5-0.2,0.7c-0.3,0.6-1,0.9-1.6,0.8c0,0.2-0.1,0.4-0.2,0.6c-0.4,0.7-1.2,1-2,0.7c0.1,0.4,0,0.8-0.2,1.2
					c-0.4,0.8-1.4,1.1-2.2,0.6c0,0,0,0,0,0c0,0.3-0.1,0.5-0.2,0.8c-0.4,0.8-1.4,1.1-2.2,0.6c-0.8-0.4-1.1-1.4-0.6-2.2
					s1.4-1.1,2.2-0.6c0,0,0,0,0,0c0-0.3,0.1-0.5,0.2-0.8c0.4-0.7,1.2-1,2-0.7c-0.1-0.4,0-0.8,0.2-1.2c0.3-0.6,1-0.9,1.6-0.8
					c0-0.2,0.1-0.4,0.2-0.6c0.4-0.8,1.4-1,2.2-0.6c0-0.2,0.1-0.5,0.2-0.7c0.4-0.7,1.2-1,1.9-0.7c0-0.3,0-0.7,0.2-1
					c0.4-0.6,1.1-0.9,1.8-0.8c-0.1-0.4-0.1-0.9,0.1-1.3c0.4-0.8,1.4-1.1,2.2-0.6c0,0,0,0,0,0c-0.1-0.4,0-0.7,0.2-1.1
					c0.3-0.5,0.9-0.8,1.5-0.8c-0.1-0.4-0.1-0.9,0.1-1.3c0.3-0.6,1-0.9,1.6-0.8c-0.1-0.4-0.1-0.8,0.2-1.2c0.4-0.6,1.1-0.9,1.8-0.8
					c-0.1-0.4,0-0.8,0.2-1.2c0.4-0.8,1.4-1.1,2.2-0.6c0.8,0.4,1.1,1.4,0.6,2.2C329.8,614.2,329,614.5,328.4,614.3z"/>
				<path class="st4" d="M331.8,604.5c-0.7-0.4-1.7-0.2-2.2,0.4c-11.3,14.6-24.3,22.7-24.5,22.7c-0.8,0.5-1.1,1.5-0.6,2.3
					c0.5,0.8,1.5,1.1,2.3,0.6c0.6-0.3,13.7-8.4,25.4-23.6c0.6-0.7,0.4-1.8-0.3-2.4C332,604.6,331.9,604.5,331.8,604.5z"/>
				<g>
					<path class="st4" d="M298.1,622.7c-1.1-0.6-1.5-2.1-0.9-3.2c0.3-0.5,0.7-0.9,1.2-1c-0.1-0.5,0-1.1,0.3-1.6
						c0.1-0.1,0.2-0.3,0.3-0.4c-0.3-0.7-0.3-1.5,0.1-2.2c0.4-0.8,1.2-1.2,2-1.2c-0.4-0.7-0.4-1.6,0-2.3c0.4-0.7,1.1-1.1,1.9-1.2
						c0-0.5,0-0.9,0.3-1.4c0.6-1.1,2.1-1.5,3.2-0.9s1.5,2.1,0.9,3.2c-0.4,0.7-1.1,1.1-1.9,1.2c0,0.5,0,0.9-0.3,1.4
						c-0.4,0.8,4.3,4.5,3.5,4.5c0.4,0.7-5.1-1.7-5.5-1c-0.1,0.1-0.2,0.3-0.3,0.4c0.3,0.7,0.3,1.5-0.1,2.2c-0.3,0.5-0.7,0.9-1.2,1
						c0.1,0.5,0,1.1-0.3,1.6C300.7,622.9,299.3,623.3,298.1,622.7z"/>
					<path class="st4" d="M308,621c0.6,0.7,0.7,1.8,0.2,2.6c-0.6,1.1-2.1,1.5-3.2,0.9c-1.1-0.6-1.5-2.1-0.9-3.2
						c0.5-0.9,1.4-1.3,2.3-1.2c-0.6-0.7-0.7-1.8-0.2-2.6c0.3-0.6,0.8-1,1.4-1.1c-0.2-0.6-0.1-1.2,0.2-1.8c0.3-0.6,0.8-0.9,1.4-1.1
						c-0.2-0.6-0.1-1.2,0.2-1.8c0.6-1.1,2.1-1.5,3.2-0.9c1.1,0.6,1.5,2.1,0.9,3.2c-0.3,0.6-0.8,0.9-1.4,1.1c0.2,0.6,0.1,1.2-0.2,1.8
						c-0.3,0.6-0.8,1-1.4,1.1c0.2,0.6,0.1,1.2-0.2,1.8C309.9,620.7,308.9,621.1,308,621z"/>
				</g>
				<path class="st5" d="M307.6,608.7c0,0-4.9,5.6-5.7,10.1c-0.8,4.5-4.6,9.1-4.6,9.1s7.2-2.4,8.9-5.7c1.7-3.3,5.9-10.5,5.9-10.5
					L307.6,608.7z"/>
				<path class="st2" d="M325.6,603.5l4.4,0.5l1.6-2.9c0,0-11.4-16.4-12.7-25c-1.3-8.6-1.4-17.4-1.4-17.4l-2.6-1.1l-2,5.6l1.7,2.9
					l-3,0.1l1.2,3.9l1.3,0.4l-2.9,1.9l5.1,4.2l-4.2,2l5.9,3.8l-3.1,1.5l5.2,3.3l-1.7,3l4.9,2.4l-1.7,3l3.7,2.1l-2.2,3.3L325.6,603.5
					z"/>
				<path class="st4" d="M314.8,555.5c-1.2-0.7-2.1-0.9-2.2-0.9c-0.4-0.1-0.9,0-1.2,0.4c-0.3,0.4-0.3,0.9-0.1,1.3
					c0.6,1.1,1.4,2.4,2.1,3.5c-0.3-0.1-0.4-0.1-0.5-0.1c-0.4-0.1-0.8,0-1.1,0.3c-0.3,0.3-0.4,0.7-0.3,1.1c0.5,1.4,1.2,2.7,2,3.8
					c-1.6-0.1-2.8,0.1-2.9,0.1c-0.3,0.1-0.7,0.3-0.8,0.6c-0.2,0.3-0.2,0.7,0,1c0.6,1.4,1.8,2.6,2.9,3.5c-1.3,0.2-2.5,0.6-2.9,0.7
					c-0.4,0.1-0.7,0.5-0.8,0.9c-0.1,0.4,0.1,0.9,0.5,1.1c1.4,1,3.5,2.4,5.3,3.5c-1.1,0.3-2.2,0.6-3,0.9c-0.3,0.1-0.6,0.4-0.7,0.8
					c-0.1,0.4,0,0.7,0.2,1c0.8,0.9,2.6,2.1,4.4,3c-1.1,0.5-1.7,1.2-1.8,1.2c-0.2,0.2-0.3,0.5-0.3,0.8c0,0.3,0.1,0.6,0.3,0.8
					c1.2,1.2,3.1,2.2,4.6,3c-0.6,0.3-1.2,0.7-1.6,1c-0.3,0.2-0.5,0.6-0.5,0.9c0,0.4,0.2,0.7,0.5,0.9c1.3,0.9,3.3,1.8,4.9,2.5
					c-0.6,0.4-1.1,0.8-1.3,0.9c-0.5,0.4-0.6,1.1-0.2,1.6c0.8,1,1.9,1.8,3.1,2.5c0,0,0,0,0,0c-0.7,0.3-1.1,0.7-1.2,0.7
					c-0.4,0.3-0.5,0.8-0.3,1.3c0.5,1.4,1.6,2.5,2.7,3.3c-0.3,0.2-0.5,0.3-0.5,0.4c-0.4,0.3-0.5,0.8-0.4,1.2c1.4,4.7,5.9,5.1,6.1,5.2
					c0.6,0.1,1.2-0.4,1.2-1c0.1-0.6-0.4-1.2-1-1.2c-0.1,0-2.6-0.3-3.8-2.7c0.4-0.1,1-0.2,1.8,0c0.2,0.1,0.4,0.1,0.4,0.2
					c0.6,0.2,1.2-0.1,1.4-0.7c0.2-0.6-0.1-1.2-0.6-1.4c-0.2-0.1-0.3-0.1-0.5-0.2c-1.2-0.5-3.2-1.5-4.2-2.9c0.6-0.3,1.4-0.6,2.3-0.5
					c0.8,0.3,1.3,0.5,1.4,0.5c0.6,0.2,1.1-0.1,1.4-0.6c0.2-0.5,0-1.2-0.5-1.4c-0.6-0.3-1.2-0.5-1.7-0.6c-1.4-0.5-3.2-1.4-4.4-2.4
					c0.7-0.5,1.5-0.9,1.8-0.9c0.5-0.1,0.9-0.5,1-1c0.1-0.5-0.2-1-0.7-1.2c0,0-3-1.1-5.3-2.3c0.8-0.4,1.5-0.7,1.7-0.7
					c0.6,0.1,1.2-0.2,1.3-0.8c0.2-0.6-0.1-1.2-0.7-1.4c0,0-3.3-1.3-5.6-2.9c0.7-0.4,1.8-0.7,2.9-0.3c0.6,0.2,1.2-0.1,1.4-0.7
					c0.2-0.6-0.1-1.2-0.6-1.4c-1.8-0.7-4.2-1.9-5.8-2.9c1.5-0.4,2.9-0.7,3.3-0.6c0.5,0.3,1.2,0.1,1.5-0.5c0.3-0.5,0.1-1.2-0.4-1.5
					c0,0-3.3-2-5.9-3.7c1.3-0.2,2.6-0.3,3.4-0.1c0.2,0.1,0.4,0.2,0.4,0.2c0.6,0.2,1.2,0,1.5-0.5c0.3-0.5,0.1-1.2-0.5-1.5
					c-0.1-0.1-0.3-0.2-0.5-0.2c-0.8-0.4-3-1.5-4.4-3.1c1.1,0,2.4,0.2,3.3,0.7c0,0,0,0,0,0c0.5,0.3,1.1,0.1,1.5-0.3
					c0.3-0.5,0.3-1.1-0.1-1.5c0,0-1.5-1.4-2.6-3.3c0.3,0.1,0.6,0.3,0.9,0.4c0.5,0.2,1,0.1,1.4-0.2c0.4-0.4,0.4-1,0.1-1.4
					c0,0-0.6-1-1.4-2.2c0,0,0,0,0,0.1c0.4,0.5,1.1,0.6,1.6,0.2c0.5-0.4,0.6-1.1,0.2-1.6C316.8,556.8,315.7,556,314.8,555.5z"/>
				<path class="st6" d="M318,554.1c0,0,5.1,6,5.2,1.6c0,0,3.1,1,3.8,2.5c0.8,1.5,3.1,2.7,4.3,2.6c1.2-0.2,2.6-1.3,3.2,0
					c0.6,1.3,3,3.1,3,3.1s-1.1-0.7-2.9,0.2c-1.7,0.9-6.3,2.6-6.3,2.6l2.3,22.4c0,0-2.4,3.4-2.5,6.5s-9.4-17.6-9.4-17.6l-1.9-19.4
					L318,554.1z"/>
				<path class="st5" d="M330.3,590.7c0,0-3.1-1.2-1.9-4.5c0,0-2.1-0.4-1.7-2.2c0,0-3.3-1-3.2-4.6c0,0-1.5-0.9-1.1-2.3
					c0,0-1.3-0.9,0.2-2.5c0,0-1.6-1.1-0.3-3.1c0,0-1.6-1.1-0.9-3.1c0,0-1.5-1.2-0.5-3.2c0,0-1.3-2.1,0.1-4.7l-0.4-2.4
					c0,0,4.7,2.7,6,3.4c0,0,1.7,2.3,3.6,1.8c1.9-0.6,0.9,2.9,2.7,3.5c0,0,0.2,4.8,1.9,5.6c1.7,0.7,2.8,9.8,2.8,9.8l-4.3,6.9
					L330.3,590.7z"/>
				<path class="st7" d="M320.6,543.2l-3.3-1c-0.1,0.3-10.3,33.8,13.6,61.5l2.6-2.2C310.9,575.1,320.5,543.5,320.6,543.2z"/>
				<path class="st8" d="M334,578.8c0,0-4.4-7.8-9.6-2.8c0,0,2.3-0.5,3.7,0.5c0,0,0.5,1.6,2.4,1.4c0,0-0.8,1.2,0.4,1.5
					C332.1,579.6,334,578.8,334,578.8z"/>
				<path class="st8" d="M331.1,589.8c0,0-3.1-3.7-2.5-6.2c0,0-3.4-2.9-3.3-5.7c0,0,2.6,0.1,3.4,1.9c0.9,1.8,6.6,0.1,6.6,0.1
					S330.5,586.2,331.1,589.8z"/>
				<circle class="st9" cx="330.6" cy="582.8" r="1"/>
				<path class="st8" d="M334.5,576.9c0,0-4.4-6.2-9.7-2.8c0,0-1.2-0.4-0.5-1.7c0,0-3.6-6.6-2-12.1c0,0,1.3,1.3,3.3,1.3
					c0,0,2.7-1.4,4.9,0.3c0,0-3.3,0.1-3.7,0.9c0,0-0.5,6.1,5.2,9.7c0,0,0.5-2.8,2.6-1.1c0,0,2.4-1.5,3.3,0.7L334.5,576.9z"/>
				<path class="st9" d="M323.7,572.2l1.5,0.5c0,0,3.2-1.9,5.6-0.5C330.7,572.2,327.1,568.2,323.7,572.2z"/>
				<path class="st9" d="M327,568.5c0,0-1.7,1.7-4.3,0.2C322.6,568.7,323.4,566.4,327,568.5z"/>
				<path class="st9" d="M326,566.1c0,0-1.9,0.3-2.9-1.6C323.1,564.5,324.7,562.8,326,566.1z"/>
				<path class="st9" d="M326.8,562.7c0.1-0.2,0.5-0.4,0.9-0.5c0,0,0.3,4.3,1.7,7.9C326.5,566.7,326.8,562.7,326.8,562.7z"/>
				<path class="st8" d="M333.5,568.9c0,0-2.6,1.2-3.4-1.4C330.2,567.5,332.1,566.2,333.5,568.9z"/>
				<path class="st9" d="M331.7,570.8c0,0,0.9-2.6,2.7-1.5L331.7,570.8z"/>
				<path class="st7" d="M308.7,604.5c-0.1-0.1-0.3-0.1-0.4-0.1c-0.6-0.1-1.2,0.3-1.3,1c-0.2,1.2,0,3.4,1.6,4.3
					c0.2,0.8,0.7,2,1.9,2.6c1.1,0.6,2.5,0.5,4.2-0.3c0.6-0.3,0.8-1,0.5-1.5c-0.3-0.6-1-0.8-1.5-0.5c-0.6,0.3-1.5,0.6-2.1,0.3
					c-0.6-0.3-0.9-1.3-0.9-1.5c-0.1-0.4-0.4-0.8-0.8-0.9c-0.8-0.3-0.6-2.1-0.6-2.1C309.3,605.2,309.1,604.7,308.7,604.5z"/>
				<path class="st4" d="M320.2,599.8c1.4,0.6,2.3,1.9,2.4,3.3c0.1,1-0.1,3.5-3.9,5.5c-0.8,0.4-1.7,1.1-1.8,1.9
					c-0.1,0.9,0.8,1.8,0.8,1.8c0.4,0.4,0.5,1,0.2,1.5s-0.9,0.6-1.4,0.4c-1.9-0.9-3-2.2-3.3-3.9c-0.3-1.5,0.1-2.9,0.7-4.2
					c-5.1,0.8-9.7-2-10-2.2c-0.5-0.3-0.7-1-0.4-1.5c0.3-0.5,1-0.7,1.5-0.5c0.2,0.1,4.5,2.1,7.7-1.7c1.5-1.8,3.1-2.7,4.7-2.5
					c0.5,0.1,0.9,0.2,1.3,0.4C319.4,598.7,319.9,599.4,320.2,599.8z M315.8,603c0.5-0.3,1.1-0.1,1.4,0.3c0.3,0.4,0.3,1,0,1.5
					c-0.5,0.6-1.6,2.2-1.9,3.7c0.5-0.7,1.3-1.4,2.3-1.9c1.8-1,2.8-2.2,2.7-3.3c-0.1-0.7-0.5-1.3-1.3-1.5c-0.3-0.1-0.5-0.3-0.6-0.6
					c0,0-0.6-1.1-1.5-1.2c-0.7-0.1-1.6,0.5-2.6,1.7c-0.9,1-1.9,1.8-2.8,2.3C312.9,604,314.4,603.8,315.8,603z"/>
			</g>
			<g>
				<path class="st2" d="M347.9,551.1l4.8,1.8c0,0-0.6,10.1-0.5,14.6s2,8.9,2,8.9s1.2,4.6,3.1,4.6s4.8-1.3,4.8-1.3l1.9,1.7l0.4,2.3
					l-8.3,7.3c0,0-4.8-5.4-6.2-7.5c-1.4-2.1-6.2-14.6-5.2-20.4S347.9,551.1,347.9,551.1z"/>
				<path class="st3" d="M352.6,589.1c-0.1,0-0.2-0.1-0.3-0.1c0-0.7-0.4-1.3-1-1.6c-0.1,0-0.1,0-0.2-0.1c0.2-0.8-0.2-1.7-1-2
					c-0.1,0-0.2-0.1-0.3-0.1c0-0.7-0.4-1.3-1-1.5c-0.1,0-0.1,0-0.2-0.1c0,0,0,0,0,0c0.3-0.8-0.1-1.8-0.9-2.1c-0.1,0-0.2,0-0.2-0.1
					c0,0,0,0,0,0c0.3-0.8-0.1-1.8-0.9-2.1c0.3-0.8-0.1-1.8-0.9-2.1c-0.1,0-0.1,0-0.2-0.1c0.1-0.1,0.1-0.2,0.1-0.3
					c0.3-0.8-0.1-1.8-0.9-2.1c0,0-0.1,0-0.1,0c0.3-0.2,0.5-0.4,0.6-0.7c0.3-0.8,0-1.6-0.7-2c0.1-0.1,0.2-0.3,0.3-0.4
					c0.2-0.6,0.1-1.3-0.4-1.7c0.1-0.1,0.2-0.2,0.2-0.4c0.3-0.8-0.1-1.7-0.8-2c0.1-0.1,0.2-0.3,0.3-0.5c0.3-0.7,0-1.5-0.6-1.9
					c0.2-0.2,0.4-0.4,0.6-0.7c0.3-0.7,0-1.5-0.6-1.9c0.3-0.2,0.5-0.4,0.7-0.8c0.2-0.5,0.1-1.1-0.2-1.5c0.3-0.2,0.6-0.5,0.7-0.8
					c0.2-0.6,0.1-1.3-0.4-1.8c0.6,0,1.2-0.4,1.5-1c0.2-0.6,0.1-1.2-0.3-1.6c0.8-0.1,1.4-0.8,1.4-1.6c0-0.9-0.7-1.6-1.6-1.6
					s-1.6,0.7-1.6,1.6c0,0.4,0.2,0.8,0.4,1.1c-0.5,0.1-1,0.5-1.3,1c-0.2,0.6-0.1,1.3,0.4,1.8c-0.6,0-1.2,0.4-1.5,1
					c-0.2,0.5-0.1,1.1,0.2,1.5c-0.3,0.2-0.6,0.5-0.7,0.8c-0.3,0.7,0,1.5,0.6,1.9c-0.3,0.2-0.5,0.4-0.7,0.8c-0.3,0.7,0,1.5,0.6,1.9
					c-0.2,0.2-0.4,0.4-0.6,0.7c-0.3,0.8,0.1,1.7,0.8,2c-0.1,0.1-0.2,0.3-0.3,0.5c-0.2,0.6-0.1,1.3,0.4,1.7c-0.1,0.1-0.2,0.2-0.2,0.4
					c-0.3,0.8,0,1.6,0.7,2c-0.1,0.1-0.2,0.3-0.3,0.4c-0.3,0.8,0.1,1.8,0.9,2.1c0,0,0.1,0,0.1,0c-0.3,0.2-0.5,0.4-0.6,0.7
					c-0.3,0.8,0.1,1.8,0.9,2.1c0.1,0,0.1,0,0.2,0.1c-0.1,0.1-0.1,0.2-0.1,0.3c-0.3,0.8,0.1,1.8,0.9,2.1c-0.3,0.8,0.1,1.8,0.9,2.1
					c0.1,0,0.2,0,0.2,0.1c0,0,0,0,0,0c-0.3,0.8,0.1,1.8,0.9,2.1c0.1,0,0.1,0,0.2,0.1c0,0,0,0,0,0c-0.3,0.8,0.1,1.8,0.9,2.1
					c0.1,0,0.2,0.1,0.3,0.1c0,0.7,0.4,1.3,1,1.5c0.1,0,0.1,0,0.2,0.1c-0.2,0.8,0.2,1.7,1,2c0.1,0,0.2,0.1,0.3,0.1
					c0,0.7,0.4,1.3,1,1.6c0.8,0.3,1.8-0.1,2.1-0.9C353.8,590.4,353.4,589.5,352.6,589.1z"/>
				<path class="st4" d="M354,591.1c-0.5,0-1-0.2-1.3-0.6c-9.2-11.2-10.1-21.5-9.3-28.2c0.9-7.3,4-11.9,4.2-12.1
					c0.5-0.8,1.6-1,2.4-0.4c0.8,0.5,1,1.6,0.4,2.4c-0.5,0.7-11,16.7,4.9,36.2c0.6,0.7,0.5,1.8-0.2,2.4
					C354.8,590.9,354.4,591.1,354,591.1z"/>
				<path class="st3" d="M374.7,573.2c0.3-0.3,0.4-0.7,0.4-1.1c0-0.7-0.4-1.3-1-1.5c0.3-0.3,0.5-0.7,0.5-1.1c0-0.6-0.4-1.2-0.9-1.4
					c0.3-0.3,0.5-0.7,0.5-1.2c0-0.9-0.7-1.6-1.6-1.6c0,0,0,0,0,0c0.2-0.3,0.4-0.6,0.4-1c0-0.7-0.5-1.4-1.2-1.6
					c0.3-0.3,0.5-0.7,0.5-1.2c0-0.8-0.6-1.4-1.3-1.6c0.2-0.3,0.3-0.6,0.3-1c0-0.9-0.7-1.6-1.6-1.6c0.1-0.2,0.2-0.4,0.2-0.7
					c0-0.7-0.4-1.3-1-1.5c0.1-0.2,0.1-0.4,0.1-0.7c0-0.8-0.6-1.5-1.4-1.6c0.3-0.3,0.4-0.7,0.4-1.1c0-0.9-0.7-1.6-1.6-1.6
					c0,0,0,0,0,0c0.1-0.2,0.2-0.5,0.2-0.8c0-0.9-0.7-1.6-1.6-1.6s-1.6,0.7-1.6,1.6s0.7,1.6,1.6,1.6c0,0,0,0,0,0
					c-0.1,0.2-0.2,0.5-0.2,0.8c0,0.8,0.6,1.5,1.4,1.6c-0.3,0.3-0.4,0.7-0.4,1.1c0,0.7,0.4,1.3,1,1.5c-0.1,0.2-0.1,0.4-0.1,0.7
					c0,0.9,0.7,1.6,1.6,1.6c-0.1,0.2-0.2,0.4-0.2,0.7c0,0.8,0.6,1.4,1.3,1.6c-0.2,0.3-0.3,0.6-0.3,1c0,0.7,0.5,1.4,1.2,1.6
					c-0.3,0.3-0.5,0.7-0.5,1.2c0,0.9,0.7,1.6,1.6,1.6c0,0,0,0,0,0c-0.2,0.3-0.4,0.6-0.4,1c0,0.6,0.4,1.2,0.9,1.4
					c-0.3,0.3-0.5,0.7-0.5,1.2c0,0.7,0.4,1.3,1,1.5c-0.3,0.3-0.5,0.7-0.5,1.1c0,0.7,0.5,1.3,1.1,1.5c-0.3,0.3-0.4,0.7-0.4,1.1
					c0,0.9,0.7,1.6,1.6,1.6s1.6-0.7,1.6-1.6C375.8,574.1,375.3,573.5,374.7,573.2z"/>
				<path class="st4" d="M372.8,583.5c-0.8,0-1.6-0.6-1.7-1.5c-2.6-18.3-10-31.7-10.1-31.8c-0.5-0.8-0.2-1.9,0.7-2.3
					c0.8-0.5,1.9-0.2,2.3,0.7c0.3,0.6,7.8,14.1,10.5,33c0.1,0.9-0.5,1.8-1.4,1.9C373,583.5,372.9,583.5,372.8,583.5z"/>
				<g>
					<path class="st4" d="M352.5,551.1c-1.3,0-2.4,1.1-2.4,2.4c0,0.6,0.2,1.1,0.6,1.5c-0.3,0.4-0.6,0.9-0.6,1.5c0,0.2,0,0.3,0,0.5
						c-0.6,0.4-1,1.1-1,1.9c0,0.9,0.5,1.6,1.2,2c-0.7,0.4-1.2,1.2-1.2,2c0,0.8,0.4,1.6,1.1,2c-0.3,0.4-0.4,0.8-0.4,1.4
						c0,1.3,1.1,2.4,2.4,2.4s2.4-1.1,2.4-2.4c0-0.8-0.4-1.6-1.1-2c0.3-0.4,0.4-0.8,0.4-1.4c0-0.9,6-1.8,5.3-2.2
						c0.7-0.4-5.3-1-5.3-1.9c0-0.2,0-0.3,0-0.5c0.6-0.4,1-1.1,1-1.9c0-0.6-0.2-1.1-0.6-1.5c0.3-0.4,0.6-0.9,0.6-1.5
						C354.8,552.2,353.8,551.1,352.5,551.1z"/>
					<path class="st4" d="M360.2,557.4c0.9-0.4,1.5-1.2,1.5-2.2c0-1.3-1.1-2.4-2.4-2.4c-1.3,0-2.4,1.1-2.4,2.4c0,1,0.6,1.8,1.5,2.2
						c-0.9,0.4-1.5,1.2-1.5,2.2c0,0.7,0.3,1.2,0.7,1.7c-0.4,0.4-0.7,1-0.7,1.7c0,0.6,0.3,1.2,0.7,1.7c-0.4,0.4-0.7,1-0.7,1.7
						c0,1.3,1.1,2.4,2.4,2.4c1.3,0,2.4-1.1,2.4-2.4c0-0.7-0.3-1.2-0.7-1.7c0.4-0.4,0.7-1,0.7-1.7c0-0.7-0.3-1.2-0.7-1.7
						c0.4-0.4,0.7-1,0.7-1.7C361.7,558.6,361.1,557.8,360.2,557.4z"/>
				</g>
				<path class="st5" d="M353.8,568c0,0-1.5-7.3,0-11.6c1.5-4.3,0.5-10.2,0.5-10.2s5.1,5.6,5,9.3c-0.2,3.7,0,12,0,12L353.8,568z"/>
				<path class="st2" d="M366.9,581.3l4,1.7v3.3c0,0-18,8.7-23.4,15.5s-9.7,14.4-9.7,14.4L335,616l1-5.8l2.9-1.7l-2.6-1.5l2.9-2.8
					l1.3,0.3l-1.6-3.1l6.5-1.1l-2.7-3.8l7-0.4l-1.9-2.9l6.2-0.3v-3.5l5.5,0.4v-3.5h4.3l-0.3-3.9L366.9,581.3z"/>
				<path class="st4" d="M333.9,617.8c-1.3,0-2.3-0.2-2.4-0.3c-0.4-0.1-0.8-0.5-0.8-0.9c-0.1-0.5,0.1-0.9,0.5-1.1
					c1.1-0.7,2.4-1.4,3.6-2c-0.3-0.1-0.4-0.1-0.5-0.1c-0.4-0.1-0.7-0.4-0.8-0.8c-0.1-0.4,0-0.8,0.3-1.1c1.1-1,2.4-1.8,3.6-2.3
					c-1.4-0.7-2.4-1.5-2.5-1.5c-0.3-0.2-0.4-0.6-0.4-0.9c0-0.4,0.2-0.7,0.5-0.9c1.2-0.9,2.8-1.4,4.3-1.6c-1.1-0.9-1.9-1.7-2.2-2
					c-0.3-0.3-0.4-0.8-0.2-1.2c0.1-0.4,0.5-0.7,0.9-0.7c1.7-0.2,4.2-0.3,6.3-0.4c-0.8-0.8-1.6-1.6-2.1-2.3c-0.2-0.3-0.3-0.7-0.2-1
					c0.1-0.4,0.3-0.6,0.7-0.8c1.1-0.5,3.3-0.5,5.3-0.4c-0.7-1-0.9-1.8-0.9-1.9c-0.1-0.3,0-0.6,0.1-0.9c0.2-0.3,0.4-0.5,0.7-0.5
					c1.7-0.4,3.8-0.4,5.5-0.3c-0.4-0.6-0.7-1.2-0.9-1.7c-0.2-0.3-0.2-0.7,0-1.1c0.2-0.3,0.5-0.5,0.9-0.6c1.6-0.1,3.8,0,5.5,0.2
					c-0.4-0.7-0.6-1.3-0.7-1.5c-0.2-0.6,0-1.2,0.6-1.5c1.1-0.5,2.6-0.6,4-0.6c0,0,0,0,0,0c-0.4-0.6-0.6-1.2-0.7-1.2
					c-0.2-0.5,0-1,0.3-1.3c1.1-0.9,2.6-1.4,4-1.5c-0.2-0.3-0.3-0.5-0.3-0.6c-0.2-0.4,0-0.9,0.3-1.2c3.6-3.4,7.7-1.6,7.8-1.5
					c0.6,0.3,0.8,0.9,0.6,1.5c-0.3,0.6-0.9,0.8-1.5,0.6c-0.1-0.1-2.4-1-4.6,0.5c0.3,0.3,0.8,0.7,1.6,0.8c0.2,0,0.4,0.1,0.4,0.1
					c0.6,0.1,1,0.7,0.9,1.3c-0.1,0.6-0.7,1-1.3,0.9c-0.2,0-0.4-0.1-0.5-0.1c-1.2-0.2-3.5-0.3-5.1,0.5c0.4,0.5,0.9,1.2,1.8,1.5
					c0.8,0.1,1.4,0.2,1.5,0.3c0.6,0.1,0.9,0.7,0.9,1.2c-0.1,0.6-0.6,1-1.1,1c-0.7,0-1.3-0.1-1.8-0.3c-1.5-0.2-3.5-0.4-5-0.1
					c0.4,0.8,0.9,1.5,1.2,1.7c0.4,0.3,0.6,0.9,0.4,1.4c-0.2,0.5-0.7,0.8-1.2,0.7c0,0-3.1-0.5-5.7-0.6c0.5,0.7,1,1.3,1.2,1.4
					c0.6,0.2,0.9,0.7,0.8,1.3c-0.1,0.6-0.7,1-1.3,0.9c0,0-3.5-0.5-6.3-0.3c0.5,0.7,1.2,1.5,2.4,1.7c0.6,0.1,1,0.7,0.9,1.3
					c-0.1,0.6-0.7,1-1.3,1c-1.9-0.2-4.6-0.4-6.5-0.3c1.1,1.1,2.2,2,2.6,2.1c0.6,0,1.1,0.5,1.1,1.1s-0.5,1.1-1.1,1.1
					c0,0-3.9,0.1-7,0.3c1,0.8,2.1,1.6,2.9,1.7c0.2,0,0.4,0,0.4,0c0.6,0.1,1,0.6,1,1.2c0,0.6-0.5,1.1-1.1,1.1c-0.2,0-0.3,0-0.5,0
					c-0.9-0.1-3.3-0.1-5.3,0.5c0.9,0.5,2.1,1,3.2,1c0,0,0,0,0,0c0.6,0,1.1,0.4,1.1,1c0.1,0.6-0.3,1.1-0.8,1.2c0,0-2,0.5-3.9,1.6
					c0.3,0,0.6,0.1,1,0.1c0.5,0,1,0.4,1.1,0.9c0.1,0.5-0.1,1-0.6,1.3c0,0-1,0.5-2.3,1.2c0,0,0,0,0.1,0c0.6-0.2,1.2,0,1.5,0.6
					c0.2,0.6,0,1.2-0.6,1.5C336.3,617.6,335,617.8,333.9,617.8z"/>
				<path class="st6" d="M336,620.6c0,0,7.4-2.7,5.3,1.2c0,0,3.2,0.6,4.6-0.3c1.4-0.9,4-0.9,5-0.1c1,0.7,1.6,2.4,2.7,1.6
					s4.2-1.3,4.2-1.3s-1.3,0-2.4-1.6c-1.1-1.6-4.2-5.4-4.2-5.4l13.1-18.4c0,0-0.4-4.1,1-6.9c1.4-2.7-16.9,10.7-16.9,10.7L337.2,616
					L336,620.6z"/>
				<path class="st5" d="M364.7,594.8c0,0-3.3-0.4-3.9,2.9c0,0-2-0.7-2.6,1.1c0,0-3.4-0.7-5,2.4c0,0-1.7,0-2,1.5
					c0,0-1.6,0.2-1.1,2.3c0,0-2,0.2-1.8,2.5c0,0-1.9,0.1-2.3,2.3c0,0-1.9,0.3-2,2.5c0,0-2.1,1.2-2.2,4.1l-1.6,1.9c0,0,5.4,0,6.9,0
					c0,0,2.6-1.2,4,0.2c1.3,1.4,2.2-2.1,4.1-1.8c0,0,2.6-4.1,4.4-3.9c1.8,0.2,7.2-7.1,7.2-7.1l-0.3-8.1L364.7,594.8z"/>
				<path class="st7" d="M332.9,631.4l-3.3-0.7c0.1-0.3,7.7-34.5,42.1-46.8l1.2,3.2C340.2,598.8,333,631.1,332.9,631.4z"/>
				<path class="st8" d="M362.1,607c0,0-7.7,4.6-9.7-2.2c0,0,1.8,1.6,3.5,1.4c0,0,1.2-1.1,2.8-0.1c0,0-0.1-1.4,1.1-1.1
					C360.8,605.4,362.1,607,362.1,607z"/>
				<path class="st8" d="M365,596c0,0-4.5,1.7-5.2,4.1c0,0-4.4,0.9-5.7,3.3c0,0,2.3,1.2,4,0s5.8,3.2,5.8,3.2S362.7,598.8,365,596z"
					/>
				<circle class="st9" cx="361.1" cy="601.8" r="1"/>
				<path class="st8" d="M361.6,608.9c0,0-6.8,3.2-9.8-2.3c0,0-1.2-0.2-1.3,1.3c0,0-6.3,4-7.7,9.6c0,0,1.8-0.5,3.5,0.4
					c0,0,1.6,2.6,4.4,2.2c0,0-2.8-1.7-2.8-2.6c0,0,2.6-5.5,9.3-5.9c0,0-0.9,2.6,1.7,2.2c0,0,1.4,2.5,3.2,1L361.6,608.9z"/>
				<path class="st9" d="M349.8,607.6l1.6,0.3c0,0,1.8,3.2,4.6,3.2C356,611.1,350.9,612.8,349.8,607.6z"/>
				<path class="st9" d="M350.9,612.5c0,0-0.6-2.3-3.7-2.3C347.2,610.2,346.8,612.6,350.9,612.5z"/>
				<path class="st9" d="M348.9,614c0,0-1.5-1.2-3.3,0C345.5,614,346.2,616.3,348.9,614z"/>
				<path class="st9" d="M347.9,617.4c0,0.2,0.2,0.5,0.5,0.9c0,0,2.4-3.6,5.4-6C349.6,613.8,347.9,617.4,347.9,617.4z"/>
				<path class="st8" d="M356.8,615.4c0,0-1.7-2.4-3.6-0.5C353.2,614.9,354.3,617,356.8,615.4z"/>
				<path class="st9" d="M356.1,612.8c0,0-0.5,2.7,1.6,2.6L356.1,612.8z"/>
				<path class="st7" d="M352.7,572.1c-0.1,0-0.3,0-0.4-0.1c-0.6-0.2-0.9-0.9-0.7-1.5c0.4-1.2,1.6-3,3.5-3c0.6-0.6,1.6-1.4,3-1.3
					c1.3,0,2.5,0.8,3.5,2.3c0.4,0.5,0.2,1.2-0.3,1.6c-0.5,0.4-1.2,0.2-1.6-0.3c-0.4-0.6-1-1.3-1.6-1.3c-0.7,0-1.4,0.7-1.5,0.9
					c-0.3,0.4-0.7,0.5-1.2,0.4c-0.8-0.2-1.6,1.5-1.6,1.5C353.6,571.9,353.1,572.1,352.7,572.1z"/>
				<path class="st4" d="M358.2,582.5c-0.4,0-0.9-0.1-1.4-0.3c-1.4-0.6-2.4-2.1-2.8-4.5c-0.9-4.9-5.7-5.3-5.9-5.3
					c-0.6,0-1.1-0.5-1.1-1.1c0-0.6,0.5-1.1,1.1-1.1c0.3,0,5.8-0.2,9.8,3c0.1-1.3,0.5-2.8,1.5-3.9c1.1-1.3,2.7-1.9,4.8-1.7
					c0.6,0,1,0.5,1.1,1c0,0.6-0.3,1.1-0.9,1.2c0,0-1.2,0.3-1.6,1.2c-0.3,0.8,0.2,1.8,0.6,2.6c2.3,3.6,1.2,5.9,0.7,6.7
					c-0.8,1.2-2.2,1.8-3.7,1.7C359.9,582.1,359.1,582.5,358.2,582.5z M354.8,574c0.6,0.9,1.1,2,1.4,3.4c0.3,1.5,0.8,2.5,1.5,2.8
					c0.8,0.3,1.9-0.3,1.9-0.3c0.2-0.2,0.6-0.2,0.8-0.2c0.8,0.1,1.5-0.1,1.9-0.7c0.6-0.9,0.3-2.5-0.7-4.2c-0.6-1-1-1.9-1.1-2.8
					c-0.5,1.5-0.3,3.4-0.1,4.2c0.1,0.5-0.2,1.1-0.7,1.3c-0.5,0.2-1.1,0-1.4-0.4C357.3,575.6,356.1,574.6,354.8,574z"/>
			</g>
			<g>
				<path class="st2" d="M364.8,620.4l5.1,0.8c0,0,4.5-9.1,6.8-13c2.3-3.9,6.2-6.7,6.2-6.7s3.3-3.4,4.9-2.5c1.6,0.9,3.5,3.5,3.5,3.5
					l2.5-0.6l1.5-1.8l-3.6-10.5c0,0-6.8,2.3-9.1,3.5c-2.2,1.2-12.6,9.7-14.6,15.2S364.8,620.4,364.8,620.4z"/>
				<path class="st3" d="M387.6,589.6c-0.1,0-0.2,0-0.3-0.1c-0.3,0.6-1,0.9-1.7,0.8c-0.1,0-0.1,0-0.2-0.1c-0.2,0.8-1,1.3-1.8,1.2
					c-0.1,0-0.2,0-0.3-0.1c-0.3,0.6-1,0.9-1.7,0.8c-0.1,0-0.1,0-0.2-0.1c0,0,0,0,0,0c-0.1,0.9-1,1.5-1.8,1.4c-0.1,0-0.2,0-0.2-0.1
					c0,0,0,0,0,0c-0.1,0.9-1,1.5-1.8,1.4c-0.1,0.9-1,1.5-1.8,1.4c-0.1,0-0.2,0-0.2-0.1c0,0.1,0,0.2,0,0.3c-0.1,0.9-1,1.5-1.8,1.4
					c0,0-0.1,0-0.1,0c0.1,0.3,0.2,0.6,0.1,0.9c-0.1,0.8-0.8,1.4-1.6,1.4c0,0.2,0,0.3,0,0.5c-0.1,0.7-0.6,1.2-1.2,1.3
					c0,0.1,0,0.3,0,0.4c-0.1,0.8-0.9,1.4-1.7,1.4c0,0.2,0,0.3,0,0.5c-0.1,0.7-0.7,1.3-1.4,1.4c0.1,0.3,0.2,0.6,0.1,0.9
					c-0.1,0.8-0.8,1.3-1.5,1.4c0.2,0.3,0.2,0.7,0.2,1c-0.1,0.6-0.5,1-0.9,1.2c0.2,0.3,0.3,0.7,0.2,1.1c-0.1,0.7-0.6,1.2-1.2,1.3
					c0.5,0.3,0.9,1,0.8,1.6c-0.1,0.6-0.5,1.1-1.1,1.3c0.6,0.5,0.8,1.4,0.4,2.1c-0.4,0.8-1.4,1.1-2.2,0.6c-0.8-0.4-1.1-1.4-0.6-2.2
					c0.2-0.4,0.5-0.6,0.9-0.7c-0.4-0.3-0.7-0.9-0.6-1.5c0.1-0.7,0.6-1.2,1.2-1.3c-0.5-0.3-0.9-1-0.8-1.6c0.1-0.6,0.5-1,0.9-1.2
					c-0.2-0.3-0.3-0.7-0.2-1.1c0.1-0.8,0.8-1.3,1.5-1.4c-0.2-0.3-0.2-0.7-0.2-1c0.1-0.7,0.7-1.3,1.4-1.4c-0.1-0.3-0.2-0.6-0.1-0.9
					c0.1-0.8,0.9-1.4,1.7-1.4c0-0.2,0-0.3,0-0.5c0.1-0.7,0.6-1.2,1.2-1.3c0-0.1,0-0.3,0-0.4c0.1-0.8,0.8-1.4,1.6-1.4
					c0-0.2,0-0.3,0-0.5c0.1-0.9,1-1.5,1.8-1.4c0,0,0.1,0,0.1,0c-0.1-0.3-0.2-0.6-0.1-0.9c0.1-0.9,1-1.5,1.8-1.4c0.1,0,0.2,0,0.2,0.1
					c0-0.1,0-0.2,0-0.3c0.1-0.9,1-1.5,1.8-1.4c0.1-0.9,1-1.5,1.8-1.4c0.1,0,0.2,0,0.2,0.1c0,0,0,0,0,0c0.1-0.9,1-1.5,1.8-1.4
					c0.1,0,0.1,0,0.2,0.1c0,0,0,0,0,0c0.1-0.9,1-1.5,1.8-1.4c0.1,0,0.2,0,0.3,0.1c0.3-0.6,1-0.9,1.7-0.8c0.1,0,0.1,0,0.2,0.1
					c0.2-0.8,1-1.3,1.8-1.2c0.1,0,0.2,0,0.3,0.1c0.3-0.6,1-0.9,1.7-0.8c0.9,0.1,1.5,1,1.4,1.8C389.3,589.1,388.5,589.7,387.6,589.6z
					"/>
				<path class="st4" d="M389.8,588.7c-0.4-0.2-1-0.3-1.5-0.1c-13.5,5.3-19.4,13.8-22,20c-2.8,6.8-2.3,12.3-2.3,12.6
					c0.1,0.9,0.9,1.6,1.9,1.5c0.9-0.1,1.6-0.9,1.5-1.8c-0.1-0.8-1.4-20,22.1-29.1c0.9-0.3,1.3-1.3,1-2.2
					C390.4,589.2,390.2,588.9,389.8,588.7z"/>
				<path class="st3" d="M399,614.3c0.1,0.4,0,0.8-0.2,1.2c-0.3,0.6-1,0.9-1.6,0.8c0.1,0.4,0.1,0.8-0.2,1.2
					c-0.3,0.5-0.9,0.8-1.5,0.8c0.1,0.4,0.1,0.9-0.1,1.3c-0.4,0.8-1.4,1.1-2.2,0.6c0,0,0,0,0,0c0.1,0.4,0,0.7-0.2,1.1
					c-0.4,0.6-1.1,0.9-1.8,0.8c0.1,0.4,0.1,0.9-0.1,1.3c-0.4,0.7-1.2,1-1.9,0.7c0,0.3,0,0.7-0.2,1c-0.4,0.8-1.4,1-2.2,0.6
					c0,0.2-0.1,0.5-0.2,0.7c-0.3,0.6-1,0.9-1.6,0.8c0,0.2-0.1,0.4-0.2,0.6c-0.4,0.7-1.2,1-2,0.7c0.1,0.4,0,0.8-0.2,1.2
					c-0.4,0.8-1.4,1.1-2.2,0.6c0,0,0,0,0,0c0,0.3-0.1,0.5-0.2,0.8c-0.4,0.8-1.4,1.1-2.2,0.6s-1.1-1.4-0.6-2.2s1.4-1.1,2.2-0.6
					c0,0,0,0,0,0c0-0.3,0.1-0.5,0.2-0.8c0.4-0.7,1.2-1,2-0.7c-0.1-0.4,0-0.8,0.2-1.2c0.3-0.6,1-0.9,1.6-0.8c0-0.2,0.1-0.4,0.2-0.6
					c0.4-0.8,1.4-1,2.2-0.6c0-0.2,0.1-0.5,0.2-0.7c0.4-0.7,1.2-1,1.9-0.7c0-0.3,0-0.7,0.2-1c0.4-0.6,1.1-0.9,1.8-0.8
					c-0.1-0.4-0.1-0.9,0.1-1.3c0.4-0.8,1.4-1.1,2.2-0.6c0,0,0,0,0,0c-0.1-0.4,0-0.7,0.2-1.1c0.3-0.5,0.9-0.8,1.5-0.8
					c-0.1-0.4-0.1-0.9,0.1-1.3c0.3-0.6,1-0.9,1.6-0.8c-0.1-0.4-0.1-0.8,0.2-1.2c0.4-0.6,1.1-0.9,1.8-0.8c-0.1-0.4,0-0.8,0.2-1.2
					c0.4-0.8,1.4-1.1,2.2-0.6c0.8,0.4,1.1,1.4,0.6,2.2C400.4,614.2,399.7,614.5,399,614.3z"/>
				<path class="st4" d="M402.5,604.5c-0.7-0.4-1.7-0.2-2.2,0.4c-11.3,14.6-24.3,22.7-24.5,22.7c-0.8,0.5-1.1,1.5-0.6,2.3
					c0.5,0.8,1.5,1.1,2.3,0.6c0.6-0.3,13.7-8.4,25.4-23.6c0.6-0.7,0.4-1.8-0.3-2.4C402.6,604.6,402.6,604.5,402.5,604.5z"/>
				<g>
					<path class="st4" d="M368.8,622.7c-1.1-0.6-1.5-2.1-0.9-3.2c0.3-0.5,0.7-0.9,1.2-1c-0.1-0.5,0-1.1,0.3-1.6
						c0.1-0.1,0.2-0.3,0.3-0.4c-0.3-0.7-0.3-1.5,0.1-2.2c0.4-0.8,1.2-1.2,2-1.2c-0.4-0.7-0.4-1.6,0-2.3c0.4-0.7,1.1-1.1,1.9-1.2
						c0-0.5,0-0.9,0.3-1.4c0.6-1.1,2.1-1.5,3.2-0.9s1.5,2.1,0.9,3.2c-0.4,0.7-1.1,1.1-1.9,1.2c0,0.5,0,0.9-0.3,1.4
						c-0.4,0.8,4.3,4.5,3.5,4.5c0.4,0.7-5.1-1.7-5.5-1c-0.1,0.1-0.2,0.3-0.3,0.4c0.3,0.7,0.3,1.5-0.1,2.2c-0.3,0.5-0.7,0.9-1.2,1
						c0.1,0.5,0,1.1-0.3,1.6C371.4,622.9,369.9,623.3,368.8,622.7z"/>
					<path class="st4" d="M378.7,621c0.6,0.7,0.7,1.8,0.2,2.6c-0.6,1.1-2.1,1.5-3.2,0.9c-1.1-0.6-1.5-2.1-0.9-3.2
						c0.5-0.9,1.4-1.3,2.3-1.2c-0.6-0.7-0.7-1.8-0.2-2.6c0.3-0.6,0.8-1,1.4-1.1c-0.2-0.6-0.1-1.2,0.2-1.8c0.3-0.6,0.8-0.9,1.4-1.1
						c-0.2-0.6-0.1-1.2,0.2-1.8c0.6-1.1,2.1-1.5,3.2-0.9c1.1,0.6,1.5,2.1,0.9,3.2c-0.3,0.6-0.8,0.9-1.4,1.1c0.2,0.6,0.1,1.2-0.2,1.8
						c-0.3,0.6-0.8,1-1.4,1.1c0.2,0.6,0.1,1.2-0.2,1.8C380.5,620.7,379.6,621.1,378.7,621z"/>
				</g>
				<path class="st5" d="M378.2,608.7c0,0-4.9,5.6-5.7,10.1c-0.8,4.5-4.6,9.1-4.6,9.1s7.2-2.4,8.9-5.7c1.7-3.3,5.9-10.5,5.9-10.5
					L378.2,608.7z"/>
				<path class="st2" d="M396.3,603.5l4.4,0.5l1.6-2.9c0,0-11.4-16.4-12.7-25c-1.3-8.6-1.4-17.4-1.4-17.4l-2.6-1.1l-2,5.6l1.7,2.9
					l-3,0.1l1.2,3.9l1.3,0.4l-2.9,1.9l5.1,4.2l-4.2,2l5.9,3.8l-3.1,1.5l5.2,3.3l-1.7,3l4.9,2.4l-1.7,3l3.7,2.1l-2.2,3.3L396.3,603.5
					z"/>
				<path class="st4" d="M385.5,555.5c-1.2-0.7-2.1-0.9-2.2-0.9c-0.4-0.1-0.9,0-1.2,0.4c-0.3,0.4-0.3,0.9-0.1,1.3
					c0.6,1.1,1.4,2.4,2.1,3.5c-0.3-0.1-0.4-0.1-0.5-0.1c-0.4-0.1-0.8,0-1.1,0.3c-0.3,0.3-0.4,0.7-0.3,1.1c0.5,1.4,1.2,2.7,2,3.8
					c-1.6-0.1-2.8,0.1-2.9,0.1c-0.3,0.1-0.7,0.3-0.8,0.6c-0.2,0.3-0.2,0.7,0,1c0.6,1.4,1.8,2.6,2.9,3.5c-1.3,0.2-2.5,0.6-2.9,0.7
					c-0.4,0.1-0.7,0.5-0.8,0.9c-0.1,0.4,0.1,0.9,0.5,1.1c1.4,1,3.5,2.4,5.3,3.5c-1.1,0.3-2.2,0.6-3,0.9c-0.3,0.1-0.6,0.4-0.7,0.8
					c-0.1,0.4,0,0.7,0.2,1c0.8,0.9,2.6,2.1,4.4,3c-1.1,0.5-1.7,1.2-1.8,1.2c-0.2,0.2-0.3,0.5-0.3,0.8c0,0.3,0.1,0.6,0.3,0.8
					c1.2,1.2,3.1,2.2,4.6,3c-0.6,0.3-1.2,0.7-1.6,1c-0.3,0.2-0.5,0.6-0.5,0.9c0,0.4,0.2,0.7,0.5,0.9c1.3,0.9,3.3,1.8,4.9,2.5
					c-0.6,0.4-1.1,0.8-1.3,0.9c-0.5,0.4-0.6,1.1-0.2,1.6c0.8,1,1.9,1.8,3.1,2.5c0,0,0,0,0,0c-0.7,0.3-1.1,0.7-1.2,0.7
					c-0.4,0.3-0.5,0.8-0.3,1.3c0.5,1.4,1.6,2.5,2.7,3.3c-0.3,0.2-0.5,0.3-0.5,0.4c-0.4,0.3-0.5,0.8-0.4,1.2c1.4,4.7,5.9,5.1,6.1,5.2
					c0.6,0.1,1.2-0.4,1.2-1c0.1-0.6-0.4-1.2-1-1.2c-0.1,0-2.6-0.3-3.8-2.7c0.4-0.1,1-0.2,1.8,0c0.2,0.1,0.4,0.1,0.4,0.2
					c0.6,0.2,1.2-0.1,1.4-0.7c0.2-0.6-0.1-1.2-0.6-1.4c-0.2-0.1-0.3-0.1-0.5-0.2c-1.2-0.5-3.2-1.5-4.2-2.9c0.6-0.3,1.4-0.6,2.3-0.5
					c0.8,0.3,1.3,0.5,1.4,0.5c0.6,0.2,1.1-0.1,1.4-0.6c0.2-0.5,0-1.2-0.5-1.4c-0.6-0.3-1.2-0.5-1.7-0.6c-1.4-0.5-3.2-1.4-4.4-2.4
					c0.7-0.5,1.5-0.9,1.8-0.9c0.5-0.1,0.9-0.5,1-1c0.1-0.5-0.2-1-0.7-1.2c0,0-3-1.1-5.3-2.3c0.8-0.4,1.5-0.7,1.7-0.7
					c0.6,0.1,1.2-0.2,1.3-0.8c0.2-0.6-0.1-1.2-0.7-1.4c0,0-3.3-1.3-5.6-2.9c0.7-0.4,1.8-0.7,2.9-0.3c0.6,0.2,1.2-0.1,1.4-0.7
					c0.2-0.6-0.1-1.2-0.6-1.4c-1.8-0.7-4.2-1.9-5.8-2.9c1.5-0.4,2.9-0.7,3.3-0.6c0.5,0.3,1.2,0.1,1.5-0.5c0.3-0.5,0.1-1.2-0.4-1.5
					c0,0-3.3-2-5.9-3.7c1.3-0.2,2.6-0.3,3.4-0.1c0.2,0.1,0.4,0.2,0.4,0.2c0.6,0.2,1.2,0,1.5-0.5c0.3-0.5,0.1-1.2-0.5-1.5
					c-0.1-0.1-0.3-0.2-0.5-0.2c-0.8-0.4-3-1.5-4.4-3.1c1.1,0,2.4,0.2,3.3,0.7c0,0,0,0,0,0c0.5,0.3,1.1,0.1,1.5-0.3
					c0.3-0.5,0.3-1.1-0.1-1.5c0,0-1.5-1.4-2.6-3.3c0.3,0.1,0.6,0.3,0.9,0.4c0.5,0.2,1,0.1,1.4-0.2c0.4-0.4,0.4-1,0.1-1.4
					c0,0-0.6-1-1.4-2.2c0,0,0,0,0,0.1c0.4,0.5,1.1,0.6,1.6,0.2c0.5-0.4,0.6-1.1,0.2-1.6C387.5,556.8,386.4,556,385.5,555.5z"/>
				<path class="st6" d="M388.7,554.1c0,0,5.1,6,5.2,1.6c0,0,3.1,1,3.8,2.5c0.8,1.5,3.1,2.7,4.3,2.6c1.2-0.2,2.6-1.3,3.2,0
					c0.6,1.3,3,3.1,3,3.1s-1.1-0.7-2.9,0.2c-1.7,0.9-6.3,2.6-6.3,2.6l2.3,22.4c0,0-2.4,3.4-2.5,6.5s-9.4-17.6-9.4-17.6l-1.9-19.4
					L388.7,554.1z"/>
				<path class="st5" d="M401,590.7c0,0-3.1-1.2-1.9-4.5c0,0-2.1-0.4-1.7-2.2c0,0-3.3-1-3.2-4.6c0,0-1.5-0.9-1.1-2.3
					c0,0-1.3-0.9,0.2-2.5c0,0-1.6-1.1-0.3-3.1c0,0-1.6-1.1-0.9-3.1c0,0-1.5-1.2-0.5-3.2c0,0-1.3-2.1,0.1-4.7l-0.4-2.4
					c0,0,4.7,2.7,6,3.4c0,0,1.7,2.3,3.6,1.8c1.9-0.6,0.9,2.9,2.7,3.5c0,0,0.2,4.8,1.9,5.6c1.7,0.7,2.8,9.8,2.8,9.8l-4.3,6.9
					L401,590.7z"/>
				<path class="st7" d="M391.3,543.2l-3.3-1c-0.1,0.3-10.3,33.8,13.6,61.5l2.6-2.2C381.6,575.1,391.2,543.5,391.3,543.2z"/>
				<path class="st8" d="M404.7,578.8c0,0-4.4-7.8-9.6-2.8c0,0,2.3-0.5,3.7,0.5c0,0,0.5,1.6,2.4,1.4c0,0-0.8,1.2,0.4,1.5
					C402.8,579.6,404.7,578.8,404.7,578.8z"/>
				<path class="st8" d="M401.8,589.8c0,0-3.1-3.7-2.5-6.2c0,0-3.4-2.9-3.3-5.7c0,0,2.6,0.1,3.4,1.9s6.6,0.1,6.6,0.1
					S401.1,586.2,401.8,589.8z"/>
				<circle class="st9" cx="401.2" cy="582.8" r="1"/>
				<path class="st8" d="M405.2,576.9c0,0-4.4-6.2-9.7-2.8c0,0-1.2-0.4-0.5-1.7c0,0-3.6-6.6-2-12.1c0,0,1.3,1.3,3.3,1.3
					c0,0,2.7-1.4,4.9,0.3c0,0-3.3,0.1-3.7,0.9c0,0-0.5,6.1,5.2,9.7c0,0,0.5-2.8,2.6-1.1c0,0,2.4-1.5,3.3,0.7L405.2,576.9z"/>
				<path class="st9" d="M394.3,572.2l1.5,0.5c0,0,3.2-1.9,5.6-0.5C401.4,572.2,397.8,568.2,394.3,572.2z"/>
				<path class="st9" d="M397.6,568.5c0,0-1.7,1.7-4.3,0.2C393.3,568.7,394.1,566.4,397.6,568.5z"/>
				<path class="st9" d="M396.6,566.1c0,0-1.9,0.3-2.9-1.6C393.7,564.5,395.4,562.8,396.6,566.1z"/>
				<path class="st9" d="M397.4,562.7c0.1-0.2,0.5-0.4,0.9-0.5c0,0,0.3,4.3,1.7,7.9C397.1,566.7,397.4,562.7,397.4,562.7z"/>
				<path class="st8" d="M404.2,568.9c0,0-2.6,1.2-3.4-1.4C400.8,567.5,402.8,566.2,404.2,568.9z"/>
				<path class="st9" d="M402.3,570.8c0,0,0.9-2.6,2.7-1.5L402.3,570.8z"/>
				<path class="st7" d="M379.3,604.5c-0.1-0.1-0.3-0.1-0.4-0.1c-0.6-0.1-1.2,0.3-1.3,1c-0.2,1.2,0,3.4,1.6,4.3
					c0.2,0.8,0.7,2,1.9,2.6c1.1,0.6,2.5,0.5,4.2-0.3c0.6-0.3,0.8-1,0.5-1.5c-0.3-0.6-1-0.8-1.5-0.5c-0.6,0.3-1.5,0.6-2.1,0.3
					c-0.6-0.3-0.9-1.3-0.9-1.5c-0.1-0.4-0.4-0.8-0.8-0.9c-0.8-0.3-0.6-2.1-0.6-2.1C380,605.2,379.7,604.7,379.3,604.5z"/>
				<path class="st4" d="M390.8,599.8c1.4,0.6,2.3,1.9,2.4,3.3c0.1,1-0.1,3.5-3.9,5.5c-0.8,0.4-1.7,1.1-1.8,1.9
					c-0.1,0.9,0.8,1.8,0.8,1.8c0.4,0.4,0.5,1,0.2,1.5s-0.9,0.6-1.4,0.4c-1.9-0.9-3-2.2-3.3-3.9c-0.3-1.5,0.1-2.9,0.7-4.2
					c-5.1,0.8-9.7-2-10-2.2c-0.5-0.3-0.7-1-0.4-1.5c0.3-0.5,1-0.7,1.5-0.5c0.2,0.1,4.5,2.1,7.7-1.7c1.5-1.8,3.1-2.7,4.7-2.5
					c0.5,0.1,0.9,0.2,1.3,0.4C390,598.7,390.6,599.4,390.8,599.8z M386.5,603c0.5-0.3,1.1-0.1,1.4,0.3c0.3,0.4,0.3,1,0,1.5
					c-0.5,0.6-1.6,2.2-1.9,3.7c0.5-0.7,1.3-1.4,2.3-1.9c1.8-1,2.8-2.2,2.7-3.3c-0.1-0.7-0.5-1.3-1.3-1.5c-0.3-0.1-0.5-0.3-0.6-0.6
					c0,0-0.6-1.1-1.5-1.2c-0.7-0.1-1.6,0.5-2.6,1.7c-0.9,1-1.9,1.8-2.8,2.3C383.5,604,385.1,603.8,386.5,603z"/>
			</g>
		</g>
	</g>
	<path d="M306.9,632.5c-0.1,0-0.2,0-0.3-0.1c-0.2-0.1-0.2-0.3-0.2-0.4l0.1-6.7l-6.5-2.2c-0.4-0.2-36.8-17.1-70.4-9.6l-3.2,1.3
		c-0.2,0.1-0.3,0-0.5,0c-0.1-0.1-0.2-0.2-0.2-0.4c-0.1-2.5-0.4-5.2-0.7-7.8c-0.3-3-0.7-6.1-0.7-8.8c-0.2-9.4,1.1-15.8,2.2-21.4
		c0.2-0.8,0.3-1.7,0.5-2.5c1.4-7.4,5.1-19.4,9.1-29.9c0.1-0.2,0.3-0.4,0.6-0.3c0.4,0.1,49.3,7.6,74.4,7.6c0,0,0,0,0,0
		c30,0,67.3-4.5,67.7-4.6l3.6-0.6c0.2,0,0.5,0.1,0.6,0.4c2,7.1,4.2,17.4,4.4,23.2c0.1,1.8,0.3,3.5,0.5,5.6c0.5,3.7,1,8.3,0.7,14.3
		c-0.1,2-0.1,3.9-0.1,5.9c-0.1,4.5-0.1,9.7-1,16c0,0.3-0.3,0.4-0.5,0.4l-13.6-1.3c-23.6-1.7-65.8,21.4-66.2,21.7
		C307.1,632.4,307,632.5,306.9,632.5z M247.9,610.6c27.6,0,52.2,11.4,52.5,11.6l6.8,2.3c0.2,0.1,0.3,0.3,0.3,0.5l-0.1,6.2
		c5.8-3.1,43.9-23,66-21.4l13.1,1.2c0.8-6.1,0.9-11,1-15.4c0-2.1,0.1-4,0.1-6c0.3-6-0.2-10.3-0.7-14.2c-0.3-2.1-0.5-3.9-0.5-5.7
		c-0.2-5.6-2.3-15.5-4.2-22.5l-3.2,0.5c-0.4,0-37.8,4.6-67.8,4.6c0,0,0,0,0,0c-23.9,0-69.3-6.8-74.2-7.5
		c-3.9,10.2-7.5,22.2-8.9,29.3c-0.2,0.8-0.3,1.7-0.5,2.5c-1.1,5.6-2.4,11.9-2.2,21.2c0.1,2.7,0.4,5.7,0.7,8.7
		c0.3,2.4,0.5,4.9,0.7,7.2l2.6-1C235.5,611.1,241.8,610.6,247.9,610.6z"/>
</g>
</svg>
