<?xml version="1.0" encoding="utf-8"?>
<!-- Generator: Adobe Illustrator 27.0.0, SVG Export Plug-In . SVG Version: 6.00 Build 0)  -->
<svg version="1.1" id="Layer_1" xmlns="http://www.w3.org/2000/svg" xmlns:xlink="http://www.w3.org/1999/xlink" x="0px" y="0px"
	 viewBox="0 0 600 1200" style="enable-background:new 0 0 600 1200;" xml:space="preserve">
<style type="text/css">
	.st0{fill:#7E848D;}
</style>
<g>
	<g>
		<g>
			<path class="st0" d="M386.8,540.3c-8.9,0.7-38.1,4.3-50.4,10.8c-14.3,7.6-17.8,6.5-25.3,6.4c-10.1-0.2-27.8-10.1-38.1-18
				c-12.2-9.4-33.9-9.2-33.9-9.2l-1.6,4.6c0,0,15.4-1,27,8.5c11.6,9.5,37.6,53.6,40,53.4h3c0,0,3.8,0.9,9.1-6.3
				c2.9-3.9,15-18,30.5-29c13.5-9.6,29.7-16.6,40.5-16.2l-0.1-1.2C387.3,542.8,387.1,541.6,386.8,540.3z"/>
			<path d="M307.8,597.4c-0.2,0-0.4,0-0.5,0h-2.9c-1.1,0.1-3.6-3.4-12.9-17.1c-8.8-13-20.7-30.9-27.5-36.4
				c-11.3-9.2-26.5-8.4-26.6-8.4c-0.2,0-0.3-0.1-0.4-0.2c-0.1-0.1-0.1-0.3-0.1-0.5l1.6-4.6c0.1-0.2,0.3-0.3,0.5-0.3
				c0.2,0,22-0.1,34.3,9.3c9.5,7.3,27.5,17.7,37.8,17.9c0.8,0,1.5,0,2.2,0.1c6.1,0.2,10.1,0.3,22.9-6.4
				c12.2-6.4,41.3-10.1,50.6-10.9c0.3,0,0.5,0.2,0.5,0.4c0.2,1.2,0.4,2.5,0.6,3.8l0.1,1.3c0,0.1,0,0.3-0.1,0.4
				c-0.1,0.1-0.2,0.2-0.4,0.1c-10.2-0.4-26,5.9-40.2,16.1c-15.8,11.3-28,25.7-30.3,28.9C312.6,596.7,309.1,597.4,307.8,597.4z
				 M307.4,596.3c0,0,0.1,0,0.1,0c0,0,3.6,0.7,8.6-6.1c2.4-3.2,14.6-17.7,30.6-29.1c14.2-10.2,29.9-16.5,40.3-16.3l0-0.7
				c-0.2-1.1-0.3-2.2-0.5-3.3c-9.7,0.8-37.9,4.5-49.7,10.7c-13,6.9-17.1,6.7-23.4,6.5c-0.7,0-1.4,0-2.2-0.1
				c-10.5-0.2-28.8-10.7-38.4-18.1c-11.1-8.5-30.5-9.1-33.3-9.1l-1.3,3.6c3.2-0.1,16.5,0.3,26.6,8.7c6.8,5.6,18.4,22.8,27.7,36.6
				c5.4,8,11,16.3,12.1,16.7L307.4,596.3z"/>
		</g>
	</g>
	<path d="M307.8,597.4c-0.2,0-0.4,0-0.5,0h-2.9c-1.1,0.1-3.6-3.4-12.9-17.1c-8.8-13-20.7-30.9-27.5-36.4
		c-11.3-9.2-26.5-8.4-26.6-8.4c-0.2,0-0.3-0.1-0.4-0.2c-0.1-0.1-0.1-0.3-0.1-0.5l1.6-4.6c0.1-0.2,0.3-0.3,0.5-0.3
		c0.2,0,22-0.1,34.3,9.3c9.5,7.3,27.5,17.7,37.8,17.9c0.8,0,1.5,0,2.2,0.1c6.1,0.2,10.1,0.3,22.9-6.4c12.2-6.4,41.3-10.1,50.6-10.9
		c0.3,0,0.5,0.2,0.5,0.4c0.2,1.2,0.4,2.5,0.6,3.8l0.1,1.3c0,0.1,0,0.3-0.1,0.4c-0.1,0.1-0.2,0.2-0.4,0.1c-10.2-0.4-26,5.9-40.2,16.1
		c-15.8,11.3-28,25.7-30.3,28.9C312.6,596.7,309.1,597.4,307.8,597.4z M307.4,596.3c0,0,0.1,0,0.1,0c0,0,3.6,0.7,8.6-6.1
		c2.4-3.2,14.6-17.7,30.6-29.1c14.2-10.2,29.9-16.5,40.3-16.3l0-0.7c-0.2-1.1-0.3-2.2-0.5-3.3c-9.7,0.8-37.9,4.5-49.7,10.7
		c-13,6.9-17.1,6.7-23.4,6.5c-0.7,0-1.4,0-2.2-0.1c-10.5-0.2-28.8-10.7-38.4-18.1c-11.1-8.5-30.5-9.1-33.3-9.1l-1.3,3.6
		c3.2-0.1,16.5,0.3,26.6,8.7c6.8,5.6,18.4,22.8,27.7,36.6c5.4,8,11,16.3,12.1,16.7L307.4,596.3z"/>
</g>
</svg>
