<?xml version="1.0" encoding="utf-8"?>
<!-- Generator: Adobe Illustrator 27.0.0, SVG Export Plug-In . SVG Version: 6.00 Build 0)  -->
<svg version="1.1" id="Layer_1" xmlns="http://www.w3.org/2000/svg" xmlns:xlink="http://www.w3.org/1999/xlink" x="0px" y="0px"
	 viewBox="0 0 600 1200" style="enable-background:new 0 0 600 1200;" xml:space="preserve">
<style type="text/css">
	.st0{fill:#7E848D;}
</style>
<g>
	<g>
		<g>
			<path class="st0" d="M378.1,542.5c-8.9,0.7-30.2,2.5-42.5,9c-14.3,7.6-17.8,6.5-25.3,6.4c-10.1-0.2-28.5-9.2-38.1-18
				c-11.4-10.4-30.3-8-30.3-8l-1.6,4.6c0,0,11.8-2.2,23.4,7.3c11.6,9.5,37.6,53.6,40,53.4h3c0,0,3.8,0.9,9.1-6.3
				c5.4-7.2,39.8-44.3,63.1-43.3l-0.1-1.2C378.5,545,378.3,543.8,378.1,542.5z"/>
			<path d="M306.9,597.7c-0.2,0-0.4,0-0.5,0h-2.9c-1.1,0.1-3.6-3.4-12.9-17.1c-8.8-13-20.7-30.9-27.5-36.4
				c-11.2-9.2-22.9-7.2-23-7.2c-0.2,0-0.4,0-0.5-0.2c-0.1-0.1-0.2-0.3-0.1-0.5l1.6-4.6c0.1-0.2,0.2-0.3,0.4-0.3
				c0.2,0,19.3-2.3,30.7,8.2c9.9,9,28.2,17.7,37.8,17.9c0.8,0,1.5,0,2.2,0.1c6.1,0.2,10.1,0.3,22.9-6.4c12.3-6.5,33.4-8.2,42.4-9
				l0.3,0c0.3,0,0.5,0.2,0.5,0.4c0.2,1.2,0.4,2.5,0.6,3.8l0.1,1.3c0,0.1,0,0.3-0.1,0.4s-0.2,0.2-0.4,0.1
				c-12.2-0.5-27.4,9.7-37.9,18.5c-12.4,10.2-22.2,21.2-24.7,24.7C311.7,597.1,308.2,597.7,306.9,597.7z M306.5,596.7
				c0,0,0.1,0,0.1,0c0,0,3.6,0.7,8.6-6.1c4.1-5.5,38.3-43.5,62.5-43.5c0.1,0,0.3,0,0.4,0l0-0.7c-0.2-1.1-0.3-2.2-0.5-3.3
				c-9,0.8-29.8,2.5-41.9,8.9c-13,6.9-17.1,6.7-23.4,6.5c-0.7,0-1.4,0-2.2-0.1c-9.9-0.2-28.2-8.8-38.4-18.1
				c-10.3-9.4-27.2-8.2-29.6-7.9l-1.3,3.6c2.9-0.3,13.1-0.6,23,7.5c6.8,5.6,18.4,22.8,27.7,36.6c5.4,8,11,16.3,12.1,16.7
				L306.5,596.7z"/>
		</g>
		<path d="M306.9,597.7c-0.2,0-0.4,0-0.5,0h-2.9c-1.1,0.1-3.6-3.4-12.9-17.1c-8.8-13-20.7-30.9-27.5-36.4c-11.2-9.2-22.9-7.2-23-7.2
			c-0.2,0-0.4,0-0.5-0.2c-0.1-0.1-0.2-0.3-0.1-0.5l1.6-4.6c0.1-0.2,0.2-0.3,0.4-0.3c0.2,0,19.3-2.3,30.7,8.2
			c9.9,9,28.2,17.7,37.8,17.9c0.8,0,1.5,0,2.2,0.1c6.1,0.2,10.1,0.3,22.9-6.4c12.3-6.5,33.4-8.2,42.4-9l0.3,0c0.3,0,0.5,0.2,0.5,0.4
			c0.2,1.2,0.4,2.5,0.6,3.8l0.1,1.3c0,0.1,0,0.3-0.1,0.4s-0.2,0.2-0.4,0.1c-12.2-0.5-27.4,9.7-37.9,18.5
			c-12.4,10.2-22.2,21.2-24.7,24.7C311.7,597.1,308.2,597.7,306.9,597.7z M306.5,596.7c0,0,0.1,0,0.1,0c0,0,3.6,0.7,8.6-6.1
			c4.1-5.5,38.3-43.5,62.5-43.5c0.1,0,0.3,0,0.4,0l0-0.7c-0.2-1.1-0.3-2.2-0.5-3.3c-9,0.8-29.8,2.5-41.9,8.9
			c-13,6.9-17.1,6.7-23.4,6.5c-0.7,0-1.4,0-2.2-0.1c-9.9-0.2-28.2-8.8-38.4-18.1c-10.3-9.4-27.2-8.2-29.6-7.9l-1.3,3.6
			c2.9-0.3,13.1-0.6,23,7.5c6.8,5.6,18.4,22.8,27.7,36.6c5.4,8,11,16.3,12.1,16.7L306.5,596.7z"/>
	</g>
</g>
</svg>
