<?xml version="1.0" encoding="utf-8"?>
<!-- Generator: Adobe Illustrator 27.0.0, SVG Export Plug-In . SVG Version: 6.00 Build 0)  -->
<svg version="1.1" id="Layer_1" xmlns="http://www.w3.org/2000/svg" xmlns:xlink="http://www.w3.org/1999/xlink" x="0px" y="0px"
	 viewBox="0 0 600 1200" style="enable-background:new 0 0 600 1200;" xml:space="preserve">
<style type="text/css">
	.st0{clip-path:url(#SVGID_00000170272397443030491500000005357571735932012978_);}
	.st1{fill:#A9ABA7;}
	.st2{fill:#CC998B;stroke:#000000;stroke-width:0.5;stroke-miterlimit:10;}
	.st3{fill:#4D5157;stroke:#000000;stroke-width:0.5;stroke-miterlimit:10;}
	.st4{fill:#E4E6EA;stroke:#000000;stroke-width:0.5;stroke-miterlimit:10;}
	.st5{fill:#4D5157;stroke:#000000;stroke-width:0.5;stroke-linecap:round;stroke-linejoin:round;stroke-miterlimit:10;}
	.st6{fill:#AAA58C;stroke:#000000;stroke-width:0.5;stroke-linecap:round;stroke-linejoin:round;stroke-miterlimit:10;}
	.st7{fill:#ABB2B8;stroke:#000000;stroke-width:0.5;stroke-miterlimit:10;}
	.st8{fill:#ABB2B8;stroke:#000000;stroke-width:0.5;stroke-linecap:round;stroke-linejoin:round;stroke-miterlimit:10;}
	.st9{fill:#E4E6EA;stroke:#000000;stroke-width:0.5;stroke-linecap:round;stroke-linejoin:round;stroke-miterlimit:10;}
</style>
<g>
	<defs>
		<path id="SVGID_1_" d="M241.1,531.6c0,0,14.9-2,26.3,8.4c9.6,8.8,29.5,19.8,39.3,22.3c7.3,1.8,18,2,31.7-6.6
			c12-7.5,31.4-10.9,40-11.7l0.2,4.4c-18,0-58.4,35.2-63.7,42.4s-9.1,6.3-9.1,6.3h-3c-2.4,0.2-28.7-43.9-40.3-53.4
			c-11.6-9.5-22.9-7.4-22.9-7.4L241.1,531.6z"/>
	</defs>
	<clipPath id="SVGID_00000033344257699073230640000012305842049746768315_">
		<use xlink:href="#SVGID_1_"  style="overflow:visible;"/>
	</clipPath>
	<g style="clip-path:url(#SVGID_00000033344257699073230640000012305842049746768315_);">
		<rect x="201.3" y="504.2" class="st1" width="203.2" height="111.5"/>
		<g>
			<path class="st2" d="M218.2,531.1l4.2,1.6c0,0-0.5,8.9-0.4,12.9c0.1,4,1.8,7.8,1.8,7.8s1.1,4,2.7,4s4.2-1.1,4.2-1.1l1.7,1.5
				l0.4,2l-7.3,6.5c0,0-4.2-4.8-5.4-6.6s-5.5-12.9-4.6-17.9C216.3,536.6,218.2,531.1,218.2,531.1z"/>
			<path class="st3" d="M222.3,564.5c-0.1,0-0.2,0-0.2-0.1c0-0.6-0.3-1.1-0.9-1.4c-0.1,0-0.1,0-0.2-0.1c0.2-0.7-0.2-1.5-0.9-1.7
				c-0.1,0-0.2-0.1-0.3-0.1c0-0.6-0.3-1.1-0.9-1.4c-0.1,0-0.1,0-0.2,0c0,0,0,0,0,0c0.3-0.7-0.1-1.6-0.8-1.8c-0.1,0-0.1,0-0.2-0.1
				c0,0,0,0,0,0c0.3-0.7-0.1-1.6-0.8-1.8c0.3-0.7-0.1-1.6-0.8-1.8c-0.1,0-0.1,0-0.2-0.1c0-0.1,0.1-0.2,0.1-0.3
				c0.3-0.7-0.1-1.6-0.8-1.8c0,0-0.1,0-0.1,0c0.2-0.2,0.4-0.4,0.5-0.7c0.3-0.7,0-1.4-0.6-1.7c0.1-0.1,0.2-0.2,0.2-0.4
				c0.2-0.5,0.1-1.1-0.3-1.5c0.1-0.1,0.1-0.2,0.2-0.3c0.3-0.7-0.1-1.5-0.7-1.8c0.1-0.1,0.2-0.2,0.2-0.4c0.2-0.6,0-1.3-0.5-1.7
				c0.2-0.2,0.4-0.4,0.5-0.6c0.2-0.6,0-1.4-0.6-1.7c0.3-0.2,0.5-0.4,0.6-0.7c0.2-0.5,0.1-1-0.2-1.4c0.3-0.2,0.5-0.4,0.6-0.7
				c0.2-0.6,0.1-1.2-0.3-1.5c0.6,0,1.1-0.4,1.3-0.9c0.2-0.5,0.1-1.1-0.3-1.4c0.7-0.1,1.2-0.7,1.2-1.4c0-0.8-0.6-1.4-1.4-1.4
				s-1.4,0.6-1.4,1.4c0,0.4,0.1,0.7,0.3,0.9c-0.5,0.1-0.9,0.4-1.1,0.9c-0.2,0.6-0.1,1.2,0.3,1.5c-0.6,0-1.1,0.4-1.3,0.9
				c-0.2,0.5-0.1,1,0.2,1.4c-0.3,0.2-0.5,0.4-0.6,0.7c-0.2,0.6,0,1.4,0.6,1.7c-0.3,0.2-0.5,0.4-0.6,0.7c-0.2,0.6,0,1.3,0.5,1.7
				c-0.2,0.2-0.4,0.4-0.5,0.6c-0.3,0.7,0.1,1.5,0.7,1.8c-0.1,0.1-0.2,0.2-0.2,0.4c-0.2,0.5-0.1,1.1,0.3,1.5
				c-0.1,0.1-0.1,0.2-0.2,0.3c-0.3,0.7,0,1.4,0.6,1.7c-0.1,0.1-0.2,0.2-0.2,0.4c-0.3,0.7,0.1,1.6,0.8,1.8c0,0,0.1,0,0.1,0
				c-0.2,0.2-0.4,0.4-0.5,0.7c-0.3,0.7,0.1,1.6,0.8,1.8c0.1,0,0.1,0,0.2,0.1c0,0.1-0.1,0.2-0.1,0.3c-0.3,0.7,0.1,1.6,0.8,1.8
				c-0.3,0.7,0.1,1.6,0.8,1.8c0.1,0,0.1,0,0.2,0.1c0,0,0,0,0,0c-0.3,0.7,0.1,1.6,0.8,1.8c0.1,0,0.1,0,0.2,0c0,0,0,0,0,0
				c-0.3,0.7,0.1,1.6,0.8,1.8c0.1,0,0.2,0.1,0.3,0.1c0,0.6,0.3,1.1,0.9,1.4c0.1,0,0.1,0,0.2,0c-0.2,0.7,0.2,1.5,0.9,1.7
				c0.1,0,0.2,0,0.2,0.1c0,0.6,0.3,1.1,0.9,1.4c0.7,0.3,1.6-0.1,1.8-0.8S223,564.8,222.3,564.5z"/>
			<path class="st4" d="M223.6,566.2c-0.4,0-0.9-0.2-1.2-0.6c-8.1-9.9-8.9-18.9-8.1-24.8c0.8-6.4,3.6-10.5,3.7-10.6
				c0.5-0.7,1.4-0.9,2.1-0.4c0.7,0.5,0.9,1.4,0.4,2.1c-0.4,0.6-9.7,14.7,4.3,31.8c0.5,0.6,0.4,1.6-0.2,2.1
				C224.3,566.1,224,566.2,223.6,566.2z"/>
			<path class="st3" d="M241.8,550.6c0.2-0.3,0.4-0.6,0.4-1c0-0.6-0.4-1.1-0.9-1.3c0.2-0.3,0.4-0.6,0.4-1c0-0.5-0.3-1-0.8-1.3
				c0.3-0.3,0.5-0.6,0.5-1.1c0-0.8-0.6-1.4-1.4-1.4c0,0,0,0,0,0c0.2-0.2,0.3-0.6,0.3-0.9c0-0.6-0.4-1.2-1-1.4c0.3-0.3,0.4-0.6,0.4-1
				c0-0.7-0.5-1.3-1.1-1.4c0.2-0.2,0.3-0.5,0.3-0.9c0-0.8-0.6-1.4-1.4-1.4c0.1-0.2,0.1-0.4,0.1-0.6c0-0.6-0.4-1.1-0.9-1.3
				c0.1-0.2,0.1-0.4,0.1-0.6c0-0.7-0.5-1.3-1.2-1.4c0.2-0.3,0.4-0.6,0.4-1c0-0.8-0.6-1.4-1.4-1.4c0,0,0,0,0,0
				c0.1-0.2,0.2-0.4,0.2-0.7c0-0.8-0.6-1.4-1.4-1.4s-1.4,0.6-1.4,1.4s0.6,1.4,1.4,1.4c0,0,0,0,0,0c-0.1,0.2-0.2,0.4-0.2,0.7
				c0,0.7,0.5,1.3,1.2,1.4c-0.2,0.3-0.4,0.6-0.4,1c0,0.6,0.4,1.1,0.9,1.3c-0.1,0.2-0.1,0.4-0.1,0.6c0,0.8,0.6,1.4,1.4,1.4
				c-0.1,0.2-0.1,0.4-0.1,0.6c0,0.7,0.5,1.3,1.1,1.4c-0.2,0.2-0.3,0.5-0.3,0.9c0,0.6,0.4,1.2,1,1.4c-0.3,0.3-0.4,0.6-0.4,1
				c0,0.8,0.6,1.4,1.4,1.4c0,0,0,0,0,0c-0.2,0.2-0.3,0.6-0.3,0.9c0,0.5,0.3,1,0.8,1.3c-0.3,0.3-0.5,0.6-0.5,1.1
				c0,0.6,0.4,1.1,0.9,1.3c-0.2,0.3-0.4,0.6-0.4,1c0,0.6,0.4,1.2,1,1.4c-0.2,0.3-0.4,0.6-0.4,1c0,0.8,0.6,1.4,1.4,1.4
				s1.4-0.6,1.4-1.4C242.8,551.3,242.3,550.7,241.8,550.6z"/>
			<path class="st4" d="M240.2,559.6c-0.7,0-1.4-0.5-1.5-1.3c-2.3-16.1-8.8-27.9-8.9-28c-0.4-0.7-0.1-1.6,0.6-2
				c0.7-0.4,1.6-0.1,2,0.6c0.3,0.5,6.8,12.4,9.2,29c0.1,0.8-0.5,1.6-1.3,1.7C240.3,559.6,240.2,559.6,240.2,559.6z"/>
			<g>
				<path class="st4" d="M222.2,531.1c-1.2,0-2.1,0.9-2.1,2.1c0,0.5,0.2,1,0.5,1.3c-0.3,0.4-0.5,0.8-0.5,1.3c0,0.1,0,0.3,0,0.4
					c-0.5,0.4-0.9,1-0.9,1.7c0,0.8,0.4,1.4,1,1.8c-0.6,0.4-1,1-1,1.8c0,0.7,0.4,1.4,0.9,1.7c-0.2,0.3-0.4,0.7-0.4,1.2
					c0,1.2,0.9,2.1,2.1,2.1s2.1-0.9,2.1-2.1c0-0.7-0.4-1.4-0.9-1.7c0.2-0.3,0.4-0.7,0.4-1.2c0-0.8,5.3-1.6,4.7-1.9
					c0.6-0.4-4.7-0.9-4.7-1.6c0-0.1,0-0.3,0-0.4c0.5-0.4,0.9-1,0.9-1.7c0-0.5-0.2-1-0.5-1.3c0.3-0.4,0.5-0.8,0.5-1.3
					C224.3,532,223.4,531.1,222.2,531.1z"/>
				<path class="st4" d="M229.1,536.7c0.8-0.3,1.3-1.1,1.3-1.9c0-1.2-0.9-2.1-2.1-2.1c-1.2,0-2.1,0.9-2.1,2.1c0,0.9,0.5,1.6,1.3,1.9
					c-0.8,0.3-1.3,1.1-1.3,1.9c0,0.6,0.2,1.1,0.6,1.5c-0.4,0.4-0.6,0.9-0.6,1.5c0,0.6,0.2,1.1,0.6,1.5c-0.4,0.4-0.6,0.9-0.6,1.5
					c0,1.2,0.9,2.1,2.1,2.1c1.2,0,2.1-0.9,2.1-2.1c0-0.6-0.2-1.1-0.6-1.5c0.4-0.4,0.6-0.9,0.6-1.5c0-0.6-0.2-1.1-0.6-1.5
					c0.4-0.4,0.6-0.9,0.6-1.5C230.3,537.7,229.8,537,229.1,536.7z"/>
			</g>
			<path class="st5" d="M223.4,545.9c0,0-1.3-6.4,0-10.2c1.3-3.8,0.5-9,0.5-9s4.5,4.9,4.4,8.2s0,10.6,0,10.6L223.4,545.9z"/>
			<path class="st2" d="M234.9,557.7l3.6,1.5v2.9c0,0-15.9,7.6-20.5,13.6s-8.6,12.7-8.6,12.7l-2.5-0.3l0.9-5.1l2.5-1.5l-2.3-1.4
				l2.6-2.5l1.2,0.2l-1.4-2.7l5.7-1l-2.4-3.3l6.1-0.4l-1.7-2.5l5.4-0.3v-3l4.8,0.3V562h3.8l-0.3-3.5L234.9,557.7z"/>
			<path class="st4" d="M205.9,589.7c-1.2,0-2-0.2-2.1-0.2c-0.4-0.1-0.7-0.4-0.7-0.8c-0.1-0.4,0.1-0.8,0.5-1c1-0.6,2.1-1.2,3.1-1.8
				c-0.2-0.1-0.4-0.1-0.4-0.1c-0.4-0.1-0.6-0.4-0.7-0.7c-0.1-0.4,0-0.7,0.3-1c0.9-0.9,2.1-1.5,3.2-2c-1.2-0.6-2.1-1.3-2.2-1.4
				c-0.2-0.2-0.4-0.5-0.4-0.8c0-0.3,0.2-0.6,0.4-0.8c1.1-0.8,2.4-1.2,3.7-1.4c-0.9-0.8-1.7-1.5-1.9-1.8c-0.3-0.3-0.3-0.7-0.2-1
				c0.1-0.4,0.5-0.6,0.8-0.6c1.5-0.2,3.7-0.3,5.5-0.4c-0.7-0.7-1.4-1.4-1.9-2c-0.2-0.2-0.3-0.6-0.2-0.9c0.1-0.3,0.3-0.6,0.6-0.7
				c1-0.4,2.9-0.4,4.7-0.4c-0.6-0.9-0.8-1.6-0.8-1.7c-0.1-0.3,0-0.5,0.1-0.8c0.1-0.2,0.4-0.4,0.6-0.5c1.5-0.4,3.3-0.4,4.9-0.3
				c-0.3-0.5-0.6-1-0.8-1.5c-0.2-0.3-0.1-0.6,0-0.9c0.2-0.3,0.5-0.5,0.8-0.5c1.4-0.1,3.3,0,4.8,0.2c-0.3-0.6-0.5-1.1-0.6-1.3
				c-0.2-0.5,0-1.1,0.6-1.3c1-0.4,2.3-0.5,3.5-0.5c0,0,0,0,0,0c-0.4-0.6-0.6-1-0.6-1.1c-0.2-0.4,0-0.9,0.3-1.1
				c1-0.8,2.3-1.2,3.5-1.3c-0.2-0.3-0.3-0.5-0.3-0.5c-0.1-0.4,0-0.8,0.2-1.1c3.1-3,6.7-1.4,6.9-1.3c0.5,0.2,0.7,0.8,0.5,1.3
				c-0.2,0.5-0.8,0.7-1.3,0.5c-0.1,0-2.1-0.9-4,0.4c0.3,0.3,0.7,0.6,1.4,0.7c0.2,0,0.4,0.1,0.4,0.1c0.5,0.1,0.9,0.6,0.8,1.1
				c-0.1,0.5-0.6,0.9-1.1,0.8c-0.2,0-0.3,0-0.5-0.1c-1.1-0.2-3.1-0.2-4.5,0.4c0.3,0.5,0.8,1,1.6,1.3c0.7,0.1,1.2,0.2,1.3,0.2
				c0.5,0.1,0.8,0.6,0.8,1.1s-0.5,0.9-1,0.9c-0.6,0-1.1-0.1-1.6-0.3c-1.3-0.2-3-0.3-4.4-0.1c0.4,0.7,0.8,1.3,1,1.5
				c0.4,0.3,0.5,0.8,0.4,1.2c-0.2,0.4-0.6,0.7-1.1,0.6c0,0-2.8-0.4-5-0.5c0.4,0.6,0.8,1.2,1.1,1.3c0.5,0.1,0.8,0.7,0.7,1.2
				c-0.1,0.5-0.6,0.8-1.1,0.8c0,0-3.1-0.5-5.5-0.2c0.4,0.6,1.1,1.3,2.1,1.5c0.5,0.1,0.9,0.6,0.8,1.1c-0.1,0.5-0.6,0.9-1.1,0.8
				c-1.7-0.2-4.1-0.4-5.7-0.3c1,1,1.9,1.8,2.2,1.8c0.5,0,0.9,0.5,0.9,1s-0.5,1-1,1c0,0-3.4,0.1-6.2,0.3c0.9,0.7,1.9,1.4,2.6,1.5
				c0.2,0,0.3,0,0.4,0c0.5,0.1,0.9,0.5,0.9,1.1c0,0.5-0.5,0.9-1,0.9c-0.1,0-0.3,0-0.5,0c-0.8-0.1-2.9-0.1-4.7,0.5
				c0.8,0.5,1.9,0.9,2.8,0.9c0,0,0,0,0,0c0.5,0,0.9,0.4,1,0.9c0.1,0.5-0.3,1-0.7,1.1c0,0-1.7,0.5-3.4,1.4c0.3,0,0.6,0,0.9,0.1
				c0.5,0,0.8,0.3,0.9,0.8c0.1,0.4-0.1,0.9-0.5,1.1c0,0-0.9,0.5-2,1.1c0,0,0,0,0.1,0c0.5-0.2,1.1,0,1.3,0.5c0.2,0.5,0,1.1-0.5,1.3
				C208.1,589.6,206.9,589.7,205.9,589.7z"/>
			<path class="st6" d="M207.8,592.2c0,0,6.5-2.4,4.7,1c0,0,2.8,0.5,4-0.3c1.2-0.8,3.5-0.8,4.4-0.1s1.4,2.1,2.4,1.4s3.7-1.1,3.7-1.1
				s-1.2,0-2.1-1.4c-0.9-1.4-3.7-4.7-3.7-4.7l11.5-16.2c0,0-0.4-3.6,0.9-6.1c1.2-2.4-14.8,9.4-14.8,9.4l-9.8,14L207.8,592.2z"/>
			<path class="st5" d="M233,569.5c0,0-2.9-0.4-3.4,2.6c0,0-1.8-0.6-2.3,1c0,0-3-0.7-4.4,2.1c0,0-1.5,0-1.8,1.3c0,0-1.4,0.2-0.9,2
				c0,0-1.7,0.2-1.6,2.2c0,0-1.7,0.1-2,2c0,0-1.7,0.3-1.8,2.2c0,0-1.9,1-1.9,3.6l-1.4,1.7c0,0,4.8,0,6.1,0c0,0,2.3-1,3.5,0.2
				s2-1.9,3.6-1.6c0,0,2.3-3.6,3.9-3.4c1.6,0.2,6.4-6.3,6.4-6.3l-0.3-7.2L233,569.5z"/>
			<path class="st7" d="M205,601.7l-2.9-0.6c0.1-0.3,6.7-30.3,37.1-41.2l1,2.8C211.5,573,205.1,601.4,205,601.7z"/>
			<path class="st8" d="M230.7,580.2c0,0-6.8,4-8.6-2c0,0,1.6,1.4,3.1,1.2c0,0,1.1-1,2.5,0c0,0,0-1.3,0.9-0.9
				S230.7,580.2,230.7,580.2z"/>
			<path class="st8" d="M233.2,570.6c0,0-4,1.5-4.6,3.6c0,0-3.9,0.8-5,2.9c0,0,2,1,3.5,0c1.5-1,5.1,2.8,5.1,2.8
				S231.2,573,233.2,570.6z"/>
			<circle class="st9" cx="229.8" cy="575.6" r="0.9"/>
			<path class="st8" d="M230.2,581.9c0,0-6,2.8-8.6-2c0,0-1.1-0.2-1.1,1.1c0,0-5.6,3.5-6.7,8.4c0,0,1.6-0.5,3.1,0.4
				c0,0,1.4,2.3,3.8,1.9c0,0-2.4-1.5-2.5-2.3c0,0,2.3-4.9,8.2-5.2c0,0-0.8,2.3,1.5,2c0,0,1.2,2.2,2.8,0.9L230.2,581.9z"/>
			<path class="st9" d="M219.9,580.8l1.4,0.3c0,0,1.6,2.8,4.1,2.8C225.3,583.9,220.8,585.3,219.9,580.8z"/>
			<path class="st9" d="M220.8,585c0,0-0.6-2-3.2-2C217.6,583,217.2,585.1,220.8,585z"/>
			<path class="st9" d="M219.1,586.4c0,0-1.3-1-2.9,0C216.1,586.4,216.7,588.4,219.1,586.4z"/>
			<path class="st9" d="M218.2,589.4c0,0.2,0.2,0.5,0.4,0.8c0,0,2.1-3.1,4.8-5.3C219.7,586.2,218.2,589.4,218.2,589.4z"/>
			<path class="st8" d="M226,587.6c0,0-1.5-2.1-3.2-0.4C222.9,587.2,223.8,589.1,226,587.6z"/>
			<path class="st9" d="M225.5,585.3c0,0-0.4,2.4,1.4,2.3L225.5,585.3z"/>
			<path class="st7" d="M222.4,549.6c-0.1,0-0.2,0-0.4-0.1c-0.5-0.2-0.8-0.8-0.6-1.3c0.4-1,1.4-2.6,3.1-2.6c0.5-0.5,1.4-1.2,2.6-1.2
				c1.1,0,2.2,0.7,3.1,2c0.3,0.5,0.2,1.1-0.3,1.4s-1.1,0.2-1.4-0.3c-0.3-0.5-0.9-1.1-1.4-1.1c-0.6,0-1.2,0.6-1.3,0.8
				c-0.2,0.3-0.6,0.5-1,0.4c-0.7-0.2-1.4,1.3-1.4,1.3C223.2,549.4,222.8,549.6,222.4,549.6z"/>
			<path class="st4" d="M227.2,558.7c-0.4,0-0.8-0.1-1.2-0.2c-1.3-0.5-2.1-1.8-2.5-3.9c-0.8-4.3-5-4.6-5.2-4.6c-0.5,0-0.9-0.5-0.9-1
				c0-0.5,0.4-1,1-1c0.2,0,5.1-0.2,8.6,2.6c0.1-1.2,0.4-2.5,1.3-3.5c1-1.1,2.4-1.6,4.2-1.5c0.5,0,0.9,0.4,0.9,0.9s-0.3,0.9-0.8,1.1
				c0,0-1.1,0.3-1.4,1.1c-0.3,0.7,0.2,1.6,0.6,2.2c2,3.2,1.1,5.1,0.6,5.9c-0.7,1.1-1.9,1.6-3.3,1.5
				C228.8,558.4,228.1,558.7,227.2,558.7z M224.3,551.2c0.5,0.8,1,1.8,1.2,3c0.2,1.3,0.7,2.2,1.3,2.4c0.7,0.3,1.6-0.3,1.6-0.3
				c0.2-0.1,0.5-0.2,0.7-0.2c0.7,0.1,1.3-0.1,1.6-0.6c0.5-0.8,0.3-2.2-0.6-3.7c-0.6-0.9-0.9-1.7-0.9-2.5c-0.4,1.3-0.3,3-0.1,3.7
				c0.1,0.5-0.2,1-0.6,1.1c-0.4,0.2-1,0-1.2-0.4C226.5,552.6,225.4,551.8,224.3,551.2z"/>
		</g>
		<g>
			<path class="st2" d="M233.1,592.1l4.5,0.7c0,0,3.9-8,6-11.4c2-3.5,5.4-5.9,5.4-5.9s2.9-3,4.3-2.2s3.1,3,3.1,3l2.2-0.5l1.3-1.6
				l-3.2-9.2c0,0-6,2.1-8,3.1c-2,1-11.1,8.5-12.8,13.3S233.1,592.1,233.1,592.1z"/>
			<path class="st3" d="M253.1,565c-0.1,0-0.2,0-0.2-0.1c-0.3,0.5-0.9,0.8-1.5,0.7c-0.1,0-0.1,0-0.2,0c-0.2,0.7-0.9,1.2-1.6,1.1
				c-0.1,0-0.2,0-0.3-0.1c-0.3,0.5-0.8,0.8-1.5,0.7c-0.1,0-0.1,0-0.2,0c0,0,0,0,0,0c-0.1,0.8-0.8,1.3-1.6,1.2c-0.1,0-0.1,0-0.2-0.1
				c0,0,0,0,0,0c-0.1,0.8-0.8,1.3-1.6,1.2c-0.1,0.8-0.8,1.3-1.6,1.2c-0.1,0-0.1,0-0.2-0.1c0,0.1,0,0.2,0,0.3
				c-0.1,0.8-0.8,1.3-1.6,1.2c0,0-0.1,0-0.1,0c0.1,0.2,0.2,0.5,0.1,0.8c-0.1,0.7-0.7,1.2-1.4,1.2c0,0.1,0,0.3,0,0.4
				c-0.1,0.6-0.5,1-1,1.2c0,0.1,0,0.3,0,0.4c-0.1,0.7-0.8,1.3-1.5,1.2c0,0.2,0,0.3,0,0.5c-0.1,0.7-0.6,1.1-1.2,1.2
				c0.1,0.2,0.2,0.5,0.1,0.8c-0.1,0.7-0.7,1.2-1.3,1.2c0.1,0.3,0.2,0.6,0.2,0.9c-0.1,0.5-0.4,0.9-0.8,1.1c0.2,0.3,0.3,0.6,0.2,1
				c-0.1,0.6-0.5,1-1.1,1.2c0.5,0.3,0.8,0.8,0.7,1.4c-0.1,0.5-0.5,1-0.9,1.1c0.5,0.4,0.7,1.2,0.3,1.8c-0.4,0.7-1.3,0.9-1.9,0.5
				s-0.9-1.3-0.5-1.9c0.2-0.3,0.5-0.5,0.8-0.6c-0.4-0.3-0.6-0.8-0.5-1.3c0.1-0.6,0.5-1,1.1-1.2c-0.5-0.3-0.8-0.8-0.7-1.4
				c0.1-0.5,0.4-0.9,0.8-1.1c-0.2-0.3-0.3-0.6-0.2-0.9c0.1-0.7,0.7-1.2,1.3-1.2c-0.1-0.3-0.2-0.6-0.2-0.9c0.1-0.7,0.6-1.1,1.2-1.2
				c-0.1-0.2-0.2-0.5-0.1-0.8c0.1-0.7,0.8-1.3,1.5-1.2c0-0.2,0-0.3,0-0.5c0.1-0.6,0.5-1,1-1.2c0-0.1,0-0.3,0-0.4
				c0.1-0.7,0.7-1.2,1.4-1.2c0-0.1,0-0.3,0-0.4c0.1-0.8,0.8-1.3,1.6-1.2c0,0,0.1,0,0.1,0c-0.1-0.2-0.2-0.5-0.1-0.8
				c0.1-0.8,0.8-1.3,1.6-1.2c0.1,0,0.1,0,0.2,0.1c0-0.1,0-0.2,0-0.3c0.1-0.8,0.8-1.3,1.6-1.2c0.1-0.8,0.8-1.3,1.6-1.2
				c0.1,0,0.1,0,0.2,0.1c0,0,0,0,0,0c0.1-0.8,0.8-1.3,1.6-1.2c0.1,0,0.1,0,0.2,0c0,0,0,0,0,0c0.1-0.8,0.8-1.3,1.6-1.2
				c0.1,0,0.2,0,0.3,0.1c0.3-0.5,0.9-0.8,1.5-0.7c0.1,0,0.1,0,0.2,0c0.2-0.7,0.9-1.2,1.6-1.1c0.1,0,0.2,0,0.2,0.1
				c0.3-0.5,0.9-0.8,1.5-0.7c0.8,0.1,1.3,0.8,1.2,1.6C254.6,564.5,253.9,565.1,253.1,565z"/>
			<path class="st4" d="M255.1,564.1c-0.4-0.2-0.8-0.3-1.3-0.1c-11.9,4.6-17.1,12.1-19.3,17.6c-2.5,6-2.1,10.8-2,11.1
				c0.1,0.8,0.8,1.4,1.6,1.4c0.8-0.1,1.4-0.8,1.4-1.6c-0.1-0.7-1.2-17.6,19.4-25.6c0.8-0.3,1.2-1.2,0.9-1.9
				C255.6,564.6,255.4,564.3,255.1,564.1z"/>
			<path class="st3" d="M263.2,586.7c0.1,0.3,0,0.7-0.1,1c-0.3,0.5-0.9,0.8-1.4,0.7c0.1,0.3,0,0.7-0.1,1c-0.3,0.5-0.8,0.7-1.3,0.7
				c0.1,0.4,0.1,0.8-0.1,1.1c-0.4,0.7-1.3,0.9-1.9,0.5c0,0,0,0,0,0c0.1,0.3,0,0.7-0.2,1c-0.3,0.6-1,0.8-1.6,0.7
				c0.1,0.4,0.1,0.8-0.1,1.1c-0.3,0.6-1,0.9-1.7,0.7c0,0.3,0,0.6-0.2,0.9c-0.4,0.7-1.2,0.9-1.9,0.6c0,0.2-0.1,0.4-0.2,0.6
				c-0.3,0.5-0.9,0.8-1.4,0.7c0,0.2-0.1,0.4-0.2,0.6c-0.4,0.6-1.1,0.9-1.7,0.6c0.1,0.3,0,0.7-0.1,1c-0.4,0.7-1.3,0.9-1.9,0.5
				c0,0,0,0,0,0c0,0.2-0.1,0.5-0.2,0.7c-0.4,0.7-1.3,0.9-1.9,0.5s-0.9-1.3-0.5-1.9c0.4-0.7,1.3-0.9,1.9-0.5c0,0,0,0,0,0
				c0-0.2,0.1-0.5,0.2-0.7c0.4-0.6,1.1-0.9,1.7-0.6c-0.1-0.3,0-0.7,0.1-1c0.3-0.5,0.9-0.8,1.4-0.7c0-0.2,0.1-0.4,0.2-0.6
				c0.4-0.7,1.2-0.9,1.9-0.6c0-0.2,0.1-0.4,0.2-0.6c0.3-0.6,1-0.9,1.7-0.7c0-0.3,0-0.6,0.2-0.9c0.3-0.6,1-0.8,1.6-0.7
				c-0.1-0.4-0.1-0.8,0.1-1.1c0.4-0.7,1.3-0.9,1.9-0.5c0,0,0,0,0,0c-0.1-0.3,0-0.7,0.2-1c0.3-0.5,0.8-0.7,1.3-0.7
				c-0.1-0.4-0.1-0.8,0.1-1.1c0.3-0.5,0.9-0.8,1.4-0.7c-0.1-0.3,0-0.7,0.1-1c0.3-0.6,0.9-0.8,1.5-0.7c-0.1-0.3,0-0.7,0.1-1
				c0.4-0.7,1.3-0.9,1.9-0.5c0.7,0.4,0.9,1.3,0.5,1.9C264.4,586.6,263.8,586.8,263.2,586.7z"/>
			<path class="st4" d="M266.2,578c-0.6-0.4-1.5-0.2-1.9,0.4c-9.9,12.9-21.4,19.9-21.5,20c-0.7,0.4-0.9,1.4-0.5,2.1
				c0.4,0.7,1.4,0.9,2.1,0.5c0.5-0.3,12-7.4,22.3-20.7c0.5-0.7,0.4-1.6-0.3-2.1C266.3,578.1,266.3,578.1,266.2,578z"/>
			<g>
				<path class="st4" d="M236.6,594c-1-0.6-1.4-1.8-0.8-2.9c0.3-0.4,0.6-0.8,1.1-0.9c-0.1-0.5,0-1,0.2-1.4c0.1-0.1,0.1-0.2,0.2-0.3
					c-0.3-0.6-0.3-1.3,0.1-1.9c0.4-0.7,1.1-1,1.8-1.1c-0.3-0.6-0.4-1.4,0-2.1c0.4-0.6,1-1,1.7-1.1c0-0.4,0-0.8,0.3-1.2
					c0.6-1,1.8-1.4,2.9-0.8c1,0.6,1.4,1.8,0.8,2.9c-0.4,0.6-1,1-1.7,1.1c0,0.4,0,0.8-0.3,1.2c-0.4,0.7,3.8,4,3.1,4
					c0.3,0.6-4.5-1.5-4.9-0.9c-0.1,0.1-0.1,0.2-0.2,0.3c0.3,0.6,0.3,1.3-0.1,1.9c-0.3,0.4-0.6,0.8-1.1,0.9c0.1,0.5,0,1-0.2,1.4
					C238.9,594.3,237.6,594.6,236.6,594z"/>
				<path class="st4" d="M245.3,592.5c0.5,0.6,0.6,1.6,0.2,2.3c-0.6,1-1.8,1.4-2.9,0.8c-1-0.6-1.4-1.8-0.8-2.9
					c0.4-0.8,1.3-1.1,2.1-1c-0.5-0.6-0.6-1.6-0.2-2.3c0.3-0.5,0.7-0.8,1.3-1c-0.1-0.5-0.1-1.1,0.2-1.6c0.3-0.5,0.7-0.8,1.2-1
					c-0.1-0.5-0.1-1.1,0.2-1.6c0.6-1,1.8-1.4,2.9-0.8c1,0.6,1.4,1.8,0.8,2.9c-0.3,0.5-0.7,0.8-1.2,1c0.1,0.5,0.1,1.1-0.2,1.6
					c-0.3,0.5-0.7,0.8-1.3,1c0.1,0.5,0.1,1.1-0.2,1.6C246.9,592.3,246.1,592.6,245.3,592.5z"/>
			</g>
			<path class="st5" d="M244.9,581.7c0,0-4.3,4.9-5,8.9c-0.7,4-4,8-4,8s6.4-2.1,7.8-5c1.5-2.9,5.2-9.2,5.2-9.2L244.9,581.7z"/>
			<path class="st2" d="M260.7,577.2l3.8,0.4l1.4-2.5c0,0-10-14.5-11.2-22s-1.2-15.3-1.2-15.3l-2.3-1l-1.8,4.9l1.5,2.5l-2.6,0.1
				l1,3.5l1.1,0.4l-2.6,1.7l4.5,3.7l-3.7,1.7l5.2,3.3l-2.7,1.4l4.6,2.9l-1.5,2.6l4.3,2.1l-1.5,2.7l3.3,1.9l-1.9,2.9L260.7,577.2z"/>
			<path class="st4" d="M251.2,535c-1-0.6-1.9-0.8-1.9-0.8c-0.4-0.1-0.8,0-1,0.4c-0.2,0.3-0.3,0.8-0.1,1.1c0.6,1,1.2,2.1,1.9,3.1
				c-0.2-0.1-0.4-0.1-0.4-0.1c-0.4-0.1-0.7,0-1,0.3c-0.2,0.3-0.3,0.6-0.2,1c0.4,1.2,1.1,2.4,1.7,3.3c-1.4-0.1-2.5,0.1-2.6,0.1
				c-0.3,0.1-0.6,0.2-0.7,0.5c-0.1,0.3-0.2,0.6,0,0.9c0.6,1.2,1.5,2.2,2.6,3.1c-1.2,0.2-2.2,0.5-2.5,0.6c-0.4,0.1-0.6,0.4-0.7,0.8
				c-0.1,0.4,0.1,0.7,0.4,1c1.2,0.9,3.1,2.1,4.6,3c-1,0.2-1.9,0.6-2.6,0.8c-0.3,0.1-0.5,0.4-0.6,0.7c-0.1,0.3,0,0.6,0.2,0.9
				c0.7,0.8,2.3,1.8,3.9,2.6c-0.9,0.5-1.5,1-1.6,1.1c-0.2,0.2-0.3,0.4-0.3,0.7c0,0.3,0.1,0.5,0.3,0.7c1.1,1,2.7,2,4.1,2.6
				c-0.5,0.3-1,0.6-1.4,0.9c-0.3,0.2-0.4,0.5-0.4,0.8c0,0.3,0.2,0.6,0.4,0.8c1.1,0.8,2.9,1.6,4.3,2.2c-0.6,0.4-1,0.7-1.2,0.8
				c-0.4,0.3-0.5,1-0.2,1.4c0.7,0.8,1.7,1.6,2.8,2.2c0,0,0,0,0,0c-0.6,0.3-1,0.6-1,0.6c-0.3,0.3-0.5,0.7-0.3,1.1
				c0.5,1.2,1.4,2.2,2.4,2.9c-0.3,0.2-0.5,0.3-0.5,0.3c-0.3,0.3-0.4,0.7-0.3,1.1c1.3,4.1,5.2,4.5,5.4,4.5c0.5,0,1-0.4,1.1-0.9
				c0-0.5-0.4-1-0.9-1.1c-0.1,0-2.3-0.3-3.3-2.4c0.4-0.1,0.9-0.2,1.5,0c0.2,0.1,0.3,0.1,0.4,0.1c0.5,0.2,1.1-0.1,1.3-0.6
				c0.2-0.5-0.1-1.1-0.6-1.3c-0.1-0.1-0.3-0.1-0.4-0.2c-1-0.4-2.8-1.3-3.7-2.6c0.5-0.3,1.2-0.5,2-0.4c0.7,0.3,1.2,0.4,1.2,0.4
				c0.5,0.1,1-0.1,1.2-0.6c0.2-0.5,0-1-0.4-1.3c-0.5-0.3-1-0.5-1.5-0.6c-1.2-0.5-2.8-1.2-3.9-2.1c0.6-0.4,1.3-0.8,1.6-0.8
				c0.5,0,0.8-0.4,0.9-0.9c0.1-0.5-0.2-0.9-0.6-1.1c0,0-2.6-1-4.6-2c0.7-0.4,1.3-0.6,1.5-0.6c0.5,0.1,1-0.2,1.2-0.7
				c0.2-0.5-0.1-1-0.6-1.2c0,0-2.9-1.1-4.9-2.5c0.6-0.3,1.6-0.6,2.6-0.3c0.5,0.2,1.1-0.1,1.3-0.6c0.2-0.5-0.1-1.1-0.5-1.3
				c-1.6-0.7-3.7-1.7-5.1-2.6c1.3-0.4,2.5-0.6,2.9-0.5c0.5,0.2,1,0,1.3-0.4c0.3-0.5,0.1-1.1-0.4-1.3c0,0-2.9-1.8-5.2-3.3
				c1.1-0.2,2.3-0.3,3,0c0.2,0.1,0.3,0.1,0.3,0.2c0.5,0.2,1.1,0,1.3-0.5c0.2-0.5,0.1-1.1-0.4-1.3c-0.1-0.1-0.3-0.1-0.4-0.2
				c-0.7-0.4-2.6-1.3-3.9-2.7c0.9,0,2.1,0.2,2.9,0.6c0,0,0,0,0,0c0.4,0.2,1,0.1,1.3-0.3c0.3-0.4,0.3-1-0.1-1.3c0,0-1.3-1.3-2.3-2.9
				c0.3,0.1,0.5,0.2,0.8,0.4c0.4,0.2,0.9,0.1,1.2-0.2c0.3-0.3,0.3-0.8,0.1-1.2c0,0-0.6-0.8-1.3-1.9c0,0,0,0,0,0.1
				c0.3,0.4,1,0.5,1.4,0.2c0.4-0.3,0.5-1,0.2-1.4C253,536.1,252.1,535.4,251.2,535z"/>
			<path class="st6" d="M254.1,533.7c0,0,4.5,5.3,4.6,1.4c0,0,2.7,0.9,3.3,2.2s2.7,2.4,3.8,2.3c1.1-0.1,2.3-1.1,2.8,0
				c0.5,1.1,2.7,2.8,2.7,2.8s-1-0.6-2.5,0.2c-1.5,0.8-5.5,2.3-5.5,2.3l2,19.7c0,0-2.1,3-2.2,5.7s-8.3-15.5-8.3-15.5l-1.7-17
				L254.1,533.7z"/>
			<path class="st5" d="M264.9,565.9c0,0-2.7-1.1-1.7-3.9c0,0-1.9-0.4-1.5-2c0,0-2.9-0.9-2.8-4c0,0-1.3-0.7-0.9-2
				c0,0-1.1-0.8,0.2-2.2c0,0-1.4-1-0.3-2.7c0,0-1.4-0.9-0.8-2.8c0,0-1.3-1.1-0.5-2.8c0,0-1.1-1.8,0.1-4.1l-0.4-2.2
				c0,0,4.1,2.4,5.3,3c0,0,1.5,2,3.2,1.5c1.6-0.5,0.8,2.6,2.4,3.1c0,0,0.2,4.2,1.7,4.9c1.5,0.6,2.4,8.6,2.4,8.6l-3.8,6.1
				L264.9,565.9z"/>
			<path class="st7" d="M256.4,524.1l-2.9-0.9c-0.1,0.3-9,29.7,12,54.1l2.3-2C247.8,552.2,256.3,524.4,256.4,524.1z"/>
			<path class="st8" d="M268.1,555.4c0,0-3.9-6.9-8.4-2.5c0,0,2-0.5,3.3,0.4c0,0,0.5,1.4,2.1,1.3c0,0-0.7,1.1,0.4,1.3
				C266.5,556.1,268.1,555.4,268.1,555.4z"/>
			<path class="st8" d="M265.6,565.1c0,0-2.7-3.3-2.2-5.4c0,0-3-2.6-2.9-5c0,0,2.3,0.1,3,1.7c0.8,1.6,5.8,0.1,5.8,0.1
				S265,562,265.6,565.1z"/>
			<circle class="st9" cx="265.1" cy="559" r="0.9"/>
			<path class="st8" d="M268.6,553.7c0,0-3.8-5.4-8.5-2.5c0,0-1-0.4-0.4-1.5c0,0-3.1-5.8-1.7-10.6c0,0,1.2,1.2,2.9,1.2
				c0,0,2.4-1.3,4.3,0.2c0,0-2.9,0.1-3.3,0.8c0,0-0.4,5.4,4.6,8.5c0,0,0.4-2.4,2.3-1c0,0,2.1-1.4,2.9,0.6L268.6,553.7z"/>
			<path class="st9" d="M259,549.6l1.3,0.4c0,0,2.8-1.7,4.9-0.4C265.3,549.6,262.1,546.2,259,549.6z"/>
			<path class="st9" d="M261.9,546.4c0,0-1.5,1.5-3.8,0.2C258.1,546.6,258.8,544.5,261.9,546.4z"/>
			<path class="st9" d="M261.1,544.3c0,0-1.6,0.3-2.6-1.4C258.5,542.9,260,541.4,261.1,544.3z"/>
			<path class="st9" d="M261.8,541.3c0.1-0.2,0.4-0.3,0.8-0.4c0,0,0.3,3.8,1.5,7C261.5,544.8,261.8,541.3,261.8,541.3z"/>
			<path class="st8" d="M267.7,546.7c0,0-2.3,1.1-3-1.2C264.7,545.5,266.5,544.4,267.7,546.7z"/>
			<path class="st9" d="M266.1,548.4c0,0,0.8-2.3,2.4-1.3L266.1,548.4z"/>
			<path class="st7" d="M245.8,578c-0.1-0.1-0.2-0.1-0.3-0.1c-0.5-0.1-1.1,0.3-1.1,0.8c-0.2,1.1,0,3,1.4,3.8
				c0.2,0.7,0.6,1.7,1.7,2.3c1,0.5,2.2,0.5,3.7-0.3c0.5-0.2,0.7-0.8,0.4-1.3c-0.2-0.5-0.8-0.7-1.3-0.4c-0.6,0.3-1.3,0.5-1.8,0.3
				c-0.6-0.3-0.8-1.1-0.8-1.4c-0.1-0.4-0.3-0.7-0.7-0.8c-0.7-0.2-0.6-1.8-0.5-1.8C246.4,578.6,246.2,578.2,245.8,578z"/>
			<path class="st4" d="M256,573.9c1.2,0.6,2,1.6,2.1,2.9c0.1,0.9-0.1,3-3.4,4.8c-0.7,0.4-1.5,0.9-1.6,1.7c-0.1,0.8,0.7,1.6,0.7,1.6
				c0.4,0.3,0.4,0.9,0.1,1.3c-0.3,0.4-0.8,0.5-1.3,0.3c-1.7-0.8-2.6-1.9-2.9-3.4c-0.3-1.3,0.1-2.6,0.6-3.7c-4.4,0.7-8.6-1.8-8.8-1.9
				c-0.5-0.3-0.6-0.9-0.3-1.3c0.3-0.5,0.8-0.6,1.3-0.4c0.2,0.1,4,1.9,6.8-1.5c1.4-1.6,2.7-2.4,4.1-2.2c0.4,0.1,0.8,0.2,1.2,0.4
				C255.2,572.9,255.7,573.5,256,573.9z M252.2,576.7c0.4-0.2,1-0.1,1.3,0.3c0.3,0.4,0.3,0.9,0,1.3c-0.5,0.5-1.4,1.9-1.7,3.3
				c0.4-0.6,1.1-1.2,2-1.7c1.6-0.8,2.4-1.9,2.4-2.9c0-0.6-0.5-1.1-1.1-1.3c-0.2-0.1-0.5-0.3-0.6-0.5c0,0-0.5-1-1.3-1.1
				c-0.6-0.1-1.4,0.5-2.3,1.5c-0.8,0.9-1.6,1.6-2.5,2C249.6,577.6,250.9,577.4,252.2,576.7z"/>
		</g>
		<g>
			<path class="st2" d="M280.3,531.1l4.2,1.6c0,0-0.5,8.9-0.4,12.9c0.1,4,1.8,7.8,1.8,7.8s1.1,4,2.7,4s4.2-1.1,4.2-1.1l1.7,1.5
				l0.4,2l-7.3,6.5c0,0-4.2-4.8-5.4-6.6c-1.2-1.9-5.5-12.9-4.6-17.9C278.5,536.6,280.3,531.1,280.3,531.1z"/>
			<path class="st3" d="M284.4,564.5c-0.1,0-0.2,0-0.2-0.1c0-0.6-0.3-1.1-0.9-1.4c-0.1,0-0.1,0-0.2-0.1c0.2-0.7-0.2-1.5-0.9-1.7
				c-0.1,0-0.2-0.1-0.3-0.1c0-0.6-0.3-1.1-0.9-1.4c-0.1,0-0.1,0-0.2,0c0,0,0,0,0,0c0.3-0.7-0.1-1.6-0.8-1.8c-0.1,0-0.1,0-0.2-0.1
				c0,0,0,0,0,0c0.3-0.7-0.1-1.6-0.8-1.8c0.3-0.7-0.1-1.6-0.8-1.8c-0.1,0-0.1,0-0.2-0.1c0-0.1,0.1-0.2,0.1-0.3
				c0.3-0.7-0.1-1.6-0.8-1.8c0,0-0.1,0-0.1,0c0.2-0.2,0.4-0.4,0.5-0.7c0.3-0.7,0-1.4-0.6-1.7c0.1-0.1,0.2-0.2,0.2-0.4
				c0.2-0.5,0.1-1.1-0.3-1.5c0.1-0.1,0.1-0.2,0.2-0.3c0.3-0.7-0.1-1.5-0.7-1.8c0.1-0.1,0.2-0.2,0.2-0.4c0.2-0.6,0-1.3-0.5-1.7
				c0.2-0.2,0.4-0.4,0.5-0.6c0.2-0.6,0-1.4-0.6-1.7c0.3-0.2,0.5-0.4,0.6-0.7c0.2-0.5,0.1-1-0.2-1.4c0.3-0.2,0.5-0.4,0.6-0.7
				c0.2-0.6,0.1-1.2-0.3-1.5c0.6,0,1.1-0.4,1.3-0.9c0.2-0.5,0.1-1.1-0.3-1.4c0.7-0.1,1.2-0.7,1.2-1.4c0-0.8-0.6-1.4-1.4-1.4
				s-1.4,0.6-1.4,1.4c0,0.4,0.1,0.7,0.3,0.9c-0.5,0.1-0.9,0.4-1.1,0.9c-0.2,0.6-0.1,1.2,0.3,1.5c-0.6,0-1.1,0.4-1.3,0.9
				c-0.2,0.5-0.1,1,0.2,1.4c-0.3,0.2-0.5,0.4-0.6,0.7c-0.2,0.6,0,1.4,0.6,1.7c-0.3,0.2-0.5,0.4-0.6,0.7c-0.2,0.6,0,1.3,0.5,1.7
				c-0.2,0.2-0.4,0.4-0.5,0.6c-0.3,0.7,0.1,1.5,0.7,1.8c-0.1,0.1-0.2,0.2-0.2,0.4c-0.2,0.5-0.1,1.1,0.3,1.5
				c-0.1,0.1-0.1,0.2-0.2,0.3c-0.3,0.7,0,1.4,0.6,1.7c-0.1,0.1-0.2,0.2-0.2,0.4c-0.3,0.7,0.1,1.6,0.8,1.8c0,0,0.1,0,0.1,0
				c-0.2,0.2-0.4,0.4-0.5,0.7c-0.3,0.7,0.1,1.6,0.8,1.8c0.1,0,0.1,0,0.2,0.1c0,0.1-0.1,0.2-0.1,0.3c-0.3,0.7,0.1,1.6,0.8,1.8
				c-0.3,0.7,0.1,1.6,0.8,1.8c0.1,0,0.1,0,0.2,0.1c0,0,0,0,0,0c-0.3,0.7,0.1,1.6,0.8,1.8c0.1,0,0.1,0,0.2,0c0,0,0,0,0,0
				c-0.3,0.7,0.1,1.6,0.8,1.8c0.1,0,0.2,0.1,0.3,0.1c0,0.6,0.3,1.1,0.9,1.4c0.1,0,0.1,0,0.2,0c-0.2,0.7,0.2,1.5,0.9,1.7
				c0.1,0,0.2,0,0.2,0.1c0,0.6,0.3,1.1,0.9,1.4c0.7,0.3,1.6-0.1,1.8-0.8S285.2,564.8,284.4,564.5z"/>
			<path class="st4" d="M285.7,566.2c-0.4,0-0.9-0.2-1.2-0.6c-8.1-9.9-8.9-18.9-8.1-24.8c0.8-6.4,3.6-10.5,3.7-10.6
				c0.5-0.7,1.4-0.9,2.1-0.4c0.7,0.5,0.9,1.4,0.4,2.1c-0.4,0.6-9.7,14.7,4.3,31.8c0.5,0.6,0.4,1.6-0.2,2.1
				C286.4,566.1,286.1,566.2,285.7,566.2z"/>
			<path class="st3" d="M303.9,550.6c0.2-0.3,0.4-0.6,0.4-1c0-0.6-0.4-1.1-0.9-1.3c0.2-0.3,0.4-0.6,0.4-1c0-0.5-0.3-1-0.8-1.3
				c0.3-0.3,0.5-0.6,0.5-1.1c0-0.8-0.6-1.4-1.4-1.4c0,0,0,0,0,0c0.2-0.2,0.3-0.6,0.3-0.9c0-0.6-0.4-1.2-1-1.4c0.3-0.3,0.4-0.6,0.4-1
				c0-0.7-0.5-1.3-1.1-1.4c0.2-0.2,0.3-0.5,0.3-0.9c0-0.8-0.6-1.4-1.4-1.4c0.1-0.2,0.1-0.4,0.1-0.6c0-0.6-0.4-1.1-0.9-1.3
				c0.1-0.2,0.1-0.4,0.1-0.6c0-0.7-0.5-1.3-1.2-1.4c0.2-0.3,0.4-0.6,0.4-1c0-0.8-0.6-1.4-1.4-1.4c0,0,0,0,0,0
				c0.1-0.2,0.2-0.4,0.2-0.7c0-0.8-0.6-1.4-1.4-1.4s-1.4,0.6-1.4,1.4s0.6,1.4,1.4,1.4c0,0,0,0,0,0c-0.1,0.2-0.2,0.4-0.2,0.7
				c0,0.7,0.5,1.3,1.2,1.4c-0.2,0.3-0.4,0.6-0.4,1c0,0.6,0.4,1.1,0.9,1.3c-0.1,0.2-0.1,0.4-0.1,0.6c0,0.8,0.6,1.4,1.4,1.4
				c-0.1,0.2-0.1,0.4-0.1,0.6c0,0.7,0.5,1.3,1.1,1.4c-0.2,0.2-0.3,0.5-0.3,0.9c0,0.6,0.4,1.2,1,1.4c-0.3,0.3-0.4,0.6-0.4,1
				c0,0.8,0.6,1.4,1.4,1.4c0,0,0,0,0,0c-0.2,0.2-0.3,0.6-0.3,0.9c0,0.5,0.3,1,0.8,1.3c-0.3,0.3-0.5,0.6-0.5,1.1
				c0,0.6,0.4,1.1,0.9,1.3c-0.2,0.3-0.4,0.6-0.4,1c0,0.6,0.4,1.2,1,1.4c-0.2,0.3-0.4,0.6-0.4,1c0,0.8,0.6,1.4,1.4,1.4
				s1.4-0.6,1.4-1.4C304.9,551.3,304.5,550.7,303.9,550.6z"/>
			<path class="st4" d="M302.3,559.6c-0.7,0-1.4-0.5-1.5-1.3c-2.3-16.1-8.8-27.9-8.9-28c-0.4-0.7-0.1-1.6,0.6-2
				c0.7-0.4,1.6-0.1,2,0.6c0.3,0.5,6.8,12.4,9.2,29c0.1,0.8-0.5,1.6-1.3,1.7C302.4,559.6,302.3,559.6,302.3,559.6z"/>
			<g>
				<path class="st4" d="M284.4,531.1c-1.2,0-2.1,0.9-2.1,2.1c0,0.5,0.2,1,0.5,1.3c-0.3,0.4-0.5,0.8-0.5,1.3c0,0.1,0,0.3,0,0.4
					c-0.5,0.4-0.9,1-0.9,1.7c0,0.8,0.4,1.4,1,1.8c-0.6,0.4-1,1-1,1.8c0,0.7,0.4,1.4,0.9,1.7c-0.2,0.3-0.4,0.7-0.4,1.2
					c0,1.2,0.9,2.1,2.1,2.1s2.1-0.9,2.1-2.1c0-0.7-0.4-1.4-0.9-1.7c0.2-0.3,0.4-0.7,0.4-1.2c0-0.8,5.3-1.6,4.7-1.9
					c0.6-0.4-4.7-0.9-4.7-1.6c0-0.1,0-0.3,0-0.4c0.5-0.4,0.9-1,0.9-1.7c0-0.5-0.2-1-0.5-1.3c0.3-0.4,0.5-0.8,0.5-1.3
					C286.5,532,285.5,531.1,284.4,531.1z"/>
				<path class="st4" d="M291.2,536.7c0.8-0.3,1.3-1.1,1.3-1.9c0-1.2-0.9-2.1-2.1-2.1c-1.2,0-2.1,0.9-2.1,2.1c0,0.9,0.5,1.6,1.3,1.9
					c-0.8,0.3-1.3,1.1-1.3,1.9c0,0.6,0.2,1.1,0.6,1.5c-0.4,0.4-0.6,0.9-0.6,1.5c0,0.6,0.2,1.1,0.6,1.5c-0.4,0.4-0.6,0.9-0.6,1.5
					c0,1.2,0.9,2.1,2.1,2.1c1.2,0,2.1-0.9,2.1-2.1c0-0.6-0.2-1.1-0.6-1.5c0.4-0.4,0.6-0.9,0.6-1.5c0-0.6-0.2-1.1-0.6-1.5
					c0.4-0.4,0.6-0.9,0.6-1.5C292.5,537.7,291.9,537,291.2,536.7z"/>
			</g>
			<path class="st5" d="M285.5,545.9c0,0-1.3-6.4,0-10.2c1.3-3.8,0.5-9,0.5-9s4.5,4.9,4.4,8.2s0,10.6,0,10.6L285.5,545.9z"/>
			<path class="st2" d="M297.1,557.7l3.6,1.5v2.9c0,0-15.9,7.6-20.5,13.6s-8.6,12.7-8.6,12.7l-2.5-0.3l0.9-5.1l2.5-1.5l-2.3-1.4
				l2.6-2.5l1.2,0.2l-1.4-2.7l5.7-1l-2.4-3.3l6.1-0.4l-1.7-2.5l5.4-0.3v-3l4.8,0.3V562h3.8l-0.3-3.5L297.1,557.7z"/>
			<path class="st4" d="M268,589.7c-1.2,0-2-0.2-2.1-0.2c-0.4-0.1-0.7-0.4-0.7-0.8c-0.1-0.4,0.1-0.8,0.5-1c1-0.6,2.1-1.2,3.1-1.8
				c-0.2-0.1-0.4-0.1-0.4-0.1c-0.4-0.1-0.6-0.4-0.7-0.7c-0.1-0.4,0-0.7,0.3-1c0.9-0.9,2.1-1.5,3.2-2c-1.2-0.6-2.1-1.3-2.2-1.4
				c-0.2-0.2-0.4-0.5-0.4-0.8c0-0.3,0.2-0.6,0.4-0.8c1.1-0.8,2.4-1.2,3.7-1.4c-0.9-0.8-1.7-1.5-1.9-1.8c-0.3-0.3-0.3-0.7-0.2-1
				c0.1-0.4,0.5-0.6,0.8-0.6c1.5-0.2,3.7-0.3,5.5-0.4c-0.7-0.7-1.4-1.4-1.9-2c-0.2-0.2-0.3-0.6-0.2-0.9c0.1-0.3,0.3-0.6,0.6-0.7
				c1-0.4,2.9-0.4,4.7-0.4c-0.6-0.9-0.8-1.6-0.8-1.7c-0.1-0.3,0-0.5,0.1-0.8c0.1-0.2,0.4-0.4,0.6-0.5c1.5-0.4,3.3-0.4,4.9-0.3
				c-0.3-0.5-0.6-1-0.8-1.5c-0.2-0.3-0.1-0.6,0-0.9c0.2-0.3,0.5-0.5,0.8-0.5c1.4-0.1,3.3,0,4.8,0.2c-0.3-0.6-0.5-1.1-0.6-1.3
				c-0.2-0.5,0-1.1,0.6-1.3c1-0.4,2.3-0.5,3.5-0.5c0,0,0,0,0,0c-0.4-0.6-0.6-1-0.6-1.1c-0.2-0.4,0-0.9,0.3-1.1
				c1-0.8,2.3-1.2,3.5-1.3c-0.2-0.3-0.3-0.5-0.3-0.5c-0.1-0.4,0-0.8,0.2-1.1c3.1-3,6.7-1.4,6.9-1.3c0.5,0.2,0.7,0.8,0.5,1.3
				c-0.2,0.5-0.8,0.7-1.3,0.5c-0.1,0-2.1-0.9-4,0.4c0.3,0.3,0.7,0.6,1.4,0.7c0.2,0,0.4,0.1,0.4,0.1c0.5,0.1,0.9,0.6,0.8,1.1
				c-0.1,0.5-0.6,0.9-1.1,0.8c-0.2,0-0.3,0-0.5-0.1c-1.1-0.2-3.1-0.2-4.5,0.4c0.3,0.5,0.8,1,1.6,1.3c0.7,0.1,1.2,0.2,1.3,0.2
				c0.5,0.1,0.8,0.6,0.8,1.1s-0.5,0.9-1,0.9c-0.6,0-1.1-0.1-1.6-0.3c-1.3-0.2-3-0.3-4.4-0.1c0.4,0.7,0.8,1.3,1,1.5
				c0.4,0.3,0.5,0.8,0.4,1.2c-0.2,0.4-0.6,0.7-1.1,0.6c0,0-2.8-0.4-5-0.5c0.4,0.6,0.8,1.2,1.1,1.3c0.5,0.1,0.8,0.7,0.7,1.2
				c-0.1,0.5-0.6,0.8-1.1,0.8c0,0-3.1-0.5-5.5-0.2c0.4,0.6,1.1,1.3,2.1,1.5c0.5,0.1,0.9,0.6,0.8,1.1c-0.1,0.5-0.6,0.9-1.1,0.8
				c-1.7-0.2-4.1-0.4-5.7-0.3c1,1,1.9,1.8,2.2,1.8c0.5,0,0.9,0.5,0.9,1s-0.5,1-1,1c0,0-3.4,0.1-6.2,0.3c0.9,0.7,1.9,1.4,2.6,1.5
				c0.2,0,0.3,0,0.4,0c0.5,0.1,0.9,0.5,0.9,1.1c0,0.5-0.5,0.9-1,0.9c-0.1,0-0.3,0-0.5,0c-0.8-0.1-2.9-0.1-4.7,0.5
				c0.8,0.5,1.9,0.9,2.8,0.9c0,0,0,0,0,0c0.5,0,0.9,0.4,1,0.9c0.1,0.5-0.3,1-0.7,1.1c0,0-1.7,0.5-3.4,1.4c0.3,0,0.6,0,0.9,0.1
				c0.5,0,0.8,0.3,0.9,0.8c0.1,0.4-0.1,0.9-0.5,1.1c0,0-0.9,0.5-2,1.1c0,0,0,0,0.1,0c0.5-0.2,1.1,0,1.3,0.5c0.2,0.5,0,1.1-0.5,1.3
				C270.2,589.6,269,589.7,268,589.7z"/>
			<path class="st6" d="M269.9,592.2c0,0,6.5-2.4,4.7,1c0,0,2.8,0.5,4-0.3s3.5-0.8,4.4-0.1c0.9,0.6,1.4,2.1,2.4,1.4
				c1-0.7,3.7-1.1,3.7-1.1s-1.2,0-2.1-1.4c-0.9-1.4-3.7-4.7-3.7-4.7l11.5-16.2c0,0-0.4-3.6,0.9-6.1c1.2-2.4-14.8,9.4-14.8,9.4
				l-9.8,14L269.9,592.2z"/>
			<path class="st5" d="M295.1,569.5c0,0-2.9-0.4-3.4,2.6c0,0-1.8-0.6-2.3,1c0,0-3-0.7-4.4,2.1c0,0-1.5,0-1.8,1.3c0,0-1.4,0.2-0.9,2
				c0,0-1.7,0.2-1.6,2.2c0,0-1.7,0.1-2,2c0,0-1.7,0.3-1.8,2.2c0,0-1.9,1-1.9,3.6l-1.4,1.7c0,0,4.8,0,6.1,0c0,0,2.3-1,3.5,0.2
				s2-1.9,3.6-1.6c0,0,2.3-3.6,3.9-3.4c1.6,0.2,6.4-6.3,6.4-6.3l-0.3-7.2L295.1,569.5z"/>
			<path class="st7" d="M267.1,601.7l-2.9-0.6c0.1-0.3,6.7-30.3,37.1-41.2l1,2.8C273.6,573,267.2,601.4,267.1,601.7z"/>
			<path class="st8" d="M292.8,580.2c0,0-6.8,4-8.6-2c0,0,1.6,1.4,3.1,1.2c0,0,1.1-1,2.5,0c0,0,0-1.3,0.9-0.9
				C291.7,578.8,292.8,580.2,292.8,580.2z"/>
			<path class="st8" d="M295.3,570.6c0,0-4,1.5-4.6,3.6c0,0-3.9,0.8-5,2.9c0,0,2,1,3.5,0c1.5-1,5.1,2.8,5.1,2.8
				S293.3,573,295.3,570.6z"/>
			<circle class="st9" cx="291.9" cy="575.6" r="0.9"/>
			<path class="st8" d="M292.4,581.9c0,0-6,2.8-8.6-2c0,0-1.1-0.2-1.1,1.1c0,0-5.6,3.5-6.7,8.4c0,0,1.6-0.5,3.1,0.4
				c0,0,1.4,2.3,3.8,1.9c0,0-2.4-1.5-2.5-2.3c0,0,2.3-4.9,8.2-5.2c0,0-0.8,2.3,1.5,2c0,0,1.2,2.2,2.8,0.9L292.4,581.9z"/>
			<path class="st9" d="M282,580.8l1.4,0.3c0,0,1.6,2.8,4.1,2.8C287.5,583.9,283,585.3,282,580.8z"/>
			<path class="st9" d="M283,585c0,0-0.6-2-3.2-2C279.7,583,279.3,585.1,283,585z"/>
			<path class="st9" d="M281.2,586.4c0,0-1.3-1-2.9,0C278.2,586.4,278.8,588.4,281.2,586.4z"/>
			<path class="st9" d="M280.3,589.4c0,0.2,0.2,0.5,0.4,0.8c0,0,2.1-3.1,4.8-5.3C281.8,586.2,280.3,589.4,280.3,589.4z"/>
			<path class="st8" d="M288.2,587.6c0,0-1.5-2.1-3.2-0.4C285,587.2,285.9,589.1,288.2,587.6z"/>
			<path class="st9" d="M287.6,585.3c0,0-0.4,2.4,1.4,2.3L287.6,585.3z"/>
			<path class="st7" d="M284.5,549.6c-0.1,0-0.2,0-0.4-0.1c-0.5-0.2-0.8-0.8-0.6-1.3c0.4-1,1.4-2.6,3.1-2.6c0.5-0.5,1.4-1.2,2.6-1.2
				c1.1,0,2.2,0.7,3.1,2c0.3,0.5,0.2,1.1-0.3,1.4s-1.1,0.2-1.4-0.3c-0.3-0.5-0.9-1.1-1.4-1.1c-0.6,0-1.2,0.6-1.3,0.8
				c-0.2,0.3-0.6,0.5-1,0.4c-0.7-0.2-1.4,1.3-1.4,1.3C285.3,549.4,284.9,549.6,284.5,549.6z"/>
			<path class="st4" d="M289.4,558.7c-0.4,0-0.8-0.1-1.2-0.2c-1.3-0.5-2.1-1.8-2.5-3.9c-0.8-4.3-5-4.6-5.2-4.6c-0.5,0-0.9-0.5-0.9-1
				c0-0.5,0.4-1,1-1c0.2,0,5.1-0.2,8.6,2.6c0.1-1.2,0.4-2.5,1.3-3.5c1-1.1,2.4-1.6,4.2-1.5c0.5,0,0.9,0.4,0.9,0.9s-0.3,0.9-0.8,1.1
				c0,0-1.1,0.3-1.4,1.1c-0.3,0.7,0.2,1.6,0.6,2.2c2,3.2,1.1,5.1,0.6,5.9c-0.7,1.1-1.9,1.6-3.3,1.5
				C290.9,558.4,290.2,558.7,289.4,558.7z M286.5,551.2c0.5,0.8,1,1.8,1.2,3c0.2,1.3,0.7,2.2,1.3,2.4c0.7,0.3,1.6-0.3,1.6-0.3
				c0.2-0.1,0.5-0.2,0.7-0.2c0.7,0.1,1.3-0.1,1.6-0.6c0.5-0.8,0.3-2.2-0.6-3.7c-0.6-0.9-0.9-1.7-0.9-2.5c-0.4,1.3-0.3,3-0.1,3.7
				c0.1,0.5-0.2,1-0.6,1.1c-0.4,0.2-1,0-1.2-0.4C288.6,552.6,287.6,551.8,286.5,551.2z"/>
		</g>
		<g>
			<path class="st2" d="M295.2,592.1l4.5,0.7c0,0,3.9-8,6-11.4c2-3.5,5.4-5.9,5.4-5.9s2.9-3,4.3-2.2s3.1,3,3.1,3l2.2-0.5l1.3-1.6
				l-3.2-9.2c0,0-6,2.1-8,3.1c-2,1-11.1,8.5-12.8,13.3C296.3,586.3,295.2,592.1,295.2,592.1z"/>
			<path class="st3" d="M315.2,565c-0.1,0-0.2,0-0.2-0.1c-0.3,0.5-0.9,0.8-1.5,0.7c-0.1,0-0.1,0-0.2,0c-0.2,0.7-0.9,1.2-1.6,1.1
				c-0.1,0-0.2,0-0.3-0.1c-0.3,0.5-0.8,0.8-1.5,0.7c-0.1,0-0.1,0-0.2,0c0,0,0,0,0,0c-0.1,0.8-0.8,1.3-1.6,1.2c-0.1,0-0.1,0-0.2-0.1
				c0,0,0,0,0,0c-0.1,0.8-0.8,1.3-1.6,1.2c-0.1,0.8-0.8,1.3-1.6,1.2c-0.1,0-0.1,0-0.2-0.1c0,0.1,0,0.2,0,0.3
				c-0.1,0.8-0.8,1.3-1.6,1.2c0,0-0.1,0-0.1,0c0.1,0.2,0.2,0.5,0.1,0.8c-0.1,0.7-0.7,1.2-1.4,1.2c0,0.1,0,0.3,0,0.4
				c-0.1,0.6-0.5,1-1,1.2c0,0.1,0,0.3,0,0.4c-0.1,0.7-0.8,1.3-1.5,1.2c0,0.2,0,0.3,0,0.5c-0.1,0.7-0.6,1.1-1.2,1.2
				c0.1,0.2,0.2,0.5,0.1,0.8c-0.1,0.7-0.7,1.2-1.3,1.2c0.1,0.3,0.2,0.6,0.2,0.9c-0.1,0.5-0.4,0.9-0.8,1.1c0.2,0.3,0.3,0.6,0.2,1
				c-0.1,0.6-0.5,1-1.1,1.2c0.5,0.3,0.8,0.8,0.7,1.4c-0.1,0.5-0.5,1-0.9,1.1c0.5,0.4,0.7,1.2,0.3,1.8c-0.4,0.7-1.3,0.9-1.9,0.5
				c-0.7-0.4-0.9-1.3-0.5-1.9c0.2-0.3,0.5-0.5,0.8-0.6c-0.4-0.3-0.6-0.8-0.5-1.3c0.1-0.6,0.5-1,1.1-1.2c-0.5-0.3-0.8-0.8-0.7-1.4
				c0.1-0.5,0.4-0.9,0.8-1.1c-0.2-0.3-0.3-0.6-0.2-0.9c0.1-0.7,0.7-1.2,1.3-1.2c-0.1-0.3-0.2-0.6-0.2-0.9c0.1-0.7,0.6-1.1,1.2-1.2
				c-0.1-0.2-0.2-0.5-0.1-0.8c0.1-0.7,0.8-1.3,1.5-1.2c0-0.2,0-0.3,0-0.5c0.1-0.6,0.5-1,1-1.2c0-0.1,0-0.3,0-0.4
				c0.1-0.7,0.7-1.2,1.4-1.2c0-0.1,0-0.3,0-0.4c0.1-0.8,0.8-1.3,1.6-1.2c0,0,0.1,0,0.1,0c-0.1-0.2-0.2-0.5-0.1-0.8
				c0.1-0.8,0.8-1.3,1.6-1.2c0.1,0,0.1,0,0.2,0.1c0-0.1,0-0.2,0-0.3c0.1-0.8,0.8-1.3,1.6-1.2c0.1-0.8,0.8-1.3,1.6-1.2
				c0.1,0,0.1,0,0.2,0.1c0,0,0,0,0,0c0.1-0.8,0.8-1.3,1.6-1.2c0.1,0,0.1,0,0.2,0c0,0,0,0,0,0c0.1-0.8,0.8-1.3,1.6-1.2
				c0.1,0,0.2,0,0.3,0.1c0.3-0.5,0.9-0.8,1.5-0.7c0.1,0,0.1,0,0.2,0c0.2-0.7,0.9-1.2,1.6-1.1c0.1,0,0.2,0,0.2,0.1
				c0.3-0.5,0.9-0.8,1.5-0.7c0.8,0.1,1.3,0.8,1.2,1.6C316.7,564.5,316,565.1,315.2,565z"/>
			<path class="st4" d="M317.2,564.1c-0.4-0.2-0.8-0.3-1.3-0.1c-11.9,4.6-17.1,12.1-19.3,17.6c-2.5,6-2.1,10.8-2,11.1
				c0.1,0.8,0.8,1.4,1.6,1.4c0.8-0.1,1.4-0.8,1.4-1.6c-0.1-0.7-1.2-17.6,19.4-25.6c0.8-0.3,1.2-1.2,0.9-1.9
				C317.7,564.6,317.5,564.3,317.2,564.1z"/>
			<path class="st3" d="M325.3,586.7c0.1,0.3,0,0.7-0.1,1c-0.3,0.5-0.9,0.8-1.4,0.7c0.1,0.3,0,0.7-0.1,1c-0.3,0.5-0.8,0.7-1.3,0.7
				c0.1,0.4,0.1,0.8-0.1,1.1c-0.4,0.7-1.3,0.9-1.9,0.5c0,0,0,0,0,0c0.1,0.3,0,0.7-0.2,1c-0.3,0.6-1,0.8-1.6,0.7
				c0.1,0.4,0.1,0.8-0.1,1.1c-0.3,0.6-1,0.9-1.7,0.7c0,0.3,0,0.6-0.2,0.9c-0.4,0.7-1.2,0.9-1.9,0.6c0,0.2-0.1,0.4-0.2,0.6
				c-0.3,0.5-0.9,0.8-1.4,0.7c0,0.2-0.1,0.4-0.2,0.6c-0.4,0.6-1.1,0.9-1.7,0.6c0.1,0.3,0,0.7-0.1,1c-0.4,0.7-1.3,0.9-1.9,0.5
				c0,0,0,0,0,0c0,0.2-0.1,0.5-0.2,0.7c-0.4,0.7-1.3,0.9-1.9,0.5c-0.7-0.4-0.9-1.3-0.5-1.9c0.4-0.7,1.3-0.9,1.9-0.5c0,0,0,0,0,0
				c0-0.2,0.1-0.5,0.2-0.7c0.4-0.6,1.1-0.9,1.7-0.6c-0.1-0.3,0-0.7,0.1-1c0.3-0.5,0.9-0.8,1.4-0.7c0-0.2,0.1-0.4,0.2-0.6
				c0.4-0.7,1.2-0.9,1.9-0.6c0-0.2,0.1-0.4,0.2-0.6c0.3-0.6,1-0.9,1.7-0.7c0-0.3,0-0.6,0.2-0.9c0.3-0.6,1-0.8,1.6-0.7
				c-0.1-0.4-0.1-0.8,0.1-1.1c0.4-0.7,1.3-0.9,1.9-0.5c0,0,0,0,0,0c-0.1-0.3,0-0.7,0.2-1c0.3-0.5,0.8-0.7,1.3-0.7
				c-0.1-0.4-0.1-0.8,0.1-1.1c0.3-0.5,0.9-0.8,1.4-0.7c-0.1-0.3,0-0.7,0.1-1c0.3-0.6,0.9-0.8,1.5-0.7c-0.1-0.3,0-0.7,0.1-1
				c0.4-0.7,1.3-0.9,1.9-0.5c0.7,0.4,0.9,1.3,0.5,1.9C326.5,586.6,325.9,586.8,325.3,586.7z"/>
			<path class="st4" d="M328.3,578c-0.6-0.4-1.5-0.2-1.9,0.4c-9.9,12.9-21.4,19.9-21.5,20c-0.7,0.4-0.9,1.4-0.5,2.1
				c0.4,0.7,1.4,0.9,2.1,0.5c0.5-0.3,12-7.4,22.3-20.7c0.5-0.7,0.4-1.6-0.3-2.1C328.5,578.1,328.4,578.1,328.3,578z"/>
			<g>
				<path class="st4" d="M298.7,594c-1-0.6-1.4-1.8-0.8-2.9c0.3-0.4,0.6-0.8,1.1-0.9c-0.1-0.5,0-1,0.2-1.4c0.1-0.1,0.1-0.2,0.2-0.3
					c-0.3-0.6-0.3-1.3,0.1-1.9c0.4-0.7,1.1-1,1.8-1.1c-0.3-0.6-0.4-1.4,0-2.1c0.4-0.6,1-1,1.7-1.1c0-0.4,0-0.8,0.3-1.2
					c0.6-1,1.8-1.4,2.9-0.8c1,0.6,1.4,1.8,0.8,2.9c-0.4,0.6-1,1-1.7,1.1c0,0.4,0,0.8-0.3,1.2c-0.4,0.7,3.8,4,3.1,4
					c0.3,0.6-4.5-1.5-4.9-0.9c-0.1,0.1-0.1,0.2-0.2,0.3c0.3,0.6,0.3,1.3-0.1,1.9c-0.3,0.4-0.6,0.8-1.1,0.9c0.1,0.5,0,1-0.2,1.4
					C301,594.3,299.7,594.6,298.7,594z"/>
				<path class="st4" d="M307.4,592.5c0.5,0.6,0.6,1.6,0.2,2.3c-0.6,1-1.8,1.4-2.9,0.8c-1-0.6-1.4-1.8-0.8-2.9
					c0.4-0.8,1.3-1.1,2.1-1c-0.5-0.6-0.6-1.6-0.2-2.3c0.3-0.5,0.7-0.8,1.3-1c-0.1-0.5-0.1-1.1,0.2-1.6c0.3-0.5,0.7-0.8,1.2-1
					c-0.1-0.5-0.1-1.1,0.2-1.6c0.6-1,1.8-1.4,2.9-0.8c1,0.6,1.4,1.8,0.8,2.9c-0.3,0.5-0.7,0.8-1.2,1c0.1,0.5,0.1,1.1-0.2,1.6
					c-0.3,0.5-0.7,0.8-1.3,1c0.1,0.5,0.1,1.1-0.2,1.6C309,592.3,308.2,592.6,307.4,592.5z"/>
			</g>
			<path class="st5" d="M307,581.7c0,0-4.3,4.9-5,8.9c-0.7,4-4,8-4,8s6.4-2.1,7.8-5c1.5-2.9,5.2-9.2,5.2-9.2L307,581.7z"/>
			<path class="st2" d="M322.9,577.2l3.8,0.4l1.4-2.5c0,0-10-14.5-11.2-22s-1.2-15.3-1.2-15.3l-2.3-1l-1.8,4.9l1.5,2.5l-2.6,0.1
				l1,3.5l1.1,0.4l-2.6,1.7l4.5,3.7l-3.7,1.7l5.2,3.3l-2.7,1.4l4.6,2.9l-1.5,2.6l4.3,2.1l-1.5,2.7l3.3,1.9l-1.9,2.9L322.9,577.2z"/>
			<path class="st4" d="M313.4,535c-1-0.6-1.9-0.8-1.9-0.8c-0.4-0.1-0.8,0-1,0.4c-0.2,0.3-0.3,0.8-0.1,1.1c0.6,1,1.2,2.1,1.9,3.1
				c-0.2-0.1-0.4-0.1-0.4-0.1c-0.4-0.1-0.7,0-1,0.3c-0.2,0.3-0.3,0.6-0.2,1c0.4,1.2,1.1,2.4,1.7,3.3c-1.4-0.1-2.5,0.1-2.6,0.1
				c-0.3,0.1-0.6,0.2-0.7,0.5c-0.1,0.3-0.2,0.6,0,0.9c0.6,1.2,1.5,2.2,2.6,3.1c-1.2,0.2-2.2,0.5-2.5,0.6c-0.4,0.1-0.6,0.4-0.7,0.8
				c-0.1,0.4,0.1,0.7,0.4,1c1.2,0.9,3.1,2.1,4.6,3c-1,0.2-1.9,0.6-2.6,0.8c-0.3,0.1-0.5,0.4-0.6,0.7c-0.1,0.3,0,0.6,0.2,0.9
				c0.7,0.8,2.3,1.8,3.9,2.6c-0.9,0.5-1.5,1-1.6,1.1c-0.2,0.2-0.3,0.4-0.3,0.7c0,0.3,0.1,0.5,0.3,0.7c1.1,1,2.7,2,4.1,2.6
				c-0.5,0.3-1,0.6-1.4,0.9c-0.3,0.2-0.4,0.5-0.4,0.8c0,0.3,0.2,0.6,0.4,0.8c1.1,0.8,2.9,1.6,4.3,2.2c-0.6,0.4-1,0.7-1.2,0.8
				c-0.4,0.3-0.5,1-0.2,1.4c0.7,0.8,1.7,1.6,2.8,2.2c0,0,0,0,0,0c-0.6,0.3-1,0.6-1,0.6c-0.3,0.3-0.5,0.7-0.3,1.1
				c0.5,1.2,1.4,2.2,2.4,2.9c-0.3,0.2-0.5,0.3-0.5,0.3c-0.3,0.3-0.4,0.7-0.3,1.1c1.3,4.1,5.2,4.5,5.4,4.5c0.5,0,1-0.4,1.1-0.9
				c0-0.5-0.4-1-0.9-1.1c-0.1,0-2.3-0.3-3.3-2.4c0.4-0.1,0.9-0.2,1.5,0c0.2,0.1,0.3,0.1,0.4,0.1c0.5,0.2,1.1-0.1,1.3-0.6
				c0.2-0.5-0.1-1.1-0.6-1.3c-0.1-0.1-0.3-0.1-0.4-0.2c-1-0.4-2.8-1.3-3.7-2.6c0.5-0.3,1.2-0.5,2-0.4c0.7,0.3,1.2,0.4,1.2,0.4
				c0.5,0.1,1-0.1,1.2-0.6c0.2-0.5,0-1-0.4-1.3c-0.5-0.3-1-0.5-1.5-0.6c-1.2-0.5-2.8-1.2-3.9-2.1c0.6-0.4,1.3-0.8,1.6-0.8
				c0.5,0,0.8-0.4,0.9-0.9c0.1-0.5-0.2-0.9-0.6-1.1c0,0-2.6-1-4.6-2c0.7-0.4,1.3-0.6,1.5-0.6c0.5,0.1,1-0.2,1.2-0.7
				c0.2-0.5-0.1-1-0.6-1.2c0,0-2.9-1.1-4.9-2.5c0.6-0.3,1.6-0.6,2.6-0.3c0.5,0.2,1.1-0.1,1.3-0.6c0.2-0.5-0.1-1.1-0.5-1.3
				c-1.6-0.7-3.7-1.7-5.1-2.6c1.3-0.4,2.5-0.6,2.9-0.5c0.5,0.2,1,0,1.3-0.4c0.3-0.5,0.1-1.1-0.4-1.3c0,0-2.9-1.8-5.2-3.3
				c1.1-0.2,2.3-0.3,3,0c0.2,0.1,0.3,0.1,0.3,0.2c0.5,0.2,1.1,0,1.3-0.5c0.2-0.5,0.1-1.1-0.4-1.3c-0.1-0.1-0.3-0.1-0.4-0.2
				c-0.7-0.4-2.6-1.3-3.9-2.7c0.9,0,2.1,0.2,2.9,0.6c0,0,0,0,0,0c0.4,0.2,1,0.1,1.3-0.3c0.3-0.4,0.3-1-0.1-1.3c0,0-1.3-1.3-2.3-2.9
				c0.3,0.1,0.5,0.2,0.8,0.4c0.4,0.2,0.9,0.1,1.2-0.2c0.3-0.3,0.3-0.8,0.1-1.2c0,0-0.6-0.8-1.3-1.9c0,0,0,0,0,0.1
				c0.3,0.4,1,0.5,1.4,0.2c0.4-0.3,0.5-1,0.2-1.4C315.1,536.1,314.2,535.4,313.4,535z"/>
			<path class="st6" d="M316.2,533.7c0,0,4.5,5.3,4.6,1.4c0,0,2.7,0.9,3.3,2.2c0.7,1.3,2.7,2.4,3.8,2.3c1.1-0.1,2.3-1.1,2.8,0
				c0.5,1.1,2.7,2.8,2.7,2.8s-1-0.6-2.5,0.2s-5.5,2.3-5.5,2.3l2,19.7c0,0-2.1,3-2.2,5.7c-0.1,2.7-8.3-15.5-8.3-15.5l-1.7-17
				L316.2,533.7z"/>
			<path class="st5" d="M327,565.9c0,0-2.7-1.1-1.7-3.9c0,0-1.9-0.4-1.5-2c0,0-2.9-0.9-2.8-4c0,0-1.3-0.7-0.9-2c0,0-1.1-0.8,0.2-2.2
				c0,0-1.4-1-0.3-2.7c0,0-1.4-0.9-0.8-2.8c0,0-1.3-1.1-0.5-2.8c0,0-1.1-1.8,0.1-4.1l-0.4-2.2c0,0,4.1,2.4,5.3,3c0,0,1.5,2,3.2,1.5
				c1.6-0.5,0.8,2.6,2.4,3.1c0,0,0.2,4.2,1.7,4.9s2.4,8.6,2.4,8.6l-3.8,6.1L327,565.9z"/>
			<path class="st7" d="M318.5,524.1l-2.9-0.9c-0.1,0.3-9,29.7,12,54.1l2.3-2C310,552.2,318.4,524.4,318.5,524.1z"/>
			<path class="st8" d="M330.2,555.4c0,0-3.9-6.9-8.4-2.5c0,0,2-0.5,3.3,0.4c0,0,0.5,1.4,2.1,1.3c0,0-0.7,1.1,0.4,1.3
				C328.6,556.1,330.2,555.4,330.2,555.4z"/>
			<path class="st8" d="M327.7,565.1c0,0-2.7-3.3-2.2-5.4c0,0-3-2.6-2.9-5c0,0,2.3,0.1,3,1.7c0.8,1.6,5.8,0.1,5.8,0.1
				S327.1,562,327.7,565.1z"/>
			<circle class="st9" cx="327.2" cy="559" r="0.9"/>
			<path class="st8" d="M330.7,553.7c0,0-3.8-5.4-8.5-2.5c0,0-1-0.4-0.4-1.5c0,0-3.1-5.8-1.7-10.6c0,0,1.2,1.2,2.9,1.2
				c0,0,2.4-1.3,4.3,0.2c0,0-2.9,0.1-3.3,0.8c0,0-0.4,5.4,4.6,8.5c0,0,0.4-2.4,2.3-1c0,0,2.1-1.4,2.9,0.6L330.7,553.7z"/>
			<path class="st9" d="M321.1,549.6l1.3,0.4c0,0,2.8-1.7,4.9-0.4C327.4,549.6,324.2,546.2,321.1,549.6z"/>
			<path class="st9" d="M324.1,546.4c0,0-1.5,1.5-3.8,0.2C320.2,546.6,320.9,544.5,324.1,546.4z"/>
			<path class="st9" d="M323.2,544.3c0,0-1.6,0.3-2.6-1.4C320.6,542.9,322.1,541.4,323.2,544.3z"/>
			<path class="st9" d="M323.9,541.3c0.1-0.2,0.4-0.3,0.8-0.4c0,0,0.3,3.8,1.5,7C323.6,544.8,323.9,541.3,323.9,541.3z"/>
			<path class="st8" d="M329.8,546.7c0,0-2.3,1.1-3-1.2C326.9,545.5,328.6,544.4,329.8,546.7z"/>
			<path class="st9" d="M328.2,548.4c0,0,0.8-2.3,2.4-1.3L328.2,548.4z"/>
			<path class="st7" d="M308,578c-0.1-0.1-0.2-0.1-0.3-0.1c-0.5-0.1-1.1,0.3-1.1,0.8c-0.2,1.1,0,3,1.4,3.8c0.2,0.7,0.6,1.7,1.7,2.3
				c1,0.5,2.2,0.5,3.7-0.3c0.5-0.2,0.7-0.8,0.4-1.3c-0.2-0.5-0.8-0.7-1.3-0.4c-0.6,0.3-1.3,0.5-1.8,0.3c-0.6-0.3-0.8-1.1-0.8-1.4
				c-0.1-0.4-0.3-0.7-0.7-0.8c-0.7-0.2-0.6-1.8-0.5-1.8C308.5,578.6,308.3,578.2,308,578z"/>
			<path class="st4" d="M318.1,573.9c1.2,0.6,2,1.6,2.1,2.9c0.1,0.9-0.1,3-3.4,4.8c-0.7,0.4-1.5,0.9-1.6,1.7
				c-0.1,0.8,0.7,1.6,0.7,1.6c0.4,0.3,0.4,0.9,0.1,1.3c-0.3,0.4-0.8,0.5-1.3,0.3c-1.7-0.8-2.6-1.9-2.9-3.4c-0.3-1.3,0.1-2.6,0.6-3.7
				c-4.4,0.7-8.6-1.8-8.8-1.9c-0.5-0.3-0.6-0.9-0.3-1.3c0.3-0.5,0.8-0.6,1.3-0.4c0.2,0.1,4,1.9,6.8-1.5c1.4-1.6,2.7-2.4,4.1-2.2
				c0.4,0.1,0.8,0.2,1.2,0.4C317.4,572.9,317.8,573.5,318.1,573.9z M314.3,576.7c0.4-0.2,1-0.1,1.3,0.3c0.3,0.4,0.3,0.9,0,1.3
				c-0.5,0.5-1.4,1.9-1.7,3.3c0.4-0.6,1.1-1.2,2-1.7c1.6-0.8,2.4-1.9,2.4-2.9c0-0.6-0.5-1.1-1.1-1.3c-0.2-0.1-0.5-0.3-0.6-0.5
				c0,0-0.5-1-1.3-1.1c-0.6-0.1-1.4,0.5-2.3,1.5c-0.8,0.9-1.6,1.6-2.5,2C311.7,577.6,313,577.4,314.3,576.7z"/>
		</g>
		<g>
			<path class="st2" d="M342.4,531.1l4.2,1.6c0,0-0.5,8.9-0.4,12.9c0.1,4,1.8,7.8,1.8,7.8s1.1,4,2.7,4s4.2-1.1,4.2-1.1l1.7,1.5
				l0.4,2l-7.3,6.5c0,0-4.2-4.8-5.4-6.6c-1.2-1.9-5.5-12.9-4.6-17.9C340.6,536.6,342.4,531.1,342.4,531.1z"/>
			<path class="st3" d="M346.6,564.5c-0.1,0-0.2,0-0.2-0.1c0-0.6-0.3-1.1-0.9-1.4c-0.1,0-0.1,0-0.2-0.1c0.2-0.7-0.2-1.5-0.9-1.7
				c-0.1,0-0.2-0.1-0.3-0.1c0-0.6-0.3-1.1-0.9-1.4c-0.1,0-0.1,0-0.2,0c0,0,0,0,0,0c0.3-0.7-0.1-1.6-0.8-1.8c-0.1,0-0.1,0-0.2-0.1
				c0,0,0,0,0,0c0.3-0.7-0.1-1.6-0.8-1.8c0.3-0.7-0.1-1.6-0.8-1.8c-0.1,0-0.1,0-0.2-0.1c0-0.1,0.1-0.2,0.1-0.3
				c0.3-0.7-0.1-1.6-0.8-1.8c0,0-0.1,0-0.1,0c0.2-0.2,0.4-0.4,0.5-0.7c0.3-0.7,0-1.4-0.6-1.7c0.1-0.1,0.2-0.2,0.2-0.4
				c0.2-0.5,0.1-1.1-0.3-1.5c0.1-0.1,0.1-0.2,0.2-0.3c0.3-0.7-0.1-1.5-0.7-1.8c0.1-0.1,0.2-0.2,0.2-0.4c0.2-0.6,0-1.3-0.5-1.7
				c0.2-0.2,0.4-0.4,0.5-0.6c0.2-0.6,0-1.4-0.6-1.7c0.3-0.2,0.5-0.4,0.6-0.7c0.2-0.5,0.1-1-0.2-1.4c0.3-0.2,0.5-0.4,0.6-0.7
				c0.2-0.6,0.1-1.2-0.3-1.5c0.6,0,1.1-0.4,1.3-0.9c0.2-0.5,0.1-1.1-0.3-1.4c0.7-0.1,1.2-0.7,1.2-1.4c0-0.8-0.6-1.4-1.4-1.4
				s-1.4,0.6-1.4,1.4c0,0.4,0.1,0.7,0.3,0.9c-0.5,0.1-0.9,0.4-1.1,0.9c-0.2,0.6-0.1,1.2,0.3,1.5c-0.6,0-1.1,0.4-1.3,0.9
				c-0.2,0.5-0.1,1,0.2,1.4c-0.3,0.2-0.5,0.4-0.6,0.7c-0.2,0.6,0,1.4,0.6,1.7c-0.3,0.2-0.5,0.4-0.6,0.7c-0.2,0.6,0,1.3,0.5,1.7
				c-0.2,0.2-0.4,0.4-0.5,0.6c-0.3,0.7,0.1,1.5,0.7,1.8c-0.1,0.1-0.2,0.2-0.2,0.4c-0.2,0.5-0.1,1.1,0.3,1.5
				c-0.1,0.1-0.1,0.2-0.2,0.3c-0.3,0.7,0,1.4,0.6,1.7c-0.1,0.1-0.2,0.2-0.2,0.4c-0.3,0.7,0.1,1.6,0.8,1.8c0,0,0.1,0,0.1,0
				c-0.2,0.2-0.4,0.4-0.5,0.7c-0.3,0.7,0.1,1.6,0.8,1.8c0.1,0,0.1,0,0.2,0.1c0,0.1-0.1,0.2-0.1,0.3c-0.3,0.7,0.1,1.6,0.8,1.8
				c-0.3,0.7,0.1,1.6,0.8,1.8c0.1,0,0.1,0,0.2,0.1c0,0,0,0,0,0c-0.3,0.7,0.1,1.6,0.8,1.8c0.1,0,0.1,0,0.2,0c0,0,0,0,0,0
				c-0.3,0.7,0.1,1.6,0.8,1.8c0.1,0,0.2,0.1,0.3,0.1c0,0.6,0.3,1.1,0.9,1.4c0.1,0,0.1,0,0.2,0c-0.2,0.7,0.2,1.5,0.9,1.7
				c0.1,0,0.2,0,0.2,0.1c0,0.6,0.3,1.1,0.9,1.4c0.7,0.3,1.6-0.1,1.8-0.8S347.3,564.8,346.6,564.5z"/>
			<path class="st4" d="M347.9,566.2c-0.4,0-0.9-0.2-1.2-0.6c-8.1-9.9-8.9-18.9-8.1-24.8c0.8-6.4,3.6-10.5,3.7-10.6
				c0.5-0.7,1.4-0.9,2.1-0.4c0.7,0.5,0.9,1.4,0.4,2.1c-0.4,0.6-9.7,14.7,4.3,31.8c0.5,0.6,0.4,1.6-0.2,2.1
				C348.5,566.1,348.2,566.2,347.9,566.2z"/>
			<path class="st3" d="M366,550.6c0.2-0.3,0.4-0.6,0.4-1c0-0.6-0.4-1.1-0.9-1.3c0.2-0.3,0.4-0.6,0.4-1c0-0.5-0.3-1-0.8-1.3
				c0.3-0.3,0.5-0.6,0.5-1.1c0-0.8-0.6-1.4-1.4-1.4c0,0,0,0,0,0c0.2-0.2,0.3-0.6,0.3-0.9c0-0.6-0.4-1.2-1-1.4c0.3-0.3,0.4-0.6,0.4-1
				c0-0.7-0.5-1.3-1.1-1.4c0.2-0.2,0.3-0.5,0.3-0.9c0-0.8-0.6-1.4-1.4-1.4c0.1-0.2,0.1-0.4,0.1-0.6c0-0.6-0.4-1.1-0.9-1.3
				c0.1-0.2,0.1-0.4,0.1-0.6c0-0.7-0.5-1.3-1.2-1.4c0.2-0.3,0.4-0.6,0.4-1c0-0.8-0.6-1.4-1.4-1.4c0,0,0,0,0,0
				c0.1-0.2,0.2-0.4,0.2-0.7c0-0.8-0.6-1.4-1.4-1.4s-1.4,0.6-1.4,1.4s0.6,1.4,1.4,1.4c0,0,0,0,0,0c-0.1,0.2-0.2,0.4-0.2,0.7
				c0,0.7,0.5,1.3,1.2,1.4c-0.2,0.3-0.4,0.6-0.4,1c0,0.6,0.4,1.1,0.9,1.3c-0.1,0.2-0.1,0.4-0.1,0.6c0,0.8,0.6,1.4,1.4,1.4
				c-0.1,0.2-0.1,0.4-0.1,0.6c0,0.7,0.5,1.3,1.1,1.4c-0.2,0.2-0.3,0.5-0.3,0.9c0,0.6,0.4,1.2,1,1.4c-0.3,0.3-0.4,0.6-0.4,1
				c0,0.8,0.6,1.4,1.4,1.4c0,0,0,0,0,0c-0.2,0.2-0.3,0.6-0.3,0.9c0,0.5,0.3,1,0.8,1.3c-0.3,0.3-0.5,0.6-0.5,1.1
				c0,0.6,0.4,1.1,0.9,1.3c-0.2,0.3-0.4,0.6-0.4,1c0,0.6,0.4,1.2,1,1.4c-0.2,0.3-0.4,0.6-0.4,1c0,0.8,0.6,1.4,1.4,1.4
				s1.4-0.6,1.4-1.4C367,551.3,366.6,550.7,366,550.6z"/>
			<path class="st4" d="M364.4,559.6c-0.7,0-1.4-0.5-1.5-1.3c-2.3-16.1-8.8-27.9-8.9-28c-0.4-0.7-0.1-1.6,0.6-2
				c0.7-0.4,1.6-0.1,2,0.6c0.3,0.5,6.8,12.4,9.2,29c0.1,0.8-0.5,1.6-1.3,1.7C364.5,559.6,364.5,559.6,364.4,559.6z"/>
			<g>
				<path class="st4" d="M346.5,531.1c-1.2,0-2.1,0.9-2.1,2.1c0,0.5,0.2,1,0.5,1.3c-0.3,0.4-0.5,0.8-0.5,1.3c0,0.1,0,0.3,0,0.4
					c-0.5,0.4-0.9,1-0.9,1.7c0,0.8,0.4,1.4,1,1.8c-0.6,0.4-1,1-1,1.8c0,0.7,0.4,1.4,0.9,1.7c-0.2,0.3-0.4,0.7-0.4,1.2
					c0,1.2,0.9,2.1,2.1,2.1s2.1-0.9,2.1-2.1c0-0.7-0.4-1.4-0.9-1.7c0.2-0.3,0.4-0.7,0.4-1.2c0-0.8,5.3-1.6,4.7-1.9
					c0.6-0.4-4.7-0.9-4.7-1.6c0-0.1,0-0.3,0-0.4c0.5-0.4,0.9-1,0.9-1.7c0-0.5-0.2-1-0.5-1.3c0.3-0.4,0.5-0.8,0.5-1.3
					C348.6,532,347.6,531.1,346.5,531.1z"/>
				<path class="st4" d="M353.3,536.7c0.8-0.3,1.3-1.1,1.3-1.9c0-1.2-0.9-2.1-2.1-2.1c-1.2,0-2.1,0.9-2.1,2.1c0,0.9,0.5,1.6,1.3,1.9
					c-0.8,0.3-1.3,1.1-1.3,1.9c0,0.6,0.2,1.1,0.6,1.5c-0.4,0.4-0.6,0.9-0.6,1.5c0,0.6,0.2,1.1,0.6,1.5c-0.4,0.4-0.6,0.9-0.6,1.5
					c0,1.2,0.9,2.1,2.1,2.1c1.2,0,2.1-0.9,2.1-2.1c0-0.6-0.2-1.1-0.6-1.5c0.4-0.4,0.6-0.9,0.6-1.5c0-0.6-0.2-1.1-0.6-1.5
					c0.4-0.4,0.6-0.9,0.6-1.5C354.6,537.7,354.1,537,353.3,536.7z"/>
			</g>
			<path class="st5" d="M347.6,545.9c0,0-1.3-6.4,0-10.2c1.3-3.8,0.5-9,0.5-9s4.5,4.9,4.4,8.2s0,10.6,0,10.6L347.6,545.9z"/>
			<path class="st2" d="M359.2,557.7l3.6,1.5v2.9c0,0-15.9,7.6-20.5,13.6s-8.6,12.7-8.6,12.7l-2.5-0.3l0.9-5.1l2.5-1.5l-2.3-1.4
				l2.6-2.5l1.2,0.2l-1.4-2.7l5.7-1l-2.4-3.3l6.1-0.4l-1.7-2.5l5.4-0.3v-3l4.8,0.3V562h3.8l-0.3-3.5L359.2,557.7z"/>
			<path class="st4" d="M330.2,589.7c-1.2,0-2-0.2-2.1-0.2c-0.4-0.1-0.7-0.4-0.7-0.8c-0.1-0.4,0.1-0.8,0.5-1c1-0.6,2.1-1.2,3.1-1.8
				c-0.2-0.1-0.4-0.1-0.4-0.1c-0.4-0.1-0.6-0.4-0.7-0.7c-0.1-0.4,0-0.7,0.3-1c0.9-0.9,2.1-1.5,3.2-2c-1.2-0.6-2.1-1.3-2.2-1.4
				c-0.2-0.2-0.4-0.5-0.4-0.8c0-0.3,0.2-0.6,0.4-0.8c1.1-0.8,2.4-1.2,3.7-1.4c-0.9-0.8-1.7-1.5-1.9-1.8c-0.3-0.3-0.3-0.7-0.2-1
				c0.1-0.4,0.5-0.6,0.8-0.6c1.5-0.2,3.7-0.3,5.5-0.4c-0.7-0.7-1.4-1.4-1.9-2c-0.2-0.2-0.3-0.6-0.2-0.9c0.1-0.3,0.3-0.6,0.6-0.7
				c1-0.4,2.9-0.4,4.7-0.4c-0.6-0.9-0.8-1.6-0.8-1.7c-0.1-0.3,0-0.5,0.1-0.8c0.1-0.2,0.4-0.4,0.6-0.5c1.5-0.4,3.3-0.4,4.9-0.3
				c-0.3-0.5-0.6-1-0.8-1.5c-0.2-0.3-0.1-0.6,0-0.9c0.2-0.3,0.5-0.5,0.8-0.5c1.4-0.1,3.3,0,4.8,0.2c-0.3-0.6-0.5-1.1-0.6-1.3
				c-0.2-0.5,0-1.1,0.6-1.3c1-0.4,2.3-0.5,3.5-0.5c0,0,0,0,0,0c-0.4-0.6-0.6-1-0.6-1.1c-0.2-0.4,0-0.9,0.3-1.1
				c1-0.8,2.3-1.2,3.5-1.3c-0.2-0.3-0.3-0.5-0.3-0.5c-0.1-0.4,0-0.8,0.2-1.1c3.1-3,6.7-1.4,6.9-1.3c0.5,0.2,0.7,0.8,0.5,1.3
				c-0.2,0.5-0.8,0.7-1.3,0.5c-0.1,0-2.1-0.9-4,0.4c0.3,0.3,0.7,0.6,1.4,0.7c0.2,0,0.4,0.1,0.4,0.1c0.5,0.1,0.9,0.6,0.8,1.1
				c-0.1,0.5-0.6,0.9-1.1,0.8c-0.2,0-0.3,0-0.5-0.1c-1.1-0.2-3.1-0.2-4.5,0.4c0.3,0.5,0.8,1,1.6,1.3c0.7,0.1,1.2,0.2,1.3,0.2
				c0.5,0.1,0.8,0.6,0.8,1.1s-0.5,0.9-1,0.9c-0.6,0-1.1-0.1-1.6-0.3c-1.3-0.2-3-0.3-4.4-0.1c0.4,0.7,0.8,1.3,1,1.5
				c0.4,0.3,0.5,0.8,0.4,1.2c-0.2,0.4-0.6,0.7-1.1,0.6c0,0-2.8-0.4-5-0.5c0.4,0.6,0.8,1.2,1.1,1.3c0.5,0.1,0.8,0.7,0.7,1.2
				c-0.1,0.5-0.6,0.8-1.1,0.8c0,0-3.1-0.5-5.5-0.2c0.4,0.6,1.1,1.3,2.1,1.5c0.5,0.1,0.9,0.6,0.8,1.1c-0.1,0.5-0.6,0.9-1.1,0.8
				c-1.7-0.2-4.1-0.4-5.7-0.3c1,1,1.9,1.8,2.2,1.8c0.5,0,0.9,0.5,0.9,1s-0.5,1-1,1c0,0-3.4,0.1-6.2,0.3c0.9,0.7,1.9,1.4,2.6,1.5
				c0.2,0,0.3,0,0.4,0c0.5,0.1,0.9,0.5,0.9,1.1c0,0.5-0.5,0.9-1,0.9c-0.1,0-0.3,0-0.5,0c-0.8-0.1-2.9-0.1-4.7,0.5
				c0.8,0.5,1.9,0.9,2.8,0.9c0,0,0,0,0,0c0.5,0,0.9,0.4,1,0.9c0.1,0.5-0.3,1-0.7,1.1c0,0-1.7,0.5-3.4,1.4c0.3,0,0.6,0,0.9,0.1
				c0.5,0,0.8,0.3,0.9,0.8c0.1,0.4-0.1,0.9-0.5,1.1c0,0-0.9,0.5-2,1.1c0,0,0,0,0.1,0c0.5-0.2,1.1,0,1.3,0.5c0.2,0.5,0,1.1-0.5,1.3
				C332.3,589.6,331.1,589.7,330.2,589.7z"/>
			<path class="st6" d="M332,592.2c0,0,6.5-2.4,4.7,1c0,0,2.8,0.5,4-0.3s3.5-0.8,4.4-0.1c0.9,0.6,1.4,2.1,2.4,1.4s3.7-1.1,3.7-1.1
				s-1.2,0-2.1-1.4c-0.9-1.4-3.7-4.7-3.7-4.7l11.5-16.2c0,0-0.4-3.6,0.9-6.1c1.2-2.4-14.8,9.4-14.8,9.4l-9.8,14L332,592.2z"/>
			<path class="st5" d="M357.2,569.5c0,0-2.9-0.4-3.4,2.6c0,0-1.8-0.6-2.3,1c0,0-3-0.7-4.4,2.1c0,0-1.5,0-1.8,1.3c0,0-1.4,0.2-0.9,2
				c0,0-1.7,0.2-1.6,2.2c0,0-1.7,0.1-2,2c0,0-1.7,0.3-1.8,2.2c0,0-1.9,1-1.9,3.6l-1.4,1.7c0,0,4.8,0,6.1,0c0,0,2.3-1,3.5,0.2
				s2-1.9,3.6-1.6c0,0,2.3-3.6,3.9-3.4c1.6,0.2,6.4-6.3,6.4-6.3l-0.3-7.2L357.2,569.5z"/>
			<path class="st7" d="M329.3,601.7l-2.9-0.6c0.1-0.3,6.7-30.3,37.1-41.2l1,2.8C335.7,573,329.3,601.4,329.3,601.7z"/>
			<path class="st8" d="M354.9,580.2c0,0-6.8,4-8.6-2c0,0,1.6,1.4,3.1,1.2c0,0,1.1-1,2.5,0c0,0,0-1.3,0.9-0.9
				C353.8,578.8,354.9,580.2,354.9,580.2z"/>
			<path class="st8" d="M357.5,570.6c0,0-4,1.5-4.6,3.6c0,0-3.9,0.8-5,2.9c0,0,2,1,3.5,0c1.5-1,5.1,2.8,5.1,2.8
				S355.4,573,357.5,570.6z"/>
			<circle class="st9" cx="354" cy="575.6" r="0.9"/>
			<path class="st8" d="M354.5,581.9c0,0-6,2.8-8.6-2c0,0-1.1-0.2-1.1,1.1c0,0-5.6,3.5-6.7,8.4c0,0,1.6-0.5,3.1,0.4
				c0,0,1.4,2.3,3.8,1.9c0,0-2.4-1.5-2.5-2.3c0,0,2.3-4.9,8.2-5.2c0,0-0.8,2.3,1.5,2c0,0,1.2,2.2,2.8,0.9L354.5,581.9z"/>
			<path class="st9" d="M344.2,580.8l1.4,0.3c0,0,1.6,2.8,4.1,2.8C349.6,583.9,345.1,585.3,344.2,580.8z"/>
			<path class="st9" d="M345.1,585c0,0-0.6-2-3.2-2C341.9,583,341.5,585.1,345.1,585z"/>
			<path class="st9" d="M343.3,586.4c0,0-1.3-1-2.9,0C340.4,586.4,340.9,588.4,343.3,586.4z"/>
			<path class="st9" d="M342.5,589.4c0,0.2,0.2,0.5,0.4,0.8c0,0,2.1-3.1,4.8-5.3C344,586.2,342.5,589.4,342.5,589.4z"/>
			<path class="st8" d="M350.3,587.6c0,0-1.5-2.1-3.2-0.4C347.1,587.2,348.1,589.1,350.3,587.6z"/>
			<path class="st9" d="M349.7,585.3c0,0-0.4,2.4,1.4,2.3L349.7,585.3z"/>
			<path class="st7" d="M346.7,549.6c-0.1,0-0.2,0-0.4-0.1c-0.5-0.2-0.8-0.8-0.6-1.3c0.4-1,1.4-2.6,3.1-2.6c0.5-0.5,1.4-1.2,2.6-1.2
				c1.1,0,2.2,0.7,3.1,2c0.3,0.5,0.2,1.1-0.3,1.4s-1.1,0.2-1.4-0.3c-0.3-0.5-0.9-1.1-1.4-1.1c-0.6,0-1.2,0.6-1.3,0.8
				c-0.2,0.3-0.6,0.5-1,0.4c-0.7-0.2-1.4,1.3-1.4,1.3C347.4,549.4,347.1,549.6,346.7,549.6z"/>
			<path class="st4" d="M351.5,558.7c-0.4,0-0.8-0.1-1.2-0.2c-1.3-0.5-2.1-1.8-2.5-3.9c-0.8-4.3-5-4.6-5.2-4.6c-0.5,0-0.9-0.5-0.9-1
				c0-0.5,0.4-1,1-1c0.2,0,5.1-0.2,8.6,2.6c0.1-1.2,0.4-2.5,1.3-3.5c1-1.1,2.4-1.6,4.2-1.5c0.5,0,0.9,0.4,0.9,0.9s-0.3,0.9-0.8,1.1
				c0,0-1.1,0.3-1.4,1.1c-0.3,0.7,0.2,1.6,0.6,2.2c2,3.2,1.1,5.1,0.6,5.9c-0.7,1.1-1.9,1.6-3.3,1.5
				C353,558.4,352.3,558.7,351.5,558.7z M348.6,551.2c0.5,0.8,1,1.8,1.2,3c0.2,1.3,0.7,2.2,1.3,2.4c0.7,0.3,1.6-0.3,1.6-0.3
				c0.2-0.1,0.5-0.2,0.7-0.2c0.7,0.1,1.3-0.1,1.6-0.6c0.5-0.8,0.3-2.2-0.6-3.7c-0.6-0.9-0.9-1.7-0.9-2.5c-0.4,1.3-0.3,3-0.1,3.7
				c0.1,0.5-0.2,1-0.6,1.1c-0.4,0.2-1,0-1.2-0.4C350.8,552.6,349.7,551.8,348.6,551.2z"/>
		</g>
		<g>
			<path class="st2" d="M357.3,592.1l4.5,0.7c0,0,3.9-8,6-11.4s5.4-5.9,5.4-5.9s2.9-3,4.3-2.2c1.4,0.8,3.1,3,3.1,3l2.2-0.5l1.3-1.6
				l-3.2-9.2c0,0-6,2.1-8,3.1c-2,1-11.1,8.5-12.8,13.3S357.3,592.1,357.3,592.1z"/>
			<path class="st3" d="M377.4,565c-0.1,0-0.2,0-0.2-0.1c-0.3,0.5-0.9,0.8-1.5,0.7c-0.1,0-0.1,0-0.2,0c-0.2,0.7-0.9,1.2-1.6,1.1
				c-0.1,0-0.2,0-0.3-0.1c-0.3,0.5-0.8,0.8-1.5,0.7c-0.1,0-0.1,0-0.2,0c0,0,0,0,0,0c-0.1,0.8-0.8,1.3-1.6,1.2c-0.1,0-0.1,0-0.2-0.1
				c0,0,0,0,0,0c-0.1,0.8-0.8,1.3-1.6,1.2c-0.1,0.8-0.8,1.3-1.6,1.2c-0.1,0-0.1,0-0.2-0.1c0,0.1,0,0.2,0,0.3
				c-0.1,0.8-0.8,1.3-1.6,1.2c0,0-0.1,0-0.1,0c0.1,0.2,0.2,0.5,0.1,0.8c-0.1,0.7-0.7,1.2-1.4,1.2c0,0.1,0,0.3,0,0.4
				c-0.1,0.6-0.5,1-1,1.2c0,0.1,0,0.3,0,0.4c-0.1,0.7-0.8,1.3-1.5,1.2c0,0.2,0,0.3,0,0.5c-0.1,0.7-0.6,1.1-1.2,1.2
				c0.1,0.2,0.2,0.5,0.1,0.8c-0.1,0.7-0.7,1.2-1.3,1.2c0.1,0.3,0.2,0.6,0.2,0.9c-0.1,0.5-0.4,0.9-0.8,1.1c0.2,0.3,0.3,0.6,0.2,1
				c-0.1,0.6-0.5,1-1.1,1.2c0.5,0.3,0.8,0.8,0.7,1.4c-0.1,0.5-0.5,1-0.9,1.1c0.5,0.4,0.7,1.2,0.3,1.8c-0.4,0.7-1.3,0.9-1.9,0.5
				c-0.7-0.4-0.9-1.3-0.5-1.9c0.2-0.3,0.5-0.5,0.8-0.6c-0.4-0.3-0.6-0.8-0.5-1.3c0.1-0.6,0.5-1,1.1-1.2c-0.5-0.3-0.8-0.8-0.7-1.4
				c0.1-0.5,0.4-0.9,0.8-1.1c-0.2-0.3-0.3-0.6-0.2-0.9c0.1-0.7,0.7-1.2,1.3-1.2c-0.1-0.3-0.2-0.6-0.2-0.9c0.1-0.7,0.6-1.1,1.2-1.2
				c-0.1-0.2-0.2-0.5-0.1-0.8c0.1-0.7,0.8-1.3,1.5-1.2c0-0.2,0-0.3,0-0.5c0.1-0.6,0.5-1,1-1.2c0-0.1,0-0.3,0-0.4
				c0.1-0.7,0.7-1.2,1.4-1.2c0-0.1,0-0.3,0-0.4c0.1-0.8,0.8-1.3,1.6-1.2c0,0,0.1,0,0.1,0c-0.1-0.2-0.2-0.5-0.1-0.8
				c0.1-0.8,0.8-1.3,1.6-1.2c0.1,0,0.1,0,0.2,0.1c0-0.1,0-0.2,0-0.3c0.1-0.8,0.8-1.3,1.6-1.2c0.1-0.8,0.8-1.3,1.6-1.2
				c0.1,0,0.1,0,0.2,0.1c0,0,0,0,0,0c0.1-0.8,0.8-1.3,1.6-1.2c0.1,0,0.1,0,0.2,0c0,0,0,0,0,0c0.1-0.8,0.8-1.3,1.6-1.2
				c0.1,0,0.2,0,0.3,0.1c0.3-0.5,0.9-0.8,1.5-0.7c0.1,0,0.1,0,0.2,0c0.2-0.7,0.9-1.2,1.6-1.1c0.1,0,0.2,0,0.2,0.1
				c0.3-0.5,0.9-0.8,1.5-0.7c0.8,0.1,1.3,0.8,1.2,1.6C378.9,564.5,378.1,565.1,377.4,565z"/>
			<path class="st4" d="M379.3,564.1c-0.4-0.2-0.8-0.3-1.3-0.1c-11.9,4.6-17.1,12.1-19.3,17.6c-2.5,6-2.1,10.8-2,11.1
				c0.1,0.8,0.8,1.4,1.6,1.4c0.8-0.1,1.4-0.8,1.4-1.6c-0.1-0.7-1.2-17.6,19.4-25.6c0.8-0.3,1.2-1.2,0.9-1.9
				C379.9,564.6,379.6,564.3,379.3,564.1z"/>
			<path class="st3" d="M387.4,586.7c0.1,0.3,0,0.7-0.1,1c-0.3,0.5-0.9,0.8-1.4,0.7c0.1,0.3,0,0.7-0.1,1c-0.3,0.5-0.8,0.7-1.3,0.7
				c0.1,0.4,0.1,0.8-0.1,1.1c-0.4,0.7-1.3,0.9-1.9,0.5c0,0,0,0,0,0c0.1,0.3,0,0.7-0.2,1c-0.3,0.6-1,0.8-1.6,0.7
				c0.1,0.4,0.1,0.8-0.1,1.1c-0.3,0.6-1,0.9-1.7,0.7c0,0.3,0,0.6-0.2,0.9c-0.4,0.7-1.2,0.9-1.9,0.6c0,0.2-0.1,0.4-0.2,0.6
				c-0.3,0.5-0.9,0.8-1.4,0.7c0,0.2-0.1,0.4-0.2,0.6c-0.4,0.6-1.1,0.9-1.7,0.6c0.1,0.3,0,0.7-0.1,1c-0.4,0.7-1.3,0.9-1.9,0.5
				c0,0,0,0,0,0c0,0.2-0.1,0.5-0.2,0.7c-0.4,0.7-1.3,0.9-1.9,0.5c-0.7-0.4-0.9-1.3-0.5-1.9c0.4-0.7,1.3-0.9,1.9-0.5c0,0,0,0,0,0
				c0-0.2,0.1-0.5,0.2-0.7c0.4-0.6,1.1-0.9,1.7-0.6c-0.1-0.3,0-0.7,0.1-1c0.3-0.5,0.9-0.8,1.4-0.7c0-0.2,0.1-0.4,0.2-0.6
				c0.4-0.7,1.2-0.9,1.9-0.6c0-0.2,0.1-0.4,0.2-0.6c0.3-0.6,1-0.9,1.7-0.7c0-0.3,0-0.6,0.2-0.9c0.3-0.6,1-0.8,1.6-0.7
				c-0.1-0.4-0.1-0.8,0.1-1.1c0.4-0.7,1.3-0.9,1.9-0.5c0,0,0,0,0,0c-0.1-0.3,0-0.7,0.2-1c0.3-0.5,0.8-0.7,1.3-0.7
				c-0.1-0.4-0.1-0.8,0.1-1.1c0.3-0.5,0.9-0.8,1.4-0.7c-0.1-0.3,0-0.7,0.1-1c0.3-0.6,0.9-0.8,1.5-0.7c-0.1-0.3,0-0.7,0.1-1
				c0.4-0.7,1.3-0.9,1.9-0.5c0.7,0.4,0.9,1.3,0.5,1.9C388.6,586.6,388,586.8,387.4,586.7z"/>
			<path class="st4" d="M390.5,578c-0.6-0.4-1.5-0.2-1.9,0.4c-9.9,12.9-21.4,19.9-21.5,20c-0.7,0.4-0.9,1.4-0.5,2.1
				c0.4,0.7,1.4,0.9,2.1,0.5c0.5-0.3,12-7.4,22.3-20.7c0.5-0.7,0.4-1.6-0.3-2.1C390.6,578.1,390.5,578.1,390.5,578z"/>
			<g>
				<path class="st4" d="M360.8,594c-1-0.6-1.4-1.8-0.8-2.9c0.3-0.4,0.6-0.8,1.1-0.9c-0.1-0.5,0-1,0.2-1.4c0.1-0.1,0.1-0.2,0.2-0.3
					c-0.3-0.6-0.3-1.3,0.1-1.9c0.4-0.7,1.1-1,1.8-1.1c-0.3-0.6-0.4-1.4,0-2.1c0.4-0.6,1-1,1.7-1.1c0-0.4,0-0.8,0.3-1.2
					c0.6-1,1.8-1.4,2.9-0.8c1,0.6,1.4,1.8,0.8,2.9c-0.4,0.6-1,1-1.7,1.1c0,0.4,0,0.8-0.3,1.2c-0.4,0.7,3.8,4,3.1,4
					c0.3,0.6-4.5-1.5-4.9-0.9c-0.1,0.1-0.1,0.2-0.2,0.3c0.3,0.6,0.3,1.3-0.1,1.9c-0.3,0.4-0.6,0.8-1.1,0.9c0.1,0.5,0,1-0.2,1.4
					C363.1,594.3,361.8,594.6,360.8,594z"/>
				<path class="st4" d="M369.5,592.5c0.5,0.6,0.6,1.6,0.2,2.3c-0.6,1-1.8,1.4-2.9,0.8c-1-0.6-1.4-1.8-0.8-2.9
					c0.4-0.8,1.3-1.1,2.1-1c-0.5-0.6-0.6-1.6-0.2-2.3c0.3-0.5,0.7-0.8,1.3-1c-0.1-0.5-0.1-1.1,0.2-1.6c0.3-0.5,0.7-0.8,1.2-1
					c-0.1-0.5-0.1-1.1,0.2-1.6c0.6-1,1.8-1.4,2.9-0.8c1,0.6,1.4,1.8,0.8,2.9c-0.3,0.5-0.7,0.8-1.2,1c0.1,0.5,0.1,1.1-0.2,1.6
					c-0.3,0.5-0.7,0.8-1.3,1c0.1,0.5,0.1,1.1-0.2,1.6C371.1,592.3,370.3,592.6,369.5,592.5z"/>
			</g>
			<path class="st5" d="M369.1,581.7c0,0-4.3,4.9-5,8.9c-0.7,4-4,8-4,8s6.4-2.1,7.8-5c1.5-2.9,5.2-9.2,5.2-9.2L369.1,581.7z"/>
			<path class="st2" d="M385,577.2l3.8,0.4l1.4-2.5c0,0-10-14.5-11.2-22c-1.1-7.5-1.2-15.3-1.2-15.3l-2.3-1l-1.8,4.9l1.5,2.5
				l-2.6,0.1l1,3.5l1.1,0.4l-2.6,1.7l4.5,3.7l-3.7,1.7l5.2,3.3l-2.7,1.4l4.6,2.9l-1.5,2.6l4.3,2.1l-1.5,2.7l3.3,1.9l-1.9,2.9
				L385,577.2z"/>
			<path class="st4" d="M375.5,535c-1-0.6-1.9-0.8-1.9-0.8c-0.4-0.1-0.8,0-1,0.4c-0.2,0.3-0.3,0.8-0.1,1.1c0.6,1,1.2,2.1,1.9,3.1
				c-0.2-0.1-0.4-0.1-0.4-0.1c-0.4-0.1-0.7,0-1,0.3c-0.2,0.3-0.3,0.6-0.2,1c0.4,1.2,1.1,2.4,1.7,3.3c-1.4-0.1-2.5,0.1-2.6,0.1
				c-0.3,0.1-0.6,0.2-0.7,0.5c-0.1,0.3-0.2,0.6,0,0.9c0.6,1.2,1.5,2.2,2.6,3.1c-1.2,0.2-2.2,0.5-2.5,0.6c-0.4,0.1-0.6,0.4-0.7,0.8
				c-0.1,0.4,0.1,0.7,0.4,1c1.2,0.9,3.1,2.1,4.6,3c-1,0.2-1.9,0.6-2.6,0.8c-0.3,0.1-0.5,0.4-0.6,0.7c-0.1,0.3,0,0.6,0.2,0.9
				c0.7,0.8,2.3,1.8,3.9,2.6c-0.9,0.5-1.5,1-1.6,1.1c-0.2,0.2-0.3,0.4-0.3,0.7c0,0.3,0.1,0.5,0.3,0.7c1.1,1,2.7,2,4.1,2.6
				c-0.5,0.3-1,0.6-1.4,0.9c-0.3,0.2-0.4,0.5-0.4,0.8c0,0.3,0.2,0.6,0.4,0.8c1.1,0.8,2.9,1.6,4.3,2.2c-0.6,0.4-1,0.7-1.2,0.8
				c-0.4,0.3-0.5,1-0.2,1.4c0.7,0.8,1.7,1.6,2.8,2.2c0,0,0,0,0,0c-0.6,0.3-1,0.6-1,0.6c-0.3,0.3-0.5,0.7-0.3,1.1
				c0.5,1.2,1.4,2.2,2.4,2.9c-0.3,0.2-0.5,0.3-0.5,0.3c-0.3,0.3-0.4,0.7-0.3,1.1c1.3,4.1,5.2,4.5,5.4,4.5c0.5,0,1-0.4,1.1-0.9
				c0-0.5-0.4-1-0.9-1.1c-0.1,0-2.3-0.3-3.3-2.4c0.4-0.1,0.9-0.2,1.5,0c0.2,0.1,0.3,0.1,0.4,0.1c0.5,0.2,1.1-0.1,1.3-0.6
				c0.2-0.5-0.1-1.1-0.6-1.3c-0.1-0.1-0.3-0.1-0.4-0.2c-1-0.4-2.8-1.3-3.7-2.6c0.5-0.3,1.2-0.5,2-0.4c0.7,0.3,1.2,0.4,1.2,0.4
				c0.5,0.1,1-0.1,1.2-0.6c0.2-0.5,0-1-0.4-1.3c-0.5-0.3-1-0.5-1.5-0.6c-1.2-0.5-2.8-1.2-3.9-2.1c0.6-0.4,1.3-0.8,1.6-0.8
				c0.5,0,0.8-0.4,0.9-0.9c0.1-0.5-0.2-0.9-0.6-1.1c0,0-2.6-1-4.6-2c0.7-0.4,1.3-0.6,1.5-0.6c0.5,0.1,1-0.2,1.2-0.7
				c0.2-0.5-0.1-1-0.6-1.2c0,0-2.9-1.1-4.9-2.5c0.6-0.3,1.6-0.6,2.6-0.3c0.5,0.2,1.1-0.1,1.3-0.6c0.2-0.5-0.1-1.1-0.5-1.3
				c-1.6-0.7-3.7-1.7-5.1-2.6c1.3-0.4,2.5-0.6,2.9-0.5c0.5,0.2,1,0,1.3-0.4c0.3-0.5,0.1-1.1-0.4-1.3c0,0-2.9-1.8-5.2-3.3
				c1.1-0.2,2.3-0.3,3,0c0.2,0.1,0.3,0.1,0.3,0.2c0.5,0.2,1.1,0,1.3-0.5c0.2-0.5,0.1-1.1-0.4-1.3c-0.1-0.1-0.3-0.1-0.4-0.2
				c-0.7-0.4-2.6-1.3-3.9-2.7c0.9,0,2.1,0.2,2.9,0.6c0,0,0,0,0,0c0.4,0.2,1,0.1,1.3-0.3c0.3-0.4,0.3-1-0.1-1.3c0,0-1.3-1.3-2.3-2.9
				c0.3,0.1,0.5,0.2,0.8,0.4c0.4,0.2,0.9,0.1,1.2-0.2c0.3-0.3,0.3-0.8,0.1-1.2c0,0-0.6-0.8-1.3-1.9c0,0,0,0,0,0.1
				c0.3,0.4,1,0.5,1.4,0.2c0.4-0.3,0.5-1,0.2-1.4C377.3,536.1,376.3,535.4,375.5,535z"/>
			<path class="st6" d="M378.3,533.7c0,0,4.5,5.3,4.6,1.4c0,0,2.7,0.9,3.3,2.2s2.7,2.4,3.8,2.3c1.1-0.1,2.3-1.1,2.8,0
				c0.5,1.1,2.7,2.8,2.7,2.8s-1-0.6-2.5,0.2c-1.5,0.8-5.5,2.3-5.5,2.3l2,19.7c0,0-2.1,3-2.2,5.7s-8.3-15.5-8.3-15.5l-1.7-17
				L378.3,533.7z"/>
			<path class="st5" d="M389.1,565.9c0,0-2.7-1.1-1.7-3.9c0,0-1.9-0.4-1.5-2c0,0-2.9-0.9-2.8-4c0,0-1.3-0.7-0.9-2
				c0,0-1.1-0.8,0.2-2.2c0,0-1.4-1-0.3-2.7c0,0-1.4-0.9-0.8-2.8c0,0-1.3-1.1-0.5-2.8c0,0-1.1-1.8,0.1-4.1l-0.4-2.2
				c0,0,4.1,2.4,5.3,3c0,0,1.5,2,3.2,1.5c1.6-0.5,0.8,2.6,2.4,3.1c0,0,0.2,4.2,1.7,4.9c1.5,0.6,2.4,8.6,2.4,8.6l-3.8,6.1
				L389.1,565.9z"/>
			<path class="st7" d="M380.6,524.1l-2.9-0.9c-0.1,0.3-9,29.7,12,54.1l2.3-2C372.1,552.2,380.5,524.4,380.6,524.1z"/>
			<path class="st8" d="M392.4,555.4c0,0-3.9-6.9-8.4-2.5c0,0,2-0.5,3.3,0.4c0,0,0.5,1.4,2.1,1.3c0,0-0.7,1.1,0.4,1.3
				C390.7,556.1,392.4,555.4,392.4,555.4z"/>
			<path class="st8" d="M389.8,565.1c0,0-2.7-3.3-2.2-5.4c0,0-3-2.6-2.9-5c0,0,2.3,0.1,3,1.7c0.8,1.6,5.8,0.1,5.8,0.1
				S389.3,562,389.8,565.1z"/>
			<circle class="st9" cx="389.3" cy="559" r="0.9"/>
			<path class="st8" d="M392.8,553.7c0,0-3.8-5.4-8.5-2.5c0,0-1-0.4-0.4-1.5c0,0-3.1-5.8-1.7-10.6c0,0,1.2,1.2,2.9,1.2
				c0,0,2.4-1.3,4.3,0.2c0,0-2.9,0.1-3.3,0.8c0,0-0.4,5.4,4.6,8.5c0,0,0.4-2.4,2.3-1c0,0,2.1-1.4,2.9,0.6L392.8,553.7z"/>
			<path class="st9" d="M383.3,549.6l1.3,0.4c0,0,2.8-1.7,4.9-0.4C389.5,549.6,386.3,546.2,383.3,549.6z"/>
			<path class="st9" d="M386.2,546.4c0,0-1.5,1.5-3.8,0.2C382.4,546.6,383.1,544.5,386.2,546.4z"/>
			<path class="st9" d="M385.3,544.3c0,0-1.6,0.3-2.6-1.4C382.7,542.9,384.2,541.4,385.3,544.3z"/>
			<path class="st9" d="M386,541.3c0.1-0.2,0.4-0.3,0.8-0.4c0,0,0.3,3.8,1.5,7C385.8,544.8,386,541.3,386,541.3z"/>
			<path class="st8" d="M392,546.7c0,0-2.3,1.1-3-1.2C389,545.5,390.7,544.4,392,546.7z"/>
			<path class="st9" d="M390.3,548.4c0,0,0.8-2.3,2.4-1.3L390.3,548.4z"/>
			<path class="st7" d="M370.1,578c-0.1-0.1-0.2-0.1-0.3-0.1c-0.5-0.1-1.1,0.3-1.1,0.8c-0.2,1.1,0,3,1.4,3.8
				c0.2,0.7,0.6,1.7,1.7,2.3c1,0.5,2.2,0.5,3.7-0.3c0.5-0.2,0.7-0.8,0.4-1.3c-0.2-0.5-0.8-0.7-1.3-0.4c-0.6,0.3-1.3,0.5-1.8,0.3
				c-0.6-0.3-0.8-1.1-0.8-1.4c-0.1-0.4-0.3-0.7-0.7-0.8c-0.7-0.2-0.6-1.8-0.5-1.8C370.6,578.6,370.4,578.2,370.1,578z"/>
			<path class="st4" d="M380.2,573.9c1.2,0.6,2,1.6,2.1,2.9c0.1,0.9-0.1,3-3.4,4.8c-0.7,0.4-1.5,0.9-1.6,1.7
				c-0.1,0.8,0.7,1.6,0.7,1.6c0.4,0.3,0.4,0.9,0.1,1.3c-0.3,0.4-0.8,0.5-1.3,0.3c-1.7-0.8-2.6-1.9-2.9-3.4c-0.3-1.3,0.1-2.6,0.6-3.7
				c-4.4,0.7-8.6-1.8-8.8-1.9c-0.5-0.3-0.6-0.9-0.3-1.3c0.3-0.5,0.8-0.6,1.3-0.4c0.2,0.1,4,1.9,6.8-1.5c1.4-1.6,2.7-2.4,4.1-2.2
				c0.4,0.1,0.8,0.2,1.2,0.4C379.5,572.9,380,573.5,380.2,573.9z M376.4,576.7c0.4-0.2,1-0.1,1.3,0.3c0.3,0.4,0.3,0.9,0,1.3
				c-0.5,0.5-1.4,1.9-1.7,3.3c0.4-0.6,1.1-1.2,2-1.7c1.6-0.8,2.4-1.9,2.4-2.9c0-0.6-0.5-1.1-1.1-1.3c-0.2-0.1-0.5-0.3-0.6-0.5
				c0,0-0.5-1-1.3-1.1c-0.6-0.1-1.4,0.5-2.3,1.5c-0.8,0.9-1.6,1.6-2.5,2C373.8,577.6,375.1,577.4,376.4,576.7z"/>
		</g>
	</g>
</g>
<g>
	<g>
		<path class="st1" d="M381.3,538.2c-3.1-0.3-2.6,5.3-2.6,5.3s1.3-2.3,2.8-1.8c1.5,0.5,1.4,10.8,0.9,14.9c-0.3,2.2-1.7,1.6-2.9,0.6
			c0.1,0.8,0.1,1.5,0.2,2.3c1.3,0.6,2.9,1.1,3.6,0.2C388.9,552.3,384.5,538.5,381.3,538.2z"/>
		<path d="M382,560.6c-0.7,0-1.6-0.3-2.6-0.8c-0.2-0.1-0.3-0.2-0.3-0.4c0-0.7-0.1-1.5-0.2-2.3c0-0.2,0.1-0.4,0.3-0.5
			c0.2-0.1,0.4-0.1,0.5,0.1c1.1,0.9,1.5,0.8,1.6,0.8c0.2-0.1,0.4-0.5,0.5-1c0.6-4.6,0.4-13.7-0.5-14.4c-1-0.3-2.1,1.6-2.1,1.6
			c-0.1,0.2-0.3,0.3-0.5,0.2c-0.2,0-0.4-0.2-0.4-0.4c0-0.2-0.3-3.7,1.2-5.2c0.5-0.5,1.2-0.7,1.9-0.6l0,0c1.6,0.2,2.8,2.5,3.4,3.8
			c1.9,4.4,3.2,12.9-1.1,18.4C383.3,560.4,382.7,560.6,382,560.6z M380.1,559.1c0.9,0.4,2.2,0.8,2.8,0.2c3.5-4.6,3.1-12.4,1-17.4
			c-1-2.3-2-3.1-2.5-3.2l0,0c-0.5-0.1-0.8,0.1-1.1,0.4c-0.6,0.6-0.9,1.9-0.9,3c0.6-0.6,1.5-1.2,2.4-0.8c2.1,0.7,1.6,12.6,1.2,15.5
			c-0.1,1-0.5,1.6-1.1,1.8c-0.5,0.2-1,0.1-1.7-0.3C380.1,558.5,380.1,558.8,380.1,559.1z"/>
	</g>
	<path d="M306.3,597.7c-0.2,0-0.4,0-0.5,0h-2.9c-1.1,0.1-3.6-3.4-13-17.2c-9.3-13.7-20.9-30.8-27.6-36.3
		c-11.3-9.2-22.4-7.3-22.5-7.3c-0.3,0.1-0.5-0.1-0.6-0.4c0-0.3,0.1-0.5,0.4-0.6c0.1,0,11.7-2,23.3,7.5c6.8,5.6,18.4,22.7,27.8,36.5
		c5.5,8.1,11.1,16.4,12.2,16.8l2.9,0c0,0,0.1,0,0.1,0c0,0,3.6,0.7,8.6-6.1c2.9-3.9,14.8-14.8,27.2-24c11.4-8.5,27-18.6,36.9-18.6
		c0.3,0,0.5,0.2,0.5,0.5s-0.2,0.5-0.5,0.5c-18,0-58.5,35.6-63.3,42.2C311,597.1,307.6,597.7,306.3,597.7z"/>
	<path d="M315,563.8c-2.8,0-5.6-0.3-8.3-1c-10.2-2.6-30.2-13.9-39.5-22.4c-11.1-10.1-25.8-8.3-25.9-8.3c-0.3,0-0.5-0.2-0.6-0.4
		c0-0.3,0.2-0.5,0.4-0.6c0.2,0,15.3-1.9,26.7,8.6c9.2,8.4,29,19.6,39.1,22.2c9.9,2.5,20.5,0.3,31.4-6.5c12.2-7.6,31.6-11,40.2-11.7
		c0.3,0,0.5,0.2,0.5,0.5c0,0.3-0.2,0.5-0.5,0.5c-8.5,0.7-27.7,4.1-39.8,11.6C330.6,561.3,322.6,563.8,315,563.8z"/>
	<g>
		<path d="M306.3,597.7c-0.2,0-0.4,0-0.5,0h-2.9c-1.1,0.1-3.6-3.4-13-17.2c-9.3-13.7-20.9-30.8-27.6-36.3
			c-11.3-9.2-22.4-7.3-22.5-7.3c-0.2,0-0.3,0-0.5-0.2c-0.1-0.1-0.2-0.3-0.1-0.5l1.4-4.7c0.1-0.2,0.2-0.3,0.4-0.4
			c0.2,0,15.3-1.9,26.7,8.6c9.2,8.4,29,19.6,39.1,22.2c9.9,2.5,20.5,0.3,31.4-6.5c12.2-7.6,31.6-11,40.2-11.7c0.1,0,0.3,0,0.4,0.1
			c0.1,0.1,0.2,0.2,0.2,0.4l0.2,4.4c0,0.1,0,0.3-0.1,0.4s-0.2,0.2-0.4,0.2c-18,0-58.5,35.6-63.3,42.2
			C311,597.1,307.6,597.7,306.3,597.7z M305.8,596.7c0,0,0.1,0,0.1,0c0,0,3.6,0.7,8.6-6.1c2.9-3.9,14.8-14.8,27.2-24
			c11.2-8.3,26.5-18.2,36.4-18.6l-0.1-3.3c-8.7,0.8-27.4,4.2-39.3,11.5c-11.1,7-21.9,9.2-32.1,6.6c-10.2-2.6-30.2-13.9-39.5-22.4
			c-10.2-9.3-23.4-8.5-25.6-8.3l-1.1,3.7c2.8-0.3,12.7-0.5,22.5,7.6c6.8,5.6,18.4,22.7,27.8,36.5c5.5,8.1,11.1,16.4,12.2,16.8
			L305.8,596.7z"/>
	</g>
	<g>
		<g>
			<path class="st1" d="M378.5,544.1c0,0-6.5-11.5-12-0.6c-5.5,10.8,0.5,23.3,4.3,21.9c3.8-1.4,7.9-16.9,7.9-16.9L378.5,544.1z
				 M372.2,557.8c-1.7,3.6-2.9,4.3-4.3-0.9c-1.4-5.3,0.5-11.3,2.8-13.7c2.2-2.5,5.1,1.3,5.1,1.3s0.5,2.1,0.6,3.3
				C376.5,548.9,373.9,554.2,372.2,557.8z"/>
			<path d="M370.2,566c-0.9,0-1.9-0.6-2.9-1.6c-3.1-3.5-5.6-12.6-1.3-21.1c1.6-3.2,3.6-4.9,5.7-4.9c3.9-0.1,7.1,5.3,7.2,5.5
				c0,0.1,0.1,0.1,0.1,0.2l0.2,4.4c0,0,0,0.1,0,0.1c-0.4,1.6-4.2,15.9-8.2,17.3C370.7,566,370.5,566,370.2,566z M371.9,539.3
				C371.8,539.3,371.8,539.3,371.9,539.3c-1.8,0-3.5,1.5-4.9,4.4c-3.9,7.7-1.9,16.6,1.1,20c0.5,0.6,1.6,1.6,2.5,1.2
				c2.9-1,6.4-12.2,7.6-16.5l-0.1-4.2C377.6,543.5,374.9,539.3,371.9,539.3z M369.9,561.2c0,0-0.1,0-0.1,0c-1-0.1-1.7-1.3-2.4-4.2
				c-1.4-5.3,0.4-11.5,2.9-14.2c0.6-0.7,1.4-1,2.2-1c1.9,0.1,3.6,2.2,3.7,2.3c0,0.1,0.1,0.1,0.1,0.2c0,0.1,0.5,2.2,0.6,3.4
				c0.1,1.1-1.3,4.1-3.4,8.6l-0.8,1.7l0,0C371.7,559.9,370.9,561.2,369.9,561.2z M372.4,542.8c-0.5,0-1,0.2-1.4,0.7
				c-2,2.2-4,8-2.6,13.2c0.8,3.2,1.4,3.4,1.6,3.4c0.1,0,0.6-0.1,1.8-2.6l0.8-1.7c1.4-2.9,3.4-7.2,3.3-8.1c-0.1-1-0.5-2.7-0.6-3.2
				C375,544.3,373.7,542.9,372.4,542.8C372.4,542.8,372.4,542.8,372.4,542.8z M372.2,557.8L372.2,557.8L372.2,557.8z"/>
		</g>
	</g>
	<g>
		<path class="st1" d="M386.4,581c-3-7.9-0.4-14.1-1.7-23.8c-1.3-9.7-6.1-11.3-6.1-11.3l0.1,2.5c2.7,3.1,4.6,11.1,3.2,19.3
			c-1.3,8.2,2.4,16.4,2.4,16.4c1.1,4.5-4.3,42.1-4.3,42.1h2.5C382.6,626.3,389.7,589.7,386.4,581z"/>
		<path d="M382.6,626.8H380c-0.1,0-0.3-0.1-0.4-0.2c-0.1-0.1-0.1-0.3-0.1-0.4c0.1-0.4,5.4-37.5,4.3-41.9c-0.1-0.2-3.8-8.3-2.4-16.6
			c1.3-8.1-0.5-16-3.1-18.9c-0.1-0.1-0.1-0.2-0.1-0.3l-0.1-2.5c0-0.2,0.1-0.3,0.2-0.4s0.3-0.1,0.5-0.1c0.2,0.1,5.1,1.8,6.4,11.7
			c0.5,4,0.4,7.4,0.3,10.7c-0.2,4.5-0.3,8.5,1.4,13c0,0,0,0,0,0c3.3,8.8-3.5,44.1-3.8,45.5C383,626.6,382.8,626.8,382.6,626.8z
			 M380.6,625.8h1.6c0.8-4,6.8-36.6,3.8-44.6c-1.8-4.7-1.7-8.9-1.5-13.4c0.1-3.2,0.3-6.6-0.3-10.5c-0.9-7-3.7-9.6-5-10.5l0.1,1.5
			c2.6,3.1,4.6,11,3.2,19.6c-1.3,8,2.3,16,2.4,16.1C385.8,588.4,381.3,620.9,380.6,625.8z"/>
	</g>
	<g>
		<g>
			<g>
				<path class="st1" d="M221.6,551c-4.7,9.8-2,15.8,1.3,15.7c3.3-0.1,6.9-1.9,6.9-1.9l8.4-29.3C238.2,535.4,226.4,541.1,221.6,551z
					 M230,562.1c-1,0.8-6.1,2.9-7.6,0.4s0-6.3,3.2-12.5c3.2-6.2,8.4-8.3,8.4-8.3l1.6-0.7l-0.2,2.4L230,562.1z"/>
				<path d="M222.8,567.1c-1.2,0-2.3-0.7-3.1-1.8c-1.6-2.4-2-7.5,1.4-14.6c4.8-9.9,16.4-15.5,16.9-15.8c0.2-0.1,0.4-0.1,0.5,0.1
					c0.2,0.1,0.2,0.3,0.2,0.5l-8.4,29.3c0,0.1-0.1,0.2-0.3,0.3c-0.2,0.1-3.8,1.9-7.1,2C222.9,567.1,222.9,567.1,222.8,567.1z
					 M237.4,536.4c-3,1.6-11.6,6.9-15.4,14.8c-3.2,6.7-2.9,11.4-1.4,13.6c0.6,0.9,1.4,1.4,2.3,1.4c2.7-0.1,5.7-1.4,6.5-1.8l0.5-1.6
					c-1.1,0.7-3.8,1.7-5.8,1.4c-1-0.2-1.7-0.6-2.2-1.4c-1.6-2.7-0.1-6.7,3.2-13c3.3-6.2,8.5-8.5,8.7-8.6l1.6-0.7
					c0.2-0.1,0.3-0.1,0.5,0c0.1,0.1,0.2,0.2,0.2,0.4L237.4,536.4z M235.1,541.7l-0.9,0.4c-0.1,0-5.1,2.2-8.2,8.1
					c-3.1,5.8-4.6,9.7-3.3,12c0.3,0.5,0.8,0.8,1.5,0.9c1.8,0.3,4.4-0.7,5.3-1.3l5.5-18.6L235.1,541.7z M230,562.1L230,562.1
					L230,562.1z"/>
			</g>
		</g>
		<g>
			<g>
				<path class="st1" d="M253.1,514.5c-6.1,1.7-10.9,15.1-10.9,15.1l1.9,2.7c0,0,12.6-7.3,15.3-11.7
					C262.1,516.2,259.2,512.8,253.1,514.5z M253.4,521.4c-2.4,2.7-7.2,5.8-7.2,5.8v-1.1c0,0,6-9.1,8.2-9.5
					C256.6,516.2,255.8,518.7,253.4,521.4z"/>
				<path d="M244.1,532.7c-0.2,0-0.3-0.1-0.4-0.2l-1.9-2.7c-0.1-0.1-0.1-0.3-0.1-0.5c0.2-0.6,5-13.6,11.3-15.4l0,0
					c3.2-0.9,5.9-0.5,7.2,1.2c1.1,1.4,1,3.5-0.3,5.6c-2.7,4.4-15,11.5-15.5,11.8C244.3,532.7,244.2,532.7,244.1,532.7z M242.7,529.5
					l1.5,2.1c2.1-1.3,12.4-7.5,14.7-11.3c1.1-1.8,1.2-3.4,0.4-4.5c-1-1.3-3.3-1.7-6.1-0.9l0,0C247.9,516.5,243.4,527.7,242.7,529.5z
					 M246.2,527.7c-0.1,0-0.2,0-0.2-0.1c-0.2-0.1-0.3-0.3-0.3-0.4v-1.1c0-0.1,0-0.2,0.1-0.3c1-1.5,6.2-9.3,8.5-9.8
					c1.1-0.2,1.5,0.2,1.7,0.5c0.7,1.2-0.7,3.4-2.2,5.1c-2.4,2.7-7.1,5.8-7.3,5.9C246.4,527.7,246.3,527.7,246.2,527.7z M254.8,517.1
					c-0.1,0-0.2,0-0.4,0c-1.4,0.3-5.5,5.7-7.8,9.1c1.5-1,4.6-3.3,6.3-5.2l0,0c1.9-2.1,2.3-3.6,2.1-3.9
					C255.1,517.1,255,517.1,254.8,517.1z"/>
			</g>
		</g>
		<g>
			<path class="st1" d="M242.1,529.6c0,0-3.2-0.6-3.5,2.7c-0.2,3.2-4.5,27.1-3.6,45.4c1,18.3,1.4,43,1.4,43h3.1c0,0-1-42.7-1-49.3
				c-0.1-6.6,2.1-32.1,2.6-34.4c0.4-2.3,3-4.7,3-4.7L242.1,529.6z"/>
			<path d="M239.6,621.1h-3.1c-0.3,0-0.5-0.2-0.5-0.5c0-0.2-0.4-24.9-1.4-43c-0.8-14.7,1.8-32.7,3-41.3c0.3-2,0.5-3.5,0.5-4.1
				c0.1-1.1,0.5-1.9,1.2-2.5c1.2-0.9,2.8-0.7,2.9-0.6c0.1,0,0.2,0.1,0.3,0.2l1.9,2.7c0.1,0.2,0.1,0.5-0.1,0.7c0,0-2.4,2.4-2.8,4.4
				c-0.5,2.3-2.6,27.6-2.6,34.3c0,6.6,1,48.9,1,49.3c0,0.1,0,0.3-0.1,0.4C239.8,621.1,239.7,621.1,239.6,621.1z M237,620.1h2.1
				c-0.1-4.9-1-42.6-1-48.8c-0.1-6.7,2.1-32.2,2.6-34.5c0.4-1.9,2.1-3.9,2.8-4.7l-1.6-2.2c-0.4,0-1.3,0-1.9,0.5
				c-0.5,0.4-0.7,1-0.8,1.8c0,0.7-0.3,2.1-0.6,4.2c-1.2,8.6-3.8,26.5-3,41.1C236.5,594.3,236.9,616.5,237,620.1z"/>
		</g>
		<g>
			<path class="st1" d="M237.6,540.4c0,0-4.1,3.8-5.5,11.8c-1.5,8-5.1,22-5.1,27s-2.6,25.8-3,30.6s-0.4,4.9-0.4,4.9h3.1
				c0,0,0.7-8.5,1.4-13.4s1-16.9,1.2-22.5s4.3-22.6,4.7-25.2c0.5-2.6,2.4-4.1,2.4-4.1L237.6,540.4z"/>
			<path d="M226.6,615.2h-3.1c-0.1,0-0.3-0.1-0.4-0.2c-0.1-0.1-0.1-0.2-0.1-0.4l0.4-4.9c0.1-1.7,0.5-5.2,1-9.4c0.9-8,2-18,2-21.2
				c0-3.3,1.6-10.4,3.1-17.2c0.8-3.7,1.6-7.1,2.1-9.9c1.5-8.1,5.5-11.9,5.7-12.1c0.2-0.1,0.4-0.2,0.6-0.1c0.2,0.1,0.3,0.3,0.3,0.5
				l-1.2,9.2c0,0.1-0.1,0.2-0.2,0.3c0,0-1.8,1.5-2.2,3.8c-0.1,0.6-0.4,1.8-0.7,3.4c-1.3,6-3.9,17.3-4,21.6l0,1.3
				c-0.2,5.8-0.5,16.7-1.2,21.3c-0.7,4.8-1.4,13.3-1.4,13.3C227.1,615,226.9,615.2,226.6,615.2z M224.1,614.2h2.1
				c0.2-1.8,0.8-8.8,1.4-12.9c0.7-4.5,1-15.3,1.2-21.1l0-1.3c0.1-4.4,2.7-15.8,4-21.8c0.4-1.6,0.6-2.9,0.7-3.4
				c0.4-2.3,1.9-3.8,2.4-4.2l0.9-7.3c-1.3,1.7-3.4,5.1-4.3,10.3c-0.5,2.8-1.3,6.3-2.1,9.9c-1.5,6.8-3,13.8-3,17
				c0,3.3-1.1,13.3-2,21.3c-0.5,4.1-0.9,7.7-1,9.4L224.1,614.2z"/>
		</g>
	</g>
</g>
</svg>
