<?xml version="1.0" encoding="utf-8"?>
<!-- Generator: Adobe Illustrator 27.0.0, SVG Export Plug-In . SVG Version: 6.00 Build 0)  -->
<svg version="1.1" id="Layer_1" xmlns="http://www.w3.org/2000/svg" xmlns:xlink="http://www.w3.org/1999/xlink" x="0px" y="0px"
	 viewBox="0 0 600 1200" style="enable-background:new 0 0 600 1200;" xml:space="preserve">
<style type="text/css">
	.st0{fill:#DEDEE2;stroke:#000000;stroke-linecap:round;stroke-linejoin:round;stroke-miterlimit:10;}
</style>
<path class="st0" d="M274,373.6c0.1,0,0.2,0,0.4,0c0.8-0.2,1.3-1,1.1-1.8l-5.7-22.3c-0.9,0.4-1.9,0.8-2.8,1.1l5.6,21.9
	C272.7,373.2,273.4,373.6,274,373.6z"/>
<path class="st0" d="M278,373.6C278,373.6,278.1,373.6,278,373.6c0.9,0,1.6-0.6,1.6-1.4l1.2-27.1c-1,0.4-2,0.8-3.1,1.2l-1.1,25.7
	C276.6,372.8,277.2,373.5,278,373.6z"/>
<path class="st0" d="M361.8,377c0.1,0,0.3,0,0.4,0c0.7,0,1.2-0.5,1.4-1.2l4.9-26.8c-1-0.3-1.9-0.5-2.9-0.8l-5,27
	C360.5,376.1,361,376.9,361.8,377z"/>
<path class="st0" d="M358.7,377C358.7,377,358.8,377,358.7,377c0.9-0.1,1.5-0.8,1.4-1.6l-1.3-28.8c0,0,0,0,0,0c-1-0.2-2-0.5-3-0.7
	l1.3,29.6C357.2,376.4,357.9,377,358.7,377z"/>
<rect x="299.6" y="431.3" transform="matrix(0.9997 2.480109e-02 -2.480109e-02 0.9997 10.8232 -7.7715)" class="st0" width="38.3" height="2.3"/>
<path class="st0" d="M279.6,372.1h-7.1c0,0-5.8,20.6-8,35.1c-2.2,14.5,2.6,24.4,12.8,26.5s23,0.6,27.1-0.5
	C304.4,433.3,278.7,398.6,279.6,372.1z"/>
<path class="st0" d="M357.2,375.9h6.1c0,0,4.5,17.1,6.3,20.5s8.5,17.5,0.8,30.5c-7.2,12-37.1,7-37.1,7S357.2,417,357.2,375.9z"/>
</svg>
