<?xml version="1.0" encoding="utf-8"?>
<!-- Generator: Adobe Illustrator 27.0.0, SVG Export Plug-In . SVG Version: 6.00 Build 0)  -->
<svg version="1.1" id="Layer_1" xmlns="http://www.w3.org/2000/svg" xmlns:xlink="http://www.w3.org/1999/xlink" x="0px" y="0px"
	 viewBox="0 0 600 1200" style="enable-background:new 0 0 600 1200;" xml:space="preserve">
<style type="text/css">
	.st0{fill:none;stroke:#000000;stroke-linecap:round;stroke-linejoin:round;stroke-miterlimit:10;}
	.st1{fill:#7F374F;}
	.st2{clip-path:url(#SVGID_00000131331396293953077890000010771640254629732998_);}
	.st3{fill:#202B3D;stroke:#909CAA;stroke-miterlimit:10;}
	.st4{fill:none;}
</style>
<g>
	<path class="st0" d="M265.5,407.4"/>
	<path class="st0" d="M370,396.7"/>
	<path class="st1" d="M280.5,345.8l-4.9,2c-4.4,15.8-10.1,56-10.1,59.7l0,0c0,0-0.6,21.6,12.1,26.8c8.1,3.3,15.2,2.3,20.3,0.2l0,0
		l51.9,0l0,0c8.6-0.3,16.6-3.5,21.3-9.8c8.9-12-1.2-27.8-1.2-27.8c-1-5.2-5.4-40.6-7.9-49.4l-4.5-1.1l1.8,42.4
		c0,0-20.5,11.5-39.1,11.5c-18.7,0-41.7-10.8-41.7-10.8L280.5,345.8z"/>
	<g>
		<defs>
			<path id="SVGID_1_" d="M280.5,345.8l-4.9,2c-4.4,15.8-10.1,56-10.1,59.7l0,0c0,0-0.6,21.6,12.1,26.8c8.1,3.3,15.2,2.3,20.3,0.2
				l0,0l51.9,0l0,0c8.6-0.3,16.6-3.5,21.3-9.8c8.9-12-1.2-27.8-1.2-27.8c-1-5.2-5.4-40.6-7.9-49.4l-4.5-1.1l1.8,42.4
				c0,0-20.5,11.5-39.1,11.5c-18.7,0-41.7-10.8-41.7-10.8L280.5,345.8z"/>
		</defs>
		<clipPath id="SVGID_00000142870635799583222280000011541940529420593082_">
			<use xlink:href="#SVGID_1_"  style="overflow:visible;"/>
		</clipPath>
		<g style="clip-path:url(#SVGID_00000142870635799583222280000011541940529420593082_);">
			
				<rect x="225.1" y="148.9" transform="matrix(0.7633 0.646 -0.646 0.7633 285.9168 -61.2942)" class="st3" width="3" height="421.3"/>
			
				<rect x="227.4" y="150.9" transform="matrix(0.7633 0.646 -0.646 0.7633 287.7341 -62.3282)" class="st3" width="3" height="421.3"/>
			
				<rect x="229.7" y="152.9" transform="matrix(0.7633 0.646 -0.646 0.7633 289.5515 -63.3622)" class="st3" width="3" height="421.3"/>
			
				<rect x="232.1" y="154.8" transform="matrix(0.7633 0.646 -0.646 0.7633 291.3688 -64.3963)" class="st3" width="3" height="421.3"/>
			
				<rect x="234.4" y="156.8" transform="matrix(0.7633 0.646 -0.646 0.7633 293.1862 -65.4303)" class="st3" width="3" height="421.3"/>
			
				<rect x="236.7" y="158.8" transform="matrix(0.7633 0.646 -0.646 0.7633 295.0035 -66.4643)" class="st3" width="3" height="421.3"/>
			
				<rect x="239" y="160.7" transform="matrix(0.7633 0.646 -0.646 0.7633 296.8209 -67.4984)" class="st3" width="3" height="421.3"/>
			
				<rect x="241.3" y="162.7" transform="matrix(0.7633 0.646 -0.646 0.7633 298.6382 -68.5324)" class="st3" width="3" height="421.3"/>
			
				<rect x="243.7" y="164.6" transform="matrix(0.7633 0.646 -0.646 0.7633 300.4556 -69.5665)" class="st3" width="3" height="421.3"/>
			
				<rect x="246" y="166.6" transform="matrix(0.7633 0.646 -0.646 0.7633 302.273 -70.6005)" class="st3" width="3" height="421.3"/>
			
				<rect x="248.3" y="168.6" transform="matrix(0.7633 0.646 -0.646 0.7633 304.0903 -71.6345)" class="st3" width="3" height="421.3"/>
			
				<rect x="250.6" y="170.5" transform="matrix(0.7633 0.646 -0.646 0.7633 305.9077 -72.6686)" class="st3" width="3" height="421.3"/>
			
				<rect x="252.9" y="172.5" transform="matrix(0.7633 0.646 -0.646 0.7633 307.725 -73.7026)" class="st3" width="3" height="421.3"/>
			
				<rect x="255.3" y="174.5" transform="matrix(0.7633 0.646 -0.646 0.7633 309.5424 -74.7366)" class="st3" width="3" height="421.3"/>
			
				<rect x="257.6" y="176.4" transform="matrix(0.7633 0.646 -0.646 0.7633 311.3597 -75.7707)" class="st3" width="3" height="421.3"/>
			
				<rect x="259.9" y="178.4" transform="matrix(0.7633 0.646 -0.646 0.7633 313.1771 -76.8047)" class="st3" width="3" height="421.3"/>
			
				<rect x="262.2" y="180.4" transform="matrix(0.7633 0.646 -0.646 0.7633 314.9944 -77.8387)" class="st3" width="3" height="421.3"/>
			
				<rect x="264.5" y="182.3" transform="matrix(0.7633 0.646 -0.646 0.7633 316.8118 -78.8728)" class="st3" width="3" height="421.3"/>
			
				<rect x="266.9" y="184.3" transform="matrix(0.7633 0.646 -0.646 0.7633 318.6292 -79.9068)" class="st3" width="3" height="421.3"/>
			
				<rect x="269.2" y="186.2" transform="matrix(0.7633 0.646 -0.646 0.7633 320.4465 -80.9409)" class="st3" width="3" height="421.3"/>
			
				<rect x="271.5" y="188.2" transform="matrix(0.7633 0.646 -0.646 0.7633 322.2639 -81.9749)" class="st3" width="3" height="421.3"/>
			
				<rect x="273.8" y="190.2" transform="matrix(0.7633 0.646 -0.646 0.7633 324.0812 -83.0089)" class="st3" width="3" height="421.3"/>
			
				<rect x="276.1" y="192.1" transform="matrix(0.7633 0.646 -0.646 0.7633 325.8986 -84.043)" class="st3" width="3" height="421.3"/>
			
				<rect x="278.5" y="194.1" transform="matrix(0.7633 0.646 -0.646 0.7633 327.7159 -85.077)" class="st3" width="3" height="421.3"/>
			
				<rect x="280.8" y="196.1" transform="matrix(0.7633 0.646 -0.646 0.7633 329.5333 -86.111)" class="st3" width="3" height="421.3"/>
			
				<rect x="283.1" y="198" transform="matrix(0.7633 0.646 -0.646 0.7633 331.3506 -87.1451)" class="st3" width="3" height="421.3"/>
			
				<rect x="285.4" y="200" transform="matrix(0.7633 0.646 -0.646 0.7633 333.168 -88.1791)" class="st3" width="3" height="421.3"/>
			
				<rect x="287.7" y="202" transform="matrix(0.7633 0.646 -0.646 0.7633 334.9854 -89.2132)" class="st3" width="3" height="421.3"/>
			
				<rect x="290.1" y="203.9" transform="matrix(0.7633 0.646 -0.646 0.7633 336.8027 -90.2472)" class="st3" width="3" height="421.3"/>
			
				<rect x="292.4" y="205.9" transform="matrix(0.7633 0.646 -0.646 0.7633 338.6201 -91.2812)" class="st3" width="3" height="421.3"/>
			
				<rect x="294.7" y="207.8" transform="matrix(0.7633 0.646 -0.646 0.7633 340.4374 -92.3153)" class="st3" width="3" height="421.3"/>
			
				<rect x="297" y="209.8" transform="matrix(0.7633 0.646 -0.646 0.7633 342.2548 -93.3493)" class="st3" width="3" height="421.3"/>
			
				<rect x="299.3" y="211.8" transform="matrix(0.7633 0.646 -0.646 0.7633 344.0721 -94.3833)" class="st3" width="3" height="421.3"/>
			
				<rect x="301.7" y="213.7" transform="matrix(0.7633 0.646 -0.646 0.7633 345.8895 -95.4174)" class="st3" width="3" height="421.3"/>
			
				<rect x="304" y="215.7" transform="matrix(0.7633 0.646 -0.646 0.7633 347.7068 -96.4514)" class="st3" width="3" height="421.3"/>
			
				<rect x="306.3" y="217.7" transform="matrix(0.7633 0.646 -0.646 0.7633 349.5242 -97.4855)" class="st3" width="3" height="421.3"/>
			
				<rect x="308.6" y="219.6" transform="matrix(0.7633 0.646 -0.646 0.7633 351.3415 -98.5195)" class="st3" width="3" height="421.3"/>
			
				<rect x="310.9" y="221.6" transform="matrix(0.7633 0.646 -0.646 0.7633 353.1589 -99.5535)" class="st3" width="3" height="421.3"/>
			
				<rect x="313.3" y="223.5" transform="matrix(0.7633 0.646 -0.646 0.7633 354.9762 -100.5876)" class="st3" width="3" height="421.3"/>
			
				<rect x="315.6" y="225.5" transform="matrix(0.7633 0.646 -0.646 0.7633 356.7936 -101.6216)" class="st3" width="3" height="421.3"/>
			
				<rect x="317.9" y="227.5" transform="matrix(0.7633 0.646 -0.646 0.7633 358.6109 -102.6556)" class="st3" width="3" height="421.3"/>
			
				<rect x="320.2" y="229.4" transform="matrix(0.7633 0.646 -0.646 0.7633 360.4283 -103.6897)" class="st3" width="3" height="421.3"/>
			
				<rect x="322.5" y="231.4" transform="matrix(0.7633 0.646 -0.646 0.7633 362.2457 -104.7237)" class="st3" width="3" height="421.3"/>
			
				<rect x="324.9" y="233.4" transform="matrix(0.7633 0.646 -0.646 0.7633 364.063 -105.7577)" class="st3" width="3" height="421.3"/>
			
				<rect x="327.2" y="235.3" transform="matrix(0.7633 0.646 -0.646 0.7633 365.8804 -106.7918)" class="st3" width="3" height="421.3"/>
			
				<rect x="329.5" y="237.3" transform="matrix(0.7633 0.646 -0.646 0.7633 367.6977 -107.8258)" class="st3" width="3" height="421.3"/>
			
				<rect x="331.8" y="239.3" transform="matrix(0.7633 0.646 -0.646 0.7633 369.5151 -108.8599)" class="st3" width="3" height="421.3"/>
			
				<rect x="334.1" y="241.2" transform="matrix(0.7633 0.646 -0.646 0.7633 371.3324 -109.8939)" class="st3" width="3" height="421.3"/>
			
				<rect x="336.5" y="243.2" transform="matrix(0.7633 0.646 -0.646 0.7633 373.1498 -110.9279)" class="st3" width="3" height="421.3"/>
			
				<rect x="338.8" y="245.1" transform="matrix(0.7633 0.646 -0.646 0.7633 374.9671 -111.962)" class="st3" width="3" height="421.3"/>
			
				<rect x="341.1" y="247.1" transform="matrix(0.7633 0.646 -0.646 0.7633 376.7845 -112.996)" class="st3" width="3" height="421.3"/>
			
				<rect x="343.4" y="249.1" transform="matrix(0.7633 0.646 -0.646 0.7633 378.6018 -114.03)" class="st3" width="3" height="421.3"/>
			
				<rect x="345.7" y="251" transform="matrix(0.7633 0.646 -0.646 0.7633 380.4192 -115.0641)" class="st3" width="3" height="421.3"/>
			
				<rect x="348.1" y="253" transform="matrix(0.7633 0.646 -0.646 0.7633 382.2365 -116.0981)" class="st3" width="3" height="421.3"/>
			
				<rect x="350.4" y="255" transform="matrix(0.7633 0.646 -0.646 0.7633 384.0539 -117.1322)" class="st3" width="3" height="421.3"/>
			
				<rect x="352.7" y="256.9" transform="matrix(0.7633 0.646 -0.646 0.7633 385.8712 -118.1662)" class="st3" width="3" height="421.3"/>
			
				<rect x="355" y="258.9" transform="matrix(0.7633 0.646 -0.646 0.7633 387.6886 -119.2002)" class="st3" width="3" height="421.3"/>
			
				<rect x="357.3" y="260.9" transform="matrix(0.7633 0.646 -0.646 0.7633 389.506 -120.2343)" class="st3" width="3" height="421.3"/>
			
				<rect x="359.7" y="262.8" transform="matrix(0.7633 0.646 -0.646 0.7633 391.3233 -121.2683)" class="st3" width="3" height="421.3"/>
			
				<rect x="362" y="264.8" transform="matrix(0.7633 0.646 -0.646 0.7633 393.1407 -122.3023)" class="st3" width="3" height="421.3"/>
			
				<rect x="364.3" y="266.7" transform="matrix(0.7633 0.646 -0.646 0.7633 394.958 -123.3364)" class="st3" width="3" height="421.3"/>
			
				<rect x="366.6" y="268.7" transform="matrix(0.7633 0.646 -0.646 0.7633 396.7754 -124.3704)" class="st3" width="3" height="421.3"/>
			
				<rect x="368.9" y="270.7" transform="matrix(0.7633 0.646 -0.646 0.7633 398.5927 -125.4044)" class="st3" width="3" height="421.3"/>
			
				<rect x="371.3" y="272.6" transform="matrix(0.7633 0.646 -0.646 0.7633 400.4101 -126.4385)" class="st3" width="3" height="421.3"/>
			
				<rect x="373.6" y="274.6" transform="matrix(0.7633 0.646 -0.646 0.7633 402.2274 -127.4725)" class="st3" width="3" height="421.3"/>
			
				<rect x="375.9" y="276.6" transform="matrix(0.7633 0.646 -0.646 0.7633 404.0448 -128.5066)" class="st3" width="3" height="421.3"/>
			
				<rect x="378.2" y="278.5" transform="matrix(0.7633 0.646 -0.646 0.7633 405.8622 -129.5406)" class="st3" width="3" height="421.3"/>
			
				<rect x="380.5" y="280.5" transform="matrix(0.7633 0.646 -0.646 0.7633 407.6795 -130.5746)" class="st3" width="3" height="421.3"/>
			
				<rect x="382.9" y="282.4" transform="matrix(0.7633 0.646 -0.646 0.7633 409.4969 -131.6087)" class="st3" width="3" height="421.3"/>
			
				<rect x="385.2" y="284.4" transform="matrix(0.7633 0.646 -0.646 0.7633 411.3142 -132.6427)" class="st3" width="3" height="421.3"/>
			
				<rect x="387.5" y="286.4" transform="matrix(0.7633 0.646 -0.646 0.7633 413.1316 -133.6767)" class="st3" width="3" height="421.3"/>
		</g>
	</g>
	<g>
		<path class="st4" d="M362.8,348.1L362.8,348.1C362.7,348,362.7,348,362.8,348.1C362.7,348.1,362.7,348.1,362.8,348.1z"/>
		<path class="st4" d="M361.4,347.7l-0.6-0.1c-0.4-0.1-0.8-0.2-1.1-0.3c-0.5-0.1-1.1-0.3-1.6-0.4l1.8,41.7c0,0.2-0.1,0.4-0.3,0.5
			c-0.2,0.1-20.8,11.6-39.4,11.6c-18.6,0-41.7-10.8-42-10.9c-0.2-0.1-0.3-0.3-0.3-0.5l2-42.8c-1.3,0.5-2.6,1-4,1.6
			c-4.4,15.9-9.9,55.7-10,59.2c0,0,0,0,0,0c0,0,0,0,0,0c0,0.2-0.4,21.3,11.8,26.3c1.7,0.7,3.3,1.2,4.9,1.5c6.3,1.3,11.5,0.1,15-1.3
			c0,0,0.1,0,0.1,0c0,0,0,0,0.1,0c0,0,0,0,0.1,0l48.3,0c0.1,0,0.1,0,0.2,0c0.4,0,0.8,0,1.3,0l1.7,0c0.1,0,0.2,0,0.3,0
			c0.5,0,1,0,1.4-0.1c0.1,0,0.2,0,0.3,0c0.5,0,0.9-0.1,1.4-0.1c0.1,0,0.2,0,0.3,0c0.5-0.1,0.9-0.1,1.3-0.2c0.1,0,0.2,0,0.3,0
			c0.4-0.1,0.9-0.2,1.3-0.3c0.1,0,0.2,0,0.2-0.1c0.4-0.1,0.9-0.2,1.3-0.3c0,0,0.1,0,0.1,0c1.8-0.5,3.5-1.2,5.1-2
			c0.1-0.1,0.3-0.1,0.4-0.2c0.3-0.1,0.5-0.3,0.8-0.5c0.2-0.1,0.4-0.2,0.5-0.3c0.2-0.2,0.5-0.3,0.7-0.5c0.2-0.1,0.4-0.2,0.5-0.4
			c0.2-0.2,0.4-0.3,0.7-0.5c0.2-0.1,0.4-0.3,0.5-0.4c0.2-0.2,0.4-0.3,0.6-0.5c0.2-0.2,0.3-0.3,0.5-0.5c0.2-0.2,0.4-0.4,0.6-0.5
			c0.2-0.2,0.3-0.3,0.5-0.5c0.2-0.2,0.3-0.4,0.5-0.6c0.2-0.2,0.3-0.4,0.4-0.6c0.1-0.2,0.3-0.4,0.4-0.5c8.6-11.6-1.2-27.1-1.2-27.2
			c0-0.1-0.1-0.1-0.1-0.2c-0.3-1.7-1-6.5-1.9-12.7c-1.8-12.8-4.3-30.2-6-36.4C361.5,347.8,361.5,347.7,361.4,347.7z"/>
	</g>
	<g>
		<path class="st4" d="M274.8,348.6l-0.4,1.6C274.6,349.6,274.7,349.1,274.8,348.6C274.9,348.6,274.8,348.6,274.8,348.6z"/>
		<path class="st4" d="M369.5,396.8c-0.3-1.7-1-6.5-1.9-12.7c-1.8-12.8-4.3-30.2-6-36.4c-0.1,0-0.2,0-0.2-0.1l-0.6-0.1
			c-0.4-0.1-0.8-0.2-1.1-0.3c-0.5-0.1-1.1-0.3-1.6-0.4l1.8,41.7c0,0.2-0.1,0.4-0.3,0.5c-0.2,0.1-20.8,11.6-39.4,11.6
			c-18.6,0-41.7-10.8-42-10.9c-0.2-0.1-0.3-0.3-0.3-0.5l2-42.8c-1.3,0.5-2.6,1-4,1.6c-4.4,15.9-9.9,55.7-10,59.2c0,0,0,0,0,0
			c0,0,0,0,0,0c0,0.2-0.4,21.3,11.8,26.3c1.7,0.7,3.3,1.2,4.9,1.5c6.3,1.3,11.5,0.1,15-1.3c0,0,0.1,0,0.1,0c0,0,0,0,0.1,0
			c0,0,0,0,0.1,0l48.3,0c0.1,0,0.1,0,0.2,0c0.4,0,0.8,0,1.3,0l1.7,0c0.1,0,0.2,0,0.3,0c0.5,0,1,0,1.4-0.1c0.1,0,0.2,0,0.3,0
			c0.5,0,0.9-0.1,1.4-0.1c0.1,0,0.2,0,0.3,0c0.5-0.1,0.9-0.1,1.3-0.2c0.1,0,0.2,0,0.3,0c0.4-0.1,0.9-0.2,1.3-0.3
			c0.1,0,0.2,0,0.2-0.1c0.4-0.1,0.9-0.2,1.3-0.3c0,0,0.1,0,0.1,0c1.8-0.5,3.5-1.2,5.1-2c0.1-0.1,0.3-0.1,0.4-0.2
			c0.3-0.1,0.5-0.3,0.8-0.5c0.2-0.1,0.4-0.2,0.5-0.3c0.2-0.2,0.5-0.3,0.7-0.5c0.2-0.1,0.4-0.2,0.5-0.4c0.2-0.2,0.4-0.3,0.7-0.5
			c0.2-0.1,0.4-0.3,0.5-0.4c0.2-0.2,0.4-0.3,0.6-0.5c0.2-0.2,0.3-0.3,0.5-0.5c0.2-0.2,0.4-0.4,0.6-0.5c0.2-0.2,0.3-0.3,0.5-0.5
			c0.2-0.2,0.3-0.4,0.5-0.6c0.2-0.2,0.3-0.4,0.4-0.6c0.1-0.2,0.3-0.4,0.4-0.5c8.6-11.6-1.2-27.1-1.2-27.2
			C369.5,397,369.5,396.9,369.5,396.8z"/>
		<path d="M274.4,350.2L274.4,350.2C274.4,350.2,274.4,350.2,274.4,350.2z"/>
		<path d="M362.8,348.1l0.5,2C363.1,349.4,362.9,348.7,362.8,348.1z"/>
	</g>
	<path class="st4" d="M369.5,396.8c-0.3-1.7-1-6.5-1.9-12.7c-1.8-12.8-4.3-30.2-6-36.4c-0.1,0-0.2,0-0.2-0.1l-0.6-0.1
		c-0.4-0.1-0.8-0.2-1.1-0.3c-0.5-0.1-1.1-0.3-1.6-0.4l1.8,41.7c0,0.2-0.1,0.4-0.3,0.5c-0.2,0.1-20.8,11.6-39.4,11.6
		c-18.6,0-41.7-10.8-42-10.9c-0.2-0.1-0.3-0.3-0.3-0.5l2-42.8c-1.3,0.5-2.6,1-4,1.6c-4.4,15.9-9.9,55.7-10,59.2c0,0,0,0,0,0
		c0,0,0,0,0,0c0,0.2-0.4,21.3,11.8,26.3c1.7,0.7,3.3,1.2,4.9,1.5c6.3,1.3,11.5,0.1,15-1.3c0,0,0.1,0,0.1,0c0,0,0,0,0.1,0
		c0,0,0,0,0.1,0l48.3,0c0.1,0,0.1,0,0.2,0c0.4,0,0.8,0,1.3,0l1.7,0c0.1,0,0.2,0,0.3,0c0.5,0,1,0,1.4-0.1c0.1,0,0.2,0,0.3,0
		c0.5,0,0.9-0.1,1.4-0.1c0.1,0,0.2,0,0.3,0c0.5-0.1,0.9-0.1,1.3-0.2c0.1,0,0.2,0,0.3,0c0.4-0.1,0.9-0.2,1.3-0.3c0.1,0,0.2,0,0.2-0.1
		c0.4-0.1,0.9-0.2,1.3-0.3c0,0,0.1,0,0.1,0c1.8-0.5,3.5-1.2,5.1-2c0.1-0.1,0.3-0.1,0.4-0.2c0.3-0.1,0.5-0.3,0.8-0.5
		c0.2-0.1,0.4-0.2,0.5-0.3c0.2-0.2,0.5-0.3,0.7-0.5c0.2-0.1,0.4-0.2,0.5-0.4c0.2-0.2,0.4-0.3,0.7-0.5c0.2-0.1,0.4-0.3,0.5-0.4
		c0.2-0.2,0.4-0.3,0.6-0.5c0.2-0.2,0.3-0.3,0.5-0.5c0.2-0.2,0.4-0.4,0.6-0.5c0.2-0.2,0.3-0.3,0.5-0.5c0.2-0.2,0.3-0.4,0.5-0.6
		c0.2-0.2,0.3-0.4,0.4-0.6c0.1-0.2,0.3-0.4,0.4-0.5c8.6-11.6-1.2-27.1-1.2-27.2C369.5,397,369.5,396.9,369.5,396.8z"/>
	<g>
		<path class="st4" d="M369.5,396.8c-0.3-1.7-1-6.5-1.9-12.7c-1.8-12.8-4.3-30.2-6-36.4c-0.1,0-0.2,0-0.2-0.1l-0.6-0.1
			c-0.4-0.1-0.8-0.2-1.1-0.3c-0.5-0.1-1.1-0.3-1.6-0.4l1.8,41.7c0,0.2-0.1,0.4-0.3,0.5c-0.2,0.1-20.8,11.6-39.4,11.6
			c-18.6,0-41.7-10.8-42-10.9c-0.2-0.1-0.3-0.3-0.3-0.5l2-42.8c-1.3,0.5-2.6,1-4,1.6c-4.4,15.9-9.9,55.7-10,59.2c0,0,0,0,0,0
			c0,0,0,0,0,0c0,0.2-0.4,21.3,11.8,26.3c1.7,0.7,3.3,1.2,4.9,1.5c6.3,1.3,11.5,0.1,15-1.3c0,0,0.1,0,0.1,0c0,0,0,0,0.1,0
			c0,0,0,0,0.1,0l48.3,0c0.1,0,0.1,0,0.2,0c0.4,0,0.8,0,1.3,0l1.7,0c0.1,0,0.2,0,0.3,0c0.5,0,1,0,1.4-0.1c0.1,0,0.2,0,0.3,0
			c0.5,0,0.9-0.1,1.4-0.1c0.1,0,0.2,0,0.3,0c0.5-0.1,0.9-0.1,1.3-0.2c0.1,0,0.2,0,0.3,0c0.4-0.1,0.9-0.2,1.3-0.3
			c0.1,0,0.2,0,0.2-0.1c0.4-0.1,0.9-0.2,1.3-0.3c0,0,0.1,0,0.1,0c1.8-0.5,3.5-1.2,5.1-2c0.1-0.1,0.3-0.1,0.4-0.2
			c0.3-0.1,0.5-0.3,0.8-0.5c0.2-0.1,0.4-0.2,0.5-0.3c0.2-0.2,0.5-0.3,0.7-0.5c0.2-0.1,0.4-0.2,0.5-0.4c0.2-0.2,0.4-0.3,0.7-0.5
			c0.2-0.1,0.4-0.3,0.5-0.4c0.2-0.2,0.4-0.3,0.6-0.5c0.2-0.2,0.3-0.3,0.5-0.5c0.2-0.2,0.4-0.4,0.6-0.5c0.2-0.2,0.3-0.3,0.5-0.5
			c0.2-0.2,0.3-0.4,0.5-0.6c0.2-0.2,0.3-0.4,0.4-0.6c0.1-0.2,0.3-0.4,0.4-0.5c8.6-11.6-1.2-27.1-1.2-27.2
			C369.5,397,369.5,396.9,369.5,396.8z"/>
		<path d="M374.4,406c-1.2-4.5-3.1-8-3.8-9.1c-0.1-0.1-0.1-0.2-0.1-0.2l0,0c0,0-0.1-0.1-0.1-0.1c-0.3-1.7-1-6.5-1.9-12.6
			c-1.6-11.3-3.7-26.3-5.4-33.9l-0.5-2c0,0,0-0.1,0-0.1c0,0,0,0,0,0l-0.3-1.1c-0.1,0-0.2-0.1-0.3-0.1c0,0,0,0,0,0l-0.3-0.1
			c-0.4-0.1-0.7-0.2-1.1-0.3l-3.1-0.7c0,0,0,0,0,0c-0.2-0.1-0.5-0.1-0.7-0.2l0.1,1c0,0,0,0,0,0l1.8,41.7
			c-2.5,1.3-21.4,11.3-38.6,11.3c-17.2,0-38.5-9.4-41.2-10.7l2-42.9c0,0,0,0,0,0l0.1-1.1c-0.3,0.1-0.7,0.3-1,0.4l-4.6,1.8
			c0,0,0,0-0.1,0c-0.1,0-0.2,0.1-0.3,0.1l-0.3,1.2c0,0,0,0,0,0c-0.1,0.5-0.3,1-0.4,1.6l0,0c-4.3,17.1-9.4,53.3-9.4,57.2c0,0,0,0,0,0
			c0,0.6-0.1,5.8,1.3,11.5c1.9,8.1,5.8,13.5,11.1,15.7c1.9,0.8,3.8,1.3,5.6,1.7c1.8,0.3,3.5,0.5,5.1,0.5c4,0,7.3-0.9,9.9-1.9l49.9,0
			c0.2,0,0.5,0,0.7,0c0.3,0,0.6,0,0.9,0l0.3,0c0,0,0.1,0,0.1,0c0,0,0,0,0.1,0c0.5,0,1,0,1.5-0.1c0.1,0,0.1,0,0.2,0
			c0.5,0,1-0.1,1.5-0.2c0.1,0,0.1,0,0.2,0c0.5-0.1,0.9-0.1,1.4-0.2c0.1,0,0.2,0,0.3,0c0.4-0.1,0.9-0.2,1.3-0.3c0.1,0,0.2,0,0.3-0.1
			c0.4-0.1,0.8-0.2,1.2-0.3c0.1,0,0.3-0.1,0.4-0.1c0.4-0.1,0.7-0.2,1.1-0.3c0.1,0,0.3-0.1,0.4-0.1c0.3-0.1,0.7-0.2,1-0.4
			c0.2-0.1,0.3-0.1,0.5-0.2c0.3-0.1,0.6-0.3,0.9-0.4c0.2-0.1,0.3-0.2,0.5-0.2c0.3-0.1,0.6-0.3,0.9-0.4c0.2-0.1,0.3-0.2,0.5-0.3
			c0.3-0.2,0.6-0.3,0.8-0.5c0.2-0.1,0.3-0.2,0.5-0.3c0.3-0.2,0.5-0.3,0.8-0.5c0.2-0.1,0.3-0.2,0.5-0.3c0.2-0.2,0.5-0.4,0.7-0.5
			c0.1-0.1,0.3-0.2,0.4-0.4c0.2-0.2,0.5-0.4,0.7-0.6c0.1-0.1,0.2-0.2,0.4-0.3c0.2-0.2,0.5-0.4,0.7-0.7c0.1-0.1,0.2-0.2,0.2-0.3
			c0.6-0.6,1.1-1.2,1.6-1.9c0.2-0.3,0.4-0.5,0.6-0.8c0-0.1,0.1-0.1,0.1-0.2c0.2-0.3,0.3-0.5,0.5-0.8c0-0.1,0.1-0.1,0.1-0.2
			c0.2-0.3,0.3-0.6,0.5-0.9c0-0.1,0.1-0.1,0.1-0.2c0.1-0.3,0.3-0.6,0.4-0.9c0-0.1,0-0.1,0.1-0.2c0.1-0.3,0.2-0.6,0.3-0.9
			c0-0.1,0-0.1,0.1-0.2c0.1-0.3,0.2-0.6,0.3-0.9c0-0.1,0.1-0.2,0.1-0.3c0.1-0.2,0.1-0.5,0.2-0.7c0-0.2,0.1-0.3,0.1-0.5
			c0-0.2,0.1-0.4,0.1-0.5c0-0.2,0.1-0.5,0.1-0.7c0-0.1,0-0.1,0-0.2C375.6,412.7,375.3,409.5,374.4,406z M370.8,424.3
			c-0.1,0.2-0.3,0.4-0.4,0.5c-0.1,0.2-0.3,0.4-0.4,0.6c-0.2,0.2-0.3,0.4-0.5,0.6c-0.2,0.2-0.3,0.3-0.5,0.5c-0.2,0.2-0.4,0.4-0.6,0.5
			c-0.2,0.2-0.3,0.3-0.5,0.5c-0.2,0.2-0.4,0.3-0.6,0.5c-0.2,0.1-0.4,0.3-0.5,0.4c-0.2,0.2-0.4,0.3-0.7,0.5c-0.2,0.1-0.4,0.2-0.5,0.4
			c-0.2,0.2-0.5,0.3-0.7,0.5c-0.2,0.1-0.3,0.2-0.5,0.3c-0.3,0.2-0.5,0.3-0.8,0.5c-0.1,0.1-0.3,0.1-0.4,0.2c-1.6,0.8-3.3,1.5-5.1,2
			c0,0-0.1,0-0.1,0c-0.4,0.1-0.9,0.2-1.3,0.3c-0.1,0-0.2,0-0.2,0.1c-0.4,0.1-0.9,0.2-1.3,0.3c-0.1,0-0.2,0-0.3,0
			c-0.4,0.1-0.9,0.1-1.3,0.2c-0.1,0-0.2,0-0.3,0c-0.5,0.1-0.9,0.1-1.4,0.1c-0.1,0-0.2,0-0.3,0c-0.5,0-0.9,0.1-1.4,0.1
			c-0.1,0-0.2,0-0.3,0l-1.7,0c-0.4,0-0.8,0-1.3,0c-0.1,0-0.2,0-0.2,0l-48.3,0c0,0,0,0-0.1,0c0,0,0,0-0.1,0c0,0-0.1,0-0.1,0
			c-3.5,1.4-8.8,2.6-15,1.3c-1.6-0.3-3.2-0.8-4.9-1.5c-12.2-5-11.8-26.1-11.8-26.3c0,0,0,0,0,0c0,0,0,0,0,0c0-3.6,5.6-43.3,10-59.2
			c1.4-0.5,2.7-1.1,4-1.6l-2,42.8c0,0.2,0.1,0.4,0.3,0.5c0.2,0.1,23.4,10.9,42,10.9c18.6,0,39.2-11.5,39.4-11.6
			c0.2-0.1,0.3-0.3,0.3-0.5l-1.8-41.7c0.5,0.1,1.1,0.3,1.6,0.4c0.4,0.1,0.8,0.2,1.1,0.3l0.6,0.1c0.1,0,0.2,0,0.2,0.1
			c1.7,6.1,4.1,23.6,6,36.4c0.9,6.2,1.6,11,1.9,12.7c0,0.1,0,0.1,0.1,0.2C369.7,397.2,379.4,412.6,370.8,424.3z"/>
	</g>
</g>
</svg>
