<?xml version="1.0" encoding="utf-8"?>
<!-- Generator: Adobe Illustrator 27.0.0, SVG Export Plug-In . SVG Version: 6.00 Build 0)  -->
<svg version="1.1" id="Layer_1" xmlns="http://www.w3.org/2000/svg" xmlns:xlink="http://www.w3.org/1999/xlink" x="0px" y="0px"
	 viewBox="0 0 600 1200" style="enable-background:new 0 0 600 1200;" xml:space="preserve">
<style type="text/css">
	.st0{fill:#DEDEE2;stroke:#000000;stroke-linecap:round;stroke-linejoin:round;stroke-miterlimit:10;}
</style>
<g>
	<path class="st0" d="M269.6,373.7c0.1,0,0.2,0,0.4,0c0.8-0.2,1.3-1,1.1-1.8l-5.3-22c-0.9,0.4-1.9,0.8-2.8,1.2l5.2,21.6
		C268.3,373.3,268.9,373.7,269.6,373.7z"/>
	<path class="st0" d="M273.6,373.6C273.6,373.7,273.6,373.7,273.6,373.6c0.9,0,1.6-0.6,1.6-1.4l1-26.4c-0.6,0.2-1.3,0.5-1.9,0.7
		c-0.4,0.1-0.8,0.3-1.1,0.4l-1,25.2C272.2,372.9,272.8,373.6,273.6,373.6z"/>
	<path class="st0" d="M364.8,377c0.1,0,0.3,0,0.4,0c0.7,0,1.2-0.5,1.4-1.2l4.4-27.2c-0.9-0.3-1.9-0.6-2.9-0.8l-4.5,27.5
		C363.5,376.1,364,376.9,364.8,377z"/>
	<path class="st0" d="M361.7,377C361.7,377,361.8,377,361.7,377c0.9-0.1,1.5-0.8,1.4-1.6l-1.3-28.8c0,0,0-0.1,0-0.4
		c-0.7-0.2-1.5-0.3-2.3-0.5c-0.2,0-0.4-0.1-0.6-0.1l1.1,29.9C360.2,376.4,360.9,377,361.7,377z"/>
	<polygon class="st0" points="336.4,433.8 297.6,434.9 297.6,432.6 336.4,431.6 	"/>
	<path class="st0" d="M275.2,372.2h-7.1c0,0-10.4,26.1-14.9,40c-5.7,18.1,3.9,37,14.1,39.1c5.4,1.1,13.6,1.6,20.6-0.8
		c9.3-3.1,14.5-15.4,14.5-15.4S274.3,398.6,275.2,372.2z"/>
	<path class="st0" d="M360.2,375.9h6.1c0,0,4.5,17.1,6.3,20.5s14.8,29,4.9,46.9c-3.9,7-22.1,10.4-31.6,6.7
		c-12.8-5-15.9-16.1-15.9-16.1S360.2,417,360.2,375.9z"/>
</g>
</svg>
