<?xml version="1.0" encoding="utf-8"?>
<!-- Generator: Adobe Illustrator 27.0.0, SVG Export Plug-In . SVG Version: 6.00 Build 0)  -->
<svg version="1.1" id="Layer_1" xmlns="http://www.w3.org/2000/svg" xmlns:xlink="http://www.w3.org/1999/xlink" x="0px" y="0px"
	 viewBox="0 0 600 1200" style="enable-background:new 0 0 600 1200;" xml:space="preserve">
<style type="text/css">
	.st0{fill:none;stroke:#000000;stroke-linecap:round;stroke-linejoin:round;stroke-miterlimit:10;}
	.st1{fill:#7F374F;}
	.st2{clip-path:url(#SVGID_00000027594034880180956920000010563199707539010973_);}
	.st3{fill:#202B3D;stroke:#909CAA;stroke-miterlimit:10;}
	.st4{fill:none;}
</style>
<g>
	<g>
		<g>
			<path class="st0" d="M333,433.8"/>
		</g>
		<path class="st1" d="M360.3,376.6c0.3,5.4,0.3,10-0.1,14c-7,3.3-25.2,9.6-39.1,9.6c-16.7,0-41.7-8.7-46.8-10.5
			c0-4.6,6.7-37.2,8.7-46.1c-2.2,0.9-4.8,1.9-7.6,3c-6.4,18.1-17.2,56.8-18.2,60.8h0c0,0,0,0,0,0c0,0.4-1.4,5.3-2,11.1
			c-0.5,5.2-0.5,13.2,1.3,18c2.7,7.1,6,12.9,12.2,14.7c7.6,2.2,16.1,2.4,23.4,0.3h65.2l0,0c7.4-0.1,14.8-2.8,20-8.9
			c12-14.2-3.1-45-3.7-46c0,0,0,0,0,0c0-0.1,0-0.1,0,0c-1-4.9-4.1-11.4-10.5-50.6c-2.2-0.5-4.3-1-6.3-1.4
			C360.2,375.9,360.2,376.3,360.3,376.6z"/>
		<g>
			<defs>
				<path id="SVGID_1_" d="M360.3,376.6c0.3,5.4,0.3,10-0.1,14c-7,3.3-25.2,9.6-39.1,9.6c-16.7,0-41.7-8.7-46.8-10.5
					c0-4.6,6.7-37.2,8.7-46.1c-2.2,0.9-4.8,1.9-7.6,3c-6.4,18.1-17.2,56.8-18.2,60.8h0c0,0,0,0,0,0c0,0.4-1.4,5.3-2,11.1
					c-0.5,5.2-0.5,13.2,1.3,18c2.7,7.1,6,12.9,12.2,14.7c7.6,2.2,16.1,2.4,23.4,0.3h65.2l0,0c7.4-0.1,14.8-2.8,20-8.9
					c12-14.2-3.1-45-3.7-46c0,0,0,0,0,0c0-0.1,0-0.1,0,0c-1-4.9-4.1-11.4-10.5-50.6c-2.2-0.5-4.3-1-6.3-1.4
					C360.2,375.9,360.2,376.3,360.3,376.6z"/>
			</defs>
			<clipPath id="SVGID_00000142144745812877479500000002972159811366100624_">
				<use xlink:href="#SVGID_1_"  style="overflow:visible;"/>
			</clipPath>
			<g style="clip-path:url(#SVGID_00000142144745812877479500000002972159811366100624_);">
				
					<rect x="225.1" y="148.9" transform="matrix(0.7633 0.646 -0.646 0.7633 285.9168 -61.2942)" class="st3" width="3" height="421.3"/>
				
					<rect x="227.4" y="150.9" transform="matrix(0.7633 0.646 -0.646 0.7633 287.7341 -62.3282)" class="st3" width="3" height="421.3"/>
				
					<rect x="229.7" y="152.9" transform="matrix(0.7633 0.646 -0.646 0.7633 289.5515 -63.3622)" class="st3" width="3" height="421.3"/>
				
					<rect x="232.1" y="154.8" transform="matrix(0.7633 0.646 -0.646 0.7633 291.3688 -64.3963)" class="st3" width="3" height="421.3"/>
				
					<rect x="234.4" y="156.8" transform="matrix(0.7633 0.646 -0.646 0.7633 293.1862 -65.4303)" class="st3" width="3" height="421.3"/>
				
					<rect x="236.7" y="158.8" transform="matrix(0.7633 0.646 -0.646 0.7633 295.0035 -66.4643)" class="st3" width="3" height="421.3"/>
				
					<rect x="239" y="160.7" transform="matrix(0.7633 0.646 -0.646 0.7633 296.8209 -67.4984)" class="st3" width="3" height="421.3"/>
				
					<rect x="241.3" y="162.7" transform="matrix(0.7633 0.646 -0.646 0.7633 298.6382 -68.5324)" class="st3" width="3" height="421.3"/>
				
					<rect x="243.7" y="164.6" transform="matrix(0.7633 0.646 -0.646 0.7633 300.4556 -69.5665)" class="st3" width="3" height="421.3"/>
				
					<rect x="246" y="166.6" transform="matrix(0.7633 0.646 -0.646 0.7633 302.273 -70.6005)" class="st3" width="3" height="421.3"/>
				
					<rect x="248.3" y="168.6" transform="matrix(0.7633 0.646 -0.646 0.7633 304.0903 -71.6345)" class="st3" width="3" height="421.3"/>
				
					<rect x="250.6" y="170.5" transform="matrix(0.7633 0.646 -0.646 0.7633 305.9077 -72.6686)" class="st3" width="3" height="421.3"/>
				
					<rect x="252.9" y="172.5" transform="matrix(0.7633 0.646 -0.646 0.7633 307.725 -73.7026)" class="st3" width="3" height="421.3"/>
				
					<rect x="255.3" y="174.5" transform="matrix(0.7633 0.646 -0.646 0.7633 309.5424 -74.7366)" class="st3" width="3" height="421.3"/>
				
					<rect x="257.6" y="176.4" transform="matrix(0.7633 0.646 -0.646 0.7633 311.3597 -75.7707)" class="st3" width="3" height="421.3"/>
				
					<rect x="259.9" y="178.4" transform="matrix(0.7633 0.646 -0.646 0.7633 313.1771 -76.8047)" class="st3" width="3" height="421.3"/>
				
					<rect x="262.2" y="180.4" transform="matrix(0.7633 0.646 -0.646 0.7633 314.9944 -77.8387)" class="st3" width="3" height="421.3"/>
				
					<rect x="264.5" y="182.3" transform="matrix(0.7633 0.646 -0.646 0.7633 316.8118 -78.8728)" class="st3" width="3" height="421.3"/>
				
					<rect x="266.9" y="184.3" transform="matrix(0.7633 0.646 -0.646 0.7633 318.6292 -79.9068)" class="st3" width="3" height="421.3"/>
				
					<rect x="269.2" y="186.2" transform="matrix(0.7633 0.646 -0.646 0.7633 320.4465 -80.9409)" class="st3" width="3" height="421.3"/>
				
					<rect x="271.5" y="188.2" transform="matrix(0.7633 0.646 -0.646 0.7633 322.2639 -81.9749)" class="st3" width="3" height="421.3"/>
				
					<rect x="273.8" y="190.2" transform="matrix(0.7633 0.646 -0.646 0.7633 324.0812 -83.0089)" class="st3" width="3" height="421.3"/>
				
					<rect x="276.1" y="192.1" transform="matrix(0.7633 0.646 -0.646 0.7633 325.8986 -84.043)" class="st3" width="3" height="421.3"/>
				
					<rect x="278.5" y="194.1" transform="matrix(0.7633 0.646 -0.646 0.7633 327.7159 -85.077)" class="st3" width="3" height="421.3"/>
				
					<rect x="280.8" y="196.1" transform="matrix(0.7633 0.646 -0.646 0.7633 329.5333 -86.111)" class="st3" width="3" height="421.3"/>
				
					<rect x="283.1" y="198" transform="matrix(0.7633 0.646 -0.646 0.7633 331.3506 -87.1451)" class="st3" width="3" height="421.3"/>
				
					<rect x="285.4" y="200" transform="matrix(0.7633 0.646 -0.646 0.7633 333.168 -88.1791)" class="st3" width="3" height="421.3"/>
				
					<rect x="287.7" y="202" transform="matrix(0.7633 0.646 -0.646 0.7633 334.9854 -89.2132)" class="st3" width="3" height="421.3"/>
				
					<rect x="290.1" y="203.9" transform="matrix(0.7633 0.646 -0.646 0.7633 336.8027 -90.2472)" class="st3" width="3" height="421.3"/>
				
					<rect x="292.4" y="205.9" transform="matrix(0.7633 0.646 -0.646 0.7633 338.6201 -91.2812)" class="st3" width="3" height="421.3"/>
				
					<rect x="294.7" y="207.8" transform="matrix(0.7633 0.646 -0.646 0.7633 340.4374 -92.3153)" class="st3" width="3" height="421.3"/>
				
					<rect x="297" y="209.8" transform="matrix(0.7633 0.646 -0.646 0.7633 342.2548 -93.3493)" class="st3" width="3" height="421.3"/>
				
					<rect x="299.3" y="211.8" transform="matrix(0.7633 0.646 -0.646 0.7633 344.0721 -94.3833)" class="st3" width="3" height="421.3"/>
				
					<rect x="301.7" y="213.7" transform="matrix(0.7633 0.646 -0.646 0.7633 345.8895 -95.4174)" class="st3" width="3" height="421.3"/>
				
					<rect x="304" y="215.7" transform="matrix(0.7633 0.646 -0.646 0.7633 347.7068 -96.4514)" class="st3" width="3" height="421.3"/>
				
					<rect x="306.3" y="217.7" transform="matrix(0.7633 0.646 -0.646 0.7633 349.5242 -97.4855)" class="st3" width="3" height="421.3"/>
				
					<rect x="308.6" y="219.6" transform="matrix(0.7633 0.646 -0.646 0.7633 351.3415 -98.5195)" class="st3" width="3" height="421.3"/>
				
					<rect x="310.9" y="221.6" transform="matrix(0.7633 0.646 -0.646 0.7633 353.1589 -99.5535)" class="st3" width="3" height="421.3"/>
				
					<rect x="313.3" y="223.5" transform="matrix(0.7633 0.646 -0.646 0.7633 354.9762 -100.5876)" class="st3" width="3" height="421.3"/>
				
					<rect x="315.6" y="225.5" transform="matrix(0.7633 0.646 -0.646 0.7633 356.7936 -101.6216)" class="st3" width="3" height="421.3"/>
				
					<rect x="317.9" y="227.5" transform="matrix(0.7633 0.646 -0.646 0.7633 358.6109 -102.6556)" class="st3" width="3" height="421.3"/>
				
					<rect x="320.2" y="229.4" transform="matrix(0.7633 0.646 -0.646 0.7633 360.4283 -103.6897)" class="st3" width="3" height="421.3"/>
				
					<rect x="322.5" y="231.4" transform="matrix(0.7633 0.646 -0.646 0.7633 362.2457 -104.7237)" class="st3" width="3" height="421.3"/>
				
					<rect x="324.9" y="233.4" transform="matrix(0.7633 0.646 -0.646 0.7633 364.063 -105.7577)" class="st3" width="3" height="421.3"/>
				
					<rect x="327.2" y="235.3" transform="matrix(0.7633 0.646 -0.646 0.7633 365.8804 -106.7918)" class="st3" width="3" height="421.3"/>
				
					<rect x="329.5" y="237.3" transform="matrix(0.7633 0.646 -0.646 0.7633 367.6977 -107.8258)" class="st3" width="3" height="421.3"/>
				
					<rect x="331.8" y="239.3" transform="matrix(0.7633 0.646 -0.646 0.7633 369.5151 -108.8599)" class="st3" width="3" height="421.3"/>
				
					<rect x="334.1" y="241.2" transform="matrix(0.7633 0.646 -0.646 0.7633 371.3324 -109.8939)" class="st3" width="3" height="421.3"/>
				
					<rect x="336.5" y="243.2" transform="matrix(0.7633 0.646 -0.646 0.7633 373.1498 -110.9279)" class="st3" width="3" height="421.3"/>
				
					<rect x="338.8" y="245.1" transform="matrix(0.7633 0.646 -0.646 0.7633 374.9671 -111.962)" class="st3" width="3" height="421.3"/>
				
					<rect x="341.1" y="247.1" transform="matrix(0.7633 0.646 -0.646 0.7633 376.7845 -112.996)" class="st3" width="3" height="421.3"/>
				
					<rect x="343.4" y="249.1" transform="matrix(0.7633 0.646 -0.646 0.7633 378.6018 -114.03)" class="st3" width="3" height="421.3"/>
				
					<rect x="345.7" y="251" transform="matrix(0.7633 0.646 -0.646 0.7633 380.4192 -115.0641)" class="st3" width="3" height="421.3"/>
				
					<rect x="348.1" y="253" transform="matrix(0.7633 0.646 -0.646 0.7633 382.2365 -116.0981)" class="st3" width="3" height="421.3"/>
				
					<rect x="350.4" y="255" transform="matrix(0.7633 0.646 -0.646 0.7633 384.0539 -117.1322)" class="st3" width="3" height="421.3"/>
				
					<rect x="352.7" y="256.9" transform="matrix(0.7633 0.646 -0.646 0.7633 385.8712 -118.1662)" class="st3" width="3" height="421.3"/>
				
					<rect x="355" y="258.9" transform="matrix(0.7633 0.646 -0.646 0.7633 387.6886 -119.2002)" class="st3" width="3" height="421.3"/>
				
					<rect x="357.3" y="260.9" transform="matrix(0.7633 0.646 -0.646 0.7633 389.506 -120.2343)" class="st3" width="3" height="421.3"/>
				
					<rect x="359.7" y="262.8" transform="matrix(0.7633 0.646 -0.646 0.7633 391.3233 -121.2683)" class="st3" width="3" height="421.3"/>
				
					<rect x="362" y="264.8" transform="matrix(0.7633 0.646 -0.646 0.7633 393.1407 -122.3023)" class="st3" width="3" height="421.3"/>
				
					<rect x="364.3" y="266.7" transform="matrix(0.7633 0.646 -0.646 0.7633 394.958 -123.3364)" class="st3" width="3" height="421.3"/>
				
					<rect x="366.6" y="268.7" transform="matrix(0.7633 0.646 -0.646 0.7633 396.7754 -124.3704)" class="st3" width="3" height="421.3"/>
				
					<rect x="368.9" y="270.7" transform="matrix(0.7633 0.646 -0.646 0.7633 398.5927 -125.4044)" class="st3" width="3" height="421.3"/>
				
					<rect x="371.3" y="272.6" transform="matrix(0.7633 0.646 -0.646 0.7633 400.4101 -126.4385)" class="st3" width="3" height="421.3"/>
				
					<rect x="373.6" y="274.6" transform="matrix(0.7633 0.646 -0.646 0.7633 402.2274 -127.4725)" class="st3" width="3" height="421.3"/>
				
					<rect x="375.9" y="276.6" transform="matrix(0.7633 0.646 -0.646 0.7633 404.0448 -128.5066)" class="st3" width="3" height="421.3"/>
				
					<rect x="378.2" y="278.5" transform="matrix(0.7633 0.646 -0.646 0.7633 405.8622 -129.5406)" class="st3" width="3" height="421.3"/>
				
					<rect x="380.5" y="280.5" transform="matrix(0.7633 0.646 -0.646 0.7633 407.6795 -130.5746)" class="st3" width="3" height="421.3"/>
				
					<rect x="382.9" y="282.4" transform="matrix(0.7633 0.646 -0.646 0.7633 409.4969 -131.6087)" class="st3" width="3" height="421.3"/>
				
					<rect x="385.2" y="284.4" transform="matrix(0.7633 0.646 -0.646 0.7633 411.3142 -132.6427)" class="st3" width="3" height="421.3"/>
				
					<rect x="387.5" y="286.4" transform="matrix(0.7633 0.646 -0.646 0.7633 413.1316 -133.6767)" class="st3" width="3" height="421.3"/>
			</g>
		</g>
		<g>
			<path class="st4" d="M364.6,351.7l-0.8-4.9c0,0,0,0,0,0C364.1,348.5,364.3,350.1,364.6,351.7z"/>
			<path class="st4" d="M357.9,345.4C357.9,345.4,357.9,345.4,357.9,345.4l-0.4-0.1c3.2,30.7,3.3,30.9,3.3,31.2
				c0.3,5.2,0.3,9.9-0.1,14c0,0.2-0.1,0.3-0.3,0.4c-8,3.7-25.8,9.7-39.3,9.7c-16.8,0-42.1-8.8-47-10.5c-0.2-0.1-0.3-0.3-0.3-0.5
				c0-4.6,6.4-35.7,8.5-45.3c-0.1,0-0.1,0.1-0.2,0.1c-0.4,0.2-0.8,0.3-1.2,0.5c-0.1,0-0.2,0.1-0.3,0.1c-0.4,0.2-0.9,0.3-1.3,0.5
				c-0.1,0-0.1,0-0.2,0.1c-1.1,0.4-2.1,0.8-3.3,1.3c0,0,0,0,0,0c-6.5,18.4-17.1,56.5-18.1,60.5c0,0.2-0.1,0.4-0.2,1.1
				c-0.4,1.8-1.3,5.6-1.8,10c-0.5,5.3-0.5,13.2,1.3,17.8c2.4,6.4,5.6,12.6,11.9,14.4c7.5,2.2,15.9,2.3,23.2,0.3c0,0,0.1,0,0.1,0
				h65.1c0,0,0,0,0.1,0c7.9-0.1,14.9-3.2,19.6-8.8c11.5-13.6-2.7-43.2-3.7-45.3c0,0,0,0,0-0.1c0,0,0,0,0,0c0,0,0,0,0,0
				c0,0,0-0.1,0-0.2h0c-0.2-1.1-0.5-2.3-1-3.9c-1.6-5.7-4.5-16.3-9.5-46.3C361.1,346.2,359.5,345.8,357.9,345.4z"/>
		</g>
		<path class="st4" d="M373.3,397.1C373.3,397,373.3,397,373.3,397.1C373.3,397,373.2,397,373.3,397.1c-0.1-0.1-0.1-0.1-0.1-0.1
			c0,0,0-0.1,0-0.2h0c-0.2-1.1-0.5-2.3-1-3.9c-1.6-5.7-4.5-16.3-9.5-46.3c-1.7-0.4-3.3-0.8-4.8-1.1c0,0,0,0,0,0l-0.4-0.1
			c3.2,30.7,3.3,30.9,3.3,31.2c0.3,5.2,0.3,9.9-0.1,14c0,0.2-0.1,0.3-0.3,0.4c-8,3.7-25.8,9.7-39.3,9.7c-16.8,0-42.1-8.8-47-10.5
			c-0.2-0.1-0.3-0.3-0.3-0.5c0-4.6,6.4-35.7,8.5-45.3c-0.1,0-0.1,0.1-0.2,0.1c-0.4,0.2-0.8,0.3-1.2,0.5c-0.1,0-0.2,0.1-0.3,0.1
			c-0.4,0.2-0.9,0.3-1.3,0.5c-0.1,0-0.1,0-0.2,0.1c-1.1,0.4-2.1,0.8-3.3,1.3c0,0,0,0,0,0c-6.5,18.4-17.1,56.5-18.1,60.5
			c0,0.2-0.1,0.4-0.2,1.1c-0.4,1.8-1.3,5.6-1.8,10c-0.5,5.3-0.5,13.2,1.3,17.8c2.4,6.4,5.6,12.6,11.9,14.4
			c7.5,2.2,15.9,2.3,23.2,0.3c0,0,0.1,0,0.1,0h65.1c0,0,0,0,0.1,0c7.9-0.1,14.9-3.2,19.6-8.8C388.5,428.7,374.3,399.1,373.3,397.1z"
			/>
		<path class="st4" d="M373.3,397.1C373.3,397,373.3,397,373.3,397.1C373.3,397,373.2,397,373.3,397.1c-0.1-0.1-0.1-0.1-0.1-0.1
			c0,0,0-0.1,0-0.2h0c-0.2-1.1-0.5-2.3-1-3.9c-1.6-5.7-4.5-16.3-9.5-46.3c-1.7-0.4-3.3-0.8-4.8-1.1c0,0,0,0,0,0l-0.4-0.1
			c3.2,30.7,3.3,30.9,3.3,31.2c0.3,5.2,0.3,9.9-0.1,14c0,0.2-0.1,0.3-0.3,0.4c-8,3.7-25.8,9.7-39.3,9.7c-16.8,0-42.1-8.8-47-10.5
			c-0.2-0.1-0.3-0.3-0.3-0.5c0-4.6,6.4-35.7,8.5-45.3c-0.1,0-0.1,0.1-0.2,0.1c-0.4,0.2-0.8,0.3-1.2,0.5c-0.1,0-0.2,0.1-0.3,0.1
			c-0.4,0.2-0.9,0.3-1.3,0.5c-0.1,0-0.1,0-0.2,0.1c-1.1,0.4-2.1,0.8-3.3,1.3c0,0,0,0,0,0c-6.5,18.4-17.1,56.5-18.1,60.5
			c0,0.2-0.1,0.4-0.2,1.1c-0.4,1.8-1.3,5.6-1.8,10c-0.5,5.3-0.5,13.2,1.3,17.8c2.4,6.4,5.6,12.6,11.9,14.4
			c7.5,2.2,15.9,2.3,23.2,0.3c0,0,0.1,0,0.1,0h65.1c0,0,0,0,0.1,0c7.9-0.1,14.9-3.2,19.6-8.8C388.5,428.7,374.3,399.1,373.3,397.1z"
			/>
		<g>
			<path class="st4" d="M282.8,347.1l0.7-3.1c0,0,0,0,0,0C283.3,344.9,283,345.9,282.8,347.1z"/>
			<path class="st4" d="M373.3,397.1C373.3,397,373.3,397,373.3,397.1C373.3,397,373.2,397,373.3,397.1c-0.1-0.1-0.1-0.1-0.1-0.1
				c0,0,0-0.1,0-0.2h0c-0.2-1.1-0.5-2.3-1-3.9c-1.6-5.7-4.5-16.3-9.5-46.3c-1.7-0.4-3.3-0.8-4.8-1.1c0,0,0,0,0,0l-0.4-0.1
				c3.2,30.7,3.3,30.9,3.3,31.2c0.3,5.2,0.3,9.9-0.1,14c0,0.2-0.1,0.3-0.3,0.4c-8,3.7-25.8,9.7-39.3,9.7c-16.8,0-42.1-8.8-47-10.5
				c-0.2-0.1-0.3-0.3-0.3-0.5c0-4.6,6.4-35.7,8.5-45.3c-0.1,0-0.1,0.1-0.2,0.1c-0.4,0.2-0.8,0.3-1.2,0.5c-0.1,0-0.2,0.1-0.3,0.1
				c-0.4,0.2-0.9,0.3-1.3,0.5c-0.1,0-0.1,0-0.2,0.1c-1.1,0.4-2.1,0.8-3.3,1.3c0,0,0,0,0,0c-6.5,18.4-17.1,56.5-18.1,60.5
				c0,0.2-0.1,0.4-0.2,1.1c-0.4,1.8-1.3,5.6-1.8,10c-0.5,5.3-0.5,13.2,1.3,17.8c2.4,6.4,5.6,12.6,11.9,14.4
				c7.5,2.2,15.9,2.3,23.2,0.3c0,0,0.1,0,0.1,0h65.1c0,0,0,0,0.1,0c7.9-0.1,14.9-3.2,19.6-8.8C388.5,428.7,374.3,399.1,373.3,397.1z
				"/>
			<path d="M380.7,414.6c-2.2-9.1-6-17-6.6-18.1c-0.2-1.1-0.6-2.3-1-3.9c-1.5-5.3-4.1-14.9-8.5-40.9l0,0l0,0
				c-0.3-1.6-0.5-3.2-0.8-4.9c0,0,0,0,0,0l-0.2-1.1c-0.1,0-0.3-0.1-0.4-0.1c0,0,0,0,0,0c0,0,0,0-0.1,0c-1.7-0.4-3.4-0.8-4.9-1.1
				c-0.1,0-0.1,0-0.2,0l-0.2,0c-0.5-0.1-1-0.2-1.6-0.4l0.1,1.1c3.3,31,3.3,31.2,3.3,31.5c0.3,5,0.3,9.6-0.1,13.6
				c-6.9,3.2-25,9.5-38.6,9.5c-16.3,0-40.7-8.4-46.3-10.3c0.2-5,5.4-30.4,8-42.3l0,0l0,0c0.3-1.2,0.5-2.2,0.7-3.1c0,0,0,0,0,0
				l0.3-1.2c-0.4,0.2-0.7,0.3-1.1,0.5c-1,0.4-2.1,0.9-3.3,1.3c-0.1,0-0.2,0.1-0.3,0.1c-0.5,0.2-1.1,0.4-1.6,0.6
				c-0.1,0-0.1,0-0.2,0.1c-0.6,0.2-1.3,0.5-1.9,0.7l-0.1,0.1c0,0,0,0,0,0c-0.1,0-0.2,0.1-0.3,0.1l-0.4,1.2c0,0,0,0,0,0
				c-6.5,18.7-16.9,56.2-17.8,59.8c0,0,0,0.1,0,0.1c0,0,0,0.1,0,0.1l-0.3,0.2c0.1,0.1,0.1,0.1,0.2,0.2c0,0.2-0.1,0.3-0.1,0.5
				c-0.4,1.8-1.4,5.7-1.8,10.1c-0.6,5.7-0.5,13.5,1.3,18.2c2.5,6.6,5.8,13,12.5,15c4,1.2,8.3,1.8,12.5,1.8c3.8,0,7.6-0.5,11.1-1.5
				h65.1c0,0,0.1,0,0.1,0c8.2-0.1,15.4-3.4,20.3-9.1C382.8,437,383.8,427.2,380.7,414.6z M377,442.3c-4.7,5.5-11.6,8.7-19.6,8.8
				c0,0,0,0-0.1,0h-65.1c0,0-0.1,0-0.1,0c-7.2,2-15.6,1.9-23.2-0.3c-6.3-1.9-9.4-8-11.9-14.4c-1.8-4.6-1.8-12.4-1.3-17.8
				c0.4-4.3,1.3-8.1,1.8-10c0.2-0.7,0.2-1,0.2-1.1c1-3.9,11.6-42.1,18.1-60.5c0,0,0,0,0,0c1.1-0.4,2.2-0.9,3.3-1.3
				c0.1,0,0.1,0,0.2-0.1c0.5-0.2,0.9-0.4,1.3-0.5c0.1,0,0.2-0.1,0.3-0.1c0.4-0.2,0.8-0.3,1.2-0.5c0.1,0,0.1-0.1,0.2-0.1
				c-2.1,9.6-8.6,40.7-8.5,45.3c0,0.2,0.1,0.4,0.3,0.5c4.9,1.8,30.1,10.5,47,10.5c13.5,0,31.3-5.9,39.3-9.7c0.2-0.1,0.3-0.2,0.3-0.4
				c0.4-4.1,0.4-8.9,0.1-14c0-0.4,0-0.5-3.3-31.2l0.4,0.1c0,0,0,0,0,0c1.5,0.4,3.1,0.7,4.8,1.1c5,30.1,7.9,40.6,9.5,46.3
				c0.5,1.6,0.8,2.8,1,3.9h0c0,0.1,0,0.1,0,0.2c0,0,0,0,0,0c0,0,0,0,0,0c0,0,0,0,0,0.1C374.3,399.1,388.5,428.7,377,442.3z"/>
		</g>
	</g>
</g>
</svg>
