<?xml version="1.0" encoding="utf-8"?>
<!-- Generator: Adobe Illustrator 27.0.0, SVG Export Plug-In . SVG Version: 6.00 Build 0)  -->
<svg version="1.1" id="Layer_1" xmlns="http://www.w3.org/2000/svg" xmlns:xlink="http://www.w3.org/1999/xlink" x="0px" y="0px"
	 viewBox="0 0 600 1200" style="enable-background:new 0 0 600 1200;" xml:space="preserve">
<style type="text/css">
	.st0{clip-path:url(#SVGID_00000062173244118211516910000008778535888037036948_);}
	.st1{fill:#202B3D;stroke:#909CAA;stroke-miterlimit:10;}
</style>
<g>
	<defs>
		<path id="SVGID_1_" d="M372.5,396.5c-1.6-3.1-5.5-17.6-6.2-20.1c0.1-0.1,0.2-0.3,0.2-0.5l4.4-27.2c-0.9-0.3-1.9-0.6-2.9-0.8
			l-4.5,27.5c0,0.2,0,0.4,0,0.6h-0.6c0.1-0.2,0.1-0.3,0.1-0.5l-1.3-28.8c0,0,0-0.1,0-0.4c-0.7-0.2-1.5-0.3-2.3-0.5
			c-0.2,0-0.4-0.1-0.6-0.1l1.1,29.9c0,0.1,0,0.3,0.1,0.4h0c0,32.4-18.8,49.8-26.8,55.7l-32.8,0.9c-6.2-8.7-26.1-37.9-25.4-60.2
			c0,0,0-0.1,0-0.1l1-26.4c-0.6,0.2-1.3,0.5-1.9,0.7c-0.4,0.1-0.8,0.3-1.1,0.4l-1,25.2c0,0,0,0.1,0,0.1h-1.1c0-0.1,0-0.2,0-0.4
			l-5.3-22c-0.9,0.4-1.9,0.8-2.8,1.2l5.2,21.3c-0.7,1.7-10.6,26.4-14.8,39.9c-5.7,18.1,3.9,37,14.1,39.1c5.4,1.1,13.6,1.6,20.6-0.8
			c9.3-3.1,14.5-15.4,14.5-15.4s-0.1-0.1-0.2-0.3l27.7-0.8c0,0,3.2,11.1,15.9,16.1c9.5,3.7,27.8,0.2,31.6-6.7
			C387.3,425.5,374.3,399.9,372.5,396.5z"/>
	</defs>
	<clipPath id="SVGID_00000039825671445055976270000008550531078585904561_">
		<use xlink:href="#SVGID_1_"  style="overflow:visible;"/>
	</clipPath>
	<g style="clip-path:url(#SVGID_00000039825671445055976270000008550531078585904561_);">
		
			<rect x="225.1" y="148.9" transform="matrix(0.7633 0.646 -0.646 0.7633 285.9168 -61.2942)" class="st1" width="3" height="421.3"/>
		
			<rect x="227.4" y="150.9" transform="matrix(0.7633 0.646 -0.646 0.7633 287.7341 -62.3282)" class="st1" width="3" height="421.3"/>
		
			<rect x="229.7" y="152.9" transform="matrix(0.7633 0.646 -0.646 0.7633 289.5515 -63.3622)" class="st1" width="3" height="421.3"/>
		
			<rect x="232.1" y="154.8" transform="matrix(0.7633 0.646 -0.646 0.7633 291.3688 -64.3963)" class="st1" width="3" height="421.3"/>
		
			<rect x="234.4" y="156.8" transform="matrix(0.7633 0.646 -0.646 0.7633 293.1862 -65.4303)" class="st1" width="3" height="421.3"/>
		
			<rect x="236.7" y="158.8" transform="matrix(0.7633 0.646 -0.646 0.7633 295.0035 -66.4643)" class="st1" width="3" height="421.3"/>
		
			<rect x="239" y="160.7" transform="matrix(0.7633 0.646 -0.646 0.7633 296.8209 -67.4984)" class="st1" width="3" height="421.3"/>
		
			<rect x="241.3" y="162.7" transform="matrix(0.7633 0.646 -0.646 0.7633 298.6382 -68.5324)" class="st1" width="3" height="421.3"/>
		
			<rect x="243.7" y="164.6" transform="matrix(0.7633 0.646 -0.646 0.7633 300.4556 -69.5665)" class="st1" width="3" height="421.3"/>
		<rect x="246" y="166.6" transform="matrix(0.7633 0.646 -0.646 0.7633 302.273 -70.6005)" class="st1" width="3" height="421.3"/>
		
			<rect x="248.3" y="168.6" transform="matrix(0.7633 0.646 -0.646 0.7633 304.0903 -71.6345)" class="st1" width="3" height="421.3"/>
		
			<rect x="250.6" y="170.5" transform="matrix(0.7633 0.646 -0.646 0.7633 305.9077 -72.6686)" class="st1" width="3" height="421.3"/>
		
			<rect x="252.9" y="172.5" transform="matrix(0.7633 0.646 -0.646 0.7633 307.725 -73.7026)" class="st1" width="3" height="421.3"/>
		
			<rect x="255.3" y="174.5" transform="matrix(0.7633 0.646 -0.646 0.7633 309.5424 -74.7366)" class="st1" width="3" height="421.3"/>
		
			<rect x="257.6" y="176.4" transform="matrix(0.7633 0.646 -0.646 0.7633 311.3597 -75.7707)" class="st1" width="3" height="421.3"/>
		
			<rect x="259.9" y="178.4" transform="matrix(0.7633 0.646 -0.646 0.7633 313.1771 -76.8047)" class="st1" width="3" height="421.3"/>
		
			<rect x="262.2" y="180.4" transform="matrix(0.7633 0.646 -0.646 0.7633 314.9944 -77.8387)" class="st1" width="3" height="421.3"/>
		
			<rect x="264.5" y="182.3" transform="matrix(0.7633 0.646 -0.646 0.7633 316.8118 -78.8728)" class="st1" width="3" height="421.3"/>
		
			<rect x="266.9" y="184.3" transform="matrix(0.7633 0.646 -0.646 0.7633 318.6292 -79.9068)" class="st1" width="3" height="421.3"/>
		
			<rect x="269.2" y="186.2" transform="matrix(0.7633 0.646 -0.646 0.7633 320.4465 -80.9409)" class="st1" width="3" height="421.3"/>
		
			<rect x="271.5" y="188.2" transform="matrix(0.7633 0.646 -0.646 0.7633 322.2639 -81.9749)" class="st1" width="3" height="421.3"/>
		
			<rect x="273.8" y="190.2" transform="matrix(0.7633 0.646 -0.646 0.7633 324.0812 -83.0089)" class="st1" width="3" height="421.3"/>
		
			<rect x="276.1" y="192.1" transform="matrix(0.7633 0.646 -0.646 0.7633 325.8986 -84.043)" class="st1" width="3" height="421.3"/>
		
			<rect x="278.5" y="194.1" transform="matrix(0.7633 0.646 -0.646 0.7633 327.7159 -85.077)" class="st1" width="3" height="421.3"/>
		
			<rect x="280.8" y="196.1" transform="matrix(0.7633 0.646 -0.646 0.7633 329.5333 -86.111)" class="st1" width="3" height="421.3"/>
		
			<rect x="283.1" y="198" transform="matrix(0.7633 0.646 -0.646 0.7633 331.3506 -87.1451)" class="st1" width="3" height="421.3"/>
		<rect x="285.4" y="200" transform="matrix(0.7633 0.646 -0.646 0.7633 333.168 -88.1791)" class="st1" width="3" height="421.3"/>
		
			<rect x="287.7" y="202" transform="matrix(0.7633 0.646 -0.646 0.7633 334.9854 -89.2132)" class="st1" width="3" height="421.3"/>
		
			<rect x="290.1" y="203.9" transform="matrix(0.7633 0.646 -0.646 0.7633 336.8027 -90.2472)" class="st1" width="3" height="421.3"/>
		
			<rect x="292.4" y="205.9" transform="matrix(0.7633 0.646 -0.646 0.7633 338.6201 -91.2812)" class="st1" width="3" height="421.3"/>
		
			<rect x="294.7" y="207.8" transform="matrix(0.7633 0.646 -0.646 0.7633 340.4374 -92.3153)" class="st1" width="3" height="421.3"/>
		
			<rect x="297" y="209.8" transform="matrix(0.7633 0.646 -0.646 0.7633 342.2548 -93.3493)" class="st1" width="3" height="421.3"/>
		
			<rect x="299.3" y="211.8" transform="matrix(0.7633 0.646 -0.646 0.7633 344.0721 -94.3833)" class="st1" width="3" height="421.3"/>
		
			<rect x="301.7" y="213.7" transform="matrix(0.7633 0.646 -0.646 0.7633 345.8895 -95.4174)" class="st1" width="3" height="421.3"/>
		
			<rect x="304" y="215.7" transform="matrix(0.7633 0.646 -0.646 0.7633 347.7068 -96.4514)" class="st1" width="3" height="421.3"/>
		
			<rect x="306.3" y="217.7" transform="matrix(0.7633 0.646 -0.646 0.7633 349.5242 -97.4855)" class="st1" width="3" height="421.3"/>
		
			<rect x="308.6" y="219.6" transform="matrix(0.7633 0.646 -0.646 0.7633 351.3415 -98.5195)" class="st1" width="3" height="421.3"/>
		
			<rect x="310.9" y="221.6" transform="matrix(0.7633 0.646 -0.646 0.7633 353.1589 -99.5535)" class="st1" width="3" height="421.3"/>
		
			<rect x="313.3" y="223.5" transform="matrix(0.7633 0.646 -0.646 0.7633 354.9762 -100.5876)" class="st1" width="3" height="421.3"/>
		
			<rect x="315.6" y="225.5" transform="matrix(0.7633 0.646 -0.646 0.7633 356.7936 -101.6216)" class="st1" width="3" height="421.3"/>
		
			<rect x="317.9" y="227.5" transform="matrix(0.7633 0.646 -0.646 0.7633 358.6109 -102.6556)" class="st1" width="3" height="421.3"/>
		
			<rect x="320.2" y="229.4" transform="matrix(0.7633 0.646 -0.646 0.7633 360.4283 -103.6897)" class="st1" width="3" height="421.3"/>
		
			<rect x="322.5" y="231.4" transform="matrix(0.7633 0.646 -0.646 0.7633 362.2457 -104.7237)" class="st1" width="3" height="421.3"/>
		
			<rect x="324.9" y="233.4" transform="matrix(0.7633 0.646 -0.646 0.7633 364.063 -105.7577)" class="st1" width="3" height="421.3"/>
		
			<rect x="327.2" y="235.3" transform="matrix(0.7633 0.646 -0.646 0.7633 365.8804 -106.7918)" class="st1" width="3" height="421.3"/>
		
			<rect x="329.5" y="237.3" transform="matrix(0.7633 0.646 -0.646 0.7633 367.6977 -107.8258)" class="st1" width="3" height="421.3"/>
		
			<rect x="331.8" y="239.3" transform="matrix(0.7633 0.646 -0.646 0.7633 369.5151 -108.8599)" class="st1" width="3" height="421.3"/>
		
			<rect x="334.1" y="241.2" transform="matrix(0.7633 0.646 -0.646 0.7633 371.3324 -109.8939)" class="st1" width="3" height="421.3"/>
		
			<rect x="336.5" y="243.2" transform="matrix(0.7633 0.646 -0.646 0.7633 373.1498 -110.9279)" class="st1" width="3" height="421.3"/>
		
			<rect x="338.8" y="245.1" transform="matrix(0.7633 0.646 -0.646 0.7633 374.9671 -111.962)" class="st1" width="3" height="421.3"/>
		
			<rect x="341.1" y="247.1" transform="matrix(0.7633 0.646 -0.646 0.7633 376.7845 -112.996)" class="st1" width="3" height="421.3"/>
		
			<rect x="343.4" y="249.1" transform="matrix(0.7633 0.646 -0.646 0.7633 378.6018 -114.03)" class="st1" width="3" height="421.3"/>
		
			<rect x="345.7" y="251" transform="matrix(0.7633 0.646 -0.646 0.7633 380.4192 -115.0641)" class="st1" width="3" height="421.3"/>
		
			<rect x="348.1" y="253" transform="matrix(0.7633 0.646 -0.646 0.7633 382.2365 -116.0981)" class="st1" width="3" height="421.3"/>
		
			<rect x="350.4" y="255" transform="matrix(0.7633 0.646 -0.646 0.7633 384.0539 -117.1322)" class="st1" width="3" height="421.3"/>
		
			<rect x="352.7" y="256.9" transform="matrix(0.7633 0.646 -0.646 0.7633 385.8712 -118.1662)" class="st1" width="3" height="421.3"/>
		
			<rect x="355" y="258.9" transform="matrix(0.7633 0.646 -0.646 0.7633 387.6886 -119.2002)" class="st1" width="3" height="421.3"/>
		
			<rect x="357.3" y="260.9" transform="matrix(0.7633 0.646 -0.646 0.7633 389.506 -120.2343)" class="st1" width="3" height="421.3"/>
		
			<rect x="359.7" y="262.8" transform="matrix(0.7633 0.646 -0.646 0.7633 391.3233 -121.2683)" class="st1" width="3" height="421.3"/>
		
			<rect x="362" y="264.8" transform="matrix(0.7633 0.646 -0.646 0.7633 393.1407 -122.3023)" class="st1" width="3" height="421.3"/>
		
			<rect x="364.3" y="266.7" transform="matrix(0.7633 0.646 -0.646 0.7633 394.958 -123.3364)" class="st1" width="3" height="421.3"/>
		
			<rect x="366.6" y="268.7" transform="matrix(0.7633 0.646 -0.646 0.7633 396.7754 -124.3704)" class="st1" width="3" height="421.3"/>
		
			<rect x="368.9" y="270.7" transform="matrix(0.7633 0.646 -0.646 0.7633 398.5927 -125.4044)" class="st1" width="3" height="421.3"/>
		
			<rect x="371.3" y="272.6" transform="matrix(0.7633 0.646 -0.646 0.7633 400.4101 -126.4385)" class="st1" width="3" height="421.3"/>
		
			<rect x="373.6" y="274.6" transform="matrix(0.7633 0.646 -0.646 0.7633 402.2274 -127.4725)" class="st1" width="3" height="421.3"/>
		
			<rect x="375.9" y="276.6" transform="matrix(0.7633 0.646 -0.646 0.7633 404.0448 -128.5066)" class="st1" width="3" height="421.3"/>
		
			<rect x="378.2" y="278.5" transform="matrix(0.7633 0.646 -0.646 0.7633 405.8622 -129.5406)" class="st1" width="3" height="421.3"/>
		
			<rect x="380.5" y="280.5" transform="matrix(0.7633 0.646 -0.646 0.7633 407.6795 -130.5746)" class="st1" width="3" height="421.3"/>
		
			<rect x="382.9" y="282.4" transform="matrix(0.7633 0.646 -0.646 0.7633 409.4969 -131.6087)" class="st1" width="3" height="421.3"/>
		
			<rect x="385.2" y="284.4" transform="matrix(0.7633 0.646 -0.646 0.7633 411.3142 -132.6427)" class="st1" width="3" height="421.3"/>
		
			<rect x="387.5" y="286.4" transform="matrix(0.7633 0.646 -0.646 0.7633 413.1316 -133.6767)" class="st1" width="3" height="421.3"/>
	</g>
</g>
<path d="M373,396.2c-1.6-3-5.3-16.9-6.1-19.9c0.1-0.1,0.1-0.3,0.2-0.5l4.4-27.2c0-0.2-0.1-0.5-0.3-0.6c-0.9-0.3-1.9-0.6-2.9-0.8
	c-0.1,0-0.3,0-0.4,0.1c-0.1,0.1-0.2,0.2-0.2,0.3l-4.1,25.1l-1.1-26.2c0,0,0,0,0,0c0,0,0-0.2,0-0.3c0-0.2-0.2-0.4-0.4-0.5
	c-0.7-0.2-1.5-0.3-2.3-0.5l-0.5-0.1c-0.1,0-0.3,0-0.4,0.1c-0.1,0.1-0.2,0.2-0.2,0.4l1.1,29.9c0,0.1,0,0.2,0.1,0.4c0,0,0,0,0,0
	c0,31.8-18.6,49.2-26.5,55.2l-32.3,0.9c-6.4-8.9-25.8-37.9-25.1-59.7c0-0.1,0-0.1,0-0.1l1-26.4c0-0.2-0.1-0.3-0.2-0.4
	c-0.1-0.1-0.3-0.1-0.5-0.1c-0.6,0.2-1.3,0.5-1.9,0.7l-1.1,0.4c-0.2,0.1-0.3,0.2-0.3,0.5l-1,24.8h-0.2l-5.3-22c0-0.1-0.1-0.3-0.3-0.3
	c-0.1-0.1-0.3-0.1-0.4,0c-0.9,0.4-1.9,0.8-2.8,1.2c-0.2,0.1-0.3,0.3-0.3,0.6l5.1,21.1c-1,2.6-10.6,26.7-14.8,39.8
	c-3.2,10-2,21.3,3.2,30.1c3.1,5.3,7.2,8.8,11.3,9.6c1.5,0.3,5,0.9,9.4,0.9c3.5,0,7.6-0.4,11.5-1.7c9.4-3.2,14.6-15.2,14.8-15.7
	l26.6-0.7c0.7,2,4.6,11.5,16.1,16c2.6,1,6,1.5,9.6,1.5c9.1,0,19.7-3.1,22.7-8.5C387.6,426.1,375.5,401.1,373,396.2z M346,449.6
	c-10.7-4.2-14.6-12.8-15.4-15.1c0-0.1-0.1-0.2-0.1-0.3c0.1-0.1,0.2-0.2,0.4-0.3c0.2-0.1,0.5-0.3,0.8-0.5c0.5-0.3,1.1-0.8,1.9-1.3
	c0.2-0.2,0.5-0.3,0.7-0.5c0.2-0.2,0.4-0.3,0.7-0.5c2.9-2.3,6.7-5.7,10.5-10.4c6.8-8.5,14.9-22.8,15.3-43.5c0-0.2,0-0.4,0-0.6
	c0-0.1,0-0.1,0-0.2h0.7h0.4h0.9h0.5h0.1h0.5h0.8h0.9h0.3c0,0.1,0.1,0.2,0.1,0.3c0,0.2,0.1,0.3,0.1,0.5c1.1,4,4.4,16.5,6,19.4
	c2.5,4.8,14.4,29.3,4.9,46.4C373.4,449.7,355.7,453.4,346,449.6z M267.5,450.8c-3.8-0.8-7.7-4.1-10.7-9.1
	c-3.9-6.6-6.7-17.8-3.1-29.3c3.8-12.1,12.3-33.6,14.4-38.8c0.1-0.2,0.2-0.4,0.2-0.5c0-0.1,0.1-0.2,0.1-0.3h0.3h1.7h0.6h0.5h0.3h0.5
	h0.6h1.6h0.2c0,0.2,0,0.4,0,0.6c0,0.2,0,0.4,0,0.6c0.2,21.5,18.3,48.9,24.9,58.2c0.1,0.2,0.2,0.3,0.3,0.5c0.1,0.2,0.2,0.3,0.4,0.5
	c0.4,0.5,0.7,0.9,0.9,1.2c0.1,0.2,0.3,0.4,0.4,0.5c0.1,0.1,0.2,0.2,0.3,0.3c0,0-0.1,0.1-0.1,0.2c-1,2.1-6,12-14,14.7
	C279.3,452.9,270.1,451.3,267.5,450.8z M265.4,350.5l5.1,21.2h-2.1l-4.9-20.4C264.1,351.1,264.7,350.8,265.4,350.5z M275.7,346.5
	l-1,25.2h-2l0.9-24.4l0.8-0.3C274.9,346.8,275.3,346.7,275.7,346.5z M302.5,434.3c-0.2-0.3-0.5-0.7-0.9-1.2l30.2-0.8
	c-1.1,0.7-1.8,1.2-2,1.3L302.5,434.3z M370.4,349l-4.3,26.4h-2c0,0,0,0,0-0.1l4.4-26.9C369.2,348.6,369.8,348.8,370.4,349z
	 M362.6,375.4h-2l-1.1-29.1c0.6,0.1,1.2,0.3,1.8,0.4L362.6,375.4C362.6,375.4,362.6,375.4,362.6,375.4z"/>
</svg>
